<?xml version="1.0" encoding="UTF-8" standalone="no"?><svg xmlns="http://www.w3.org/2000/svg" xmlns:xlink="http://www.w3.org/1999/xlink" contentStyleType="text/css" height="479px" preserveAspectRatio="none" style="width:3118px;height:479px;background:#FFFFFF;" version="1.1" viewBox="0 0 3118 479" width="3118px" zoomAndPan="magnify"><defs/><g><!--MD5=[f523d4665f60c2d1945a60d21a66a033]
cluster gtree--><g id="cluster_gtree"><path d="M138.5,113 L183.5,113 A3.75,3.75 0 0 1 186,115.5 L193,135.2969 L3108.5,135.2969 A2.5,2.5 0 0 1 3111,137.7969 L3111,469.5 A2.5,2.5 0 0 1 3108.5,472 L138.5,472 A2.5,2.5 0 0 1 136,469.5 L136,115.5 A2.5,2.5 0 0 1 138.5,113 " fill="none" style="stroke:#000000;stroke-width:1.5;"/><line style="stroke:#000000;stroke-width:1.5;" x1="136" x2="193" y1="135.2969" y2="135.2969"/><text fill="#000000" font-family="sans-serif" font-size="14" font-weight="bold" lengthAdjust="spacing" textLength="44" x="140" y="127.9951">gtree</text></g><!--MD5=[f9f5e47277aa1cf362235c24d633d021]
cluster sync--><g id="cluster_sync"><path d="M8.5,205 L44.5,205 A3.75,3.75 0 0 1 47,207.5 L54,227.2969 L109.5,227.2969 A2.5,2.5 0 0 1 112,229.7969 L112,285.5 A2.5,2.5 0 0 1 109.5,288 L8.5,288 A2.5,2.5 0 0 1 6,285.5 L6,207.5 A2.5,2.5 0 0 1 8.5,205 " fill="none" style="stroke:#000000;stroke-width:1.5;"/><line style="stroke:#000000;stroke-width:1.5;" x1="6" x2="54" y1="227.2969" y2="227.2969"/><text fill="#000000" font-family="sans-serif" font-size="14" font-weight="bold" lengthAdjust="spacing" textLength="35" x="10" y="219.9951">sync</text></g><!--MD5=[857233cdc7018b1e8695fe78ce49561f]
cluster __builtin__--><g id="cluster___builtin__"><path d="M2113.5,6 L2166.5,6 A3.75,3.75 0 0 1 2169,8.5 L2176,28.2969 L2190.5,28.2969 A2.5,2.5 0 0 1 2193,30.7969 L2193,86.5 A2.5,2.5 0 0 1 2190.5,89 L2113.5,89 A2.5,2.5 0 0 1 2111,86.5 L2111,8.5 A2.5,2.5 0 0 1 2113.5,6 " fill="none" style="stroke:#000000;stroke-width:1.5;"/><line style="stroke:#000000;stroke-width:1.5;" x1="2111" x2="2176" y1="28.2969" y2="28.2969"/><text fill="#000000" font-family="sans-serif" font-size="14" font-weight="bold" lengthAdjust="spacing" text-decoration="underline" textLength="52" x="2115" y="20.9951">builtin</text></g><!--MD5=[a61b9ed84bf2875371bc6bf2a2be554e]
class gtree.Node--><g id="elem_gtree.Node"><rect codeLine="2" fill="#F1F1F1" height="32" id="gtree.Node" rx="2.5" ry="2.5" style="stroke:#181818;stroke-width:0.5;" width="69" x="2485.5" y="148"/><ellipse cx="2500.5" cy="164" fill="#7FFFD4" rx="11" ry="11" style="stroke:#181818;stroke-width:1.0;"/><path d="M2499.9844,164.5625 Q2498.125,163.8594 2497.4688,163.0938 Q2496.8281,162.3125 2496.8281,161 Q2496.8281,159.3125 2497.9063,158.3438 Q2498.9844,157.375 2500.8594,157.375 Q2501.7188,157.375 2502.5625,157.5781 Q2503.4219,157.7656 2504.2656,158.1563 L2504.2656,160.5469 Q2503.4844,159.9844 2502.6563,159.7031 Q2501.8438,159.4063 2501.0469,159.4063 Q2500.1719,159.4063 2499.6875,159.7656 Q2499.2188,160.125 2499.2188,160.7813 Q2499.2188,161.2969 2499.5625,161.6406 Q2499.9063,161.9688 2501,162.375 L2502.0625,162.7813 Q2503.5469,163.3281 2504.25,164.2344 Q2504.9688,165.1406 2504.9688,166.5156 Q2504.9688,168.3906 2503.8594,169.3125 Q2502.75,170.2344 2500.5,170.2344 Q2499.5781,170.2344 2498.6563,170.0156 Q2497.7344,169.7969 2496.875,169.375 L2496.875,166.8438 Q2497.8438,167.5313 2498.7656,167.875 Q2499.6875,168.2188 2500.5781,168.2188 Q2501.4844,168.2188 2501.9844,167.8125 Q2502.4844,167.3906 2502.4844,166.6563 Q2502.4844,166.0938 2502.1406,165.6875 Q2501.8125,165.2656 2501.1875,165.0156 L2499.9844,164.5625 Z " fill="#000000"/><text fill="#000000" font-family="sans-serif" font-size="14" lengthAdjust="spacing" textLength="37" x="2514.5" y="168.8467">Node</text></g><!--MD5=[5a449540dd242248c36637cbc53badf6]
class gtree.branch--><g id="elem_gtree.branch"><rect codeLine="30" fill="#F1F1F1" height="32" id="gtree.branch" rx="2.5" ry="2.5" style="stroke:#181818;stroke-width:0.5;" width="82" x="2590" y="148"/><ellipse cx="2605" cy="164" fill="#7FFFD4" rx="11" ry="11" style="stroke:#181818;stroke-width:1.0;"/><path d="M2604.4844,164.5625 Q2602.625,163.8594 2601.9688,163.0938 Q2601.3281,162.3125 2601.3281,161 Q2601.3281,159.3125 2602.4063,158.3438 Q2603.4844,157.375 2605.3594,157.375 Q2606.2188,157.375 2607.0625,157.5781 Q2607.9219,157.7656 2608.7656,158.1563 L2608.7656,160.5469 Q2607.9844,159.9844 2607.1563,159.7031 Q2606.3438,159.4063 2605.5469,159.4063 Q2604.6719,159.4063 2604.1875,159.7656 Q2603.7188,160.125 2603.7188,160.7813 Q2603.7188,161.2969 2604.0625,161.6406 Q2604.4063,161.9688 2605.5,162.375 L2606.5625,162.7813 Q2608.0469,163.3281 2608.75,164.2344 Q2609.4688,165.1406 2609.4688,166.5156 Q2609.4688,168.3906 2608.3594,169.3125 Q2607.25,170.2344 2605,170.2344 Q2604.0781,170.2344 2603.1563,170.0156 Q2602.2344,169.7969 2601.375,169.375 L2601.375,166.8438 Q2602.3438,167.5313 2603.2656,167.875 Q2604.1875,168.2188 2605.0781,168.2188 Q2605.9844,168.2188 2606.4844,167.8125 Q2606.9844,167.3906 2606.9844,166.6563 Q2606.9844,166.0938 2606.6406,165.6875 Q2606.3125,165.2656 2605.6875,165.0156 L2604.4844,164.5625 Z " fill="#000000"/><text fill="#000000" font-family="sans-serif" font-size="14" lengthAdjust="spacing" textLength="50" x="2619" y="168.8467">branch</text></g><!--MD5=[0b2cabb51edf09577e37826ed68ec759]
class gtree.branchFormat--><g id="elem_gtree.branchFormat"><rect codeLine="35" fill="#F1F1F1" height="32" id="gtree.branchFormat" rx="2.5" ry="2.5" style="stroke:#181818;stroke-width:0.5;" width="133" x="2707.5" y="148"/><ellipse cx="2722.5" cy="164" fill="#7FFFD4" rx="11" ry="11" style="stroke:#181818;stroke-width:1.0;"/><path d="M2721.9844,164.5625 Q2720.125,163.8594 2719.4688,163.0938 Q2718.8281,162.3125 2718.8281,161 Q2718.8281,159.3125 2719.9063,158.3438 Q2720.9844,157.375 2722.8594,157.375 Q2723.7188,157.375 2724.5625,157.5781 Q2725.4219,157.7656 2726.2656,158.1563 L2726.2656,160.5469 Q2725.4844,159.9844 2724.6563,159.7031 Q2723.8438,159.4063 2723.0469,159.4063 Q2722.1719,159.4063 2721.6875,159.7656 Q2721.2188,160.125 2721.2188,160.7813 Q2721.2188,161.2969 2721.5625,161.6406 Q2721.9063,161.9688 2723,162.375 L2724.0625,162.7813 Q2725.5469,163.3281 2726.25,164.2344 Q2726.9688,165.1406 2726.9688,166.5156 Q2726.9688,168.3906 2725.8594,169.3125 Q2724.75,170.2344 2722.5,170.2344 Q2721.5781,170.2344 2720.6563,170.0156 Q2719.7344,169.7969 2718.875,169.375 L2718.875,166.8438 Q2719.8438,167.5313 2720.7656,167.875 Q2721.6875,168.2188 2722.5781,168.2188 Q2723.4844,168.2188 2723.9844,167.8125 Q2724.4844,167.3906 2724.4844,166.6563 Q2724.4844,166.0938 2724.1406,165.6875 Q2723.8125,165.2656 2723.1875,165.0156 L2721.9844,164.5625 Z " fill="#000000"/><text fill="#000000" font-family="sans-serif" font-size="14" lengthAdjust="spacing" textLength="101" x="2736.5" y="168.8467">branchFormat</text></g><!--MD5=[38060ecad2798838157451d3ba30d88b]
class gtree.colorizeSpreaderPipeline--><g id="elem_gtree.colorizeSpreaderPipeline"><rect codeLine="39" fill="#F1F1F1" height="32" id="gtree.colorizeSpreaderPipeline" rx="2.5" ry="2.5" style="stroke:#181818;stroke-width:0.5;" width="210" x="955" y="424"/><ellipse cx="970" cy="440" fill="#7FFFD4" rx="11" ry="11" style="stroke:#181818;stroke-width:1.0;"/><path d="M969.4844,440.5625 Q967.625,439.8594 966.9688,439.0938 Q966.3281,438.3125 966.3281,437 Q966.3281,435.3125 967.4063,434.3438 Q968.4844,433.375 970.3594,433.375 Q971.2188,433.375 972.0625,433.5781 Q972.9219,433.7656 973.7656,434.1563 L973.7656,436.5469 Q972.9844,435.9844 972.1563,435.7031 Q971.3438,435.4063 970.5469,435.4063 Q969.6719,435.4063 969.1875,435.7656 Q968.7188,436.125 968.7188,436.7813 Q968.7188,437.2969 969.0625,437.6406 Q969.4063,437.9688 970.5,438.375 L971.5625,438.7813 Q973.0469,439.3281 973.75,440.2344 Q974.4688,441.1406 974.4688,442.5156 Q974.4688,444.3906 973.3594,445.3125 Q972.25,446.2344 970,446.2344 Q969.0781,446.2344 968.1563,446.0156 Q967.2344,445.7969 966.375,445.375 L966.375,442.8438 Q967.3438,443.5313 968.2656,443.875 Q969.1875,444.2188 970.0781,444.2188 Q970.9844,444.2188 971.4844,443.8125 Q971.9844,443.3906 971.9844,442.6563 Q971.9844,442.0938 971.6406,441.6875 Q971.3125,441.2656 970.6875,441.0156 L969.4844,440.5625 Z " fill="#000000"/><text fill="#000000" font-family="sans-serif" font-size="14" lengthAdjust="spacing" textLength="178" x="984" y="444.8467">colorizeSpreaderPipeline</text></g><!--MD5=[95fd347abf165423d1d2df2dc9a061c7]
class gtree.colorizeSpreaderSimple--><g id="elem_gtree.colorizeSpreaderSimple"><rect codeLine="43" fill="#F1F1F1" height="32" id="gtree.colorizeSpreaderSimple" rx="2.5" ry="2.5" style="stroke:#181818;stroke-width:0.5;" width="203" x="777.5" y="332"/><ellipse cx="792.5" cy="348" fill="#7FFFD4" rx="11" ry="11" style="stroke:#181818;stroke-width:1.0;"/><path d="M791.9844,348.5625 Q790.125,347.8594 789.4688,347.0938 Q788.8281,346.3125 788.8281,345 Q788.8281,343.3125 789.9063,342.3438 Q790.9844,341.375 792.8594,341.375 Q793.7188,341.375 794.5625,341.5781 Q795.4219,341.7656 796.2656,342.1563 L796.2656,344.5469 Q795.4844,343.9844 794.6563,343.7031 Q793.8438,343.4063 793.0469,343.4063 Q792.1719,343.4063 791.6875,343.7656 Q791.2188,344.125 791.2188,344.7813 Q791.2188,345.2969 791.5625,345.6406 Q791.9063,345.9688 793,346.375 L794.0625,346.7813 Q795.5469,347.3281 796.25,348.2344 Q796.9688,349.1406 796.9688,350.5156 Q796.9688,352.3906 795.8594,353.3125 Q794.75,354.2344 792.5,354.2344 Q791.5781,354.2344 790.6563,354.0156 Q789.7344,353.7969 788.875,353.375 L788.875,350.8438 Q789.8438,351.5313 790.7656,351.875 Q791.6875,352.2188 792.5781,352.2188 Q793.4844,352.2188 793.9844,351.8125 Q794.4844,351.3906 794.4844,350.6563 Q794.4844,350.0938 794.1406,349.6875 Q793.8125,349.2656 793.1875,349.0156 L791.9844,348.5625 Z " fill="#000000"/><text fill="#000000" font-family="sans-serif" font-size="14" lengthAdjust="spacing" textLength="171" x="806.5" y="352.8467">colorizeSpreaderSimple</text></g><!--MD5=[b2112af791478750f6bb67789c4a273a]
class gtree.config--><g id="elem_gtree.config"><rect codeLine="56" fill="#F1F1F1" height="32" id="gtree.config" rx="2.5" ry="2.5" style="stroke:#181818;stroke-width:0.5;" width="76" x="2876" y="148"/><ellipse cx="2891" cy="164" fill="#7FFFD4" rx="11" ry="11" style="stroke:#181818;stroke-width:1.0;"/><path d="M2890.4844,164.5625 Q2888.625,163.8594 2887.9688,163.0938 Q2887.3281,162.3125 2887.3281,161 Q2887.3281,159.3125 2888.4063,158.3438 Q2889.4844,157.375 2891.3594,157.375 Q2892.2188,157.375 2893.0625,157.5781 Q2893.9219,157.7656 2894.7656,158.1563 L2894.7656,160.5469 Q2893.9844,159.9844 2893.1563,159.7031 Q2892.3438,159.4063 2891.5469,159.4063 Q2890.6719,159.4063 2890.1875,159.7656 Q2889.7188,160.125 2889.7188,160.7813 Q2889.7188,161.2969 2890.0625,161.6406 Q2890.4063,161.9688 2891.5,162.375 L2892.5625,162.7813 Q2894.0469,163.3281 2894.75,164.2344 Q2895.4688,165.1406 2895.4688,166.5156 Q2895.4688,168.3906 2894.3594,169.3125 Q2893.25,170.2344 2891,170.2344 Q2890.0781,170.2344 2889.1563,170.0156 Q2888.2344,169.7969 2887.375,169.375 L2887.375,166.8438 Q2888.3438,167.5313 2889.2656,167.875 Q2890.1875,168.2188 2891.0781,168.2188 Q2891.9844,168.2188 2892.4844,167.8125 Q2892.9844,167.3906 2892.9844,166.6563 Q2892.9844,166.0938 2892.6406,165.6875 Q2892.3125,165.2656 2891.6875,165.0156 L2890.4844,164.5625 Z " fill="#000000"/><text fill="#000000" font-family="sans-serif" font-size="14" lengthAdjust="spacing" textLength="44" x="2905" y="168.8467">config</text></g><!--MD5=[026a6169210a4b2349ecee86eb07d237]
class gtree.counter--><g id="elem_gtree.counter"><rect codeLine="67" fill="#F1F1F1" height="32" id="gtree.counter" rx="2.5" ry="2.5" style="stroke:#181818;stroke-width:0.5;" width="87" x="2476.5" y="240"/><ellipse cx="2491.5" cy="256" fill="#7FFFD4" rx="11" ry="11" style="stroke:#181818;stroke-width:1.0;"/><path d="M2490.9844,256.5625 Q2489.125,255.8594 2488.4688,255.0938 Q2487.8281,254.3125 2487.8281,253 Q2487.8281,251.3125 2488.9063,250.3438 Q2489.9844,249.375 2491.8594,249.375 Q2492.7188,249.375 2493.5625,249.5781 Q2494.4219,249.7656 2495.2656,250.1563 L2495.2656,252.5469 Q2494.4844,251.9844 2493.6563,251.7031 Q2492.8438,251.4063 2492.0469,251.4063 Q2491.1719,251.4063 2490.6875,251.7656 Q2490.2188,252.125 2490.2188,252.7813 Q2490.2188,253.2969 2490.5625,253.6406 Q2490.9063,253.9688 2492,254.375 L2493.0625,254.7813 Q2494.5469,255.3281 2495.25,256.2344 Q2495.9688,257.1406 2495.9688,258.5156 Q2495.9688,260.3906 2494.8594,261.3125 Q2493.75,262.2344 2491.5,262.2344 Q2490.5781,262.2344 2489.6563,262.0156 Q2488.7344,261.7969 2487.875,261.375 L2487.875,258.8438 Q2488.8438,259.5313 2489.7656,259.875 Q2490.6875,260.2188 2491.5781,260.2188 Q2492.4844,260.2188 2492.9844,259.8125 Q2493.4844,259.3906 2493.4844,258.6563 Q2493.4844,258.0938 2493.1406,257.6875 Q2492.8125,257.2656 2492.1875,257.0156 L2490.9844,256.5625 Z " fill="#000000"/><text fill="#000000" font-family="sans-serif" font-size="14" lengthAdjust="spacing" textLength="55" x="2505.5" y="260.8467">counter</text></g><!--MD5=[08f5916a8a87fad3194747f94426301c]
class gtree.defaultGrowerPipeline--><g id="elem_gtree.defaultGrowerPipeline"><rect codeLine="76" fill="#F1F1F1" height="32" id="gtree.defaultGrowerPipeline" rx="2.5" ry="2.5" style="stroke:#181818;stroke-width:0.5;" width="190" x="1949" y="332"/><ellipse cx="1964" cy="348" fill="#7FFFD4" rx="11" ry="11" style="stroke:#181818;stroke-width:1.0;"/><path d="M1963.4844,348.5625 Q1961.625,347.8594 1960.9688,347.0938 Q1960.3281,346.3125 1960.3281,345 Q1960.3281,343.3125 1961.4063,342.3438 Q1962.4844,341.375 1964.3594,341.375 Q1965.2188,341.375 1966.0625,341.5781 Q1966.9219,341.7656 1967.7656,342.1563 L1967.7656,344.5469 Q1966.9844,343.9844 1966.1563,343.7031 Q1965.3438,343.4063 1964.5469,343.4063 Q1963.6719,343.4063 1963.1875,343.7656 Q1962.7188,344.125 1962.7188,344.7813 Q1962.7188,345.2969 1963.0625,345.6406 Q1963.4063,345.9688 1964.5,346.375 L1965.5625,346.7813 Q1967.0469,347.3281 1967.75,348.2344 Q1968.4688,349.1406 1968.4688,350.5156 Q1968.4688,352.3906 1967.3594,353.3125 Q1966.25,354.2344 1964,354.2344 Q1963.0781,354.2344 1962.1563,354.0156 Q1961.2344,353.7969 1960.375,353.375 L1960.375,350.8438 Q1961.3438,351.5313 1962.2656,351.875 Q1963.1875,352.2188 1964.0781,352.2188 Q1964.9844,352.2188 1965.4844,351.8125 Q1965.9844,351.3906 1965.9844,350.6563 Q1965.9844,350.0938 1965.6406,349.6875 Q1965.3125,349.2656 1964.6875,349.0156 L1963.4844,348.5625 Z " fill="#000000"/><text fill="#000000" font-family="sans-serif" font-size="14" lengthAdjust="spacing" textLength="158" x="1978" y="352.8467">defaultGrowerPipeline</text></g><!--MD5=[a2be2fef63b1c53ecefca6d39b5438e2]
class gtree.defaultGrowerSimple--><g id="elem_gtree.defaultGrowerSimple"><rect codeLine="81" fill="#F1F1F1" height="32" id="gtree.defaultGrowerSimple" rx="2.5" ry="2.5" style="stroke:#181818;stroke-width:0.5;" width="183" x="2062.5" y="240"/><ellipse cx="2077.5" cy="256" fill="#7FFFD4" rx="11" ry="11" style="stroke:#181818;stroke-width:1.0;"/><path d="M2076.9844,256.5625 Q2075.125,255.8594 2074.4688,255.0938 Q2073.8281,254.3125 2073.8281,253 Q2073.8281,251.3125 2074.9063,250.3438 Q2075.9844,249.375 2077.8594,249.375 Q2078.7188,249.375 2079.5625,249.5781 Q2080.4219,249.7656 2081.2656,250.1563 L2081.2656,252.5469 Q2080.4844,251.9844 2079.6563,251.7031 Q2078.8438,251.4063 2078.0469,251.4063 Q2077.1719,251.4063 2076.6875,251.7656 Q2076.2188,252.125 2076.2188,252.7813 Q2076.2188,253.2969 2076.5625,253.6406 Q2076.9063,253.9688 2078,254.375 L2079.0625,254.7813 Q2080.5469,255.3281 2081.25,256.2344 Q2081.9688,257.1406 2081.9688,258.5156 Q2081.9688,260.3906 2080.8594,261.3125 Q2079.75,262.2344 2077.5,262.2344 Q2076.5781,262.2344 2075.6563,262.0156 Q2074.7344,261.7969 2073.875,261.375 L2073.875,258.8438 Q2074.8438,259.5313 2075.7656,259.875 Q2076.6875,260.2188 2077.5781,260.2188 Q2078.4844,260.2188 2078.9844,259.8125 Q2079.4844,259.3906 2079.4844,258.6563 Q2079.4844,258.0938 2079.1406,257.6875 Q2078.8125,257.2656 2078.1875,257.0156 L2076.9844,256.5625 Z " fill="#000000"/><text fill="#000000" font-family="sans-serif" font-size="14" lengthAdjust="spacing" textLength="151" x="2091.5" y="260.8467">defaultGrowerSimple</text></g><!--MD5=[0175b5459c57f99d95f33dac4767e445]
class gtree.defaultMkdirerPipeline--><g id="elem_gtree.defaultMkdirerPipeline"><rect codeLine="95" fill="#F1F1F1" height="32" id="gtree.defaultMkdirerPipeline" rx="2.5" ry="2.5" style="stroke:#181818;stroke-width:0.5;" width="192" x="1719" y="332"/><ellipse cx="1734" cy="348" fill="#7FFFD4" rx="11" ry="11" style="stroke:#181818;stroke-width:1.0;"/><path d="M1733.4844,348.5625 Q1731.625,347.8594 1730.9688,347.0938 Q1730.3281,346.3125 1730.3281,345 Q1730.3281,343.3125 1731.4063,342.3438 Q1732.4844,341.375 1734.3594,341.375 Q1735.2188,341.375 1736.0625,341.5781 Q1736.9219,341.7656 1737.7656,342.1563 L1737.7656,344.5469 Q1736.9844,343.9844 1736.1563,343.7031 Q1735.3438,343.4063 1734.5469,343.4063 Q1733.6719,343.4063 1733.1875,343.7656 Q1732.7188,344.125 1732.7188,344.7813 Q1732.7188,345.2969 1733.0625,345.6406 Q1733.4063,345.9688 1734.5,346.375 L1735.5625,346.7813 Q1737.0469,347.3281 1737.75,348.2344 Q1738.4688,349.1406 1738.4688,350.5156 Q1738.4688,352.3906 1737.3594,353.3125 Q1736.25,354.2344 1734,354.2344 Q1733.0781,354.2344 1732.1563,354.0156 Q1731.2344,353.7969 1730.375,353.375 L1730.375,350.8438 Q1731.3438,351.5313 1732.2656,351.875 Q1733.1875,352.2188 1734.0781,352.2188 Q1734.9844,352.2188 1735.4844,351.8125 Q1735.9844,351.3906 1735.9844,350.6563 Q1735.9844,350.0938 1735.6406,349.6875 Q1735.3125,349.2656 1734.6875,349.0156 L1733.4844,348.5625 Z " fill="#000000"/><text fill="#000000" font-family="sans-serif" font-size="14" lengthAdjust="spacing" textLength="160" x="1748" y="352.8467">defaultMkdirerPipeline</text></g><!--MD5=[2e10154fbfc97053e1dd9decf5814441]
class gtree.defaultMkdirerSimple--><g id="elem_gtree.defaultMkdirerSimple"><rect codeLine="100" fill="#F1F1F1" height="32" id="gtree.defaultMkdirerSimple" rx="2.5" ry="2.5" style="stroke:#181818;stroke-width:0.5;" width="185" x="1842.5" y="240"/><ellipse cx="1857.5" cy="256" fill="#7FFFD4" rx="11" ry="11" style="stroke:#181818;stroke-width:1.0;"/><path d="M1856.9844,256.5625 Q1855.125,255.8594 1854.4688,255.0938 Q1853.8281,254.3125 1853.8281,253 Q1853.8281,251.3125 1854.9063,250.3438 Q1855.9844,249.375 1857.8594,249.375 Q1858.7188,249.375 1859.5625,249.5781 Q1860.4219,249.7656 1861.2656,250.1563 L1861.2656,252.5469 Q1860.4844,251.9844 1859.6563,251.7031 Q1858.8438,251.4063 1858.0469,251.4063 Q1857.1719,251.4063 1856.6875,251.7656 Q1856.2188,252.125 1856.2188,252.7813 Q1856.2188,253.2969 1856.5625,253.6406 Q1856.9063,253.9688 1858,254.375 L1859.0625,254.7813 Q1860.5469,255.3281 1861.25,256.2344 Q1861.9688,257.1406 1861.9688,258.5156 Q1861.9688,260.3906 1860.8594,261.3125 Q1859.75,262.2344 1857.5,262.2344 Q1856.5781,262.2344 1855.6563,262.0156 Q1854.7344,261.7969 1853.875,261.375 L1853.875,258.8438 Q1854.8438,259.5313 1855.7656,259.875 Q1856.6875,260.2188 1857.5781,260.2188 Q1858.4844,260.2188 1858.9844,259.8125 Q1859.4844,259.3906 1859.4844,258.6563 Q1859.4844,258.0938 1859.1406,257.6875 Q1858.8125,257.2656 1858.1875,257.0156 L1856.9844,256.5625 Z " fill="#000000"/><text fill="#000000" font-family="sans-serif" font-size="14" lengthAdjust="spacing" textLength="153" x="1871.5" y="260.8467">defaultMkdirerSimple</text></g><!--MD5=[8d21557af39944907500f3704b980d13]
class gtree.defaultSpreaderPipeline--><g id="elem_gtree.defaultSpreaderPipeline"><rect codeLine="110" fill="#F1F1F1" height="32" id="gtree.defaultSpreaderPipeline" rx="2.5" ry="2.5" style="stroke:#181818;stroke-width:0.5;" width="204" x="538" y="332"/><ellipse cx="553" cy="348" fill="#7FFFD4" rx="11" ry="11" style="stroke:#181818;stroke-width:1.0;"/><path d="M552.4844,348.5625 Q550.625,347.8594 549.9688,347.0938 Q549.3281,346.3125 549.3281,345 Q549.3281,343.3125 550.4063,342.3438 Q551.4844,341.375 553.3594,341.375 Q554.2188,341.375 555.0625,341.5781 Q555.9219,341.7656 556.7656,342.1563 L556.7656,344.5469 Q555.9844,343.9844 555.1563,343.7031 Q554.3438,343.4063 553.5469,343.4063 Q552.6719,343.4063 552.1875,343.7656 Q551.7188,344.125 551.7188,344.7813 Q551.7188,345.2969 552.0625,345.6406 Q552.4063,345.9688 553.5,346.375 L554.5625,346.7813 Q556.0469,347.3281 556.75,348.2344 Q557.4688,349.1406 557.4688,350.5156 Q557.4688,352.3906 556.3594,353.3125 Q555.25,354.2344 553,354.2344 Q552.0781,354.2344 551.1563,354.0156 Q550.2344,353.7969 549.375,353.375 L549.375,350.8438 Q550.3438,351.5313 551.2656,351.875 Q552.1875,352.2188 553.0781,352.2188 Q553.9844,352.2188 554.4844,351.8125 Q554.9844,351.3906 554.9844,350.6563 Q554.9844,350.0938 554.6406,349.6875 Q554.3125,349.2656 553.6875,349.0156 L552.4844,348.5625 Z " fill="#000000"/><text fill="#000000" font-family="sans-serif" font-size="14" lengthAdjust="spacing" textLength="172" x="567" y="352.8467">defaultSpreaderPipeline</text></g><!--MD5=[f33b9369486623d0e9773877608a377f]
class gtree.defaultSpreaderSimple--><g id="elem_gtree.defaultSpreaderSimple"><rect codeLine="115" fill="#F1F1F1" height="32" id="gtree.defaultSpreaderSimple" rx="2.5" ry="2.5" style="stroke:#181818;stroke-width:0.5;" width="197" x="780.5" y="240"/><ellipse cx="795.5" cy="256" fill="#7FFFD4" rx="11" ry="11" style="stroke:#181818;stroke-width:1.0;"/><path d="M794.9844,256.5625 Q793.125,255.8594 792.4688,255.0938 Q791.8281,254.3125 791.8281,253 Q791.8281,251.3125 792.9063,250.3438 Q793.9844,249.375 795.8594,249.375 Q796.7188,249.375 797.5625,249.5781 Q798.4219,249.7656 799.2656,250.1563 L799.2656,252.5469 Q798.4844,251.9844 797.6563,251.7031 Q796.8438,251.4063 796.0469,251.4063 Q795.1719,251.4063 794.6875,251.7656 Q794.2188,252.125 794.2188,252.7813 Q794.2188,253.2969 794.5625,253.6406 Q794.9063,253.9688 796,254.375 L797.0625,254.7813 Q798.5469,255.3281 799.25,256.2344 Q799.9688,257.1406 799.9688,258.5156 Q799.9688,260.3906 798.8594,261.3125 Q797.75,262.2344 795.5,262.2344 Q794.5781,262.2344 793.6563,262.0156 Q792.7344,261.7969 791.875,261.375 L791.875,258.8438 Q792.8438,259.5313 793.7656,259.875 Q794.6875,260.2188 795.5781,260.2188 Q796.4844,260.2188 796.9844,259.8125 Q797.4844,259.3906 797.4844,258.6563 Q797.4844,258.0938 797.1406,257.6875 Q796.8125,257.2656 796.1875,257.0156 L794.9844,256.5625 Z " fill="#000000"/><text fill="#000000" font-family="sans-serif" font-size="14" lengthAdjust="spacing" textLength="165" x="809.5" y="260.8467">defaultSpreaderSimple</text></g><!--MD5=[485616950f9d47d495335ab682775fc6]
class gtree.fileConsiderer--><g id="elem_gtree.fileConsiderer"><rect codeLine="121" fill="#F1F1F1" height="32" id="gtree.fileConsiderer" rx="2.5" ry="2.5" style="stroke:#181818;stroke-width:0.5;" width="132" x="2599" y="240"/><ellipse cx="2614" cy="256" fill="#7FFFD4" rx="11" ry="11" style="stroke:#181818;stroke-width:1.0;"/><path d="M2613.4844,256.5625 Q2611.625,255.8594 2610.9688,255.0938 Q2610.3281,254.3125 2610.3281,253 Q2610.3281,251.3125 2611.4063,250.3438 Q2612.4844,249.375 2614.3594,249.375 Q2615.2188,249.375 2616.0625,249.5781 Q2616.9219,249.7656 2617.7656,250.1563 L2617.7656,252.5469 Q2616.9844,251.9844 2616.1563,251.7031 Q2615.3438,251.4063 2614.5469,251.4063 Q2613.6719,251.4063 2613.1875,251.7656 Q2612.7188,252.125 2612.7188,252.7813 Q2612.7188,253.2969 2613.0625,253.6406 Q2613.4063,253.9688 2614.5,254.375 L2615.5625,254.7813 Q2617.0469,255.3281 2617.75,256.2344 Q2618.4688,257.1406 2618.4688,258.5156 Q2618.4688,260.3906 2617.3594,261.3125 Q2616.25,262.2344 2614,262.2344 Q2613.0781,262.2344 2612.1563,262.0156 Q2611.2344,261.7969 2610.375,261.375 L2610.375,258.8438 Q2611.3438,259.5313 2612.2656,259.875 Q2613.1875,260.2188 2614.0781,260.2188 Q2614.9844,260.2188 2615.4844,259.8125 Q2615.9844,259.3906 2615.9844,258.6563 Q2615.9844,258.0938 2615.6406,257.6875 Q2615.3125,257.2656 2614.6875,257.0156 L2613.4844,256.5625 Z " fill="#000000"/><text fill="#000000" font-family="sans-serif" font-size="14" lengthAdjust="spacing" textLength="100" x="2628" y="260.8467">fileConsiderer</text></g><!--MD5=[0456c8cfe06223f3e473c3aaab5696b9]
class gtree.growerPipeline--><g id="elem_gtree.growerPipeline"><rect codeLine="127" fill="#F1F1F1" height="32" id="gtree.growerPipeline" rx="2.5" ry="2.5" style="stroke:#181818;stroke-width:0.5;" width="138" x="2766" y="240"/><ellipse cx="2781" cy="256" fill="#B4A7E5" rx="11" ry="11" style="stroke:#181818;stroke-width:1.0;"/><path d="M2776.9219,251.7656 L2776.9219,249.6094 L2784.3125,249.6094 L2784.3125,251.7656 L2781.8438,251.7656 L2781.8438,259.8438 L2784.3125,259.8438 L2784.3125,262 L2776.9219,262 L2776.9219,259.8438 L2779.3906,259.8438 L2779.3906,251.7656 L2776.9219,251.7656 Z " fill="#000000"/><text fill="#000000" font-family="sans-serif" font-size="14" font-style="italic" lengthAdjust="spacing" textLength="106" x="2795" y="260.8467">growerPipeline</text></g><!--MD5=[9c1437a7b7a1c896da7dcdd28927d07e]
class gtree.growerSimple--><g id="elem_gtree.growerSimple"><rect codeLine="132" fill="#F1F1F1" height="32" id="gtree.growerSimple" rx="2.5" ry="2.5" style="stroke:#181818;stroke-width:0.5;" width="131" x="2295.5" y="148"/><ellipse cx="2310.5" cy="164" fill="#B4A7E5" rx="11" ry="11" style="stroke:#181818;stroke-width:1.0;"/><path d="M2306.4219,159.7656 L2306.4219,157.6094 L2313.8125,157.6094 L2313.8125,159.7656 L2311.3438,159.7656 L2311.3438,167.8438 L2313.8125,167.8438 L2313.8125,170 L2306.4219,170 L2306.4219,167.8438 L2308.8906,167.8438 L2308.8906,159.7656 L2306.4219,159.7656 Z " fill="#000000"/><text fill="#000000" font-family="sans-serif" font-size="14" font-style="italic" lengthAdjust="spacing" textLength="99" x="2324.5" y="168.8467">growerSimple</text></g><!--MD5=[fa9b25ba97475cdd9b606c9cf224ba88]
class gtree.Option--><g id="elem_gtree.Option"><rect codeLine="137" fill="#F1F1F1" height="32" id="gtree.Option" rx="2.5" ry="2.5" style="stroke:#181818;stroke-width:0.5;" width="79" x="151.5" y="240"/><ellipse cx="166.5" cy="256" fill="#FF7700" rx="11" ry="11" style="stroke:#181818;stroke-width:1.0;"/><path d="M167.3438,262.75 L164.8906,262.75 L164.8906,252.5 L161.75,252.5 L161.75,250.3594 L170.4844,250.3594 L170.4844,252.5 L167.3438,252.5 L167.3438,262.75 Z " fill="#000000"/><text fill="#000000" font-family="sans-serif" font-size="14" lengthAdjust="spacing" textLength="47" x="180.5" y="260.8467">Option</text></g><!--MD5=[41948fe38285ddb6993c73c080145649]
class gtree.encode--><g id="elem_gtree.encode"><rect codeLine="139" fill="#F1F1F1" height="32" id="gtree.encode" rx="2.5" ry="2.5" style="stroke:#181818;stroke-width:0.5;" width="85" x="2175.5" y="148"/><ellipse cx="2190.5" cy="164" fill="#FF7700" rx="11" ry="11" style="stroke:#181818;stroke-width:1.0;"/><path d="M2191.3438,170.75 L2188.8906,170.75 L2188.8906,160.5 L2185.75,160.5 L2185.75,158.3594 L2194.4844,158.3594 L2194.4844,160.5 L2191.3438,160.5 L2191.3438,170.75 Z " fill="#000000"/><text fill="#000000" font-family="sans-serif" font-size="14" lengthAdjust="spacing" textLength="53" x="2204.5" y="168.8467">encode</text></g><!--MD5=[7d4b2d32e7d6aea5b178467ad32f154c]
class gtree.spaceType--><g id="elem_gtree.spaceType"><rect codeLine="141" fill="#F1F1F1" height="32" id="gtree.spaceType" rx="2.5" ry="2.5" style="stroke:#181818;stroke-width:0.5;" width="109" x="2031.5" y="148"/><ellipse cx="2046.5" cy="164" fill="#FF7700" rx="11" ry="11" style="stroke:#181818;stroke-width:1.0;"/><path d="M2047.3438,170.75 L2044.8906,170.75 L2044.8906,160.5 L2041.75,160.5 L2041.75,158.3594 L2050.4844,158.3594 L2050.4844,160.5 L2047.3438,160.5 L2047.3438,170.75 Z " fill="#000000"/><text fill="#000000" font-family="sans-serif" font-size="14" lengthAdjust="spacing" textLength="77" x="2060.5" y="168.8467">spaceType</text></g><!--MD5=[57efca6d9e8f3ca2a2d7f0aca272d6fa]
class gtree.inputFormatError--><g id="elem_gtree.inputFormatError"><rect codeLine="143" fill="#F1F1F1" height="32" id="gtree.inputFormatError" rx="2.5" ry="2.5" style="stroke:#181818;stroke-width:0.5;" width="155" x="2939.5" y="240"/><ellipse cx="2954.5" cy="256" fill="#7FFFD4" rx="11" ry="11" style="stroke:#181818;stroke-width:1.0;"/><path d="M2953.9844,256.5625 Q2952.125,255.8594 2951.4688,255.0938 Q2950.8281,254.3125 2950.8281,253 Q2950.8281,251.3125 2951.9063,250.3438 Q2952.9844,249.375 2954.8594,249.375 Q2955.7188,249.375 2956.5625,249.5781 Q2957.4219,249.7656 2958.2656,250.1563 L2958.2656,252.5469 Q2957.4844,251.9844 2956.6563,251.7031 Q2955.8438,251.4063 2955.0469,251.4063 Q2954.1719,251.4063 2953.6875,251.7656 Q2953.2188,252.125 2953.2188,252.7813 Q2953.2188,253.2969 2953.5625,253.6406 Q2953.9063,253.9688 2955,254.375 L2956.0625,254.7813 Q2957.5469,255.3281 2958.25,256.2344 Q2958.9688,257.1406 2958.9688,258.5156 Q2958.9688,260.3906 2957.8594,261.3125 Q2956.75,262.2344 2954.5,262.2344 Q2953.5781,262.2344 2952.6563,262.0156 Q2951.7344,261.7969 2950.875,261.375 L2950.875,258.8438 Q2951.8438,259.5313 2952.7656,259.875 Q2953.6875,260.2188 2954.5781,260.2188 Q2955.4844,260.2188 2955.9844,259.8125 Q2956.4844,259.3906 2956.4844,258.6563 Q2956.4844,258.0938 2956.1406,257.6875 Q2955.8125,257.2656 2955.1875,257.0156 L2953.9844,256.5625 Z " fill="#000000"/><text fill="#000000" font-family="sans-serif" font-size="14" lengthAdjust="spacing" textLength="123" x="2968.5" y="260.8467">inputFormatError</text></g><!--MD5=[c4a8d21900ed019c4ebc09f17e6853ec]
class gtree.jsonNode--><g id="elem_gtree.jsonNode"><rect codeLine="149" fill="#F1F1F1" height="32" id="gtree.jsonNode" rx="2.5" ry="2.5" style="stroke:#181818;stroke-width:0.5;" width="98" x="2376" y="332"/><ellipse cx="2391" cy="348" fill="#7FFFD4" rx="11" ry="11" style="stroke:#181818;stroke-width:1.0;"/><path d="M2390.4844,348.5625 Q2388.625,347.8594 2387.9688,347.0938 Q2387.3281,346.3125 2387.3281,345 Q2387.3281,343.3125 2388.4063,342.3438 Q2389.4844,341.375 2391.3594,341.375 Q2392.2188,341.375 2393.0625,341.5781 Q2393.9219,341.7656 2394.7656,342.1563 L2394.7656,344.5469 Q2393.9844,343.9844 2393.1563,343.7031 Q2392.3438,343.4063 2391.5469,343.4063 Q2390.6719,343.4063 2390.1875,343.7656 Q2389.7188,344.125 2389.7188,344.7813 Q2389.7188,345.2969 2390.0625,345.6406 Q2390.4063,345.9688 2391.5,346.375 L2392.5625,346.7813 Q2394.0469,347.3281 2394.75,348.2344 Q2395.4688,349.1406 2395.4688,350.5156 Q2395.4688,352.3906 2394.3594,353.3125 Q2393.25,354.2344 2391,354.2344 Q2390.0781,354.2344 2389.1563,354.0156 Q2388.2344,353.7969 2387.375,353.375 L2387.375,350.8438 Q2388.3438,351.5313 2389.2656,351.875 Q2390.1875,352.2188 2391.0781,352.2188 Q2391.9844,352.2188 2392.4844,351.8125 Q2392.9844,351.3906 2392.9844,350.6563 Q2392.9844,350.0938 2392.6406,349.6875 Q2392.3125,349.2656 2391.6875,349.0156 L2390.4844,348.5625 Z " fill="#000000"/><text fill="#000000" font-family="sans-serif" font-size="14" lengthAdjust="spacing" textLength="66" x="2405" y="352.8467">jsonNode</text></g><!--MD5=[d371a5b29db8233a56282275f871f2ab]
class gtree.jsonSpreaderPipeline--><g id="elem_gtree.jsonSpreaderPipeline"><rect codeLine="154" fill="#F1F1F1" height="32" id="gtree.jsonSpreaderPipeline" rx="2.5" ry="2.5" style="stroke:#181818;stroke-width:0.5;" width="183" x="1277.5" y="332"/><ellipse cx="1292.5" cy="348" fill="#7FFFD4" rx="11" ry="11" style="stroke:#181818;stroke-width:1.0;"/><path d="M1291.9844,348.5625 Q1290.125,347.8594 1289.4688,347.0938 Q1288.8281,346.3125 1288.8281,345 Q1288.8281,343.3125 1289.9063,342.3438 Q1290.9844,341.375 1292.8594,341.375 Q1293.7188,341.375 1294.5625,341.5781 Q1295.4219,341.7656 1296.2656,342.1563 L1296.2656,344.5469 Q1295.4844,343.9844 1294.6563,343.7031 Q1293.8438,343.4063 1293.0469,343.4063 Q1292.1719,343.4063 1291.6875,343.7656 Q1291.2188,344.125 1291.2188,344.7813 Q1291.2188,345.2969 1291.5625,345.6406 Q1291.9063,345.9688 1293,346.375 L1294.0625,346.7813 Q1295.5469,347.3281 1296.25,348.2344 Q1296.9688,349.1406 1296.9688,350.5156 Q1296.9688,352.3906 1295.8594,353.3125 Q1294.75,354.2344 1292.5,354.2344 Q1291.5781,354.2344 1290.6563,354.0156 Q1289.7344,353.7969 1288.875,353.375 L1288.875,350.8438 Q1289.8438,351.5313 1290.7656,351.875 Q1291.6875,352.2188 1292.5781,352.2188 Q1293.4844,352.2188 1293.9844,351.8125 Q1294.4844,351.3906 1294.4844,350.6563 Q1294.4844,350.0938 1294.1406,349.6875 Q1293.8125,349.2656 1293.1875,349.0156 L1291.9844,348.5625 Z " fill="#000000"/><text fill="#000000" font-family="sans-serif" font-size="14" lengthAdjust="spacing" textLength="151" x="1306.5" y="352.8467">jsonSpreaderPipeline</text></g><!--MD5=[a01e8942fc2759b8c624a2da21a7c6b2]
class gtree.jsonSpreaderSimple--><g id="elem_gtree.jsonSpreaderSimple"><rect codeLine="158" fill="#F1F1F1" height="32" id="gtree.jsonSpreaderSimple" rx="2.5" ry="2.5" style="stroke:#181818;stroke-width:0.5;" width="176" x="1237" y="240"/><ellipse cx="1252" cy="256" fill="#7FFFD4" rx="11" ry="11" style="stroke:#181818;stroke-width:1.0;"/><path d="M1251.4844,256.5625 Q1249.625,255.8594 1248.9688,255.0938 Q1248.3281,254.3125 1248.3281,253 Q1248.3281,251.3125 1249.4063,250.3438 Q1250.4844,249.375 1252.3594,249.375 Q1253.2188,249.375 1254.0625,249.5781 Q1254.9219,249.7656 1255.7656,250.1563 L1255.7656,252.5469 Q1254.9844,251.9844 1254.1563,251.7031 Q1253.3438,251.4063 1252.5469,251.4063 Q1251.6719,251.4063 1251.1875,251.7656 Q1250.7188,252.125 1250.7188,252.7813 Q1250.7188,253.2969 1251.0625,253.6406 Q1251.4063,253.9688 1252.5,254.375 L1253.5625,254.7813 Q1255.0469,255.3281 1255.75,256.2344 Q1256.4688,257.1406 1256.4688,258.5156 Q1256.4688,260.3906 1255.3594,261.3125 Q1254.25,262.2344 1252,262.2344 Q1251.0781,262.2344 1250.1563,262.0156 Q1249.2344,261.7969 1248.375,261.375 L1248.375,258.8438 Q1249.3438,259.5313 1250.2656,259.875 Q1251.1875,260.2188 1252.0781,260.2188 Q1252.9844,260.2188 1253.4844,259.8125 Q1253.9844,259.3906 1253.9844,258.6563 Q1253.9844,258.0938 1253.6406,257.6875 Q1253.3125,257.2656 1252.6875,257.0156 L1251.4844,256.5625 Z " fill="#000000"/><text fill="#000000" font-family="sans-serif" font-size="14" lengthAdjust="spacing" textLength="144" x="1266" y="260.8467">jsonSpreaderSimple</text></g><!--MD5=[3f77d241dcd3e2a00741f2c3546d0009]
class gtree.mkdirerPipeline--><g id="elem_gtree.mkdirerPipeline"><rect codeLine="162" fill="#F1F1F1" height="32" id="gtree.mkdirerPipeline" rx="2.5" ry="2.5" style="stroke:#181818;stroke-width:0.5;" width="144" x="1663" y="240"/><ellipse cx="1678" cy="256" fill="#B4A7E5" rx="11" ry="11" style="stroke:#181818;stroke-width:1.0;"/><path d="M1673.9219,251.7656 L1673.9219,249.6094 L1681.3125,249.6094 L1681.3125,251.7656 L1678.8438,251.7656 L1678.8438,259.8438 L1681.3125,259.8438 L1681.3125,262 L1673.9219,262 L1673.9219,259.8438 L1676.3906,259.8438 L1676.3906,251.7656 L1673.9219,251.7656 Z " fill="#000000"/><text fill="#000000" font-family="sans-serif" font-size="14" font-style="italic" lengthAdjust="spacing" textLength="112" x="1692" y="260.8467">mkdirerPipeline</text></g><!--MD5=[e857e5fcf9e594135aa0f91d548db0e0]
class gtree.mkdirerSimple--><g id="elem_gtree.mkdirerSimple"><rect codeLine="166" fill="#F1F1F1" height="32" id="gtree.mkdirerSimple" rx="2.5" ry="2.5" style="stroke:#181818;stroke-width:0.5;" width="137" x="1859.5" y="148"/><ellipse cx="1874.5" cy="164" fill="#B4A7E5" rx="11" ry="11" style="stroke:#181818;stroke-width:1.0;"/><path d="M1870.4219,159.7656 L1870.4219,157.6094 L1877.8125,157.6094 L1877.8125,159.7656 L1875.3438,159.7656 L1875.3438,167.8438 L1877.8125,167.8438 L1877.8125,170 L1870.4219,170 L1870.4219,167.8438 L1872.8906,167.8438 L1872.8906,159.7656 L1870.4219,159.7656 Z " fill="#000000"/><text fill="#000000" font-family="sans-serif" font-size="14" font-style="italic" lengthAdjust="spacing" textLength="105" x="1888.5" y="168.8467">mkdirerSimple</text></g><!--MD5=[d5c29c10d2808068f4ee3bf4c96a5ce4]
class gtree.nodeGenerator--><g id="elem_gtree.nodeGenerator"><rect codeLine="170" fill="#F1F1F1" height="32" id="gtree.nodeGenerator" rx="2.5" ry="2.5" style="stroke:#181818;stroke-width:0.5;" width="141" x="2509.5" y="332"/><ellipse cx="2524.5" cy="348" fill="#7FFFD4" rx="11" ry="11" style="stroke:#181818;stroke-width:1.0;"/><path d="M2523.9844,348.5625 Q2522.125,347.8594 2521.4688,347.0938 Q2520.8281,346.3125 2520.8281,345 Q2520.8281,343.3125 2521.9063,342.3438 Q2522.9844,341.375 2524.8594,341.375 Q2525.7188,341.375 2526.5625,341.5781 Q2527.4219,341.7656 2528.2656,342.1563 L2528.2656,344.5469 Q2527.4844,343.9844 2526.6563,343.7031 Q2525.8438,343.4063 2525.0469,343.4063 Q2524.1719,343.4063 2523.6875,343.7656 Q2523.2188,344.125 2523.2188,344.7813 Q2523.2188,345.2969 2523.5625,345.6406 Q2523.9063,345.9688 2525,346.375 L2526.0625,346.7813 Q2527.5469,347.3281 2528.25,348.2344 Q2528.9688,349.1406 2528.9688,350.5156 Q2528.9688,352.3906 2527.8594,353.3125 Q2526.75,354.2344 2524.5,354.2344 Q2523.5781,354.2344 2522.6563,354.0156 Q2521.7344,353.7969 2520.875,353.375 L2520.875,350.8438 Q2521.8438,351.5313 2522.7656,351.875 Q2523.6875,352.2188 2524.5781,352.2188 Q2525.4844,352.2188 2525.9844,351.8125 Q2526.4844,351.3906 2526.4844,350.6563 Q2526.4844,350.0938 2526.1406,349.6875 Q2525.8125,349.2656 2525.1875,349.0156 L2523.9844,348.5625 Z " fill="#000000"/><text fill="#000000" font-family="sans-serif" font-size="14" lengthAdjust="spacing" textLength="109" x="2538.5" y="352.8467">nodeGenerator</text></g><!--MD5=[badd535d5b1cccf9839c358e3896e699]
class gtree.nopGrowerPipeline--><g id="elem_gtree.nopGrowerPipeline"><rect codeLine="177" fill="#F1F1F1" height="32" id="gtree.nopGrowerPipeline" rx="2.5" ry="2.5" style="stroke:#181818;stroke-width:0.5;" width="167" x="2174.5" y="332"/><ellipse cx="2189.5" cy="348" fill="#7FFFD4" rx="11" ry="11" style="stroke:#181818;stroke-width:1.0;"/><path d="M2188.9844,348.5625 Q2187.125,347.8594 2186.4688,347.0938 Q2185.8281,346.3125 2185.8281,345 Q2185.8281,343.3125 2186.9063,342.3438 Q2187.9844,341.375 2189.8594,341.375 Q2190.7188,341.375 2191.5625,341.5781 Q2192.4219,341.7656 2193.2656,342.1563 L2193.2656,344.5469 Q2192.4844,343.9844 2191.6563,343.7031 Q2190.8438,343.4063 2190.0469,343.4063 Q2189.1719,343.4063 2188.6875,343.7656 Q2188.2188,344.125 2188.2188,344.7813 Q2188.2188,345.2969 2188.5625,345.6406 Q2188.9063,345.9688 2190,346.375 L2191.0625,346.7813 Q2192.5469,347.3281 2193.25,348.2344 Q2193.9688,349.1406 2193.9688,350.5156 Q2193.9688,352.3906 2192.8594,353.3125 Q2191.75,354.2344 2189.5,354.2344 Q2188.5781,354.2344 2187.6563,354.0156 Q2186.7344,353.7969 2185.875,353.375 L2185.875,350.8438 Q2186.8438,351.5313 2187.7656,351.875 Q2188.6875,352.2188 2189.5781,352.2188 Q2190.4844,352.2188 2190.9844,351.8125 Q2191.4844,351.3906 2191.4844,350.6563 Q2191.4844,350.0938 2191.1406,349.6875 Q2190.8125,349.2656 2190.1875,349.0156 L2188.9844,348.5625 Z " fill="#000000"/><text fill="#000000" font-family="sans-serif" font-size="14" lengthAdjust="spacing" textLength="135" x="2203.5" y="352.8467">nopGrowerPipeline</text></g><!--MD5=[89537c99d5a7fe35691646ae133a15af]
class gtree.nopGrowerSimple--><g id="elem_gtree.nopGrowerSimple"><rect codeLine="181" fill="#F1F1F1" height="32" id="gtree.nopGrowerSimple" rx="2.5" ry="2.5" style="stroke:#181818;stroke-width:0.5;" width="160" x="2281" y="240"/><ellipse cx="2296" cy="256" fill="#7FFFD4" rx="11" ry="11" style="stroke:#181818;stroke-width:1.0;"/><path d="M2295.4844,256.5625 Q2293.625,255.8594 2292.9688,255.0938 Q2292.3281,254.3125 2292.3281,253 Q2292.3281,251.3125 2293.4063,250.3438 Q2294.4844,249.375 2296.3594,249.375 Q2297.2188,249.375 2298.0625,249.5781 Q2298.9219,249.7656 2299.7656,250.1563 L2299.7656,252.5469 Q2298.9844,251.9844 2298.1563,251.7031 Q2297.3438,251.4063 2296.5469,251.4063 Q2295.6719,251.4063 2295.1875,251.7656 Q2294.7188,252.125 2294.7188,252.7813 Q2294.7188,253.2969 2295.0625,253.6406 Q2295.4063,253.9688 2296.5,254.375 L2297.5625,254.7813 Q2299.0469,255.3281 2299.75,256.2344 Q2300.4688,257.1406 2300.4688,258.5156 Q2300.4688,260.3906 2299.3594,261.3125 Q2298.25,262.2344 2296,262.2344 Q2295.0781,262.2344 2294.1563,262.0156 Q2293.2344,261.7969 2292.375,261.375 L2292.375,258.8438 Q2293.3438,259.5313 2294.2656,259.875 Q2295.1875,260.2188 2296.0781,260.2188 Q2296.9844,260.2188 2297.4844,259.8125 Q2297.9844,259.3906 2297.9844,258.6563 Q2297.9844,258.0938 2297.6406,257.6875 Q2297.3125,257.2656 2296.6875,257.0156 L2295.4844,256.5625 Z " fill="#000000"/><text fill="#000000" font-family="sans-serif" font-size="14" lengthAdjust="spacing" textLength="128" x="2310" y="260.8467">nopGrowerSimple</text></g><!--MD5=[1bbe36e2311b22c3d2f7b5fc940bdb5e]
class gtree.rootGeneratorPipeline--><g id="elem_gtree.rootGeneratorPipeline"><rect codeLine="186" fill="#F1F1F1" height="32" id="gtree.rootGeneratorPipeline" rx="2.5" ry="2.5" style="stroke:#181818;stroke-width:0.5;" width="190" x="2686" y="332"/><ellipse cx="2701" cy="348" fill="#7FFFD4" rx="11" ry="11" style="stroke:#181818;stroke-width:1.0;"/><path d="M2700.4844,348.5625 Q2698.625,347.8594 2697.9688,347.0938 Q2697.3281,346.3125 2697.3281,345 Q2697.3281,343.3125 2698.4063,342.3438 Q2699.4844,341.375 2701.3594,341.375 Q2702.2188,341.375 2703.0625,341.5781 Q2703.9219,341.7656 2704.7656,342.1563 L2704.7656,344.5469 Q2703.9844,343.9844 2703.1563,343.7031 Q2702.3438,343.4063 2701.5469,343.4063 Q2700.6719,343.4063 2700.1875,343.7656 Q2699.7188,344.125 2699.7188,344.7813 Q2699.7188,345.2969 2700.0625,345.6406 Q2700.4063,345.9688 2701.5,346.375 L2702.5625,346.7813 Q2704.0469,347.3281 2704.75,348.2344 Q2705.4688,349.1406 2705.4688,350.5156 Q2705.4688,352.3906 2704.3594,353.3125 Q2703.25,354.2344 2701,354.2344 Q2700.0781,354.2344 2699.1563,354.0156 Q2698.2344,353.7969 2697.375,353.375 L2697.375,350.8438 Q2698.3438,351.5313 2699.2656,351.875 Q2700.1875,352.2188 2701.0781,352.2188 Q2701.9844,352.2188 2702.4844,351.8125 Q2702.9844,351.3906 2702.9844,350.6563 Q2702.9844,350.0938 2702.6406,349.6875 Q2702.3125,349.2656 2701.6875,349.0156 L2700.4844,348.5625 Z " fill="#000000"/><text fill="#000000" font-family="sans-serif" font-size="14" lengthAdjust="spacing" textLength="158" x="2715" y="352.8467">rootGeneratorPipeline</text></g><!--MD5=[ade980f8f660712323eab42076ca60e0]
class gtree.rootGeneratorSimple--><g id="elem_gtree.rootGeneratorSimple"><rect codeLine="193" fill="#F1F1F1" height="32" id="gtree.rootGeneratorSimple" rx="2.5" ry="2.5" style="stroke:#181818;stroke-width:0.5;" width="183" x="2911.5" y="332"/><ellipse cx="2926.5" cy="348" fill="#7FFFD4" rx="11" ry="11" style="stroke:#181818;stroke-width:1.0;"/><path d="M2925.9844,348.5625 Q2924.125,347.8594 2923.4688,347.0938 Q2922.8281,346.3125 2922.8281,345 Q2922.8281,343.3125 2923.9063,342.3438 Q2924.9844,341.375 2926.8594,341.375 Q2927.7188,341.375 2928.5625,341.5781 Q2929.4219,341.7656 2930.2656,342.1563 L2930.2656,344.5469 Q2929.4844,343.9844 2928.6563,343.7031 Q2927.8438,343.4063 2927.0469,343.4063 Q2926.1719,343.4063 2925.6875,343.7656 Q2925.2188,344.125 2925.2188,344.7813 Q2925.2188,345.2969 2925.5625,345.6406 Q2925.9063,345.9688 2927,346.375 L2928.0625,346.7813 Q2929.5469,347.3281 2930.25,348.2344 Q2930.9688,349.1406 2930.9688,350.5156 Q2930.9688,352.3906 2929.8594,353.3125 Q2928.75,354.2344 2926.5,354.2344 Q2925.5781,354.2344 2924.6563,354.0156 Q2923.7344,353.7969 2922.875,353.375 L2922.875,350.8438 Q2923.8438,351.5313 2924.7656,351.875 Q2925.6875,352.2188 2926.5781,352.2188 Q2927.4844,352.2188 2927.9844,351.8125 Q2928.4844,351.3906 2928.4844,350.6563 Q2928.4844,350.0938 2928.1406,349.6875 Q2927.8125,349.2656 2927.1875,349.0156 L2925.9844,348.5625 Z " fill="#000000"/><text fill="#000000" font-family="sans-serif" font-size="14" lengthAdjust="spacing" textLength="151" x="2940.5" y="352.8467">rootGeneratorSimple</text></g><!--MD5=[fa63da776ad9ab26f2aafd4351cf561f]
class gtree.spreaderPipeline--><g id="elem_gtree.spreaderPipeline"><rect codeLine="201" fill="#F1F1F1" height="32" id="gtree.spreaderPipeline" rx="2.5" ry="2.5" style="stroke:#181818;stroke-width:0.5;" width="152" x="1050" y="240"/><ellipse cx="1065" cy="256" fill="#B4A7E5" rx="11" ry="11" style="stroke:#181818;stroke-width:1.0;"/><path d="M1060.9219,251.7656 L1060.9219,249.6094 L1068.3125,249.6094 L1068.3125,251.7656 L1065.8438,251.7656 L1065.8438,259.8438 L1068.3125,259.8438 L1068.3125,262 L1060.9219,262 L1060.9219,259.8438 L1063.3906,259.8438 L1063.3906,251.7656 L1060.9219,251.7656 Z " fill="#000000"/><text fill="#000000" font-family="sans-serif" font-size="14" font-style="italic" lengthAdjust="spacing" textLength="120" x="1079" y="260.8467">spreaderPipeline</text></g><!--MD5=[80941ee3614322553edfb722dd8df5db]
class gtree.spreaderSimple--><g id="elem_gtree.spreaderSimple"><rect codeLine="205" fill="#F1F1F1" height="32" id="gtree.spreaderSimple" rx="2.5" ry="2.5" style="stroke:#181818;stroke-width:0.5;" width="145" x="941.5" y="148"/><ellipse cx="956.5" cy="164" fill="#B4A7E5" rx="11" ry="11" style="stroke:#181818;stroke-width:1.0;"/><path d="M952.4219,159.7656 L952.4219,157.6094 L959.8125,157.6094 L959.8125,159.7656 L957.3438,159.7656 L957.3438,167.8438 L959.8125,167.8438 L959.8125,170 L952.4219,170 L952.4219,167.8438 L954.8906,167.8438 L954.8906,159.7656 L952.4219,159.7656 Z " fill="#000000"/><text fill="#000000" font-family="sans-serif" font-size="14" font-style="italic" lengthAdjust="spacing" textLength="113" x="970.5" y="168.8467">spreaderSimple</text></g><!--MD5=[7247c0ea0d94e795c0d7919698e0e054]
class gtree.stack--><g id="elem_gtree.stack"><rect codeLine="209" fill="#F1F1F1" height="32" id="gtree.stack" rx="2.5" ry="2.5" style="stroke:#181818;stroke-width:0.5;" width="69" x="2390.5" y="424"/><ellipse cx="2405.5" cy="440" fill="#7FFFD4" rx="11" ry="11" style="stroke:#181818;stroke-width:1.0;"/><path d="M2404.9844,440.5625 Q2403.125,439.8594 2402.4688,439.0938 Q2401.8281,438.3125 2401.8281,437 Q2401.8281,435.3125 2402.9063,434.3438 Q2403.9844,433.375 2405.8594,433.375 Q2406.7188,433.375 2407.5625,433.5781 Q2408.4219,433.7656 2409.2656,434.1563 L2409.2656,436.5469 Q2408.4844,435.9844 2407.6563,435.7031 Q2406.8438,435.4063 2406.0469,435.4063 Q2405.1719,435.4063 2404.6875,435.7656 Q2404.2188,436.125 2404.2188,436.7813 Q2404.2188,437.2969 2404.5625,437.6406 Q2404.9063,437.9688 2406,438.375 L2407.0625,438.7813 Q2408.5469,439.3281 2409.25,440.2344 Q2409.9688,441.1406 2409.9688,442.5156 Q2409.9688,444.3906 2408.8594,445.3125 Q2407.75,446.2344 2405.5,446.2344 Q2404.5781,446.2344 2403.6563,446.0156 Q2402.7344,445.7969 2401.875,445.375 L2401.875,442.8438 Q2402.8438,443.5313 2403.7656,443.875 Q2404.6875,444.2188 2405.5781,444.2188 Q2406.4844,444.2188 2406.9844,443.8125 Q2407.4844,443.3906 2407.4844,442.6563 Q2407.4844,442.0938 2407.1406,441.6875 Q2406.8125,441.2656 2406.1875,441.0156 L2404.9844,440.5625 Z " fill="#000000"/><text fill="#000000" font-family="sans-serif" font-size="14" lengthAdjust="spacing" textLength="37" x="2419.5" y="444.8467">stack</text></g><!--MD5=[70fe03847f8233e8b0dd267361987ddc]
class gtree.tomlNode--><g id="elem_gtree.tomlNode"><rect codeLine="218" fill="#F1F1F1" height="32" id="gtree.tomlNode" rx="2.5" ry="2.5" style="stroke:#181818;stroke-width:0.5;" width="101" x="2494.5" y="424"/><ellipse cx="2509.5" cy="440" fill="#7FFFD4" rx="11" ry="11" style="stroke:#181818;stroke-width:1.0;"/><path d="M2508.9844,440.5625 Q2507.125,439.8594 2506.4688,439.0938 Q2505.8281,438.3125 2505.8281,437 Q2505.8281,435.3125 2506.9063,434.3438 Q2507.9844,433.375 2509.8594,433.375 Q2510.7188,433.375 2511.5625,433.5781 Q2512.4219,433.7656 2513.2656,434.1563 L2513.2656,436.5469 Q2512.4844,435.9844 2511.6563,435.7031 Q2510.8438,435.4063 2510.0469,435.4063 Q2509.1719,435.4063 2508.6875,435.7656 Q2508.2188,436.125 2508.2188,436.7813 Q2508.2188,437.2969 2508.5625,437.6406 Q2508.9063,437.9688 2510,438.375 L2511.0625,438.7813 Q2512.5469,439.3281 2513.25,440.2344 Q2513.9688,441.1406 2513.9688,442.5156 Q2513.9688,444.3906 2512.8594,445.3125 Q2511.75,446.2344 2509.5,446.2344 Q2508.5781,446.2344 2507.6563,446.0156 Q2506.7344,445.7969 2505.875,445.375 L2505.875,442.8438 Q2506.8438,443.5313 2507.7656,443.875 Q2508.6875,444.2188 2509.5781,444.2188 Q2510.4844,444.2188 2510.9844,443.8125 Q2511.4844,443.3906 2511.4844,442.6563 Q2511.4844,442.0938 2511.1406,441.6875 Q2510.8125,441.2656 2510.1875,441.0156 L2508.9844,440.5625 Z " fill="#000000"/><text fill="#000000" font-family="sans-serif" font-size="14" lengthAdjust="spacing" textLength="69" x="2523.5" y="444.8467">tomlNode</text></g><!--MD5=[5b0cd1a0a50bc7ab046f153e25f6833e]
class gtree.tomlSpreaderPipeline--><g id="elem_gtree.tomlSpreaderPipeline"><rect codeLine="223" fill="#F1F1F1" height="32" id="gtree.tomlSpreaderPipeline" rx="2.5" ry="2.5" style="stroke:#181818;stroke-width:0.5;" width="186" x="1496" y="332"/><ellipse cx="1511" cy="348" fill="#7FFFD4" rx="11" ry="11" style="stroke:#181818;stroke-width:1.0;"/><path d="M1510.4844,348.5625 Q1508.625,347.8594 1507.9688,347.0938 Q1507.3281,346.3125 1507.3281,345 Q1507.3281,343.3125 1508.4063,342.3438 Q1509.4844,341.375 1511.3594,341.375 Q1512.2188,341.375 1513.0625,341.5781 Q1513.9219,341.7656 1514.7656,342.1563 L1514.7656,344.5469 Q1513.9844,343.9844 1513.1563,343.7031 Q1512.3438,343.4063 1511.5469,343.4063 Q1510.6719,343.4063 1510.1875,343.7656 Q1509.7188,344.125 1509.7188,344.7813 Q1509.7188,345.2969 1510.0625,345.6406 Q1510.4063,345.9688 1511.5,346.375 L1512.5625,346.7813 Q1514.0469,347.3281 1514.75,348.2344 Q1515.4688,349.1406 1515.4688,350.5156 Q1515.4688,352.3906 1514.3594,353.3125 Q1513.25,354.2344 1511,354.2344 Q1510.0781,354.2344 1509.1563,354.0156 Q1508.2344,353.7969 1507.375,353.375 L1507.375,350.8438 Q1508.3438,351.5313 1509.2656,351.875 Q1510.1875,352.2188 1511.0781,352.2188 Q1511.9844,352.2188 1512.4844,351.8125 Q1512.9844,351.3906 1512.9844,350.6563 Q1512.9844,350.0938 1512.6406,349.6875 Q1512.3125,349.2656 1511.6875,349.0156 L1510.4844,348.5625 Z " fill="#000000"/><text fill="#000000" font-family="sans-serif" font-size="14" lengthAdjust="spacing" textLength="154" x="1525" y="352.8467">tomlSpreaderPipeline</text></g><!--MD5=[95ea847b8fe82d3cbf7ae9d94e89a05c]
class gtree.tomlSpreaderSimple--><g id="elem_gtree.tomlSpreaderSimple"><rect codeLine="227" fill="#F1F1F1" height="32" id="gtree.tomlSpreaderSimple" rx="2.5" ry="2.5" style="stroke:#181818;stroke-width:0.5;" width="179" x="1448.5" y="240"/><ellipse cx="1463.5" cy="256" fill="#7FFFD4" rx="11" ry="11" style="stroke:#181818;stroke-width:1.0;"/><path d="M1462.9844,256.5625 Q1461.125,255.8594 1460.4688,255.0938 Q1459.8281,254.3125 1459.8281,253 Q1459.8281,251.3125 1460.9063,250.3438 Q1461.9844,249.375 1463.8594,249.375 Q1464.7188,249.375 1465.5625,249.5781 Q1466.4219,249.7656 1467.2656,250.1563 L1467.2656,252.5469 Q1466.4844,251.9844 1465.6563,251.7031 Q1464.8438,251.4063 1464.0469,251.4063 Q1463.1719,251.4063 1462.6875,251.7656 Q1462.2188,252.125 1462.2188,252.7813 Q1462.2188,253.2969 1462.5625,253.6406 Q1462.9063,253.9688 1464,254.375 L1465.0625,254.7813 Q1466.5469,255.3281 1467.25,256.2344 Q1467.9688,257.1406 1467.9688,258.5156 Q1467.9688,260.3906 1466.8594,261.3125 Q1465.75,262.2344 1463.5,262.2344 Q1462.5781,262.2344 1461.6563,262.0156 Q1460.7344,261.7969 1459.875,261.375 L1459.875,258.8438 Q1460.8438,259.5313 1461.7656,259.875 Q1462.6875,260.2188 1463.5781,260.2188 Q1464.4844,260.2188 1464.9844,259.8125 Q1465.4844,259.3906 1465.4844,258.6563 Q1465.4844,258.0938 1465.1406,257.6875 Q1464.8125,257.2656 1464.1875,257.0156 L1462.9844,256.5625 Z " fill="#000000"/><text fill="#000000" font-family="sans-serif" font-size="14" lengthAdjust="spacing" textLength="147" x="1477.5" y="260.8467">tomlSpreaderSimple</text></g><!--MD5=[c7f02f749d92c72f61edf241f4e97f5f]
class gtree.tree--><g id="elem_gtree.tree"><rect codeLine="231" fill="#F1F1F1" height="32" id="gtree.tree" rx="2.5" ry="2.5" style="stroke:#181818;stroke-width:0.5;" width="61" x="379.5" y="148"/><ellipse cx="394.5" cy="164" fill="#B4A7E5" rx="11" ry="11" style="stroke:#181818;stroke-width:1.0;"/><path d="M390.4219,159.7656 L390.4219,157.6094 L397.8125,157.6094 L397.8125,159.7656 L395.3438,159.7656 L395.3438,167.8438 L397.8125,167.8438 L397.8125,170 L390.4219,170 L390.4219,167.8438 L392.8906,167.8438 L392.8906,159.7656 L390.4219,159.7656 Z " fill="#000000"/><text fill="#000000" font-family="sans-serif" font-size="14" font-style="italic" lengthAdjust="spacing" textLength="29" x="408.5" y="168.8467">tree</text></g><!--MD5=[9ea3c621686b83744105040adfcb948a]
class gtree.treePipeline--><g id="elem_gtree.treePipeline"><rect codeLine="238" fill="#F1F1F1" height="32" id="gtree.treePipeline" rx="2.5" ry="2.5" style="stroke:#181818;stroke-width:0.5;" width="117" x="265.5" y="240"/><ellipse cx="280.5" cy="256" fill="#7FFFD4" rx="11" ry="11" style="stroke:#181818;stroke-width:1.0;"/><path d="M279.9844,256.5625 Q278.125,255.8594 277.4688,255.0938 Q276.8281,254.3125 276.8281,253 Q276.8281,251.3125 277.9063,250.3438 Q278.9844,249.375 280.8594,249.375 Q281.7188,249.375 282.5625,249.5781 Q283.4219,249.7656 284.2656,250.1563 L284.2656,252.5469 Q283.4844,251.9844 282.6563,251.7031 Q281.8438,251.4063 281.0469,251.4063 Q280.1719,251.4063 279.6875,251.7656 Q279.2188,252.125 279.2188,252.7813 Q279.2188,253.2969 279.5625,253.6406 Q279.9063,253.9688 281,254.375 L282.0625,254.7813 Q283.5469,255.3281 284.25,256.2344 Q284.9688,257.1406 284.9688,258.5156 Q284.9688,260.3906 283.8594,261.3125 Q282.75,262.2344 280.5,262.2344 Q279.5781,262.2344 278.6563,262.0156 Q277.7344,261.7969 276.875,261.375 L276.875,258.8438 Q277.8438,259.5313 278.7656,259.875 Q279.6875,260.2188 280.5781,260.2188 Q281.4844,260.2188 281.9844,259.8125 Q282.4844,259.3906 282.4844,258.6563 Q282.4844,258.0938 282.1406,257.6875 Q281.8125,257.2656 281.1875,257.0156 L279.9844,256.5625 Z " fill="#000000"/><text fill="#000000" font-family="sans-serif" font-size="14" lengthAdjust="spacing" textLength="85" x="294.5" y="260.8467">treePipeline</text></g><!--MD5=[55641316e22093d0569947c1e820be1c]
class gtree.treeSimple--><g id="elem_gtree.treeSimple"><rect codeLine="250" fill="#F1F1F1" height="32" id="gtree.treeSimple" rx="2.5" ry="2.5" style="stroke:#181818;stroke-width:0.5;" width="110" x="418" y="240"/><ellipse cx="433" cy="256" fill="#7FFFD4" rx="11" ry="11" style="stroke:#181818;stroke-width:1.0;"/><path d="M432.4844,256.5625 Q430.625,255.8594 429.9688,255.0938 Q429.3281,254.3125 429.3281,253 Q429.3281,251.3125 430.4063,250.3438 Q431.4844,249.375 433.3594,249.375 Q434.2188,249.375 435.0625,249.5781 Q435.9219,249.7656 436.7656,250.1563 L436.7656,252.5469 Q435.9844,251.9844 435.1563,251.7031 Q434.3438,251.4063 433.5469,251.4063 Q432.6719,251.4063 432.1875,251.7656 Q431.7188,252.125 431.7188,252.7813 Q431.7188,253.2969 432.0625,253.6406 Q432.4063,253.9688 433.5,254.375 L434.5625,254.7813 Q436.0469,255.3281 436.75,256.2344 Q437.4688,257.1406 437.4688,258.5156 Q437.4688,260.3906 436.3594,261.3125 Q435.25,262.2344 433,262.2344 Q432.0781,262.2344 431.1563,262.0156 Q430.2344,261.7969 429.375,261.375 L429.375,258.8438 Q430.3438,259.5313 431.2656,259.875 Q432.1875,260.2188 433.0781,260.2188 Q433.9844,260.2188 434.4844,259.8125 Q434.9844,259.3906 434.9844,258.6563 Q434.9844,258.0938 434.6406,257.6875 Q434.3125,257.2656 433.6875,257.0156 L432.4844,256.5625 Z " fill="#000000"/><text fill="#000000" font-family="sans-serif" font-size="14" lengthAdjust="spacing" textLength="78" x="447" y="260.8467">treeSimple</text></g><!--MD5=[e619353a1a9ed83817aceda27a8c7f69]
class gtree.yamlNode--><g id="elem_gtree.yamlNode"><rect codeLine="261" fill="#F1F1F1" height="32" id="gtree.yamlNode" rx="2.5" ry="2.5" style="stroke:#181818;stroke-width:0.5;" width="104" x="2631" y="424"/><ellipse cx="2646" cy="440" fill="#7FFFD4" rx="11" ry="11" style="stroke:#181818;stroke-width:1.0;"/><path d="M2645.4844,440.5625 Q2643.625,439.8594 2642.9688,439.0938 Q2642.3281,438.3125 2642.3281,437 Q2642.3281,435.3125 2643.4063,434.3438 Q2644.4844,433.375 2646.3594,433.375 Q2647.2188,433.375 2648.0625,433.5781 Q2648.9219,433.7656 2649.7656,434.1563 L2649.7656,436.5469 Q2648.9844,435.9844 2648.1563,435.7031 Q2647.3438,435.4063 2646.5469,435.4063 Q2645.6719,435.4063 2645.1875,435.7656 Q2644.7188,436.125 2644.7188,436.7813 Q2644.7188,437.2969 2645.0625,437.6406 Q2645.4063,437.9688 2646.5,438.375 L2647.5625,438.7813 Q2649.0469,439.3281 2649.75,440.2344 Q2650.4688,441.1406 2650.4688,442.5156 Q2650.4688,444.3906 2649.3594,445.3125 Q2648.25,446.2344 2646,446.2344 Q2645.0781,446.2344 2644.1563,446.0156 Q2643.2344,445.7969 2642.375,445.375 L2642.375,442.8438 Q2643.3438,443.5313 2644.2656,443.875 Q2645.1875,444.2188 2646.0781,444.2188 Q2646.9844,444.2188 2647.4844,443.8125 Q2647.9844,443.3906 2647.9844,442.6563 Q2647.9844,442.0938 2647.6406,441.6875 Q2647.3125,441.2656 2646.6875,441.0156 L2645.4844,440.5625 Z " fill="#000000"/><text fill="#000000" font-family="sans-serif" font-size="14" lengthAdjust="spacing" textLength="72" x="2660" y="444.8467">yamlNode</text></g><!--MD5=[89e7b365335bd5bc318faf0a7242b0c0]
class gtree.yamlSpreaderPipeline--><g id="elem_gtree.yamlSpreaderPipeline"><rect codeLine="266" fill="#F1F1F1" height="32" id="gtree.yamlSpreaderPipeline" rx="2.5" ry="2.5" style="stroke:#181818;stroke-width:0.5;" width="189" x="1015.5" y="332"/><ellipse cx="1030.5" cy="348" fill="#7FFFD4" rx="11" ry="11" style="stroke:#181818;stroke-width:1.0;"/><path d="M1029.9844,348.5625 Q1028.125,347.8594 1027.4688,347.0938 Q1026.8281,346.3125 1026.8281,345 Q1026.8281,343.3125 1027.9063,342.3438 Q1028.9844,341.375 1030.8594,341.375 Q1031.7188,341.375 1032.5625,341.5781 Q1033.4219,341.7656 1034.2656,342.1563 L1034.2656,344.5469 Q1033.4844,343.9844 1032.6563,343.7031 Q1031.8438,343.4063 1031.0469,343.4063 Q1030.1719,343.4063 1029.6875,343.7656 Q1029.2188,344.125 1029.2188,344.7813 Q1029.2188,345.2969 1029.5625,345.6406 Q1029.9063,345.9688 1031,346.375 L1032.0625,346.7813 Q1033.5469,347.3281 1034.25,348.2344 Q1034.9688,349.1406 1034.9688,350.5156 Q1034.9688,352.3906 1033.8594,353.3125 Q1032.75,354.2344 1030.5,354.2344 Q1029.5781,354.2344 1028.6563,354.0156 Q1027.7344,353.7969 1026.875,353.375 L1026.875,350.8438 Q1027.8438,351.5313 1028.7656,351.875 Q1029.6875,352.2188 1030.5781,352.2188 Q1031.4844,352.2188 1031.9844,351.8125 Q1032.4844,351.3906 1032.4844,350.6563 Q1032.4844,350.0938 1032.1406,349.6875 Q1031.8125,349.2656 1031.1875,349.0156 L1029.9844,348.5625 Z " fill="#000000"/><text fill="#000000" font-family="sans-serif" font-size="14" lengthAdjust="spacing" textLength="157" x="1044.5" y="352.8467">yamlSpreaderPipeline</text></g><!--MD5=[8d48bcbad28acab91ad9b4d4cc3c9f55]
class gtree.yamlSpreaderSimple--><g id="elem_gtree.yamlSpreaderSimple"><rect codeLine="270" fill="#F1F1F1" height="32" id="gtree.yamlSpreaderSimple" rx="2.5" ry="2.5" style="stroke:#181818;stroke-width:0.5;" width="182" x="563" y="240"/><ellipse cx="578" cy="256" fill="#7FFFD4" rx="11" ry="11" style="stroke:#181818;stroke-width:1.0;"/><path d="M577.4844,256.5625 Q575.625,255.8594 574.9688,255.0938 Q574.3281,254.3125 574.3281,253 Q574.3281,251.3125 575.4063,250.3438 Q576.4844,249.375 578.3594,249.375 Q579.2188,249.375 580.0625,249.5781 Q580.9219,249.7656 581.7656,250.1563 L581.7656,252.5469 Q580.9844,251.9844 580.1563,251.7031 Q579.3438,251.4063 578.5469,251.4063 Q577.6719,251.4063 577.1875,251.7656 Q576.7188,252.125 576.7188,252.7813 Q576.7188,253.2969 577.0625,253.6406 Q577.4063,253.9688 578.5,254.375 L579.5625,254.7813 Q581.0469,255.3281 581.75,256.2344 Q582.4688,257.1406 582.4688,258.5156 Q582.4688,260.3906 581.3594,261.3125 Q580.25,262.2344 578,262.2344 Q577.0781,262.2344 576.1563,262.0156 Q575.2344,261.7969 574.375,261.375 L574.375,258.8438 Q575.3438,259.5313 576.2656,259.875 Q577.1875,260.2188 578.0781,260.2188 Q578.9844,260.2188 579.4844,259.8125 Q579.9844,259.3906 579.9844,258.6563 Q579.9844,258.0938 579.6406,257.6875 Q579.3125,257.2656 578.6875,257.0156 L577.4844,256.5625 Z " fill="#000000"/><text fill="#000000" font-family="sans-serif" font-size="14" lengthAdjust="spacing" textLength="150" x="592" y="260.8467">yamlSpreaderSimple</text></g><!--MD5=[be733ededdd9d1bee41f0a2df5c80ac7]
class gtree.<font color=blue>func</font>(*config) --><g id="elem_gtree.&lt;font color=blue&gt;func&lt;/font&gt;(*config) "><rect fill="#F1F1F1" height="32" id="gtree.&lt;font color=blue&gt;func&lt;/font&gt;(*config) " rx="2.5" ry="2.5" style="stroke:#181818;stroke-width:0.5;" width="128" x="152" y="148"/><ellipse cx="167" cy="164" fill="#ADD1B2" rx="11" ry="11" style="stroke:#181818;stroke-width:1.0;"/><path d="M169.9688,169.6406 Q169.3906,169.9375 168.75,170.0781 Q168.1094,170.2344 167.4063,170.2344 Q164.9063,170.2344 163.5781,168.5938 Q162.2656,166.9375 162.2656,163.8125 Q162.2656,160.6875 163.5781,159.0313 Q164.9063,157.375 167.4063,157.375 Q168.1094,157.375 168.75,157.5313 Q169.4063,157.6875 169.9688,157.9844 L169.9688,160.7031 Q169.3438,160.125 168.75,159.8594 Q168.1563,159.5781 167.5313,159.5781 Q166.1875,159.5781 165.5,160.6563 Q164.8125,161.7188 164.8125,163.8125 Q164.8125,165.9063 165.5,166.9844 Q166.1875,168.0469 167.5313,168.0469 Q168.1563,168.0469 168.75,167.7813 Q169.3438,167.5 169.9688,166.9219 L169.9688,169.6406 Z " fill="#000000"/><text fill="#0000FF" font-family="sans-serif" font-size="14" lengthAdjust="spacing" textLength="31" x="181" y="168.8467">func</text><text fill="#000000" font-family="sans-serif" font-size="14" lengthAdjust="spacing" textLength="61" x="212" y="168.8467">(*config)</text></g><!--MD5=[8005f9e088aacc281e64632c065d370b]
class sync.Mutex--><g id="elem_sync.Mutex"><rect fill="#F1F1F1" height="32" id="sync.Mutex" rx="2.5" ry="2.5" style="stroke:#181818;stroke-width:0.5;" width="75" x="21.5" y="240"/><ellipse cx="36.5" cy="256" fill="#ADD1B2" rx="11" ry="11" style="stroke:#181818;stroke-width:1.0;"/><path d="M39.4688,261.6406 Q38.8906,261.9375 38.25,262.0781 Q37.6094,262.2344 36.9063,262.2344 Q34.4063,262.2344 33.0781,260.5938 Q31.7656,258.9375 31.7656,255.8125 Q31.7656,252.6875 33.0781,251.0313 Q34.4063,249.375 36.9063,249.375 Q37.6094,249.375 38.25,249.5313 Q38.9063,249.6875 39.4688,249.9844 L39.4688,252.7031 Q38.8438,252.125 38.25,251.8594 Q37.6563,251.5781 37.0313,251.5781 Q35.6875,251.5781 35,252.6563 Q34.3125,253.7188 34.3125,255.8125 Q34.3125,257.9063 35,258.9844 Q35.6875,260.0469 37.0313,260.0469 Q37.6563,260.0469 38.25,259.7813 Q38.8438,259.5 39.4688,258.9219 L39.4688,261.6406 Z " fill="#000000"/><text fill="#000000" font-family="sans-serif" font-size="14" lengthAdjust="spacing" textLength="43" x="50.5" y="260.8467">Mutex</text></g><!--MD5=[2236f6c5d9deadb4f6bceeb4cf3ac6c7]
class __builtin__.int--><g id="elem___builtin__.int"><rect fill="#F1F1F1" height="32" id="__builtin__.int" rx="2.5" ry="2.5" style="stroke:#181818;stroke-width:0.5;" width="50" x="2127" y="41"/><ellipse cx="2142" cy="57" fill="#ADD1B2" rx="11" ry="11" style="stroke:#181818;stroke-width:1.0;"/><path d="M2144.9688,62.6406 Q2144.3906,62.9375 2143.75,63.0781 Q2143.1094,63.2344 2142.4063,63.2344 Q2139.9063,63.2344 2138.5781,61.5938 Q2137.2656,59.9375 2137.2656,56.8125 Q2137.2656,53.6875 2138.5781,52.0313 Q2139.9063,50.375 2142.4063,50.375 Q2143.1094,50.375 2143.75,50.5313 Q2144.4063,50.6875 2144.9688,50.9844 L2144.9688,53.7031 Q2144.3438,53.125 2143.75,52.8594 Q2143.1563,52.5781 2142.5313,52.5781 Q2141.1875,52.5781 2140.5,53.6563 Q2139.8125,54.7188 2139.8125,56.8125 Q2139.8125,58.9063 2140.5,59.9844 Q2141.1875,61.0469 2142.5313,61.0469 Q2143.1563,61.0469 2143.75,60.7813 Q2144.3438,60.5 2144.9688,59.9219 L2144.9688,62.6406 Z " fill="#000000"/><text fill="#000000" font-family="sans-serif" font-size="14" lengthAdjust="spacing" textLength="18" x="2156" y="61.8467">int</text></g><!--MD5=[5747d7727b6bef40b7cc141e1f5e25ce]
reverse link gtree.colorizeSpreaderSimple to gtree.colorizeSpreaderPipeline--><g id="link_gtree.colorizeSpreaderSimple_gtree.colorizeSpreaderPipeline"><path codeLine="275" d="M921.36,370.06 C954.56,386.57 999.94,409.14 1029.61,423.89 " fill="none" id="gtree.colorizeSpreaderSimple-backto-gtree.colorizeSpreaderPipeline" style="stroke:#181818;stroke-width:1.0;"/><polygon fill="#181818" points="909.3,364.06,912.8931,370.3122,920.0463,369.4002,916.4532,363.148,909.3,364.06" style="stroke:#181818;stroke-width:1.0;"/></g><!--MD5=[a416ec2a6fd1ad411aa4b41ebb8856e9]
reverse link gtree.defaultSpreaderSimple to gtree.colorizeSpreaderSimple--><g id="link_gtree.defaultSpreaderSimple_gtree.colorizeSpreaderSimple"><path codeLine="276" d="M879,285.34 C879,300.79 879,319.28 879,331.96 " fill="none" id="gtree.defaultSpreaderSimple-backto-gtree.colorizeSpreaderSimple" style="stroke:#181818;stroke-width:1.0;"/><polygon fill="#181818" points="879,272.27,875,278.27,879,284.27,883,278.27,879,272.27" style="stroke:#181818;stroke-width:1.0;"/></g><!--MD5=[99cf49be6402d4d50ee3405e3411be4e]
reverse link gtree.defaultGrowerSimple to gtree.defaultGrowerPipeline--><g id="link_gtree.defaultGrowerSimple_gtree.defaultGrowerPipeline"><path codeLine="277" d="M2125.01,280.72 C2105.17,296.95 2079.46,317.99 2062.38,331.96 " fill="none" id="gtree.defaultGrowerSimple-backto-gtree.defaultGrowerPipeline" style="stroke:#181818;stroke-width:1.0;"/><polygon fill="#181818" points="2135.34,272.27,2128.1633,272.9736,2126.0525,279.8689,2133.2292,279.1653,2135.34,272.27" style="stroke:#181818;stroke-width:1.0;"/></g><!--MD5=[8ecb4beb83846280c375c20a651f54f6]
reverse link gtree.defaultMkdirerSimple to gtree.defaultMkdirerPipeline--><g id="link_gtree.defaultMkdirerSimple_gtree.defaultMkdirerPipeline"><path codeLine="278" d="M1904.26,280.06 C1882.54,296.35 1854.04,317.72 1835.15,331.89 " fill="none" id="gtree.defaultMkdirerSimple-backto-gtree.defaultMkdirerPipeline" style="stroke:#181818;stroke-width:1.0;"/><polygon fill="#181818" points="1914.91,272.06,1907.71,272.46,1905.31,279.26,1912.51,278.86,1914.91,272.06" style="stroke:#181818;stroke-width:1.0;"/></g><!--MD5=[15e8b9f1dbc2da211428e1a9e789af44]
reverse link gtree.defaultSpreaderSimple to gtree.defaultSpreaderPipeline--><g id="link_gtree.defaultSpreaderSimple_gtree.defaultSpreaderPipeline"><path codeLine="279" d="M826.79,276.66 C782.68,293.27 720.42,316.72 680.13,331.89 " fill="none" id="gtree.defaultSpreaderSimple-backto-gtree.defaultSpreaderPipeline" style="stroke:#181818;stroke-width:1.0;"/><polygon fill="#181818" points="839,272.06,831.9761,270.4278,827.7679,276.2836,834.7918,277.9159,839,272.06" style="stroke:#181818;stroke-width:1.0;"/></g><!--MD5=[2bd933f1ed033f5138fd2c36d40e0e57]
reverse link sync.Mutex to gtree.defaultSpreaderPipeline--><g id="link_sync.Mutex_gtree.defaultSpreaderPipeline"><path codeLine="280" d="M94.48,278.41 C107.17,285.12 121.83,291.85 136,296 C271.26,335.6 434.67,345.61 537.99,347.55 " fill="none" id="sync.Mutex-backto-gtree.defaultSpreaderPipeline" style="stroke:#181818;stroke-width:1.0;"/><polygon fill="#181818" points="83.01,272.06,86.3295,278.4617,93.5154,277.8597,90.1959,271.4581,83.01,272.06" style="stroke:#181818;stroke-width:1.0;"/></g><!--MD5=[d10a416fd642f6a7fd43225a59800a17]
reverse link gtree.nopGrowerSimple to gtree.nopGrowerPipeline--><g id="link_gtree.nopGrowerSimple_gtree.nopGrowerPipeline"><path codeLine="281" d="M2333.6,280.94 C2315.06,297.14 2291.13,318.05 2275.21,331.96 " fill="none" id="gtree.nopGrowerSimple-backto-gtree.nopGrowerPipeline" style="stroke:#181818;stroke-width:1.0;"/><polygon fill="#181818" points="2343.53,272.27,2336.3796,273.2033,2334.4909,280.1627,2341.6414,279.2294,2343.53,272.27" style="stroke:#181818;stroke-width:1.0;"/></g><!--MD5=[b83e87968c0a0dcac11097e412b18636]
reverse link gtree.spreaderPipeline to gtree.colorizeSpreaderPipeline--><g id="link_gtree.spreaderPipeline_gtree.colorizeSpreaderPipeline"><path codeLine="283" d="M1175.11,282.47 C1207.85,303 1241.56,333.39 1222,364 C1202.31,394.82 1166.35,413.16 1133.31,423.98 " fill="none" id="gtree.spreaderPipeline-backto-gtree.colorizeSpreaderPipeline" style="stroke:#181818;stroke-width:1.0;"/><polygon fill="none" points="1171.14,288.26,1157.38,272.15,1178.18,276.16,1171.14,288.26" style="stroke:#181818;stroke-width:1.0;"/></g><!--MD5=[4c3482a368083339abcaf6f152221224]
reverse link gtree.spreaderSimple to gtree.colorizeSpreaderSimple--><g id="link_gtree.spreaderSimple_gtree.colorizeSpreaderSimple"><path codeLine="284" d="M1017.68,200.17 C1018.77,228.77 1015.75,268.72 995,296 C982.15,312.9 962.5,324.3 943.01,331.95 " fill="none" id="gtree.spreaderSimple-backto-gtree.colorizeSpreaderSimple" style="stroke:#181818;stroke-width:1.0;"/><polygon fill="none" points="1010.69,200.58,1016.18,180.12,1024.65,199.54,1010.69,200.58" style="stroke:#181818;stroke-width:1.0;"/></g><!--MD5=[5a9c7a191835f3667cd5ce4ec5b7c416]
reverse link gtree.growerSimple to gtree.defaultGrowerSimple--><g id="link_gtree.growerSimple_gtree.defaultGrowerSimple"><path codeLine="285" d="M2290.93,186.57 C2281.78,189.83 2272.61,193.34 2264,197 C2234.2,209.67 2201.55,227.4 2179.63,239.92 " fill="none" id="gtree.growerSimple-backto-gtree.defaultGrowerSimple" style="stroke:#181818;stroke-width:1.0;"/><polygon fill="none" points="2288.88,179.87,2310.06,180.04,2293.39,193.12,2288.88,179.87" style="stroke:#181818;stroke-width:1.0;"/></g><!--MD5=[ff00447ef96bd304884e58be9da29d1d]
reverse link gtree.mkdirerPipeline to gtree.defaultMkdirerPipeline--><g id="link_gtree.mkdirerPipeline_gtree.defaultMkdirerPipeline"><path codeLine="286" d="M1761.89,287.25 C1775.25,302.29 1790.82,319.8 1801.63,331.96 " fill="none" id="gtree.mkdirerPipeline-backto-gtree.defaultMkdirerPipeline" style="stroke:#181818;stroke-width:1.0;"/><polygon fill="none" points="1756.63,291.87,1748.57,272.27,1767.09,282.56,1756.63,291.87" style="stroke:#181818;stroke-width:1.0;"/></g><!--MD5=[5038ea76dbf0814e5bc576fc6dd5be57]
reverse link gtree.mkdirerSimple to gtree.defaultMkdirerSimple--><g id="link_gtree.mkdirerSimple_gtree.defaultMkdirerSimple"><path codeLine="287" d="M1930.77,200.61 C1931.84,214.31 1932.99,229.22 1933.83,239.96 " fill="none" id="gtree.mkdirerSimple-backto-gtree.defaultMkdirerSimple" style="stroke:#181818;stroke-width:1.0;"/><polygon fill="none" points="1923.76,200.75,1929.19,180.27,1937.72,199.66,1923.76,200.75" style="stroke:#181818;stroke-width:1.0;"/></g><!--MD5=[6ee434e217815dacd8db5a5513ff4911]
reverse link gtree.spreaderPipeline to gtree.defaultSpreaderPipeline--><g id="link_gtree.spreaderPipeline_gtree.defaultSpreaderPipeline"><path codeLine="288" d="M1061.93,278.12 C1040.79,284.54 1017.04,291.16 995,296 C948.25,306.26 829.6,322.59 742.28,334 " fill="none" id="gtree.spreaderPipeline-backto-gtree.defaultSpreaderPipeline" style="stroke:#181818;stroke-width:1.0;"/><polygon fill="none" points="1060.08,271.36,1081.26,272.09,1064.25,284.73,1060.08,271.36" style="stroke:#181818;stroke-width:1.0;"/></g><!--MD5=[2e934ec5c294567bd5d67b91bac4edae]
reverse link gtree.spreaderSimple to gtree.defaultSpreaderSimple--><g id="link_gtree.spreaderSimple_gtree.defaultSpreaderSimple"><path codeLine="289" d="M974.62,191.25 C950.9,207.06 921.55,226.63 901.67,239.89 " fill="none" id="gtree.spreaderSimple-backto-gtree.defaultSpreaderSimple" style="stroke:#181818;stroke-width:1.0;"/><polygon fill="none" points="970.88,185.33,991.4,180.06,978.65,196.98,970.88,185.33" style="stroke:#181818;stroke-width:1.0;"/></g><!--MD5=[2e7cb99867881d843fca82809199513e]
reverse link gtree.spreaderPipeline to gtree.jsonSpreaderPipeline--><g id="link_gtree.spreaderPipeline_gtree.jsonSpreaderPipeline"><path codeLine="290" d="M1179.93,280.07 C1192.99,285.46 1206.94,291.06 1220,296 C1254.01,308.86 1292.9,322.13 1322.42,331.9 " fill="none" id="gtree.spreaderPipeline-backto-gtree.jsonSpreaderPipeline" style="stroke:#181818;stroke-width:1.0;"/><polygon fill="none" points="1176.8,286.34,1161.05,272.16,1182.2,273.43,1176.8,286.34" style="stroke:#181818;stroke-width:1.0;"/></g><!--MD5=[a70444f705a07c17bca7db0ec085cd3e]
reverse link gtree.spreaderSimple to gtree.jsonSpreaderSimple--><g id="link_gtree.spreaderSimple_gtree.jsonSpreaderSimple"><path codeLine="291" d="M1106.52,172.38 C1142.61,177.06 1183.9,184.66 1220,197 C1250.54,207.44 1282.59,226.5 1303.13,239.92 " fill="none" id="gtree.spreaderSimple-backto-gtree.jsonSpreaderSimple" style="stroke:#181818;stroke-width:1.0;"/><polygon fill="none" points="1105.55,179.32,1086.51,170.01,1107.19,165.41,1105.55,179.32" style="stroke:#181818;stroke-width:1.0;"/></g><!--MD5=[ac302c4d934b19e5a79b6ad63dfebe59]
reverse link gtree.growerSimple to gtree.nopGrowerSimple--><g id="link_gtree.growerSimple_gtree.nopGrowerSimple"><path codeLine="292" d="M2361,200.61 C2361,214.31 2361,229.22 2361,239.96 " fill="none" id="gtree.growerSimple-backto-gtree.nopGrowerSimple" style="stroke:#181818;stroke-width:1.0;"/><polygon fill="none" points="2354,200.27,2361,180.27,2368,200.27,2354,200.27" style="stroke:#181818;stroke-width:1.0;"/></g><!--MD5=[327726a2387648204640d69d8917f3ed]
reverse link gtree.spreaderPipeline to gtree.tomlSpreaderPipeline--><g id="link_gtree.spreaderPipeline_gtree.tomlSpreaderPipeline"><path codeLine="293" d="M1175.42,280.28 C1189.56,286.17 1205.17,291.97 1220,296 C1226.66,297.81 1388.6,319.89 1495.71,334.4 " fill="none" id="gtree.spreaderPipeline-backto-gtree.tomlSpreaderPipeline" style="stroke:#181818;stroke-width:1.0;"/><polygon fill="none" points="1172.14,286.49,1156.63,272.05,1177.76,273.66,1172.14,286.49" style="stroke:#181818;stroke-width:1.0;"/></g><!--MD5=[0dae6ace5478cb60c50c82a9a540a8fc]
reverse link gtree.spreaderSimple to gtree.tomlSpreaderSimple--><g id="link_gtree.spreaderSimple_gtree.tomlSpreaderSimple"><path codeLine="294" d="M1107.01,167.62 C1210.99,171.35 1372.46,179.74 1431,197 C1462.82,206.38 1495.86,226.07 1516.65,239.9 " fill="none" id="gtree.spreaderSimple-backto-gtree.tomlSpreaderSimple" style="stroke:#181818;stroke-width:1.0;"/><polygon fill="none" points="1106.46,174.61,1086.71,166.93,1106.94,160.62,1106.46,174.61" style="stroke:#181818;stroke-width:1.0;"/></g><!--MD5=[c949f4cd3f2a521d1543ec8981fa204d]
reverse link gtree.tree to gtree.treePipeline--><g id="link_gtree.tree_gtree.treePipeline"><path codeLine="295" d="M381.56,194.77 C367.08,209.91 350.12,227.67 338.37,239.96 " fill="none" id="gtree.tree-backto-gtree.treePipeline" style="stroke:#181818;stroke-width:1.0;"/><polygon fill="none" points="376.53,189.89,395.41,180.27,386.66,199.56,376.53,189.89" style="stroke:#181818;stroke-width:1.0;"/></g><!--MD5=[65493e9e327f091e7d72eecd8a8c9954]
reverse link gtree.tree to gtree.treeSimple--><g id="link_gtree.tree_gtree.treeSimple"><path codeLine="296" d="M432.19,196.69 C442.48,211.4 454.23,228.18 462.47,239.96 " fill="none" id="gtree.tree-backto-gtree.treeSimple" style="stroke:#181818;stroke-width:1.0;"/><polygon fill="none" points="426.42,200.67,420.69,180.27,437.89,192.64,426.42,200.67" style="stroke:#181818;stroke-width:1.0;"/></g><!--MD5=[2d956fba89658a38ebfba6d416a34b5a]
reverse link gtree.spreaderPipeline to gtree.yamlSpreaderPipeline--><g id="link_gtree.spreaderPipeline_gtree.yamlSpreaderPipeline"><path codeLine="297" d="M1119.76,292.12 C1117.3,305.95 1114.61,321.09 1112.67,331.96 " fill="none" id="gtree.spreaderPipeline-backto-gtree.yamlSpreaderPipeline" style="stroke:#181818;stroke-width:1.0;"/><polygon fill="none" points="1112.89,290.73,1123.29,272.27,1126.68,293.18,1112.89,290.73" style="stroke:#181818;stroke-width:1.0;"/></g><!--MD5=[65dbb27bebad5885e8c021898ef9d58e]
reverse link gtree.spreaderSimple to gtree.yamlSpreaderSimple--><g id="link_gtree.spreaderSimple_gtree.yamlSpreaderSimple"><path codeLine="298" d="M921.15,168.82 C873.06,172.79 813.89,180.81 763,197 C731.34,207.07 698.06,226.21 676.73,239.74 " fill="none" id="gtree.spreaderSimple-backto-gtree.yamlSpreaderSimple" style="stroke:#181818;stroke-width:1.0;"/><polygon fill="none" points="920.92,161.81,941.38,167.33,921.94,175.78,920.92,161.81" style="stroke:#181818;stroke-width:1.0;"/></g><!--MD5=[8a661b5d8616b259e9799ae55cc649cc]
reverse link __builtin__.int to gtree.encode--><g id="link___builtin__.int_gtree.encode"><path codeLine="300" d="M2164.24,77.47 C2177.05,97.86 2196.91,129.44 2208.56,147.98 " fill="none" id="__builtin__.int-backto-gtree.encode" style="stroke:#181818;stroke-width:1.0;stroke-dasharray:7.0,7.0;"/><rect fill="#FFFFFF" height="10" style="stroke:#181818;stroke-width:1.5;" width="10" x="2156.46" y="68.04"/></g><!--MD5=[fd4b045da6077126bd7ac8181e5b687d]
reverse link __builtin__.int to gtree.spaceType--><g id="link___builtin__.int_gtree.spaceType"><path codeLine="301" d="M2139.76,77.47 C2126.95,97.86 2107.09,129.44 2095.44,147.98 " fill="none" id="__builtin__.int-backto-gtree.spaceType" style="stroke:#181818;stroke-width:1.0;stroke-dasharray:7.0,7.0;"/><rect fill="#FFFFFF" height="10" style="stroke:#181818;stroke-width:1.5;" width="10" x="2137.54" y="68.04"/></g><!--MD5=[ec01859a0f2471c1cc676da1e268332d]
reverse link gtree.<font color=blue>func</font>(*config)  to gtree.Option--><g id="link_gtree.&lt;font color=blue&gt;func&lt;/font&gt;(*config) _gtree.Option"><path codeLine="302" d="M210.39,185.19 C205.78,201.8 199.35,224.95 195.18,239.96 " fill="none" id="gtree.&lt;font color=blue&gt;func&lt;/font&gt;(*config) -backto-gtree.Option" style="stroke:#181818;stroke-width:1.0;stroke-dasharray:7.0,7.0;"/><rect fill="#FFFFFF" height="10" style="stroke:#181818;stroke-width:1.5;" width="10" x="206.76" y="175.27"/></g><!--MD5=[a899682950dda000f526e7e69b147e87]
@startuml
namespace gtree {
    class Node << (S,Aquamarine) >> {
        - name string
        - hierarchy uint
        - index uint
        - brnch branch
        - parent *Node
        - children []*Node

        - setParent(parent *Node) 
        - addChild(child *Node) 
        - hasChild() bool
        - findChildByText(text string) *Node
        - isDirectlyUnder(node *Node) bool
        - isLastOfHierarchy() bool
        - isRoot() bool
        - setBranch(branchs ...string) 
        - branch() string
        - setPath(paths ...string) 
        - validatePath() error
        - path() string
        - clean() 
        - toJSONNode(jParent *jsonNode) *jsonNode
        - toTOMLNode(tParent *tomlNode) *tomlNode
        - toYAMLNode(yParent *yamlNode) *yamlNode

        + Add(text string) *Node

    }
    class branch << (S,Aquamarine) >> {
        - value string
        - path string

    }
    class branchFormat << (S,Aquamarine) >> {
        - directly string

    }
    class colorizeSpreaderPipeline << (S,Aquamarine) >> {
        - spread(ctx context.Context, w io.Writer, roots <font color=blue>chan</font> *Node) <font color=blue>chan</font> error

    }
    class colorizeSpreaderSimple << (S,Aquamarine) >> {
        - fileConsiderer *fileConsiderer
        - fileColor *color.Color
        - fileCounter *counter
        - dirColor *color.Color
        - dirCounter *counter

        - spread(w io.Writer, roots []*Node) error
        - spreadBranch(current *Node) string
        - colorize(current *Node) string
        - summary() string

    }
    class config << (S,Aquamarine) >> {
        - lastNodeFormat branchFormat
        - intermedialNodeFormat branchFormat
        - space spaceType
        - massive bool
        - ctx context.Context
        - encode encode
        - dryrun bool
        - fileExtensions []string

    }
    class counter << (S,Aquamarine) >> {
        - n uint
        - mu sync.Mutex

        - next() uint
        - reset() 
        - current() uint

    }
    class defaultGrowerPipeline << (S,Aquamarine) >> {
        - grow(ctx context.Context, roots <font color=blue>chan</font> *Node) (<font color=blue>chan</font> *Node, <font color=blue>chan</font> error)
        - worker(ctx context.Context, wg *sync.WaitGroup, roots <font color=blue>chan</font> *Node, nodes <font color=blue>chan</font> *Node, errc <font color=blue>chan</font> error) 

    }
    class defaultGrowerSimple << (S,Aquamarine) >> {
        - lastNodeFormat branchFormat
        - intermedialNodeFormat branchFormat
        - enabledValidation bool

        - grow(roots []*Node) error
        - assemble(current *Node) error
        - assembleBranch(current *Node) error
        - assembleBranchDirectly(current *Node) 
        - assembleBranchIndirectly(current *Node, parent *Node) 
        - assembleBranchFinally(current *Node, root *Node) 
        - enableValidation() 

    }
    class defaultMkdirerPipeline << (S,Aquamarine) >> {
        - mkdir(ctx context.Context, roots <font color=blue>chan</font> *Node) <font color=blue>chan</font> error
        - worker(ctx context.Context, wg *sync.WaitGroup, roots <font color=blue>chan</font> *Node, errc <font color=blue>chan</font> error) 

    }
    class defaultMkdirerSimple << (S,Aquamarine) >> {
        - fileConsiderer *fileConsiderer

        - mkdir(roots []*Node) error
        - isExistRoot(roots []*Node) bool
        - makeDirectoriesAndFiles(current *Node) error
        - mkdirAll(dir string) error
        - mkfile(path string) error

    }
    class defaultSpreaderPipeline << (S,Aquamarine) >> {
        - spread(ctx context.Context, w io.Writer, roots <font color=blue>chan</font> *Node) <font color=blue>chan</font> error
        - worker(ctx context.Context, wg *sync.WaitGroup, bw *bufio.Writer, roots <font color=blue>chan</font> *Node, errc <font color=blue>chan</font> error) 

    }
    class defaultSpreaderSimple << (S,Aquamarine) >> {
        - spread(w io.Writer, roots []*Node) error
        - spreadBranch(current *Node) string
        - write(w io.Writer, in string) error

    }
    class fileConsiderer << (S,Aquamarine) >> {
        - extensions []string

        - isFile(current *Node) bool

    }
    interface growerPipeline  {
        - grow( context.Context,  <font color=blue>chan</font> *Node) (<font color=blue>chan</font> *Node, <font color=blue>chan</font> error)
        - enableValidation() 

    }
    interface growerSimple  {
        - grow( []*Node) error
        - enableValidation() 

    }
    class gtree.Option << (T, #FF7700) >>  {
    }
    class gtree.encode << (T, #FF7700) >>  {
    }
    class gtree.spaceType << (T, #FF7700) >>  {
    }
    class inputFormatError << (S,Aquamarine) >> {
        - row string

        + Error() string

    }
    class jsonNode << (S,Aquamarine) >> {
        + Name string
        + Children []*jsonNode

    }
    class jsonSpreaderPipeline << (S,Aquamarine) >> {
        - spread(ctx context.Context, w io.Writer, roots <font color=blue>chan</font> *Node) <font color=blue>chan</font> error

    }
    class jsonSpreaderSimple << (S,Aquamarine) >> {
        - spread(w io.Writer, roots []*Node) error

    }
    interface mkdirerPipeline  {
        - mkdir( context.Context,  <font color=blue>chan</font> *Node) <font color=blue>chan</font> error

    }
    interface mkdirerSimple  {
        - mkdir( []*Node) error

    }
    class nodeGenerator << (S,Aquamarine) >> {
        - parser *markdown.Parser

        - generate(row string, idx uint) (*Node, error)
        - handleErr(err error, row string) error

    }
    class nopGrowerPipeline << (S,Aquamarine) >> {
        - grow(ctx context.Context, roots <font color=blue>chan</font> *Node) (<font color=blue>chan</font> *Node, <font color=blue>chan</font> error)

    }
    class nopGrowerSimple << (S,Aquamarine) >> {
        - grow(_ []*Node) error
        - enableValidation() 

    }
    class rootGeneratorPipeline << (S,Aquamarine) >> {
        - nodeGenerator *nodeGenerator

        - generate(ctx context.Context, blocks <font color=blue>chan</font> string) (<font color=blue>chan</font> *Node, <font color=blue>chan</font> error)
        - worker(ctx context.Context, wg *sync.WaitGroup, blocks <font color=blue>chan</font> string, rootc <font color=blue>chan</font> *Node, errc <font color=blue>chan</font> error) 

    }
    class rootGeneratorSimple << (S,Aquamarine) >> {
        - counter *counter
        - scanner *bufio.Scanner
        - nodeGenerator *nodeGenerator

        - generate() ([]*Node, error)

    }
    interface spreaderPipeline  {
        - spread( context.Context,  io.Writer,  <font color=blue>chan</font> *Node) <font color=blue>chan</font> error

    }
    interface spreaderSimple  {
        - spread( io.Writer,  []*Node) error

    }
    class stack << (S,Aquamarine) >> {
        - nodes *list.List

        - push(n *Node) *stack
        - pop() *Node
        - size() int
        - dfs(current *Node) 

    }
    class tomlNode << (S,Aquamarine) >> {
        + Name string
        + Children []*tomlNode

    }
    class tomlSpreaderPipeline << (S,Aquamarine) >> {
        - spread(ctx context.Context, w io.Writer, roots <font color=blue>chan</font> *Node) <font color=blue>chan</font> error

    }
    class tomlSpreaderSimple << (S,Aquamarine) >> {
        - spread(w io.Writer, roots []*Node) error

    }
    interface tree  {
        - output( io.Writer,  io.Reader,  *config) error
        - outputProgrammably( io.Writer,  *Node,  *config) error
        - mkdir( io.Reader,  *config) error
        - mkdirProgrammably( *Node,  *config) error

    }
    class treePipeline << (S,Aquamarine) >> {
        - grower growerPipeline
        - spreader spreaderPipeline
        - mkdirer mkdirerPipeline

        - output(w io.Writer, r io.Reader, cfg *config) error
        - outputProgrammably(w io.Writer, root *Node, cfg *config) error
        - mkdir(r io.Reader, cfg *config) error
        - mkdirProgrammably(root *Node, cfg *config) error
        - handlePipelineErr(ctx context.Context, echs ...<font color=blue>chan</font> error) error

    }
    class treeSimple << (S,Aquamarine) >> {
        - grower growerSimple
        - spreader spreaderSimple
        - mkdirer mkdirerSimple

        - output(w io.Writer, r io.Reader, cfg *config) error
        - outputProgrammably(w io.Writer, root *Node, cfg *config) error
        - mkdir(r io.Reader, cfg *config) error
        - mkdirProgrammably(root *Node, cfg *config) error

    }
    class yamlNode << (S,Aquamarine) >> {
        + Name string
        + Children []*yamlNode

    }
    class yamlSpreaderPipeline << (S,Aquamarine) >> {
        - spread(ctx context.Context, w io.Writer, roots <font color=blue>chan</font> *Node) <font color=blue>chan</font> error

    }
    class yamlSpreaderSimple << (S,Aquamarine) >> {
        - spread(w io.Writer, roots []*Node) error

    }
}
"gtree.colorizeSpreaderSimple" *- - "gtree.colorizeSpreaderPipeline"
"gtree.defaultSpreaderSimple" *- - "gtree.colorizeSpreaderSimple"
"gtree.defaultGrowerSimple" *- - "gtree.defaultGrowerPipeline"
"gtree.defaultMkdirerSimple" *- - "gtree.defaultMkdirerPipeline"
"gtree.defaultSpreaderSimple" *- - "gtree.defaultSpreaderPipeline"
"sync.Mutex" *- - "gtree.defaultSpreaderPipeline"
"gtree.nopGrowerSimple" *- - "gtree.nopGrowerPipeline"

"gtree.spreaderPipeline" <|- - "gtree.colorizeSpreaderPipeline"
"gtree.spreaderSimple" <|- - "gtree.colorizeSpreaderSimple"
"gtree.growerSimple" <|- - "gtree.defaultGrowerSimple"
"gtree.mkdirerPipeline" <|- - "gtree.defaultMkdirerPipeline"
"gtree.mkdirerSimple" <|- - "gtree.defaultMkdirerSimple"
"gtree.spreaderPipeline" <|- - "gtree.defaultSpreaderPipeline"
"gtree.spreaderSimple" <|- - "gtree.defaultSpreaderSimple"
"gtree.spreaderPipeline" <|- - "gtree.jsonSpreaderPipeline"
"gtree.spreaderSimple" <|- - "gtree.jsonSpreaderSimple"
"gtree.growerSimple" <|- - "gtree.nopGrowerSimple"
"gtree.spreaderPipeline" <|- - "gtree.tomlSpreaderPipeline"
"gtree.spreaderSimple" <|- - "gtree.tomlSpreaderSimple"
"gtree.tree" <|- - "gtree.treePipeline"
"gtree.tree" <|- - "gtree.treeSimple"
"gtree.spreaderPipeline" <|- - "gtree.yamlSpreaderPipeline"
"gtree.spreaderSimple" <|- - "gtree.yamlSpreaderSimple"

"__builtin__.int" #.. "gtree.encode"
"__builtin__.int" #.. "gtree.spaceType"
"gtree.<font color=blue>func</font>(*config) " #.. "gtree.Option"
hide fields
hide methods
@enduml

PlantUML version 1.2022.7(Tue Aug 23 02:01:30 JST 2022)
(GPL source distribution)
Java Runtime: OpenJDK Runtime Environment
JVM: OpenJDK 64-Bit Server VM
Default Encoding: UTF-8
Language: ja
Country: JP
--></g></svg>