<?xml version="1.0" encoding="UTF-8" standalone="no"?><svg xmlns="http://www.w3.org/2000/svg" xmlns:xlink="http://www.w3.org/1999/xlink" contentStyleType="text/css" height="479px" preserveAspectRatio="none" style="width:3119px;height:479px;background:#FFFFFF;" version="1.1" viewBox="0 0 3119 479" width="3119px" zoomAndPan="magnify"><defs/><g><!--MD5=[f523d4665f60c2d1945a60d21a66a033]
cluster gtree--><g id="cluster_gtree"><path d="M138.5,113 L183.5,113 A3.75,3.75 0 0 1 186,115.5 L193,135.2969 L3109.5,135.2969 A2.5,2.5 0 0 1 3112,137.7969 L3112,469.5 A2.5,2.5 0 0 1 3109.5,472 L138.5,472 A2.5,2.5 0 0 1 136,469.5 L136,115.5 A2.5,2.5 0 0 1 138.5,113 " fill="none" style="stroke:#000000;stroke-width:1.5;"/><line style="stroke:#000000;stroke-width:1.5;" x1="136" x2="193" y1="135.2969" y2="135.2969"/><text fill="#000000" font-family="sans-serif" font-size="14" font-weight="bold" lengthAdjust="spacing" textLength="44" x="140" y="127.9951">gtree</text></g><!--MD5=[f9f5e47277aa1cf362235c24d633d021]
cluster sync--><g id="cluster_sync"><path d="M8.5,205 L44.5,205 A3.75,3.75 0 0 1 47,207.5 L54,227.2969 L109.5,227.2969 A2.5,2.5 0 0 1 112,229.7969 L112,285.5 A2.5,2.5 0 0 1 109.5,288 L8.5,288 A2.5,2.5 0 0 1 6,285.5 L6,207.5 A2.5,2.5 0 0 1 8.5,205 " fill="none" style="stroke:#000000;stroke-width:1.5;"/><line style="stroke:#000000;stroke-width:1.5;" x1="6" x2="54" y1="227.2969" y2="227.2969"/><text fill="#000000" font-family="sans-serif" font-size="14" font-weight="bold" lengthAdjust="spacing" textLength="35" x="10" y="219.9951">sync</text></g><!--MD5=[857233cdc7018b1e8695fe78ce49561f]
cluster __builtin__--><g id="cluster___builtin__"><path d="M2010.5,6 L2063.5,6 A3.75,3.75 0 0 1 2066,8.5 L2073,28.2969 L2087.5,28.2969 A2.5,2.5 0 0 1 2090,30.7969 L2090,86.5 A2.5,2.5 0 0 1 2087.5,89 L2010.5,89 A2.5,2.5 0 0 1 2008,86.5 L2008,8.5 A2.5,2.5 0 0 1 2010.5,6 " fill="none" style="stroke:#000000;stroke-width:1.5;"/><line style="stroke:#000000;stroke-width:1.5;" x1="2008" x2="2073" y1="28.2969" y2="28.2969"/><text fill="#000000" font-family="sans-serif" font-size="14" font-weight="bold" lengthAdjust="spacing" text-decoration="underline" textLength="52" x="2012" y="20.9951">builtin</text></g><!--MD5=[a61b9ed84bf2875371bc6bf2a2be554e]
class gtree.Node--><g id="elem_gtree.Node"><rect codeLine="2" fill="#F1F1F1" height="32" id="gtree.Node" rx="2.5" ry="2.5" style="stroke:#181818;stroke-width:0.5;" width="69" x="2486.5" y="148"/><ellipse cx="2501.5" cy="164" fill="#7FFFD4" rx="11" ry="11" style="stroke:#181818;stroke-width:1.0;"/><path d="M2500.9844,164.5625 Q2499.125,163.8594 2498.4688,163.0938 Q2497.8281,162.3125 2497.8281,161 Q2497.8281,159.3125 2498.9063,158.3438 Q2499.9844,157.375 2501.8594,157.375 Q2502.7188,157.375 2503.5625,157.5781 Q2504.4219,157.7656 2505.2656,158.1563 L2505.2656,160.5469 Q2504.4844,159.9844 2503.6563,159.7031 Q2502.8438,159.4063 2502.0469,159.4063 Q2501.1719,159.4063 2500.6875,159.7656 Q2500.2188,160.125 2500.2188,160.7813 Q2500.2188,161.2969 2500.5625,161.6406 Q2500.9063,161.9688 2502,162.375 L2503.0625,162.7813 Q2504.5469,163.3281 2505.25,164.2344 Q2505.9688,165.1406 2505.9688,166.5156 Q2505.9688,168.3906 2504.8594,169.3125 Q2503.75,170.2344 2501.5,170.2344 Q2500.5781,170.2344 2499.6563,170.0156 Q2498.7344,169.7969 2497.875,169.375 L2497.875,166.8438 Q2498.8438,167.5313 2499.7656,167.875 Q2500.6875,168.2188 2501.5781,168.2188 Q2502.4844,168.2188 2502.9844,167.8125 Q2503.4844,167.3906 2503.4844,166.6563 Q2503.4844,166.0938 2503.1406,165.6875 Q2502.8125,165.2656 2502.1875,165.0156 L2500.9844,164.5625 Z " fill="#000000"/><text fill="#000000" font-family="sans-serif" font-size="14" lengthAdjust="spacing" textLength="37" x="2515.5" y="168.8467">Node</text></g><!--MD5=[5a449540dd242248c36637cbc53badf6]
class gtree.branch--><g id="elem_gtree.branch"><rect codeLine="30" fill="#F1F1F1" height="32" id="gtree.branch" rx="2.5" ry="2.5" style="stroke:#181818;stroke-width:0.5;" width="82" x="2591" y="148"/><ellipse cx="2606" cy="164" fill="#7FFFD4" rx="11" ry="11" style="stroke:#181818;stroke-width:1.0;"/><path d="M2605.4844,164.5625 Q2603.625,163.8594 2602.9688,163.0938 Q2602.3281,162.3125 2602.3281,161 Q2602.3281,159.3125 2603.4063,158.3438 Q2604.4844,157.375 2606.3594,157.375 Q2607.2188,157.375 2608.0625,157.5781 Q2608.9219,157.7656 2609.7656,158.1563 L2609.7656,160.5469 Q2608.9844,159.9844 2608.1563,159.7031 Q2607.3438,159.4063 2606.5469,159.4063 Q2605.6719,159.4063 2605.1875,159.7656 Q2604.7188,160.125 2604.7188,160.7813 Q2604.7188,161.2969 2605.0625,161.6406 Q2605.4063,161.9688 2606.5,162.375 L2607.5625,162.7813 Q2609.0469,163.3281 2609.75,164.2344 Q2610.4688,165.1406 2610.4688,166.5156 Q2610.4688,168.3906 2609.3594,169.3125 Q2608.25,170.2344 2606,170.2344 Q2605.0781,170.2344 2604.1563,170.0156 Q2603.2344,169.7969 2602.375,169.375 L2602.375,166.8438 Q2603.3438,167.5313 2604.2656,167.875 Q2605.1875,168.2188 2606.0781,168.2188 Q2606.9844,168.2188 2607.4844,167.8125 Q2607.9844,167.3906 2607.9844,166.6563 Q2607.9844,166.0938 2607.6406,165.6875 Q2607.3125,165.2656 2606.6875,165.0156 L2605.4844,164.5625 Z " fill="#000000"/><text fill="#000000" font-family="sans-serif" font-size="14" lengthAdjust="spacing" textLength="50" x="2620" y="168.8467">branch</text></g><!--MD5=[0b2cabb51edf09577e37826ed68ec759]
class gtree.branchFormat--><g id="elem_gtree.branchFormat"><rect codeLine="35" fill="#F1F1F1" height="32" id="gtree.branchFormat" rx="2.5" ry="2.5" style="stroke:#181818;stroke-width:0.5;" width="133" x="2708.5" y="148"/><ellipse cx="2723.5" cy="164" fill="#7FFFD4" rx="11" ry="11" style="stroke:#181818;stroke-width:1.0;"/><path d="M2722.9844,164.5625 Q2721.125,163.8594 2720.4688,163.0938 Q2719.8281,162.3125 2719.8281,161 Q2719.8281,159.3125 2720.9063,158.3438 Q2721.9844,157.375 2723.8594,157.375 Q2724.7188,157.375 2725.5625,157.5781 Q2726.4219,157.7656 2727.2656,158.1563 L2727.2656,160.5469 Q2726.4844,159.9844 2725.6563,159.7031 Q2724.8438,159.4063 2724.0469,159.4063 Q2723.1719,159.4063 2722.6875,159.7656 Q2722.2188,160.125 2722.2188,160.7813 Q2722.2188,161.2969 2722.5625,161.6406 Q2722.9063,161.9688 2724,162.375 L2725.0625,162.7813 Q2726.5469,163.3281 2727.25,164.2344 Q2727.9688,165.1406 2727.9688,166.5156 Q2727.9688,168.3906 2726.8594,169.3125 Q2725.75,170.2344 2723.5,170.2344 Q2722.5781,170.2344 2721.6563,170.0156 Q2720.7344,169.7969 2719.875,169.375 L2719.875,166.8438 Q2720.8438,167.5313 2721.7656,167.875 Q2722.6875,168.2188 2723.5781,168.2188 Q2724.4844,168.2188 2724.9844,167.8125 Q2725.4844,167.3906 2725.4844,166.6563 Q2725.4844,166.0938 2725.1406,165.6875 Q2724.8125,165.2656 2724.1875,165.0156 L2722.9844,164.5625 Z " fill="#000000"/><text fill="#000000" font-family="sans-serif" font-size="14" lengthAdjust="spacing" textLength="101" x="2737.5" y="168.8467">branchFormat</text></g><!--MD5=[38060ecad2798838157451d3ba30d88b]
class gtree.colorizeSpreaderPipeline--><g id="elem_gtree.colorizeSpreaderPipeline"><rect codeLine="39" fill="#F1F1F1" height="32" id="gtree.colorizeSpreaderPipeline" rx="2.5" ry="2.5" style="stroke:#181818;stroke-width:0.5;" width="210" x="658" y="424"/><ellipse cx="673" cy="440" fill="#7FFFD4" rx="11" ry="11" style="stroke:#181818;stroke-width:1.0;"/><path d="M672.4844,440.5625 Q670.625,439.8594 669.9688,439.0938 Q669.3281,438.3125 669.3281,437 Q669.3281,435.3125 670.4063,434.3438 Q671.4844,433.375 673.3594,433.375 Q674.2188,433.375 675.0625,433.5781 Q675.9219,433.7656 676.7656,434.1563 L676.7656,436.5469 Q675.9844,435.9844 675.1563,435.7031 Q674.3438,435.4063 673.5469,435.4063 Q672.6719,435.4063 672.1875,435.7656 Q671.7188,436.125 671.7188,436.7813 Q671.7188,437.2969 672.0625,437.6406 Q672.4063,437.9688 673.5,438.375 L674.5625,438.7813 Q676.0469,439.3281 676.75,440.2344 Q677.4688,441.1406 677.4688,442.5156 Q677.4688,444.3906 676.3594,445.3125 Q675.25,446.2344 673,446.2344 Q672.0781,446.2344 671.1563,446.0156 Q670.2344,445.7969 669.375,445.375 L669.375,442.8438 Q670.3438,443.5313 671.2656,443.875 Q672.1875,444.2188 673.0781,444.2188 Q673.9844,444.2188 674.4844,443.8125 Q674.9844,443.3906 674.9844,442.6563 Q674.9844,442.0938 674.6406,441.6875 Q674.3125,441.2656 673.6875,441.0156 L672.4844,440.5625 Z " fill="#000000"/><text fill="#000000" font-family="sans-serif" font-size="14" lengthAdjust="spacing" textLength="178" x="687" y="444.8467">colorizeSpreaderPipeline</text></g><!--MD5=[95fd347abf165423d1d2df2dc9a061c7]
class gtree.colorizeSpreaderSimple--><g id="elem_gtree.colorizeSpreaderSimple"><rect codeLine="43" fill="#F1F1F1" height="32" id="gtree.colorizeSpreaderSimple" rx="2.5" ry="2.5" style="stroke:#181818;stroke-width:0.5;" width="203" x="480.5" y="332"/><ellipse cx="495.5" cy="348" fill="#7FFFD4" rx="11" ry="11" style="stroke:#181818;stroke-width:1.0;"/><path d="M494.9844,348.5625 Q493.125,347.8594 492.4688,347.0938 Q491.8281,346.3125 491.8281,345 Q491.8281,343.3125 492.9063,342.3438 Q493.9844,341.375 495.8594,341.375 Q496.7188,341.375 497.5625,341.5781 Q498.4219,341.7656 499.2656,342.1563 L499.2656,344.5469 Q498.4844,343.9844 497.6563,343.7031 Q496.8438,343.4063 496.0469,343.4063 Q495.1719,343.4063 494.6875,343.7656 Q494.2188,344.125 494.2188,344.7813 Q494.2188,345.2969 494.5625,345.6406 Q494.9063,345.9688 496,346.375 L497.0625,346.7813 Q498.5469,347.3281 499.25,348.2344 Q499.9688,349.1406 499.9688,350.5156 Q499.9688,352.3906 498.8594,353.3125 Q497.75,354.2344 495.5,354.2344 Q494.5781,354.2344 493.6563,354.0156 Q492.7344,353.7969 491.875,353.375 L491.875,350.8438 Q492.8438,351.5313 493.7656,351.875 Q494.6875,352.2188 495.5781,352.2188 Q496.4844,352.2188 496.9844,351.8125 Q497.4844,351.3906 497.4844,350.6563 Q497.4844,350.0938 497.1406,349.6875 Q496.8125,349.2656 496.1875,349.0156 L494.9844,348.5625 Z " fill="#000000"/><text fill="#000000" font-family="sans-serif" font-size="14" lengthAdjust="spacing" textLength="171" x="509.5" y="352.8467">colorizeSpreaderSimple</text></g><!--MD5=[b2112af791478750f6bb67789c4a273a]
class gtree.config--><g id="elem_gtree.config"><rect codeLine="56" fill="#F1F1F1" height="32" id="gtree.config" rx="2.5" ry="2.5" style="stroke:#181818;stroke-width:0.5;" width="76" x="2877" y="148"/><ellipse cx="2892" cy="164" fill="#7FFFD4" rx="11" ry="11" style="stroke:#181818;stroke-width:1.0;"/><path d="M2891.4844,164.5625 Q2889.625,163.8594 2888.9688,163.0938 Q2888.3281,162.3125 2888.3281,161 Q2888.3281,159.3125 2889.4063,158.3438 Q2890.4844,157.375 2892.3594,157.375 Q2893.2188,157.375 2894.0625,157.5781 Q2894.9219,157.7656 2895.7656,158.1563 L2895.7656,160.5469 Q2894.9844,159.9844 2894.1563,159.7031 Q2893.3438,159.4063 2892.5469,159.4063 Q2891.6719,159.4063 2891.1875,159.7656 Q2890.7188,160.125 2890.7188,160.7813 Q2890.7188,161.2969 2891.0625,161.6406 Q2891.4063,161.9688 2892.5,162.375 L2893.5625,162.7813 Q2895.0469,163.3281 2895.75,164.2344 Q2896.4688,165.1406 2896.4688,166.5156 Q2896.4688,168.3906 2895.3594,169.3125 Q2894.25,170.2344 2892,170.2344 Q2891.0781,170.2344 2890.1563,170.0156 Q2889.2344,169.7969 2888.375,169.375 L2888.375,166.8438 Q2889.3438,167.5313 2890.2656,167.875 Q2891.1875,168.2188 2892.0781,168.2188 Q2892.9844,168.2188 2893.4844,167.8125 Q2893.9844,167.3906 2893.9844,166.6563 Q2893.9844,166.0938 2893.6406,165.6875 Q2893.3125,165.2656 2892.6875,165.0156 L2891.4844,164.5625 Z " fill="#000000"/><text fill="#000000" font-family="sans-serif" font-size="14" lengthAdjust="spacing" textLength="44" x="2906" y="168.8467">config</text></g><!--MD5=[026a6169210a4b2349ecee86eb07d237]
class gtree.counter--><g id="elem_gtree.counter"><rect codeLine="67" fill="#F1F1F1" height="32" id="gtree.counter" rx="2.5" ry="2.5" style="stroke:#181818;stroke-width:0.5;" width="87" x="2477.5" y="240"/><ellipse cx="2492.5" cy="256" fill="#7FFFD4" rx="11" ry="11" style="stroke:#181818;stroke-width:1.0;"/><path d="M2491.9844,256.5625 Q2490.125,255.8594 2489.4688,255.0938 Q2488.8281,254.3125 2488.8281,253 Q2488.8281,251.3125 2489.9063,250.3438 Q2490.9844,249.375 2492.8594,249.375 Q2493.7188,249.375 2494.5625,249.5781 Q2495.4219,249.7656 2496.2656,250.1563 L2496.2656,252.5469 Q2495.4844,251.9844 2494.6563,251.7031 Q2493.8438,251.4063 2493.0469,251.4063 Q2492.1719,251.4063 2491.6875,251.7656 Q2491.2188,252.125 2491.2188,252.7813 Q2491.2188,253.2969 2491.5625,253.6406 Q2491.9063,253.9688 2493,254.375 L2494.0625,254.7813 Q2495.5469,255.3281 2496.25,256.2344 Q2496.9688,257.1406 2496.9688,258.5156 Q2496.9688,260.3906 2495.8594,261.3125 Q2494.75,262.2344 2492.5,262.2344 Q2491.5781,262.2344 2490.6563,262.0156 Q2489.7344,261.7969 2488.875,261.375 L2488.875,258.8438 Q2489.8438,259.5313 2490.7656,259.875 Q2491.6875,260.2188 2492.5781,260.2188 Q2493.4844,260.2188 2493.9844,259.8125 Q2494.4844,259.3906 2494.4844,258.6563 Q2494.4844,258.0938 2494.1406,257.6875 Q2493.8125,257.2656 2493.1875,257.0156 L2491.9844,256.5625 Z " fill="#000000"/><text fill="#000000" font-family="sans-serif" font-size="14" lengthAdjust="spacing" textLength="55" x="2506.5" y="260.8467">counter</text></g><!--MD5=[08f5916a8a87fad3194747f94426301c]
class gtree.defaultGrowerPipeline--><g id="elem_gtree.defaultGrowerPipeline"><rect codeLine="76" fill="#F1F1F1" height="32" id="gtree.defaultGrowerPipeline" rx="2.5" ry="2.5" style="stroke:#181818;stroke-width:0.5;" width="190" x="1950" y="332"/><ellipse cx="1965" cy="348" fill="#7FFFD4" rx="11" ry="11" style="stroke:#181818;stroke-width:1.0;"/><path d="M1964.4844,348.5625 Q1962.625,347.8594 1961.9688,347.0938 Q1961.3281,346.3125 1961.3281,345 Q1961.3281,343.3125 1962.4063,342.3438 Q1963.4844,341.375 1965.3594,341.375 Q1966.2188,341.375 1967.0625,341.5781 Q1967.9219,341.7656 1968.7656,342.1563 L1968.7656,344.5469 Q1967.9844,343.9844 1967.1563,343.7031 Q1966.3438,343.4063 1965.5469,343.4063 Q1964.6719,343.4063 1964.1875,343.7656 Q1963.7188,344.125 1963.7188,344.7813 Q1963.7188,345.2969 1964.0625,345.6406 Q1964.4063,345.9688 1965.5,346.375 L1966.5625,346.7813 Q1968.0469,347.3281 1968.75,348.2344 Q1969.4688,349.1406 1969.4688,350.5156 Q1969.4688,352.3906 1968.3594,353.3125 Q1967.25,354.2344 1965,354.2344 Q1964.0781,354.2344 1963.1563,354.0156 Q1962.2344,353.7969 1961.375,353.375 L1961.375,350.8438 Q1962.3438,351.5313 1963.2656,351.875 Q1964.1875,352.2188 1965.0781,352.2188 Q1965.9844,352.2188 1966.4844,351.8125 Q1966.9844,351.3906 1966.9844,350.6563 Q1966.9844,350.0938 1966.6406,349.6875 Q1966.3125,349.2656 1965.6875,349.0156 L1964.4844,348.5625 Z " fill="#000000"/><text fill="#000000" font-family="sans-serif" font-size="14" lengthAdjust="spacing" textLength="158" x="1979" y="352.8467">defaultGrowerPipeline</text></g><!--MD5=[a2be2fef63b1c53ecefca6d39b5438e2]
class gtree.defaultGrowerSimple--><g id="elem_gtree.defaultGrowerSimple"><rect codeLine="81" fill="#F1F1F1" height="32" id="gtree.defaultGrowerSimple" rx="2.5" ry="2.5" style="stroke:#181818;stroke-width:0.5;" width="183" x="2063.5" y="240"/><ellipse cx="2078.5" cy="256" fill="#7FFFD4" rx="11" ry="11" style="stroke:#181818;stroke-width:1.0;"/><path d="M2077.9844,256.5625 Q2076.125,255.8594 2075.4688,255.0938 Q2074.8281,254.3125 2074.8281,253 Q2074.8281,251.3125 2075.9063,250.3438 Q2076.9844,249.375 2078.8594,249.375 Q2079.7188,249.375 2080.5625,249.5781 Q2081.4219,249.7656 2082.2656,250.1563 L2082.2656,252.5469 Q2081.4844,251.9844 2080.6563,251.7031 Q2079.8438,251.4063 2079.0469,251.4063 Q2078.1719,251.4063 2077.6875,251.7656 Q2077.2188,252.125 2077.2188,252.7813 Q2077.2188,253.2969 2077.5625,253.6406 Q2077.9063,253.9688 2079,254.375 L2080.0625,254.7813 Q2081.5469,255.3281 2082.25,256.2344 Q2082.9688,257.1406 2082.9688,258.5156 Q2082.9688,260.3906 2081.8594,261.3125 Q2080.75,262.2344 2078.5,262.2344 Q2077.5781,262.2344 2076.6563,262.0156 Q2075.7344,261.7969 2074.875,261.375 L2074.875,258.8438 Q2075.8438,259.5313 2076.7656,259.875 Q2077.6875,260.2188 2078.5781,260.2188 Q2079.4844,260.2188 2079.9844,259.8125 Q2080.4844,259.3906 2080.4844,258.6563 Q2080.4844,258.0938 2080.1406,257.6875 Q2079.8125,257.2656 2079.1875,257.0156 L2077.9844,256.5625 Z " fill="#000000"/><text fill="#000000" font-family="sans-serif" font-size="14" lengthAdjust="spacing" textLength="151" x="2092.5" y="260.8467">defaultGrowerSimple</text></g><!--MD5=[0175b5459c57f99d95f33dac4767e445]
class gtree.defaultMkdirerPipeline--><g id="elem_gtree.defaultMkdirerPipeline"><rect codeLine="95" fill="#F1F1F1" height="32" id="gtree.defaultMkdirerPipeline" rx="2.5" ry="2.5" style="stroke:#181818;stroke-width:0.5;" width="192" x="1481" y="332"/><ellipse cx="1496" cy="348" fill="#7FFFD4" rx="11" ry="11" style="stroke:#181818;stroke-width:1.0;"/><path d="M1495.4844,348.5625 Q1493.625,347.8594 1492.9688,347.0938 Q1492.3281,346.3125 1492.3281,345 Q1492.3281,343.3125 1493.4063,342.3438 Q1494.4844,341.375 1496.3594,341.375 Q1497.2188,341.375 1498.0625,341.5781 Q1498.9219,341.7656 1499.7656,342.1563 L1499.7656,344.5469 Q1498.9844,343.9844 1498.1563,343.7031 Q1497.3438,343.4063 1496.5469,343.4063 Q1495.6719,343.4063 1495.1875,343.7656 Q1494.7188,344.125 1494.7188,344.7813 Q1494.7188,345.2969 1495.0625,345.6406 Q1495.4063,345.9688 1496.5,346.375 L1497.5625,346.7813 Q1499.0469,347.3281 1499.75,348.2344 Q1500.4688,349.1406 1500.4688,350.5156 Q1500.4688,352.3906 1499.3594,353.3125 Q1498.25,354.2344 1496,354.2344 Q1495.0781,354.2344 1494.1563,354.0156 Q1493.2344,353.7969 1492.375,353.375 L1492.375,350.8438 Q1493.3438,351.5313 1494.2656,351.875 Q1495.1875,352.2188 1496.0781,352.2188 Q1496.9844,352.2188 1497.4844,351.8125 Q1497.9844,351.3906 1497.9844,350.6563 Q1497.9844,350.0938 1497.6406,349.6875 Q1497.3125,349.2656 1496.6875,349.0156 L1495.4844,348.5625 Z " fill="#000000"/><text fill="#000000" font-family="sans-serif" font-size="14" lengthAdjust="spacing" textLength="160" x="1510" y="352.8467">defaultMkdirerPipeline</text></g><!--MD5=[2e10154fbfc97053e1dd9decf5814441]
class gtree.defaultMkdirerSimple--><g id="elem_gtree.defaultMkdirerSimple"><rect codeLine="100" fill="#F1F1F1" height="32" id="gtree.defaultMkdirerSimple" rx="2.5" ry="2.5" style="stroke:#181818;stroke-width:0.5;" width="185" x="1545.5" y="240"/><ellipse cx="1560.5" cy="256" fill="#7FFFD4" rx="11" ry="11" style="stroke:#181818;stroke-width:1.0;"/><path d="M1559.9844,256.5625 Q1558.125,255.8594 1557.4688,255.0938 Q1556.8281,254.3125 1556.8281,253 Q1556.8281,251.3125 1557.9063,250.3438 Q1558.9844,249.375 1560.8594,249.375 Q1561.7188,249.375 1562.5625,249.5781 Q1563.4219,249.7656 1564.2656,250.1563 L1564.2656,252.5469 Q1563.4844,251.9844 1562.6563,251.7031 Q1561.8438,251.4063 1561.0469,251.4063 Q1560.1719,251.4063 1559.6875,251.7656 Q1559.2188,252.125 1559.2188,252.7813 Q1559.2188,253.2969 1559.5625,253.6406 Q1559.9063,253.9688 1561,254.375 L1562.0625,254.7813 Q1563.5469,255.3281 1564.25,256.2344 Q1564.9688,257.1406 1564.9688,258.5156 Q1564.9688,260.3906 1563.8594,261.3125 Q1562.75,262.2344 1560.5,262.2344 Q1559.5781,262.2344 1558.6563,262.0156 Q1557.7344,261.7969 1556.875,261.375 L1556.875,258.8438 Q1557.8438,259.5313 1558.7656,259.875 Q1559.6875,260.2188 1560.5781,260.2188 Q1561.4844,260.2188 1561.9844,259.8125 Q1562.4844,259.3906 1562.4844,258.6563 Q1562.4844,258.0938 1562.1406,257.6875 Q1561.8125,257.2656 1561.1875,257.0156 L1559.9844,256.5625 Z " fill="#000000"/><text fill="#000000" font-family="sans-serif" font-size="14" lengthAdjust="spacing" textLength="153" x="1574.5" y="260.8467">defaultMkdirerSimple</text></g><!--MD5=[8d21557af39944907500f3704b980d13]
class gtree.defaultSpreaderPipeline--><g id="elem_gtree.defaultSpreaderPipeline"><rect codeLine="110" fill="#F1F1F1" height="32" id="gtree.defaultSpreaderPipeline" rx="2.5" ry="2.5" style="stroke:#181818;stroke-width:0.5;" width="204" x="241" y="332"/><ellipse cx="256" cy="348" fill="#7FFFD4" rx="11" ry="11" style="stroke:#181818;stroke-width:1.0;"/><path d="M255.4844,348.5625 Q253.625,347.8594 252.9688,347.0938 Q252.3281,346.3125 252.3281,345 Q252.3281,343.3125 253.4063,342.3438 Q254.4844,341.375 256.3594,341.375 Q257.2188,341.375 258.0625,341.5781 Q258.9219,341.7656 259.7656,342.1563 L259.7656,344.5469 Q258.9844,343.9844 258.1563,343.7031 Q257.3438,343.4063 256.5469,343.4063 Q255.6719,343.4063 255.1875,343.7656 Q254.7188,344.125 254.7188,344.7813 Q254.7188,345.2969 255.0625,345.6406 Q255.4063,345.9688 256.5,346.375 L257.5625,346.7813 Q259.0469,347.3281 259.75,348.2344 Q260.4688,349.1406 260.4688,350.5156 Q260.4688,352.3906 259.3594,353.3125 Q258.25,354.2344 256,354.2344 Q255.0781,354.2344 254.1563,354.0156 Q253.2344,353.7969 252.375,353.375 L252.375,350.8438 Q253.3438,351.5313 254.2656,351.875 Q255.1875,352.2188 256.0781,352.2188 Q256.9844,352.2188 257.4844,351.8125 Q257.9844,351.3906 257.9844,350.6563 Q257.9844,350.0938 257.6406,349.6875 Q257.3125,349.2656 256.6875,349.0156 L255.4844,348.5625 Z " fill="#000000"/><text fill="#000000" font-family="sans-serif" font-size="14" lengthAdjust="spacing" textLength="172" x="270" y="352.8467">defaultSpreaderPipeline</text></g><!--MD5=[f33b9369486623d0e9773877608a377f]
class gtree.defaultSpreaderSimple--><g id="elem_gtree.defaultSpreaderSimple"><rect codeLine="115" fill="#F1F1F1" height="32" id="gtree.defaultSpreaderSimple" rx="2.5" ry="2.5" style="stroke:#181818;stroke-width:0.5;" width="197" x="483.5" y="240"/><ellipse cx="498.5" cy="256" fill="#7FFFD4" rx="11" ry="11" style="stroke:#181818;stroke-width:1.0;"/><path d="M497.9844,256.5625 Q496.125,255.8594 495.4688,255.0938 Q494.8281,254.3125 494.8281,253 Q494.8281,251.3125 495.9063,250.3438 Q496.9844,249.375 498.8594,249.375 Q499.7188,249.375 500.5625,249.5781 Q501.4219,249.7656 502.2656,250.1563 L502.2656,252.5469 Q501.4844,251.9844 500.6563,251.7031 Q499.8438,251.4063 499.0469,251.4063 Q498.1719,251.4063 497.6875,251.7656 Q497.2188,252.125 497.2188,252.7813 Q497.2188,253.2969 497.5625,253.6406 Q497.9063,253.9688 499,254.375 L500.0625,254.7813 Q501.5469,255.3281 502.25,256.2344 Q502.9688,257.1406 502.9688,258.5156 Q502.9688,260.3906 501.8594,261.3125 Q500.75,262.2344 498.5,262.2344 Q497.5781,262.2344 496.6563,262.0156 Q495.7344,261.7969 494.875,261.375 L494.875,258.8438 Q495.8438,259.5313 496.7656,259.875 Q497.6875,260.2188 498.5781,260.2188 Q499.4844,260.2188 499.9844,259.8125 Q500.4844,259.3906 500.4844,258.6563 Q500.4844,258.0938 500.1406,257.6875 Q499.8125,257.2656 499.1875,257.0156 L497.9844,256.5625 Z " fill="#000000"/><text fill="#000000" font-family="sans-serif" font-size="14" lengthAdjust="spacing" textLength="165" x="512.5" y="260.8467">defaultSpreaderSimple</text></g><!--MD5=[485616950f9d47d495335ab682775fc6]
class gtree.fileConsiderer--><g id="elem_gtree.fileConsiderer"><rect codeLine="121" fill="#F1F1F1" height="32" id="gtree.fileConsiderer" rx="2.5" ry="2.5" style="stroke:#181818;stroke-width:0.5;" width="132" x="2600" y="240"/><ellipse cx="2615" cy="256" fill="#7FFFD4" rx="11" ry="11" style="stroke:#181818;stroke-width:1.0;"/><path d="M2614.4844,256.5625 Q2612.625,255.8594 2611.9688,255.0938 Q2611.3281,254.3125 2611.3281,253 Q2611.3281,251.3125 2612.4063,250.3438 Q2613.4844,249.375 2615.3594,249.375 Q2616.2188,249.375 2617.0625,249.5781 Q2617.9219,249.7656 2618.7656,250.1563 L2618.7656,252.5469 Q2617.9844,251.9844 2617.1563,251.7031 Q2616.3438,251.4063 2615.5469,251.4063 Q2614.6719,251.4063 2614.1875,251.7656 Q2613.7188,252.125 2613.7188,252.7813 Q2613.7188,253.2969 2614.0625,253.6406 Q2614.4063,253.9688 2615.5,254.375 L2616.5625,254.7813 Q2618.0469,255.3281 2618.75,256.2344 Q2619.4688,257.1406 2619.4688,258.5156 Q2619.4688,260.3906 2618.3594,261.3125 Q2617.25,262.2344 2615,262.2344 Q2614.0781,262.2344 2613.1563,262.0156 Q2612.2344,261.7969 2611.375,261.375 L2611.375,258.8438 Q2612.3438,259.5313 2613.2656,259.875 Q2614.1875,260.2188 2615.0781,260.2188 Q2615.9844,260.2188 2616.4844,259.8125 Q2616.9844,259.3906 2616.9844,258.6563 Q2616.9844,258.0938 2616.6406,257.6875 Q2616.3125,257.2656 2615.6875,257.0156 L2614.4844,256.5625 Z " fill="#000000"/><text fill="#000000" font-family="sans-serif" font-size="14" lengthAdjust="spacing" textLength="100" x="2629" y="260.8467">fileConsiderer</text></g><!--MD5=[0456c8cfe06223f3e473c3aaab5696b9]
class gtree.growerPipeline--><g id="elem_gtree.growerPipeline"><rect codeLine="127" fill="#F1F1F1" height="32" id="gtree.growerPipeline" rx="2.5" ry="2.5" style="stroke:#181818;stroke-width:0.5;" width="138" x="2767" y="240"/><ellipse cx="2782" cy="256" fill="#B4A7E5" rx="11" ry="11" style="stroke:#181818;stroke-width:1.0;"/><path d="M2777.9219,251.7656 L2777.9219,249.6094 L2785.3125,249.6094 L2785.3125,251.7656 L2782.8438,251.7656 L2782.8438,259.8438 L2785.3125,259.8438 L2785.3125,262 L2777.9219,262 L2777.9219,259.8438 L2780.3906,259.8438 L2780.3906,251.7656 L2777.9219,251.7656 Z " fill="#000000"/><text fill="#000000" font-family="sans-serif" font-size="14" font-style="italic" lengthAdjust="spacing" textLength="106" x="2796" y="260.8467">growerPipeline</text></g><!--MD5=[9c1437a7b7a1c896da7dcdd28927d07e]
class gtree.growerSimple--><g id="elem_gtree.growerSimple"><rect codeLine="132" fill="#F1F1F1" height="32" id="gtree.growerSimple" rx="2.5" ry="2.5" style="stroke:#181818;stroke-width:0.5;" width="131" x="2227.5" y="148"/><ellipse cx="2242.5" cy="164" fill="#B4A7E5" rx="11" ry="11" style="stroke:#181818;stroke-width:1.0;"/><path d="M2238.4219,159.7656 L2238.4219,157.6094 L2245.8125,157.6094 L2245.8125,159.7656 L2243.3438,159.7656 L2243.3438,167.8438 L2245.8125,167.8438 L2245.8125,170 L2238.4219,170 L2238.4219,167.8438 L2240.8906,167.8438 L2240.8906,159.7656 L2238.4219,159.7656 Z " fill="#000000"/><text fill="#000000" font-family="sans-serif" font-size="14" font-style="italic" lengthAdjust="spacing" textLength="99" x="2256.5" y="168.8467">growerSimple</text></g><!--MD5=[fa9b25ba97475cdd9b606c9cf224ba88]
class gtree.Option--><g id="elem_gtree.Option"><rect codeLine="137" fill="#F1F1F1" height="32" id="gtree.Option" rx="2.5" ry="2.5" style="stroke:#181818;stroke-width:0.5;" width="79" x="151.5" y="240"/><ellipse cx="166.5" cy="256" fill="#FF7700" rx="11" ry="11" style="stroke:#181818;stroke-width:1.0;"/><path d="M167.3438,262.75 L164.8906,262.75 L164.8906,252.5 L161.75,252.5 L161.75,250.3594 L170.4844,250.3594 L170.4844,252.5 L167.3438,252.5 L167.3438,262.75 Z " fill="#000000"/><text fill="#000000" font-family="sans-serif" font-size="14" lengthAdjust="spacing" textLength="47" x="180.5" y="260.8467">Option</text></g><!--MD5=[41948fe38285ddb6993c73c080145649]
class gtree.encode--><g id="elem_gtree.encode"><rect codeLine="139" fill="#F1F1F1" height="32" id="gtree.encode" rx="2.5" ry="2.5" style="stroke:#181818;stroke-width:0.5;" width="85" x="2072.5" y="148"/><ellipse cx="2087.5" cy="164" fill="#FF7700" rx="11" ry="11" style="stroke:#181818;stroke-width:1.0;"/><path d="M2088.3438,170.75 L2085.8906,170.75 L2085.8906,160.5 L2082.75,160.5 L2082.75,158.3594 L2091.4844,158.3594 L2091.4844,160.5 L2088.3438,160.5 L2088.3438,170.75 Z " fill="#000000"/><text fill="#000000" font-family="sans-serif" font-size="14" lengthAdjust="spacing" textLength="53" x="2101.5" y="168.8467">encode</text></g><!--MD5=[7d4b2d32e7d6aea5b178467ad32f154c]
class gtree.spaceType--><g id="elem_gtree.spaceType"><rect codeLine="141" fill="#F1F1F1" height="32" id="gtree.spaceType" rx="2.5" ry="2.5" style="stroke:#181818;stroke-width:0.5;" width="109" x="1928.5" y="148"/><ellipse cx="1943.5" cy="164" fill="#FF7700" rx="11" ry="11" style="stroke:#181818;stroke-width:1.0;"/><path d="M1944.3438,170.75 L1941.8906,170.75 L1941.8906,160.5 L1938.75,160.5 L1938.75,158.3594 L1947.4844,158.3594 L1947.4844,160.5 L1944.3438,160.5 L1944.3438,170.75 Z " fill="#000000"/><text fill="#000000" font-family="sans-serif" font-size="14" lengthAdjust="spacing" textLength="77" x="1957.5" y="168.8467">spaceType</text></g><!--MD5=[6dccb1d5cf9ebb98f37137ae0f5a560d]
class gtree.iTree--><g id="elem_gtree.iTree"><rect codeLine="143" fill="#F1F1F1" height="32" id="gtree.iTree" rx="2.5" ry="2.5" style="stroke:#181818;stroke-width:0.5;" width="69" x="1806.5" y="148"/><ellipse cx="1821.5" cy="164" fill="#B4A7E5" rx="11" ry="11" style="stroke:#181818;stroke-width:1.0;"/><path d="M1817.4219,159.7656 L1817.4219,157.6094 L1824.8125,157.6094 L1824.8125,159.7656 L1822.3438,159.7656 L1822.3438,167.8438 L1824.8125,167.8438 L1824.8125,170 L1817.4219,170 L1817.4219,167.8438 L1819.8906,167.8438 L1819.8906,159.7656 L1817.4219,159.7656 Z " fill="#000000"/><text fill="#000000" font-family="sans-serif" font-size="14" font-style="italic" lengthAdjust="spacing" textLength="37" x="1835.5" y="168.8467">iTree</text></g><!--MD5=[57efca6d9e8f3ca2a2d7f0aca272d6fa]
class gtree.inputFormatError--><g id="elem_gtree.inputFormatError"><rect codeLine="150" fill="#F1F1F1" height="32" id="gtree.inputFormatError" rx="2.5" ry="2.5" style="stroke:#181818;stroke-width:0.5;" width="155" x="2940.5" y="240"/><ellipse cx="2955.5" cy="256" fill="#7FFFD4" rx="11" ry="11" style="stroke:#181818;stroke-width:1.0;"/><path d="M2954.9844,256.5625 Q2953.125,255.8594 2952.4688,255.0938 Q2951.8281,254.3125 2951.8281,253 Q2951.8281,251.3125 2952.9063,250.3438 Q2953.9844,249.375 2955.8594,249.375 Q2956.7188,249.375 2957.5625,249.5781 Q2958.4219,249.7656 2959.2656,250.1563 L2959.2656,252.5469 Q2958.4844,251.9844 2957.6563,251.7031 Q2956.8438,251.4063 2956.0469,251.4063 Q2955.1719,251.4063 2954.6875,251.7656 Q2954.2188,252.125 2954.2188,252.7813 Q2954.2188,253.2969 2954.5625,253.6406 Q2954.9063,253.9688 2956,254.375 L2957.0625,254.7813 Q2958.5469,255.3281 2959.25,256.2344 Q2959.9688,257.1406 2959.9688,258.5156 Q2959.9688,260.3906 2958.8594,261.3125 Q2957.75,262.2344 2955.5,262.2344 Q2954.5781,262.2344 2953.6563,262.0156 Q2952.7344,261.7969 2951.875,261.375 L2951.875,258.8438 Q2952.8438,259.5313 2953.7656,259.875 Q2954.6875,260.2188 2955.5781,260.2188 Q2956.4844,260.2188 2956.9844,259.8125 Q2957.4844,259.3906 2957.4844,258.6563 Q2957.4844,258.0938 2957.1406,257.6875 Q2956.8125,257.2656 2956.1875,257.0156 L2954.9844,256.5625 Z " fill="#000000"/><text fill="#000000" font-family="sans-serif" font-size="14" lengthAdjust="spacing" textLength="123" x="2969.5" y="260.8467">inputFormatError</text></g><!--MD5=[c4a8d21900ed019c4ebc09f17e6853ec]
class gtree.jsonNode--><g id="elem_gtree.jsonNode"><rect codeLine="156" fill="#F1F1F1" height="32" id="gtree.jsonNode" rx="2.5" ry="2.5" style="stroke:#181818;stroke-width:0.5;" width="98" x="2377" y="332"/><ellipse cx="2392" cy="348" fill="#7FFFD4" rx="11" ry="11" style="stroke:#181818;stroke-width:1.0;"/><path d="M2391.4844,348.5625 Q2389.625,347.8594 2388.9688,347.0938 Q2388.3281,346.3125 2388.3281,345 Q2388.3281,343.3125 2389.4063,342.3438 Q2390.4844,341.375 2392.3594,341.375 Q2393.2188,341.375 2394.0625,341.5781 Q2394.9219,341.7656 2395.7656,342.1563 L2395.7656,344.5469 Q2394.9844,343.9844 2394.1563,343.7031 Q2393.3438,343.4063 2392.5469,343.4063 Q2391.6719,343.4063 2391.1875,343.7656 Q2390.7188,344.125 2390.7188,344.7813 Q2390.7188,345.2969 2391.0625,345.6406 Q2391.4063,345.9688 2392.5,346.375 L2393.5625,346.7813 Q2395.0469,347.3281 2395.75,348.2344 Q2396.4688,349.1406 2396.4688,350.5156 Q2396.4688,352.3906 2395.3594,353.3125 Q2394.25,354.2344 2392,354.2344 Q2391.0781,354.2344 2390.1563,354.0156 Q2389.2344,353.7969 2388.375,353.375 L2388.375,350.8438 Q2389.3438,351.5313 2390.2656,351.875 Q2391.1875,352.2188 2392.0781,352.2188 Q2392.9844,352.2188 2393.4844,351.8125 Q2393.9844,351.3906 2393.9844,350.6563 Q2393.9844,350.0938 2393.6406,349.6875 Q2393.3125,349.2656 2392.6875,349.0156 L2391.4844,348.5625 Z " fill="#000000"/><text fill="#000000" font-family="sans-serif" font-size="14" lengthAdjust="spacing" textLength="66" x="2406" y="352.8467">jsonNode</text></g><!--MD5=[d371a5b29db8233a56282275f871f2ab]
class gtree.jsonSpreaderPipeline--><g id="elem_gtree.jsonSpreaderPipeline"><rect codeLine="161" fill="#F1F1F1" height="32" id="gtree.jsonSpreaderPipeline" rx="2.5" ry="2.5" style="stroke:#181818;stroke-width:0.5;" width="183" x="980.5" y="332"/><ellipse cx="995.5" cy="348" fill="#7FFFD4" rx="11" ry="11" style="stroke:#181818;stroke-width:1.0;"/><path d="M994.9844,348.5625 Q993.125,347.8594 992.4688,347.0938 Q991.8281,346.3125 991.8281,345 Q991.8281,343.3125 992.9063,342.3438 Q993.9844,341.375 995.8594,341.375 Q996.7188,341.375 997.5625,341.5781 Q998.4219,341.7656 999.2656,342.1563 L999.2656,344.5469 Q998.4844,343.9844 997.6563,343.7031 Q996.8438,343.4063 996.0469,343.4063 Q995.1719,343.4063 994.6875,343.7656 Q994.2188,344.125 994.2188,344.7813 Q994.2188,345.2969 994.5625,345.6406 Q994.9063,345.9688 996,346.375 L997.0625,346.7813 Q998.5469,347.3281 999.25,348.2344 Q999.9688,349.1406 999.9688,350.5156 Q999.9688,352.3906 998.8594,353.3125 Q997.75,354.2344 995.5,354.2344 Q994.5781,354.2344 993.6563,354.0156 Q992.7344,353.7969 991.875,353.375 L991.875,350.8438 Q992.8438,351.5313 993.7656,351.875 Q994.6875,352.2188 995.5781,352.2188 Q996.4844,352.2188 996.9844,351.8125 Q997.4844,351.3906 997.4844,350.6563 Q997.4844,350.0938 997.1406,349.6875 Q996.8125,349.2656 996.1875,349.0156 L994.9844,348.5625 Z " fill="#000000"/><text fill="#000000" font-family="sans-serif" font-size="14" lengthAdjust="spacing" textLength="151" x="1009.5" y="352.8467">jsonSpreaderPipeline</text></g><!--MD5=[a01e8942fc2759b8c624a2da21a7c6b2]
class gtree.jsonSpreaderSimple--><g id="elem_gtree.jsonSpreaderSimple"><rect codeLine="165" fill="#F1F1F1" height="32" id="gtree.jsonSpreaderSimple" rx="2.5" ry="2.5" style="stroke:#181818;stroke-width:0.5;" width="176" x="940" y="240"/><ellipse cx="955" cy="256" fill="#7FFFD4" rx="11" ry="11" style="stroke:#181818;stroke-width:1.0;"/><path d="M954.4844,256.5625 Q952.625,255.8594 951.9688,255.0938 Q951.3281,254.3125 951.3281,253 Q951.3281,251.3125 952.4063,250.3438 Q953.4844,249.375 955.3594,249.375 Q956.2188,249.375 957.0625,249.5781 Q957.9219,249.7656 958.7656,250.1563 L958.7656,252.5469 Q957.9844,251.9844 957.1563,251.7031 Q956.3438,251.4063 955.5469,251.4063 Q954.6719,251.4063 954.1875,251.7656 Q953.7188,252.125 953.7188,252.7813 Q953.7188,253.2969 954.0625,253.6406 Q954.4063,253.9688 955.5,254.375 L956.5625,254.7813 Q958.0469,255.3281 958.75,256.2344 Q959.4688,257.1406 959.4688,258.5156 Q959.4688,260.3906 958.3594,261.3125 Q957.25,262.2344 955,262.2344 Q954.0781,262.2344 953.1563,262.0156 Q952.2344,261.7969 951.375,261.375 L951.375,258.8438 Q952.3438,259.5313 953.2656,259.875 Q954.1875,260.2188 955.0781,260.2188 Q955.9844,260.2188 956.4844,259.8125 Q956.9844,259.3906 956.9844,258.6563 Q956.9844,258.0938 956.6406,257.6875 Q956.3125,257.2656 955.6875,257.0156 L954.4844,256.5625 Z " fill="#000000"/><text fill="#000000" font-family="sans-serif" font-size="14" lengthAdjust="spacing" textLength="144" x="969" y="260.8467">jsonSpreaderSimple</text></g><!--MD5=[3f77d241dcd3e2a00741f2c3546d0009]
class gtree.mkdirerPipeline--><g id="elem_gtree.mkdirerPipeline"><rect codeLine="169" fill="#F1F1F1" height="32" id="gtree.mkdirerPipeline" rx="2.5" ry="2.5" style="stroke:#181818;stroke-width:0.5;" width="144" x="1366" y="240"/><ellipse cx="1381" cy="256" fill="#B4A7E5" rx="11" ry="11" style="stroke:#181818;stroke-width:1.0;"/><path d="M1376.9219,251.7656 L1376.9219,249.6094 L1384.3125,249.6094 L1384.3125,251.7656 L1381.8438,251.7656 L1381.8438,259.8438 L1384.3125,259.8438 L1384.3125,262 L1376.9219,262 L1376.9219,259.8438 L1379.3906,259.8438 L1379.3906,251.7656 L1376.9219,251.7656 Z " fill="#000000"/><text fill="#000000" font-family="sans-serif" font-size="14" font-style="italic" lengthAdjust="spacing" textLength="112" x="1395" y="260.8467">mkdirerPipeline</text></g><!--MD5=[e857e5fcf9e594135aa0f91d548db0e0]
class gtree.mkdirerSimple--><g id="elem_gtree.mkdirerSimple"><rect codeLine="173" fill="#F1F1F1" height="32" id="gtree.mkdirerSimple" rx="2.5" ry="2.5" style="stroke:#181818;stroke-width:0.5;" width="137" x="1569.5" y="148"/><ellipse cx="1584.5" cy="164" fill="#B4A7E5" rx="11" ry="11" style="stroke:#181818;stroke-width:1.0;"/><path d="M1580.4219,159.7656 L1580.4219,157.6094 L1587.8125,157.6094 L1587.8125,159.7656 L1585.3438,159.7656 L1585.3438,167.8438 L1587.8125,167.8438 L1587.8125,170 L1580.4219,170 L1580.4219,167.8438 L1582.8906,167.8438 L1582.8906,159.7656 L1580.4219,159.7656 Z " fill="#000000"/><text fill="#000000" font-family="sans-serif" font-size="14" font-style="italic" lengthAdjust="spacing" textLength="105" x="1598.5" y="168.8467">mkdirerSimple</text></g><!--MD5=[d5c29c10d2808068f4ee3bf4c96a5ce4]
class gtree.nodeGenerator--><g id="elem_gtree.nodeGenerator"><rect codeLine="177" fill="#F1F1F1" height="32" id="gtree.nodeGenerator" rx="2.5" ry="2.5" style="stroke:#181818;stroke-width:0.5;" width="141" x="2510.5" y="332"/><ellipse cx="2525.5" cy="348" fill="#7FFFD4" rx="11" ry="11" style="stroke:#181818;stroke-width:1.0;"/><path d="M2524.9844,348.5625 Q2523.125,347.8594 2522.4688,347.0938 Q2521.8281,346.3125 2521.8281,345 Q2521.8281,343.3125 2522.9063,342.3438 Q2523.9844,341.375 2525.8594,341.375 Q2526.7188,341.375 2527.5625,341.5781 Q2528.4219,341.7656 2529.2656,342.1563 L2529.2656,344.5469 Q2528.4844,343.9844 2527.6563,343.7031 Q2526.8438,343.4063 2526.0469,343.4063 Q2525.1719,343.4063 2524.6875,343.7656 Q2524.2188,344.125 2524.2188,344.7813 Q2524.2188,345.2969 2524.5625,345.6406 Q2524.9063,345.9688 2526,346.375 L2527.0625,346.7813 Q2528.5469,347.3281 2529.25,348.2344 Q2529.9688,349.1406 2529.9688,350.5156 Q2529.9688,352.3906 2528.8594,353.3125 Q2527.75,354.2344 2525.5,354.2344 Q2524.5781,354.2344 2523.6563,354.0156 Q2522.7344,353.7969 2521.875,353.375 L2521.875,350.8438 Q2522.8438,351.5313 2523.7656,351.875 Q2524.6875,352.2188 2525.5781,352.2188 Q2526.4844,352.2188 2526.9844,351.8125 Q2527.4844,351.3906 2527.4844,350.6563 Q2527.4844,350.0938 2527.1406,349.6875 Q2526.8125,349.2656 2526.1875,349.0156 L2524.9844,348.5625 Z " fill="#000000"/><text fill="#000000" font-family="sans-serif" font-size="14" lengthAdjust="spacing" textLength="109" x="2539.5" y="352.8467">nodeGenerator</text></g><!--MD5=[badd535d5b1cccf9839c358e3896e699]
class gtree.nopGrowerPipeline--><g id="elem_gtree.nopGrowerPipeline"><rect codeLine="184" fill="#F1F1F1" height="32" id="gtree.nopGrowerPipeline" rx="2.5" ry="2.5" style="stroke:#181818;stroke-width:0.5;" width="167" x="2175.5" y="332"/><ellipse cx="2190.5" cy="348" fill="#7FFFD4" rx="11" ry="11" style="stroke:#181818;stroke-width:1.0;"/><path d="M2189.9844,348.5625 Q2188.125,347.8594 2187.4688,347.0938 Q2186.8281,346.3125 2186.8281,345 Q2186.8281,343.3125 2187.9063,342.3438 Q2188.9844,341.375 2190.8594,341.375 Q2191.7188,341.375 2192.5625,341.5781 Q2193.4219,341.7656 2194.2656,342.1563 L2194.2656,344.5469 Q2193.4844,343.9844 2192.6563,343.7031 Q2191.8438,343.4063 2191.0469,343.4063 Q2190.1719,343.4063 2189.6875,343.7656 Q2189.2188,344.125 2189.2188,344.7813 Q2189.2188,345.2969 2189.5625,345.6406 Q2189.9063,345.9688 2191,346.375 L2192.0625,346.7813 Q2193.5469,347.3281 2194.25,348.2344 Q2194.9688,349.1406 2194.9688,350.5156 Q2194.9688,352.3906 2193.8594,353.3125 Q2192.75,354.2344 2190.5,354.2344 Q2189.5781,354.2344 2188.6563,354.0156 Q2187.7344,353.7969 2186.875,353.375 L2186.875,350.8438 Q2187.8438,351.5313 2188.7656,351.875 Q2189.6875,352.2188 2190.5781,352.2188 Q2191.4844,352.2188 2191.9844,351.8125 Q2192.4844,351.3906 2192.4844,350.6563 Q2192.4844,350.0938 2192.1406,349.6875 Q2191.8125,349.2656 2191.1875,349.0156 L2189.9844,348.5625 Z " fill="#000000"/><text fill="#000000" font-family="sans-serif" font-size="14" lengthAdjust="spacing" textLength="135" x="2204.5" y="352.8467">nopGrowerPipeline</text></g><!--MD5=[89537c99d5a7fe35691646ae133a15af]
class gtree.nopGrowerSimple--><g id="elem_gtree.nopGrowerSimple"><rect codeLine="188" fill="#F1F1F1" height="32" id="gtree.nopGrowerSimple" rx="2.5" ry="2.5" style="stroke:#181818;stroke-width:0.5;" width="160" x="2282" y="240"/><ellipse cx="2297" cy="256" fill="#7FFFD4" rx="11" ry="11" style="stroke:#181818;stroke-width:1.0;"/><path d="M2296.4844,256.5625 Q2294.625,255.8594 2293.9688,255.0938 Q2293.3281,254.3125 2293.3281,253 Q2293.3281,251.3125 2294.4063,250.3438 Q2295.4844,249.375 2297.3594,249.375 Q2298.2188,249.375 2299.0625,249.5781 Q2299.9219,249.7656 2300.7656,250.1563 L2300.7656,252.5469 Q2299.9844,251.9844 2299.1563,251.7031 Q2298.3438,251.4063 2297.5469,251.4063 Q2296.6719,251.4063 2296.1875,251.7656 Q2295.7188,252.125 2295.7188,252.7813 Q2295.7188,253.2969 2296.0625,253.6406 Q2296.4063,253.9688 2297.5,254.375 L2298.5625,254.7813 Q2300.0469,255.3281 2300.75,256.2344 Q2301.4688,257.1406 2301.4688,258.5156 Q2301.4688,260.3906 2300.3594,261.3125 Q2299.25,262.2344 2297,262.2344 Q2296.0781,262.2344 2295.1563,262.0156 Q2294.2344,261.7969 2293.375,261.375 L2293.375,258.8438 Q2294.3438,259.5313 2295.2656,259.875 Q2296.1875,260.2188 2297.0781,260.2188 Q2297.9844,260.2188 2298.4844,259.8125 Q2298.9844,259.3906 2298.9844,258.6563 Q2298.9844,258.0938 2298.6406,257.6875 Q2298.3125,257.2656 2297.6875,257.0156 L2296.4844,256.5625 Z " fill="#000000"/><text fill="#000000" font-family="sans-serif" font-size="14" lengthAdjust="spacing" textLength="128" x="2311" y="260.8467">nopGrowerSimple</text></g><!--MD5=[1bbe36e2311b22c3d2f7b5fc940bdb5e]
class gtree.rootGeneratorPipeline--><g id="elem_gtree.rootGeneratorPipeline"><rect codeLine="193" fill="#F1F1F1" height="32" id="gtree.rootGeneratorPipeline" rx="2.5" ry="2.5" style="stroke:#181818;stroke-width:0.5;" width="190" x="2687" y="332"/><ellipse cx="2702" cy="348" fill="#7FFFD4" rx="11" ry="11" style="stroke:#181818;stroke-width:1.0;"/><path d="M2701.4844,348.5625 Q2699.625,347.8594 2698.9688,347.0938 Q2698.3281,346.3125 2698.3281,345 Q2698.3281,343.3125 2699.4063,342.3438 Q2700.4844,341.375 2702.3594,341.375 Q2703.2188,341.375 2704.0625,341.5781 Q2704.9219,341.7656 2705.7656,342.1563 L2705.7656,344.5469 Q2704.9844,343.9844 2704.1563,343.7031 Q2703.3438,343.4063 2702.5469,343.4063 Q2701.6719,343.4063 2701.1875,343.7656 Q2700.7188,344.125 2700.7188,344.7813 Q2700.7188,345.2969 2701.0625,345.6406 Q2701.4063,345.9688 2702.5,346.375 L2703.5625,346.7813 Q2705.0469,347.3281 2705.75,348.2344 Q2706.4688,349.1406 2706.4688,350.5156 Q2706.4688,352.3906 2705.3594,353.3125 Q2704.25,354.2344 2702,354.2344 Q2701.0781,354.2344 2700.1563,354.0156 Q2699.2344,353.7969 2698.375,353.375 L2698.375,350.8438 Q2699.3438,351.5313 2700.2656,351.875 Q2701.1875,352.2188 2702.0781,352.2188 Q2702.9844,352.2188 2703.4844,351.8125 Q2703.9844,351.3906 2703.9844,350.6563 Q2703.9844,350.0938 2703.6406,349.6875 Q2703.3125,349.2656 2702.6875,349.0156 L2701.4844,348.5625 Z " fill="#000000"/><text fill="#000000" font-family="sans-serif" font-size="14" lengthAdjust="spacing" textLength="158" x="2716" y="352.8467">rootGeneratorPipeline</text></g><!--MD5=[ade980f8f660712323eab42076ca60e0]
class gtree.rootGeneratorSimple--><g id="elem_gtree.rootGeneratorSimple"><rect codeLine="200" fill="#F1F1F1" height="32" id="gtree.rootGeneratorSimple" rx="2.5" ry="2.5" style="stroke:#181818;stroke-width:0.5;" width="183" x="2912.5" y="332"/><ellipse cx="2927.5" cy="348" fill="#7FFFD4" rx="11" ry="11" style="stroke:#181818;stroke-width:1.0;"/><path d="M2926.9844,348.5625 Q2925.125,347.8594 2924.4688,347.0938 Q2923.8281,346.3125 2923.8281,345 Q2923.8281,343.3125 2924.9063,342.3438 Q2925.9844,341.375 2927.8594,341.375 Q2928.7188,341.375 2929.5625,341.5781 Q2930.4219,341.7656 2931.2656,342.1563 L2931.2656,344.5469 Q2930.4844,343.9844 2929.6563,343.7031 Q2928.8438,343.4063 2928.0469,343.4063 Q2927.1719,343.4063 2926.6875,343.7656 Q2926.2188,344.125 2926.2188,344.7813 Q2926.2188,345.2969 2926.5625,345.6406 Q2926.9063,345.9688 2928,346.375 L2929.0625,346.7813 Q2930.5469,347.3281 2931.25,348.2344 Q2931.9688,349.1406 2931.9688,350.5156 Q2931.9688,352.3906 2930.8594,353.3125 Q2929.75,354.2344 2927.5,354.2344 Q2926.5781,354.2344 2925.6563,354.0156 Q2924.7344,353.7969 2923.875,353.375 L2923.875,350.8438 Q2924.8438,351.5313 2925.7656,351.875 Q2926.6875,352.2188 2927.5781,352.2188 Q2928.4844,352.2188 2928.9844,351.8125 Q2929.4844,351.3906 2929.4844,350.6563 Q2929.4844,350.0938 2929.1406,349.6875 Q2928.8125,349.2656 2928.1875,349.0156 L2926.9844,348.5625 Z " fill="#000000"/><text fill="#000000" font-family="sans-serif" font-size="14" lengthAdjust="spacing" textLength="151" x="2941.5" y="352.8467">rootGeneratorSimple</text></g><!--MD5=[fa63da776ad9ab26f2aafd4351cf561f]
class gtree.spreaderPipeline--><g id="elem_gtree.spreaderPipeline"><rect codeLine="208" fill="#F1F1F1" height="32" id="gtree.spreaderPipeline" rx="2.5" ry="2.5" style="stroke:#181818;stroke-width:0.5;" width="152" x="753" y="240"/><ellipse cx="768" cy="256" fill="#B4A7E5" rx="11" ry="11" style="stroke:#181818;stroke-width:1.0;"/><path d="M763.9219,251.7656 L763.9219,249.6094 L771.3125,249.6094 L771.3125,251.7656 L768.8438,251.7656 L768.8438,259.8438 L771.3125,259.8438 L771.3125,262 L763.9219,262 L763.9219,259.8438 L766.3906,259.8438 L766.3906,251.7656 L763.9219,251.7656 Z " fill="#000000"/><text fill="#000000" font-family="sans-serif" font-size="14" font-style="italic" lengthAdjust="spacing" textLength="120" x="782" y="260.8467">spreaderPipeline</text></g><!--MD5=[80941ee3614322553edfb722dd8df5db]
class gtree.spreaderSimple--><g id="elem_gtree.spreaderSimple"><rect codeLine="212" fill="#F1F1F1" height="32" id="gtree.spreaderSimple" rx="2.5" ry="2.5" style="stroke:#181818;stroke-width:0.5;" width="145" x="644.5" y="148"/><ellipse cx="659.5" cy="164" fill="#B4A7E5" rx="11" ry="11" style="stroke:#181818;stroke-width:1.0;"/><path d="M655.4219,159.7656 L655.4219,157.6094 L662.8125,157.6094 L662.8125,159.7656 L660.3438,159.7656 L660.3438,167.8438 L662.8125,167.8438 L662.8125,170 L655.4219,170 L655.4219,167.8438 L657.8906,167.8438 L657.8906,159.7656 L655.4219,159.7656 Z " fill="#000000"/><text fill="#000000" font-family="sans-serif" font-size="14" font-style="italic" lengthAdjust="spacing" textLength="113" x="673.5" y="168.8467">spreaderSimple</text></g><!--MD5=[7247c0ea0d94e795c0d7919698e0e054]
class gtree.stack--><g id="elem_gtree.stack"><rect codeLine="216" fill="#F1F1F1" height="32" id="gtree.stack" rx="2.5" ry="2.5" style="stroke:#181818;stroke-width:0.5;" width="69" x="2391.5" y="424"/><ellipse cx="2406.5" cy="440" fill="#7FFFD4" rx="11" ry="11" style="stroke:#181818;stroke-width:1.0;"/><path d="M2405.9844,440.5625 Q2404.125,439.8594 2403.4688,439.0938 Q2402.8281,438.3125 2402.8281,437 Q2402.8281,435.3125 2403.9063,434.3438 Q2404.9844,433.375 2406.8594,433.375 Q2407.7188,433.375 2408.5625,433.5781 Q2409.4219,433.7656 2410.2656,434.1563 L2410.2656,436.5469 Q2409.4844,435.9844 2408.6563,435.7031 Q2407.8438,435.4063 2407.0469,435.4063 Q2406.1719,435.4063 2405.6875,435.7656 Q2405.2188,436.125 2405.2188,436.7813 Q2405.2188,437.2969 2405.5625,437.6406 Q2405.9063,437.9688 2407,438.375 L2408.0625,438.7813 Q2409.5469,439.3281 2410.25,440.2344 Q2410.9688,441.1406 2410.9688,442.5156 Q2410.9688,444.3906 2409.8594,445.3125 Q2408.75,446.2344 2406.5,446.2344 Q2405.5781,446.2344 2404.6563,446.0156 Q2403.7344,445.7969 2402.875,445.375 L2402.875,442.8438 Q2403.8438,443.5313 2404.7656,443.875 Q2405.6875,444.2188 2406.5781,444.2188 Q2407.4844,444.2188 2407.9844,443.8125 Q2408.4844,443.3906 2408.4844,442.6563 Q2408.4844,442.0938 2408.1406,441.6875 Q2407.8125,441.2656 2407.1875,441.0156 L2405.9844,440.5625 Z " fill="#000000"/><text fill="#000000" font-family="sans-serif" font-size="14" lengthAdjust="spacing" textLength="37" x="2420.5" y="444.8467">stack</text></g><!--MD5=[70fe03847f8233e8b0dd267361987ddc]
class gtree.tomlNode--><g id="elem_gtree.tomlNode"><rect codeLine="225" fill="#F1F1F1" height="32" id="gtree.tomlNode" rx="2.5" ry="2.5" style="stroke:#181818;stroke-width:0.5;" width="101" x="2495.5" y="424"/><ellipse cx="2510.5" cy="440" fill="#7FFFD4" rx="11" ry="11" style="stroke:#181818;stroke-width:1.0;"/><path d="M2509.9844,440.5625 Q2508.125,439.8594 2507.4688,439.0938 Q2506.8281,438.3125 2506.8281,437 Q2506.8281,435.3125 2507.9063,434.3438 Q2508.9844,433.375 2510.8594,433.375 Q2511.7188,433.375 2512.5625,433.5781 Q2513.4219,433.7656 2514.2656,434.1563 L2514.2656,436.5469 Q2513.4844,435.9844 2512.6563,435.7031 Q2511.8438,435.4063 2511.0469,435.4063 Q2510.1719,435.4063 2509.6875,435.7656 Q2509.2188,436.125 2509.2188,436.7813 Q2509.2188,437.2969 2509.5625,437.6406 Q2509.9063,437.9688 2511,438.375 L2512.0625,438.7813 Q2513.5469,439.3281 2514.25,440.2344 Q2514.9688,441.1406 2514.9688,442.5156 Q2514.9688,444.3906 2513.8594,445.3125 Q2512.75,446.2344 2510.5,446.2344 Q2509.5781,446.2344 2508.6563,446.0156 Q2507.7344,445.7969 2506.875,445.375 L2506.875,442.8438 Q2507.8438,443.5313 2508.7656,443.875 Q2509.6875,444.2188 2510.5781,444.2188 Q2511.4844,444.2188 2511.9844,443.8125 Q2512.4844,443.3906 2512.4844,442.6563 Q2512.4844,442.0938 2512.1406,441.6875 Q2511.8125,441.2656 2511.1875,441.0156 L2509.9844,440.5625 Z " fill="#000000"/><text fill="#000000" font-family="sans-serif" font-size="14" lengthAdjust="spacing" textLength="69" x="2524.5" y="444.8467">tomlNode</text></g><!--MD5=[5b0cd1a0a50bc7ab046f153e25f6833e]
class gtree.tomlSpreaderPipeline--><g id="elem_gtree.tomlSpreaderPipeline"><rect codeLine="230" fill="#F1F1F1" height="32" id="gtree.tomlSpreaderPipeline" rx="2.5" ry="2.5" style="stroke:#181818;stroke-width:0.5;" width="186" x="1199" y="332"/><ellipse cx="1214" cy="348" fill="#7FFFD4" rx="11" ry="11" style="stroke:#181818;stroke-width:1.0;"/><path d="M1213.4844,348.5625 Q1211.625,347.8594 1210.9688,347.0938 Q1210.3281,346.3125 1210.3281,345 Q1210.3281,343.3125 1211.4063,342.3438 Q1212.4844,341.375 1214.3594,341.375 Q1215.2188,341.375 1216.0625,341.5781 Q1216.9219,341.7656 1217.7656,342.1563 L1217.7656,344.5469 Q1216.9844,343.9844 1216.1563,343.7031 Q1215.3438,343.4063 1214.5469,343.4063 Q1213.6719,343.4063 1213.1875,343.7656 Q1212.7188,344.125 1212.7188,344.7813 Q1212.7188,345.2969 1213.0625,345.6406 Q1213.4063,345.9688 1214.5,346.375 L1215.5625,346.7813 Q1217.0469,347.3281 1217.75,348.2344 Q1218.4688,349.1406 1218.4688,350.5156 Q1218.4688,352.3906 1217.3594,353.3125 Q1216.25,354.2344 1214,354.2344 Q1213.0781,354.2344 1212.1563,354.0156 Q1211.2344,353.7969 1210.375,353.375 L1210.375,350.8438 Q1211.3438,351.5313 1212.2656,351.875 Q1213.1875,352.2188 1214.0781,352.2188 Q1214.9844,352.2188 1215.4844,351.8125 Q1215.9844,351.3906 1215.9844,350.6563 Q1215.9844,350.0938 1215.6406,349.6875 Q1215.3125,349.2656 1214.6875,349.0156 L1213.4844,348.5625 Z " fill="#000000"/><text fill="#000000" font-family="sans-serif" font-size="14" lengthAdjust="spacing" textLength="154" x="1228" y="352.8467">tomlSpreaderPipeline</text></g><!--MD5=[95ea847b8fe82d3cbf7ae9d94e89a05c]
class gtree.tomlSpreaderSimple--><g id="elem_gtree.tomlSpreaderSimple"><rect codeLine="234" fill="#F1F1F1" height="32" id="gtree.tomlSpreaderSimple" rx="2.5" ry="2.5" style="stroke:#181818;stroke-width:0.5;" width="179" x="1151.5" y="240"/><ellipse cx="1166.5" cy="256" fill="#7FFFD4" rx="11" ry="11" style="stroke:#181818;stroke-width:1.0;"/><path d="M1165.9844,256.5625 Q1164.125,255.8594 1163.4688,255.0938 Q1162.8281,254.3125 1162.8281,253 Q1162.8281,251.3125 1163.9063,250.3438 Q1164.9844,249.375 1166.8594,249.375 Q1167.7188,249.375 1168.5625,249.5781 Q1169.4219,249.7656 1170.2656,250.1563 L1170.2656,252.5469 Q1169.4844,251.9844 1168.6563,251.7031 Q1167.8438,251.4063 1167.0469,251.4063 Q1166.1719,251.4063 1165.6875,251.7656 Q1165.2188,252.125 1165.2188,252.7813 Q1165.2188,253.2969 1165.5625,253.6406 Q1165.9063,253.9688 1167,254.375 L1168.0625,254.7813 Q1169.5469,255.3281 1170.25,256.2344 Q1170.9688,257.1406 1170.9688,258.5156 Q1170.9688,260.3906 1169.8594,261.3125 Q1168.75,262.2344 1166.5,262.2344 Q1165.5781,262.2344 1164.6563,262.0156 Q1163.7344,261.7969 1162.875,261.375 L1162.875,258.8438 Q1163.8438,259.5313 1164.7656,259.875 Q1165.6875,260.2188 1166.5781,260.2188 Q1167.4844,260.2188 1167.9844,259.8125 Q1168.4844,259.3906 1168.4844,258.6563 Q1168.4844,258.0938 1168.1406,257.6875 Q1167.8125,257.2656 1167.1875,257.0156 L1165.9844,256.5625 Z " fill="#000000"/><text fill="#000000" font-family="sans-serif" font-size="14" lengthAdjust="spacing" textLength="147" x="1180.5" y="260.8467">tomlSpreaderSimple</text></g><!--MD5=[9ea3c621686b83744105040adfcb948a]
class gtree.treePipeline--><g id="elem_gtree.treePipeline"><rect codeLine="238" fill="#F1F1F1" height="32" id="gtree.treePipeline" rx="2.5" ry="2.5" style="stroke:#181818;stroke-width:0.5;" width="117" x="1765.5" y="240"/><ellipse cx="1780.5" cy="256" fill="#7FFFD4" rx="11" ry="11" style="stroke:#181818;stroke-width:1.0;"/><path d="M1779.9844,256.5625 Q1778.125,255.8594 1777.4688,255.0938 Q1776.8281,254.3125 1776.8281,253 Q1776.8281,251.3125 1777.9063,250.3438 Q1778.9844,249.375 1780.8594,249.375 Q1781.7188,249.375 1782.5625,249.5781 Q1783.4219,249.7656 1784.2656,250.1563 L1784.2656,252.5469 Q1783.4844,251.9844 1782.6563,251.7031 Q1781.8438,251.4063 1781.0469,251.4063 Q1780.1719,251.4063 1779.6875,251.7656 Q1779.2188,252.125 1779.2188,252.7813 Q1779.2188,253.2969 1779.5625,253.6406 Q1779.9063,253.9688 1781,254.375 L1782.0625,254.7813 Q1783.5469,255.3281 1784.25,256.2344 Q1784.9688,257.1406 1784.9688,258.5156 Q1784.9688,260.3906 1783.8594,261.3125 Q1782.75,262.2344 1780.5,262.2344 Q1779.5781,262.2344 1778.6563,262.0156 Q1777.7344,261.7969 1776.875,261.375 L1776.875,258.8438 Q1777.8438,259.5313 1778.7656,259.875 Q1779.6875,260.2188 1780.5781,260.2188 Q1781.4844,260.2188 1781.9844,259.8125 Q1782.4844,259.3906 1782.4844,258.6563 Q1782.4844,258.0938 1782.1406,257.6875 Q1781.8125,257.2656 1781.1875,257.0156 L1779.9844,256.5625 Z " fill="#000000"/><text fill="#000000" font-family="sans-serif" font-size="14" lengthAdjust="spacing" textLength="85" x="1794.5" y="260.8467">treePipeline</text></g><!--MD5=[55641316e22093d0569947c1e820be1c]
class gtree.treeSimple--><g id="elem_gtree.treeSimple"><rect codeLine="250" fill="#F1F1F1" height="32" id="gtree.treeSimple" rx="2.5" ry="2.5" style="stroke:#181818;stroke-width:0.5;" width="110" x="1918" y="240"/><ellipse cx="1933" cy="256" fill="#7FFFD4" rx="11" ry="11" style="stroke:#181818;stroke-width:1.0;"/><path d="M1932.4844,256.5625 Q1930.625,255.8594 1929.9688,255.0938 Q1929.3281,254.3125 1929.3281,253 Q1929.3281,251.3125 1930.4063,250.3438 Q1931.4844,249.375 1933.3594,249.375 Q1934.2188,249.375 1935.0625,249.5781 Q1935.9219,249.7656 1936.7656,250.1563 L1936.7656,252.5469 Q1935.9844,251.9844 1935.1563,251.7031 Q1934.3438,251.4063 1933.5469,251.4063 Q1932.6719,251.4063 1932.1875,251.7656 Q1931.7188,252.125 1931.7188,252.7813 Q1931.7188,253.2969 1932.0625,253.6406 Q1932.4063,253.9688 1933.5,254.375 L1934.5625,254.7813 Q1936.0469,255.3281 1936.75,256.2344 Q1937.4688,257.1406 1937.4688,258.5156 Q1937.4688,260.3906 1936.3594,261.3125 Q1935.25,262.2344 1933,262.2344 Q1932.0781,262.2344 1931.1563,262.0156 Q1930.2344,261.7969 1929.375,261.375 L1929.375,258.8438 Q1930.3438,259.5313 1931.2656,259.875 Q1932.1875,260.2188 1933.0781,260.2188 Q1933.9844,260.2188 1934.4844,259.8125 Q1934.9844,259.3906 1934.9844,258.6563 Q1934.9844,258.0938 1934.6406,257.6875 Q1934.3125,257.2656 1933.6875,257.0156 L1932.4844,256.5625 Z " fill="#000000"/><text fill="#000000" font-family="sans-serif" font-size="14" lengthAdjust="spacing" textLength="78" x="1947" y="260.8467">treeSimple</text></g><!--MD5=[e619353a1a9ed83817aceda27a8c7f69]
class gtree.yamlNode--><g id="elem_gtree.yamlNode"><rect codeLine="261" fill="#F1F1F1" height="32" id="gtree.yamlNode" rx="2.5" ry="2.5" style="stroke:#181818;stroke-width:0.5;" width="104" x="2632" y="424"/><ellipse cx="2647" cy="440" fill="#7FFFD4" rx="11" ry="11" style="stroke:#181818;stroke-width:1.0;"/><path d="M2646.4844,440.5625 Q2644.625,439.8594 2643.9688,439.0938 Q2643.3281,438.3125 2643.3281,437 Q2643.3281,435.3125 2644.4063,434.3438 Q2645.4844,433.375 2647.3594,433.375 Q2648.2188,433.375 2649.0625,433.5781 Q2649.9219,433.7656 2650.7656,434.1563 L2650.7656,436.5469 Q2649.9844,435.9844 2649.1563,435.7031 Q2648.3438,435.4063 2647.5469,435.4063 Q2646.6719,435.4063 2646.1875,435.7656 Q2645.7188,436.125 2645.7188,436.7813 Q2645.7188,437.2969 2646.0625,437.6406 Q2646.4063,437.9688 2647.5,438.375 L2648.5625,438.7813 Q2650.0469,439.3281 2650.75,440.2344 Q2651.4688,441.1406 2651.4688,442.5156 Q2651.4688,444.3906 2650.3594,445.3125 Q2649.25,446.2344 2647,446.2344 Q2646.0781,446.2344 2645.1563,446.0156 Q2644.2344,445.7969 2643.375,445.375 L2643.375,442.8438 Q2644.3438,443.5313 2645.2656,443.875 Q2646.1875,444.2188 2647.0781,444.2188 Q2647.9844,444.2188 2648.4844,443.8125 Q2648.9844,443.3906 2648.9844,442.6563 Q2648.9844,442.0938 2648.6406,441.6875 Q2648.3125,441.2656 2647.6875,441.0156 L2646.4844,440.5625 Z " fill="#000000"/><text fill="#000000" font-family="sans-serif" font-size="14" lengthAdjust="spacing" textLength="72" x="2661" y="444.8467">yamlNode</text></g><!--MD5=[89e7b365335bd5bc318faf0a7242b0c0]
class gtree.yamlSpreaderPipeline--><g id="elem_gtree.yamlSpreaderPipeline"><rect codeLine="266" fill="#F1F1F1" height="32" id="gtree.yamlSpreaderPipeline" rx="2.5" ry="2.5" style="stroke:#181818;stroke-width:0.5;" width="189" x="718.5" y="332"/><ellipse cx="733.5" cy="348" fill="#7FFFD4" rx="11" ry="11" style="stroke:#181818;stroke-width:1.0;"/><path d="M732.9844,348.5625 Q731.125,347.8594 730.4688,347.0938 Q729.8281,346.3125 729.8281,345 Q729.8281,343.3125 730.9063,342.3438 Q731.9844,341.375 733.8594,341.375 Q734.7188,341.375 735.5625,341.5781 Q736.4219,341.7656 737.2656,342.1563 L737.2656,344.5469 Q736.4844,343.9844 735.6563,343.7031 Q734.8438,343.4063 734.0469,343.4063 Q733.1719,343.4063 732.6875,343.7656 Q732.2188,344.125 732.2188,344.7813 Q732.2188,345.2969 732.5625,345.6406 Q732.9063,345.9688 734,346.375 L735.0625,346.7813 Q736.5469,347.3281 737.25,348.2344 Q737.9688,349.1406 737.9688,350.5156 Q737.9688,352.3906 736.8594,353.3125 Q735.75,354.2344 733.5,354.2344 Q732.5781,354.2344 731.6563,354.0156 Q730.7344,353.7969 729.875,353.375 L729.875,350.8438 Q730.8438,351.5313 731.7656,351.875 Q732.6875,352.2188 733.5781,352.2188 Q734.4844,352.2188 734.9844,351.8125 Q735.4844,351.3906 735.4844,350.6563 Q735.4844,350.0938 735.1406,349.6875 Q734.8125,349.2656 734.1875,349.0156 L732.9844,348.5625 Z " fill="#000000"/><text fill="#000000" font-family="sans-serif" font-size="14" lengthAdjust="spacing" textLength="157" x="747.5" y="352.8467">yamlSpreaderPipeline</text></g><!--MD5=[8d48bcbad28acab91ad9b4d4cc3c9f55]
class gtree.yamlSpreaderSimple--><g id="elem_gtree.yamlSpreaderSimple"><rect codeLine="270" fill="#F1F1F1" height="32" id="gtree.yamlSpreaderSimple" rx="2.5" ry="2.5" style="stroke:#181818;stroke-width:0.5;" width="182" x="266" y="240"/><ellipse cx="281" cy="256" fill="#7FFFD4" rx="11" ry="11" style="stroke:#181818;stroke-width:1.0;"/><path d="M280.4844,256.5625 Q278.625,255.8594 277.9688,255.0938 Q277.3281,254.3125 277.3281,253 Q277.3281,251.3125 278.4063,250.3438 Q279.4844,249.375 281.3594,249.375 Q282.2188,249.375 283.0625,249.5781 Q283.9219,249.7656 284.7656,250.1563 L284.7656,252.5469 Q283.9844,251.9844 283.1563,251.7031 Q282.3438,251.4063 281.5469,251.4063 Q280.6719,251.4063 280.1875,251.7656 Q279.7188,252.125 279.7188,252.7813 Q279.7188,253.2969 280.0625,253.6406 Q280.4063,253.9688 281.5,254.375 L282.5625,254.7813 Q284.0469,255.3281 284.75,256.2344 Q285.4688,257.1406 285.4688,258.5156 Q285.4688,260.3906 284.3594,261.3125 Q283.25,262.2344 281,262.2344 Q280.0781,262.2344 279.1563,262.0156 Q278.2344,261.7969 277.375,261.375 L277.375,258.8438 Q278.3438,259.5313 279.2656,259.875 Q280.1875,260.2188 281.0781,260.2188 Q281.9844,260.2188 282.4844,259.8125 Q282.9844,259.3906 282.9844,258.6563 Q282.9844,258.0938 282.6406,257.6875 Q282.3125,257.2656 281.6875,257.0156 L280.4844,256.5625 Z " fill="#000000"/><text fill="#000000" font-family="sans-serif" font-size="14" lengthAdjust="spacing" textLength="150" x="295" y="260.8467">yamlSpreaderSimple</text></g><!--MD5=[be733ededdd9d1bee41f0a2df5c80ac7]
class gtree.<font color=blue>func</font>(*config) --><g id="elem_gtree.&lt;font color=blue&gt;func&lt;/font&gt;(*config) "><rect fill="#F1F1F1" height="32" id="gtree.&lt;font color=blue&gt;func&lt;/font&gt;(*config) " rx="2.5" ry="2.5" style="stroke:#181818;stroke-width:0.5;" width="128" x="152" y="148"/><ellipse cx="167" cy="164" fill="#ADD1B2" rx="11" ry="11" style="stroke:#181818;stroke-width:1.0;"/><path d="M169.9688,169.6406 Q169.3906,169.9375 168.75,170.0781 Q168.1094,170.2344 167.4063,170.2344 Q164.9063,170.2344 163.5781,168.5938 Q162.2656,166.9375 162.2656,163.8125 Q162.2656,160.6875 163.5781,159.0313 Q164.9063,157.375 167.4063,157.375 Q168.1094,157.375 168.75,157.5313 Q169.4063,157.6875 169.9688,157.9844 L169.9688,160.7031 Q169.3438,160.125 168.75,159.8594 Q168.1563,159.5781 167.5313,159.5781 Q166.1875,159.5781 165.5,160.6563 Q164.8125,161.7188 164.8125,163.8125 Q164.8125,165.9063 165.5,166.9844 Q166.1875,168.0469 167.5313,168.0469 Q168.1563,168.0469 168.75,167.7813 Q169.3438,167.5 169.9688,166.9219 L169.9688,169.6406 Z " fill="#000000"/><text fill="#0000FF" font-family="sans-serif" font-size="14" lengthAdjust="spacing" textLength="31" x="181" y="168.8467">func</text><text fill="#000000" font-family="sans-serif" font-size="14" lengthAdjust="spacing" textLength="61" x="212" y="168.8467">(*config)</text></g><!--MD5=[8005f9e088aacc281e64632c065d370b]
class sync.Mutex--><g id="elem_sync.Mutex"><rect fill="#F1F1F1" height="32" id="sync.Mutex" rx="2.5" ry="2.5" style="stroke:#181818;stroke-width:0.5;" width="75" x="21.5" y="240"/><ellipse cx="36.5" cy="256" fill="#ADD1B2" rx="11" ry="11" style="stroke:#181818;stroke-width:1.0;"/><path d="M39.4688,261.6406 Q38.8906,261.9375 38.25,262.0781 Q37.6094,262.2344 36.9063,262.2344 Q34.4063,262.2344 33.0781,260.5938 Q31.7656,258.9375 31.7656,255.8125 Q31.7656,252.6875 33.0781,251.0313 Q34.4063,249.375 36.9063,249.375 Q37.6094,249.375 38.25,249.5313 Q38.9063,249.6875 39.4688,249.9844 L39.4688,252.7031 Q38.8438,252.125 38.25,251.8594 Q37.6563,251.5781 37.0313,251.5781 Q35.6875,251.5781 35,252.6563 Q34.3125,253.7188 34.3125,255.8125 Q34.3125,257.9063 35,258.9844 Q35.6875,260.0469 37.0313,260.0469 Q37.6563,260.0469 38.25,259.7813 Q38.8438,259.5 39.4688,258.9219 L39.4688,261.6406 Z " fill="#000000"/><text fill="#000000" font-family="sans-serif" font-size="14" lengthAdjust="spacing" textLength="43" x="50.5" y="260.8467">Mutex</text></g><!--MD5=[2236f6c5d9deadb4f6bceeb4cf3ac6c7]
class __builtin__.int--><g id="elem___builtin__.int"><rect fill="#F1F1F1" height="32" id="__builtin__.int" rx="2.5" ry="2.5" style="stroke:#181818;stroke-width:0.5;" width="50" x="2024" y="41"/><ellipse cx="2039" cy="57" fill="#ADD1B2" rx="11" ry="11" style="stroke:#181818;stroke-width:1.0;"/><path d="M2041.9688,62.6406 Q2041.3906,62.9375 2040.75,63.0781 Q2040.1094,63.2344 2039.4063,63.2344 Q2036.9063,63.2344 2035.5781,61.5938 Q2034.2656,59.9375 2034.2656,56.8125 Q2034.2656,53.6875 2035.5781,52.0313 Q2036.9063,50.375 2039.4063,50.375 Q2040.1094,50.375 2040.75,50.5313 Q2041.4063,50.6875 2041.9688,50.9844 L2041.9688,53.7031 Q2041.3438,53.125 2040.75,52.8594 Q2040.1563,52.5781 2039.5313,52.5781 Q2038.1875,52.5781 2037.5,53.6563 Q2036.8125,54.7188 2036.8125,56.8125 Q2036.8125,58.9063 2037.5,59.9844 Q2038.1875,61.0469 2039.5313,61.0469 Q2040.1563,61.0469 2040.75,60.7813 Q2041.3438,60.5 2041.9688,59.9219 L2041.9688,62.6406 Z " fill="#000000"/><text fill="#000000" font-family="sans-serif" font-size="14" lengthAdjust="spacing" textLength="18" x="2053" y="61.8467">int</text></g><!--MD5=[5747d7727b6bef40b7cc141e1f5e25ce]
reverse link gtree.colorizeSpreaderSimple to gtree.colorizeSpreaderPipeline--><g id="link_gtree.colorizeSpreaderSimple_gtree.colorizeSpreaderPipeline"><path codeLine="275" d="M624.36,370.06 C657.56,386.57 702.94,409.14 732.61,423.89 " fill="none" id="gtree.colorizeSpreaderSimple-backto-gtree.colorizeSpreaderPipeline" style="stroke:#181818;stroke-width:1.0;"/><polygon fill="#181818" points="612.3,364.06,615.8931,370.3122,623.0463,369.4002,619.4532,363.148,612.3,364.06" style="stroke:#181818;stroke-width:1.0;"/></g><!--MD5=[a416ec2a6fd1ad411aa4b41ebb8856e9]
reverse link gtree.defaultSpreaderSimple to gtree.colorizeSpreaderSimple--><g id="link_gtree.defaultSpreaderSimple_gtree.colorizeSpreaderSimple"><path codeLine="276" d="M582,285.34 C582,300.79 582,319.28 582,331.96 " fill="none" id="gtree.defaultSpreaderSimple-backto-gtree.colorizeSpreaderSimple" style="stroke:#181818;stroke-width:1.0;"/><polygon fill="#181818" points="582,272.27,578,278.27,582,284.27,586,278.27,582,272.27" style="stroke:#181818;stroke-width:1.0;"/></g><!--MD5=[99cf49be6402d4d50ee3405e3411be4e]
reverse link gtree.defaultGrowerSimple to gtree.defaultGrowerPipeline--><g id="link_gtree.defaultGrowerSimple_gtree.defaultGrowerPipeline"><path codeLine="277" d="M2126.01,280.72 C2106.17,296.95 2080.46,317.99 2063.38,331.96 " fill="none" id="gtree.defaultGrowerSimple-backto-gtree.defaultGrowerPipeline" style="stroke:#181818;stroke-width:1.0;"/><polygon fill="#181818" points="2136.34,272.27,2129.1633,272.9736,2127.0525,279.8689,2134.2292,279.1653,2136.34,272.27" style="stroke:#181818;stroke-width:1.0;"/></g><!--MD5=[8ecb4beb83846280c375c20a651f54f6]
reverse link gtree.defaultMkdirerSimple to gtree.defaultMkdirerPipeline--><g id="link_gtree.defaultMkdirerSimple_gtree.defaultMkdirerPipeline"><path codeLine="278" d="M1620.06,283.46 C1609.35,299.27 1596.14,318.76 1587.19,331.96 " fill="none" id="gtree.defaultMkdirerSimple-backto-gtree.defaultMkdirerPipeline" style="stroke:#181818;stroke-width:1.0;"/><polygon fill="#181818" points="1627.65,272.27,1620.9735,274.9947,1620.9207,282.2056,1627.5972,279.4809,1627.65,272.27" style="stroke:#181818;stroke-width:1.0;"/></g><!--MD5=[15e8b9f1dbc2da211428e1a9e789af44]
reverse link gtree.defaultSpreaderSimple to gtree.defaultSpreaderPipeline--><g id="link_gtree.defaultSpreaderSimple_gtree.defaultSpreaderPipeline"><path codeLine="279" d="M529.79,276.66 C485.68,293.27 423.42,316.72 383.13,331.89 " fill="none" id="gtree.defaultSpreaderSimple-backto-gtree.defaultSpreaderPipeline" style="stroke:#181818;stroke-width:1.0;"/><polygon fill="#181818" points="542,272.06,534.9761,270.4278,530.7679,276.2836,537.7918,277.9159,542,272.06" style="stroke:#181818;stroke-width:1.0;"/></g><!--MD5=[2bd933f1ed033f5138fd2c36d40e0e57]
reverse link sync.Mutex to gtree.defaultSpreaderPipeline--><g id="link_sync.Mutex_gtree.defaultSpreaderPipeline"><path codeLine="280" d="M96.71,278.25 C108.98,284.58 122.83,291.11 136,296 C177.3,311.32 224.93,323.41 264.08,331.98 " fill="none" id="sync.Mutex-backto-gtree.defaultSpreaderPipeline" style="stroke:#181818;stroke-width:1.0;"/><polygon fill="#181818" points="85.06,272.07,88.489,278.4137,95.6635,277.6883,92.2345,271.3446,85.06,272.07" style="stroke:#181818;stroke-width:1.0;"/></g><!--MD5=[d10a416fd642f6a7fd43225a59800a17]
reverse link gtree.nopGrowerSimple to gtree.nopGrowerPipeline--><g id="link_gtree.nopGrowerSimple_gtree.nopGrowerPipeline"><path codeLine="281" d="M2334.6,280.94 C2316.06,297.14 2292.13,318.05 2276.21,331.96 " fill="none" id="gtree.nopGrowerSimple-backto-gtree.nopGrowerPipeline" style="stroke:#181818;stroke-width:1.0;"/><polygon fill="#181818" points="2344.53,272.27,2337.3796,273.2033,2335.4909,280.1627,2342.6414,279.2294,2344.53,272.27" style="stroke:#181818;stroke-width:1.0;"/></g><!--MD5=[b83e87968c0a0dcac11097e412b18636]
reverse link gtree.spreaderPipeline to gtree.colorizeSpreaderPipeline--><g id="link_gtree.spreaderPipeline_gtree.colorizeSpreaderPipeline"><path codeLine="283" d="M878.11,282.47 C910.85,303 944.56,333.39 925,364 C905.31,394.82 869.35,413.16 836.31,423.98 " fill="none" id="gtree.spreaderPipeline-backto-gtree.colorizeSpreaderPipeline" style="stroke:#181818;stroke-width:1.0;"/><polygon fill="none" points="874.14,288.26,860.38,272.15,881.18,276.16,874.14,288.26" style="stroke:#181818;stroke-width:1.0;"/></g><!--MD5=[4c3482a368083339abcaf6f152221224]
reverse link gtree.spreaderSimple to gtree.colorizeSpreaderSimple--><g id="link_gtree.spreaderSimple_gtree.colorizeSpreaderSimple"><path codeLine="284" d="M720.68,200.17 C721.77,228.77 718.75,268.72 698,296 C685.15,312.9 665.5,324.3 646.01,331.95 " fill="none" id="gtree.spreaderSimple-backto-gtree.colorizeSpreaderSimple" style="stroke:#181818;stroke-width:1.0;"/><polygon fill="none" points="713.69,200.58,719.18,180.12,727.65,199.54,713.69,200.58" style="stroke:#181818;stroke-width:1.0;"/></g><!--MD5=[5a9c7a191835f3667cd5ce4ec5b7c416]
reverse link gtree.growerSimple to gtree.defaultGrowerSimple--><g id="link_gtree.growerSimple_gtree.defaultGrowerSimple"><path codeLine="285" d="M2253.1,191.02 C2228.8,206.87 2198.6,226.57 2178.17,239.89 " fill="none" id="gtree.growerSimple-backto-gtree.defaultGrowerSimple" style="stroke:#181818;stroke-width:1.0;"/><polygon fill="none" points="2249.33,185.13,2269.9,180.06,2256.97,196.85,2249.33,185.13" style="stroke:#181818;stroke-width:1.0;"/></g><!--MD5=[ff00447ef96bd304884e58be9da29d1d]
reverse link gtree.mkdirerPipeline to gtree.defaultMkdirerPipeline--><g id="link_gtree.mkdirerPipeline_gtree.defaultMkdirerPipeline"><path codeLine="286" d="M1478.19,283.02 C1502.67,298.87 1533.09,318.57 1553.66,331.89 " fill="none" id="gtree.mkdirerPipeline-backto-gtree.defaultMkdirerPipeline" style="stroke:#181818;stroke-width:1.0;"/><polygon fill="none" points="1474.25,288.81,1461.27,272.06,1481.86,277.06,1474.25,288.81" style="stroke:#181818;stroke-width:1.0;"/></g><!--MD5=[5038ea76dbf0814e5bc576fc6dd5be57]
reverse link gtree.mkdirerSimple to gtree.defaultMkdirerSimple--><g id="link_gtree.mkdirerSimple_gtree.defaultMkdirerSimple"><path codeLine="287" d="M1638,200.61 C1638,214.31 1638,229.22 1638,239.96 " fill="none" id="gtree.mkdirerSimple-backto-gtree.defaultMkdirerSimple" style="stroke:#181818;stroke-width:1.0;"/><polygon fill="none" points="1631,200.27,1638,180.27,1645,200.27,1631,200.27" style="stroke:#181818;stroke-width:1.0;"/></g><!--MD5=[6ee434e217815dacd8db5a5513ff4911]
reverse link gtree.spreaderPipeline to gtree.defaultSpreaderPipeline--><g id="link_gtree.spreaderPipeline_gtree.defaultSpreaderPipeline"><path codeLine="288" d="M764.93,278.12 C743.79,284.54 720.04,291.16 698,296 C651.25,306.26 532.6,322.59 445.28,334 " fill="none" id="gtree.spreaderPipeline-backto-gtree.defaultSpreaderPipeline" style="stroke:#181818;stroke-width:1.0;"/><polygon fill="none" points="763.08,271.36,784.26,272.09,767.25,284.73,763.08,271.36" style="stroke:#181818;stroke-width:1.0;"/></g><!--MD5=[2e934ec5c294567bd5d67b91bac4edae]
reverse link gtree.spreaderSimple to gtree.defaultSpreaderSimple--><g id="link_gtree.spreaderSimple_gtree.defaultSpreaderSimple"><path codeLine="289" d="M677.62,191.25 C653.9,207.06 624.55,226.63 604.67,239.89 " fill="none" id="gtree.spreaderSimple-backto-gtree.defaultSpreaderSimple" style="stroke:#181818;stroke-width:1.0;"/><polygon fill="none" points="673.88,185.33,694.4,180.06,681.65,196.98,673.88,185.33" style="stroke:#181818;stroke-width:1.0;"/></g><!--MD5=[2e7cb99867881d843fca82809199513e]
reverse link gtree.spreaderPipeline to gtree.jsonSpreaderPipeline--><g id="link_gtree.spreaderPipeline_gtree.jsonSpreaderPipeline"><path codeLine="290" d="M882.93,280.07 C895.99,285.46 909.94,291.06 923,296 C957.01,308.86 995.9,322.13 1025.42,331.9 " fill="none" id="gtree.spreaderPipeline-backto-gtree.jsonSpreaderPipeline" style="stroke:#181818;stroke-width:1.0;"/><polygon fill="none" points="879.8,286.34,864.05,272.16,885.2,273.43,879.8,286.34" style="stroke:#181818;stroke-width:1.0;"/></g><!--MD5=[a70444f705a07c17bca7db0ec085cd3e]
reverse link gtree.spreaderSimple to gtree.jsonSpreaderSimple--><g id="link_gtree.spreaderSimple_gtree.jsonSpreaderSimple"><path codeLine="291" d="M809.52,172.38 C845.61,177.06 886.9,184.66 923,197 C953.54,207.44 985.59,226.5 1006.13,239.92 " fill="none" id="gtree.spreaderSimple-backto-gtree.jsonSpreaderSimple" style="stroke:#181818;stroke-width:1.0;"/><polygon fill="none" points="808.55,179.32,789.51,170.01,810.19,165.41,808.55,179.32" style="stroke:#181818;stroke-width:1.0;"/></g><!--MD5=[ac302c4d934b19e5a79b6ad63dfebe59]
reverse link gtree.growerSimple to gtree.nopGrowerSimple--><g id="link_gtree.growerSimple_gtree.nopGrowerSimple"><path codeLine="292" d="M2316.93,196.21 C2328.29,211.03 2341.34,228.06 2350.47,239.96 " fill="none" id="gtree.growerSimple-backto-gtree.nopGrowerSimple" style="stroke:#181818;stroke-width:1.0;"/><polygon fill="none" points="2311.32,200.4,2304.7,180.27,2322.43,191.88,2311.32,200.4" style="stroke:#181818;stroke-width:1.0;"/></g><!--MD5=[327726a2387648204640d69d8917f3ed]
reverse link gtree.spreaderPipeline to gtree.tomlSpreaderPipeline--><g id="link_gtree.spreaderPipeline_gtree.tomlSpreaderPipeline"><path codeLine="293" d="M878.42,280.28 C892.56,286.17 908.17,291.97 923,296 C929.66,297.81 1091.6,319.89 1198.71,334.4 " fill="none" id="gtree.spreaderPipeline-backto-gtree.tomlSpreaderPipeline" style="stroke:#181818;stroke-width:1.0;"/><polygon fill="none" points="875.14,286.49,859.63,272.05,880.76,273.66,875.14,286.49" style="stroke:#181818;stroke-width:1.0;"/></g><!--MD5=[0dae6ace5478cb60c50c82a9a540a8fc]
reverse link gtree.spreaderSimple to gtree.tomlSpreaderSimple--><g id="link_gtree.spreaderSimple_gtree.tomlSpreaderSimple"><path codeLine="294" d="M810.01,167.62 C913.99,171.35 1075.46,179.74 1134,197 C1165.82,206.38 1198.86,226.07 1219.65,239.9 " fill="none" id="gtree.spreaderSimple-backto-gtree.tomlSpreaderSimple" style="stroke:#181818;stroke-width:1.0;"/><polygon fill="none" points="809.46,174.61,789.71,166.93,809.94,160.62,809.46,174.61" style="stroke:#181818;stroke-width:1.0;"/></g><!--MD5=[1a485ca9c777b50fcab12fdc3a4624a7]
reverse link gtree.iTree to gtree.treePipeline--><g id="link_gtree.iTree_gtree.treePipeline"><path codeLine="295" d="M1834.37,200.12 C1831.75,213.95 1828.89,229.09 1826.84,239.96 " fill="none" id="gtree.iTree-backto-gtree.treePipeline" style="stroke:#181818;stroke-width:1.0;"/><polygon fill="none" points="1827.53,198.62,1838.12,180.27,1841.28,201.22,1827.53,198.62" style="stroke:#181818;stroke-width:1.0;"/></g><!--MD5=[b0d6e58034210b5d143f63598d5275fb]
reverse link gtree.iTree to gtree.treeSimple--><g id="link_gtree.iTree_gtree.treeSimple"><path codeLine="296" d="M1888.97,190.09 C1892.75,192.35 1896.47,194.67 1900,197 C1919.98,210.21 1941.26,227.53 1955.66,239.8 " fill="none" id="gtree.iTree-backto-gtree.treeSimple" style="stroke:#181818;stroke-width:1.0;"/><polygon fill="none" points="1885.29,196.05,1871.3,180.13,1892.16,183.86,1885.29,196.05" style="stroke:#181818;stroke-width:1.0;"/></g><!--MD5=[2d956fba89658a38ebfba6d416a34b5a]
reverse link gtree.spreaderPipeline to gtree.yamlSpreaderPipeline--><g id="link_gtree.spreaderPipeline_gtree.yamlSpreaderPipeline"><path codeLine="297" d="M822.76,292.12 C820.3,305.95 817.61,321.09 815.67,331.96 " fill="none" id="gtree.spreaderPipeline-backto-gtree.yamlSpreaderPipeline" style="stroke:#181818;stroke-width:1.0;"/><polygon fill="none" points="815.89,290.73,826.29,272.27,829.68,293.18,815.89,290.73" style="stroke:#181818;stroke-width:1.0;"/></g><!--MD5=[65dbb27bebad5885e8c021898ef9d58e]
reverse link gtree.spreaderSimple to gtree.yamlSpreaderSimple--><g id="link_gtree.spreaderSimple_gtree.yamlSpreaderSimple"><path codeLine="298" d="M624.15,168.82 C576.06,172.79 516.89,180.81 466,197 C434.34,207.07 401.06,226.21 379.73,239.74 " fill="none" id="gtree.spreaderSimple-backto-gtree.yamlSpreaderSimple" style="stroke:#181818;stroke-width:1.0;"/><polygon fill="none" points="623.92,161.81,644.38,167.33,624.94,175.78,623.92,161.81" style="stroke:#181818;stroke-width:1.0;"/></g><!--MD5=[8a661b5d8616b259e9799ae55cc649cc]
reverse link __builtin__.int to gtree.encode--><g id="link___builtin__.int_gtree.encode"><path codeLine="300" d="M2061.24,77.47 C2074.05,97.86 2093.91,129.44 2105.56,147.98 " fill="none" id="__builtin__.int-backto-gtree.encode" style="stroke:#181818;stroke-width:1.0;stroke-dasharray:7.0,7.0;"/><rect fill="#FFFFFF" height="10" style="stroke:#181818;stroke-width:1.5;" width="10" x="2053.46" y="68.04"/></g><!--MD5=[fd4b045da6077126bd7ac8181e5b687d]
reverse link __builtin__.int to gtree.spaceType--><g id="link___builtin__.int_gtree.spaceType"><path codeLine="301" d="M2036.76,77.47 C2023.95,97.86 2004.09,129.44 1992.44,147.98 " fill="none" id="__builtin__.int-backto-gtree.spaceType" style="stroke:#181818;stroke-width:1.0;stroke-dasharray:7.0,7.0;"/><rect fill="#FFFFFF" height="10" style="stroke:#181818;stroke-width:1.5;" width="10" x="2034.54" y="68.04"/></g><!--MD5=[ec01859a0f2471c1cc676da1e268332d]
reverse link gtree.<font color=blue>func</font>(*config)  to gtree.Option--><g id="link_gtree.&lt;font color=blue&gt;func&lt;/font&gt;(*config) _gtree.Option"><path codeLine="302" d="M210.39,185.19 C205.78,201.8 199.35,224.95 195.18,239.96 " fill="none" id="gtree.&lt;font color=blue&gt;func&lt;/font&gt;(*config) -backto-gtree.Option" style="stroke:#181818;stroke-width:1.0;stroke-dasharray:7.0,7.0;"/><rect fill="#FFFFFF" height="10" style="stroke:#181818;stroke-width:1.5;" width="10" x="206.76" y="175.27"/></g><!--MD5=[394989d5d189798ebbd63720a109aba1]
@startuml
namespace gtree {
    class Node << (S,Aquamarine) >> {
        - name string
        - hierarchy uint
        - index uint
        - brnch branch
        - parent *Node
        - children []*Node

        - setParent(parent *Node) 
        - addChild(child *Node) 
        - hasChild() bool
        - findChildByText(text string) *Node
        - isDirectlyUnder(node *Node) bool
        - isLastOfHierarchy() bool
        - isRoot() bool
        - setBranch(branchs ...string) 
        - branch() string
        - setPath(paths ...string) 
        - validatePath() error
        - path() string
        - clean() 
        - toJSONNode(jParent *jsonNode) *jsonNode
        - toTOMLNode(tParent *tomlNode) *tomlNode
        - toYAMLNode(yParent *yamlNode) *yamlNode

        + Add(text string) *Node

    }
    class branch << (S,Aquamarine) >> {
        - value string
        - path string

    }
    class branchFormat << (S,Aquamarine) >> {
        - directly string

    }
    class colorizeSpreaderPipeline << (S,Aquamarine) >> {
        - spread(ctx context.Context, w io.Writer, roots <font color=blue>chan</font> *Node) <font color=blue>chan</font> error

    }
    class colorizeSpreaderSimple << (S,Aquamarine) >> {
        - fileConsiderer *fileConsiderer
        - fileColor *color.Color
        - fileCounter *counter
        - dirColor *color.Color
        - dirCounter *counter

        - spread(w io.Writer, roots []*Node) error
        - spreadBranch(current *Node) string
        - colorize(current *Node) string
        - summary() string

    }
    class config << (S,Aquamarine) >> {
        - lastNodeFormat branchFormat
        - intermedialNodeFormat branchFormat
        - space spaceType
        - massive bool
        - ctx context.Context
        - encode encode
        - dryrun bool
        - fileExtensions []string

    }
    class counter << (S,Aquamarine) >> {
        - n uint
        - mu sync.Mutex

        - next() uint
        - reset() 
        - current() uint

    }
    class defaultGrowerPipeline << (S,Aquamarine) >> {
        - grow(ctx context.Context, roots <font color=blue>chan</font> *Node) (<font color=blue>chan</font> *Node, <font color=blue>chan</font> error)
        - worker(ctx context.Context, wg *sync.WaitGroup, roots <font color=blue>chan</font> *Node, nodes <font color=blue>chan</font> *Node, errc <font color=blue>chan</font> error) 

    }
    class defaultGrowerSimple << (S,Aquamarine) >> {
        - lastNodeFormat branchFormat
        - intermedialNodeFormat branchFormat
        - enabledValidation bool

        - grow(roots []*Node) error
        - assemble(current *Node) error
        - assembleBranch(current *Node) error
        - assembleBranchDirectly(current *Node) 
        - assembleBranchIndirectly(current *Node, parent *Node) 
        - assembleBranchFinally(current *Node, root *Node) 
        - enableValidation() 

    }
    class defaultMkdirerPipeline << (S,Aquamarine) >> {
        - mkdir(ctx context.Context, roots <font color=blue>chan</font> *Node) <font color=blue>chan</font> error
        - worker(ctx context.Context, wg *sync.WaitGroup, roots <font color=blue>chan</font> *Node, errc <font color=blue>chan</font> error) 

    }
    class defaultMkdirerSimple << (S,Aquamarine) >> {
        - fileConsiderer *fileConsiderer

        - mkdir(roots []*Node) error
        - isExistRoot(roots []*Node) bool
        - makeDirectoriesAndFiles(current *Node) error
        - mkdirAll(dir string) error
        - mkfile(path string) error

    }
    class defaultSpreaderPipeline << (S,Aquamarine) >> {
        - spread(ctx context.Context, w io.Writer, roots <font color=blue>chan</font> *Node) <font color=blue>chan</font> error
        - worker(ctx context.Context, wg *sync.WaitGroup, bw *bufio.Writer, roots <font color=blue>chan</font> *Node, errc <font color=blue>chan</font> error) 

    }
    class defaultSpreaderSimple << (S,Aquamarine) >> {
        - spread(w io.Writer, roots []*Node) error
        - spreadBranch(current *Node) string
        - write(w io.Writer, in string) error

    }
    class fileConsiderer << (S,Aquamarine) >> {
        - extensions []string

        - isFile(current *Node) bool

    }
    interface growerPipeline  {
        - grow( context.Context,  <font color=blue>chan</font> *Node) (<font color=blue>chan</font> *Node, <font color=blue>chan</font> error)
        - enableValidation() 

    }
    interface growerSimple  {
        - grow( []*Node) error
        - enableValidation() 

    }
    class gtree.Option << (T, #FF7700) >>  {
    }
    class gtree.encode << (T, #FF7700) >>  {
    }
    class gtree.spaceType << (T, #FF7700) >>  {
    }
    interface iTree  {
        - output( io.Writer,  io.Reader,  *config) error
        - outputProgrammably( io.Writer,  *Node,  *config) error
        - mkdir( io.Reader,  *config) error
        - mkdirProgrammably( *Node,  *config) error

    }
    class inputFormatError << (S,Aquamarine) >> {
        - row string

        + Error() string

    }
    class jsonNode << (S,Aquamarine) >> {
        + Name string
        + Children []*jsonNode

    }
    class jsonSpreaderPipeline << (S,Aquamarine) >> {
        - spread(ctx context.Context, w io.Writer, roots <font color=blue>chan</font> *Node) <font color=blue>chan</font> error

    }
    class jsonSpreaderSimple << (S,Aquamarine) >> {
        - spread(w io.Writer, roots []*Node) error

    }
    interface mkdirerPipeline  {
        - mkdir( context.Context,  <font color=blue>chan</font> *Node) <font color=blue>chan</font> error

    }
    interface mkdirerSimple  {
        - mkdir( []*Node) error

    }
    class nodeGenerator << (S,Aquamarine) >> {
        - parser *markdown.Parser

        - generate(row string, idx uint) (*Node, error)
        - handleErr(err error, row string) error

    }
    class nopGrowerPipeline << (S,Aquamarine) >> {
        - grow(ctx context.Context, roots <font color=blue>chan</font> *Node) (<font color=blue>chan</font> *Node, <font color=blue>chan</font> error)

    }
    class nopGrowerSimple << (S,Aquamarine) >> {
        - grow(_ []*Node) error
        - enableValidation() 

    }
    class rootGeneratorPipeline << (S,Aquamarine) >> {
        - nodeGenerator *nodeGenerator

        - generate(ctx context.Context, blocks <font color=blue>chan</font> string) (<font color=blue>chan</font> *Node, <font color=blue>chan</font> error)
        - worker(ctx context.Context, wg *sync.WaitGroup, blocks <font color=blue>chan</font> string, rootc <font color=blue>chan</font> *Node, errc <font color=blue>chan</font> error) 

    }
    class rootGeneratorSimple << (S,Aquamarine) >> {
        - counter *counter
        - scanner *bufio.Scanner
        - nodeGenerator *nodeGenerator

        - generate() ([]*Node, error)

    }
    interface spreaderPipeline  {
        - spread( context.Context,  io.Writer,  <font color=blue>chan</font> *Node) <font color=blue>chan</font> error

    }
    interface spreaderSimple  {
        - spread( io.Writer,  []*Node) error

    }
    class stack << (S,Aquamarine) >> {
        - nodes *list.List

        - push(n *Node) *stack
        - pop() *Node
        - size() int
        - dfs(current *Node) 

    }
    class tomlNode << (S,Aquamarine) >> {
        + Name string
        + Children []*tomlNode

    }
    class tomlSpreaderPipeline << (S,Aquamarine) >> {
        - spread(ctx context.Context, w io.Writer, roots <font color=blue>chan</font> *Node) <font color=blue>chan</font> error

    }
    class tomlSpreaderSimple << (S,Aquamarine) >> {
        - spread(w io.Writer, roots []*Node) error

    }
    class treePipeline << (S,Aquamarine) >> {
        - grower growerPipeline
        - spreader spreaderPipeline
        - mkdirer mkdirerPipeline

        - output(w io.Writer, r io.Reader, conf *config) error
        - outputProgrammably(w io.Writer, root *Node, conf *config) error
        - mkdir(r io.Reader, conf *config) error
        - mkdirProgrammably(root *Node, conf *config) error
        - handlePipelineErr(ctx context.Context, echs ...<font color=blue>chan</font> error) error

    }
    class treeSimple << (S,Aquamarine) >> {
        - grower growerSimple
        - spreader spreaderSimple
        - mkdirer mkdirerSimple

        - output(w io.Writer, r io.Reader, conf *config) error
        - outputProgrammably(w io.Writer, root *Node, conf *config) error
        - mkdir(r io.Reader, conf *config) error
        - mkdirProgrammably(root *Node, conf *config) error

    }
    class yamlNode << (S,Aquamarine) >> {
        + Name string
        + Children []*yamlNode

    }
    class yamlSpreaderPipeline << (S,Aquamarine) >> {
        - spread(ctx context.Context, w io.Writer, roots <font color=blue>chan</font> *Node) <font color=blue>chan</font> error

    }
    class yamlSpreaderSimple << (S,Aquamarine) >> {
        - spread(w io.Writer, roots []*Node) error

    }
}
"gtree.colorizeSpreaderSimple" *- - "gtree.colorizeSpreaderPipeline"
"gtree.defaultSpreaderSimple" *- - "gtree.colorizeSpreaderSimple"
"gtree.defaultGrowerSimple" *- - "gtree.defaultGrowerPipeline"
"gtree.defaultMkdirerSimple" *- - "gtree.defaultMkdirerPipeline"
"gtree.defaultSpreaderSimple" *- - "gtree.defaultSpreaderPipeline"
"sync.Mutex" *- - "gtree.defaultSpreaderPipeline"
"gtree.nopGrowerSimple" *- - "gtree.nopGrowerPipeline"

"gtree.spreaderPipeline" <|- - "gtree.colorizeSpreaderPipeline"
"gtree.spreaderSimple" <|- - "gtree.colorizeSpreaderSimple"
"gtree.growerSimple" <|- - "gtree.defaultGrowerSimple"
"gtree.mkdirerPipeline" <|- - "gtree.defaultMkdirerPipeline"
"gtree.mkdirerSimple" <|- - "gtree.defaultMkdirerSimple"
"gtree.spreaderPipeline" <|- - "gtree.defaultSpreaderPipeline"
"gtree.spreaderSimple" <|- - "gtree.defaultSpreaderSimple"
"gtree.spreaderPipeline" <|- - "gtree.jsonSpreaderPipeline"
"gtree.spreaderSimple" <|- - "gtree.jsonSpreaderSimple"
"gtree.growerSimple" <|- - "gtree.nopGrowerSimple"
"gtree.spreaderPipeline" <|- - "gtree.tomlSpreaderPipeline"
"gtree.spreaderSimple" <|- - "gtree.tomlSpreaderSimple"
"gtree.iTree" <|- - "gtree.treePipeline"
"gtree.iTree" <|- - "gtree.treeSimple"
"gtree.spreaderPipeline" <|- - "gtree.yamlSpreaderPipeline"
"gtree.spreaderSimple" <|- - "gtree.yamlSpreaderSimple"

"__builtin__.int" #.. "gtree.encode"
"__builtin__.int" #.. "gtree.spaceType"
"gtree.<font color=blue>func</font>(*config) " #.. "gtree.Option"
hide fields
hide methods
@enduml

PlantUML version 1.2022.7(Tue Aug 23 02:01:30 JST 2022)
(GPL source distribution)
Java Runtime: OpenJDK Runtime Environment
JVM: OpenJDK 64-Bit Server VM
Default Encoding: UTF-8
Language: ja
Country: JP
--></g></svg>