<?xml version="1.0" encoding="UTF-8" standalone="no"?><svg xmlns="http://www.w3.org/2000/svg" xmlns:xlink="http://www.w3.org/1999/xlink" contentStyleType="text/css" height="479px" preserveAspectRatio="none" style="width:3137px;height:479px;background:#FFFFFF;" version="1.1" viewBox="0 0 3137 479" width="3137px" zoomAndPan="magnify"><defs/><g><!--MD5=[f523d4665f60c2d1945a60d21a66a033]
cluster gtree--><g id="cluster_gtree"><path d="M138.5,113 L183.5,113 A3.75,3.75 0 0 1 186,115.5 L193,135.2969 L3127.5,135.2969 A2.5,2.5 0 0 1 3130,137.7969 L3130,469.5 A2.5,2.5 0 0 1 3127.5,472 L138.5,472 A2.5,2.5 0 0 1 136,469.5 L136,115.5 A2.5,2.5 0 0 1 138.5,113 " fill="none" style="stroke:#000000;stroke-width:1.5;"/><line style="stroke:#000000;stroke-width:1.5;" x1="136" x2="193" y1="135.2969" y2="135.2969"/><text fill="#000000" font-family="sans-serif" font-size="14" font-weight="bold" lengthAdjust="spacing" textLength="44" x="140" y="127.9951">gtree</text></g><!--MD5=[f9f5e47277aa1cf362235c24d633d021]
cluster sync--><g id="cluster_sync"><path d="M8.5,205 L44.5,205 A3.75,3.75 0 0 1 47,207.5 L54,227.2969 L109.5,227.2969 A2.5,2.5 0 0 1 112,229.7969 L112,285.5 A2.5,2.5 0 0 1 109.5,288 L8.5,288 A2.5,2.5 0 0 1 6,285.5 L6,207.5 A2.5,2.5 0 0 1 8.5,205 " fill="none" style="stroke:#000000;stroke-width:1.5;"/><line style="stroke:#000000;stroke-width:1.5;" x1="6" x2="54" y1="227.2969" y2="227.2969"/><text fill="#000000" font-family="sans-serif" font-size="14" font-weight="bold" lengthAdjust="spacing" textLength="35" x="10" y="219.9951">sync</text></g><!--MD5=[857233cdc7018b1e8695fe78ce49561f]
cluster __builtin__--><g id="cluster___builtin__"><path d="M1867.5,6 L1920.5,6 A3.75,3.75 0 0 1 1923,8.5 L1930,28.2969 L1944.5,28.2969 A2.5,2.5 0 0 1 1947,30.7969 L1947,86.5 A2.5,2.5 0 0 1 1944.5,89 L1867.5,89 A2.5,2.5 0 0 1 1865,86.5 L1865,8.5 A2.5,2.5 0 0 1 1867.5,6 " fill="none" style="stroke:#000000;stroke-width:1.5;"/><line style="stroke:#000000;stroke-width:1.5;" x1="1865" x2="1930" y1="28.2969" y2="28.2969"/><text fill="#000000" font-family="sans-serif" font-size="14" font-weight="bold" lengthAdjust="spacing" text-decoration="underline" textLength="52" x="1869" y="20.9951">builtin</text></g><!--MD5=[a61b9ed84bf2875371bc6bf2a2be554e]
class gtree.Node--><g id="elem_gtree.Node"><rect codeLine="2" fill="#F1F1F1" height="32" id="gtree.Node" rx="2.5" ry="2.5" style="stroke:#181818;stroke-width:0.5;" width="69" x="2544.5" y="148"/><ellipse cx="2559.5" cy="164" fill="#7FFFD4" rx="11" ry="11" style="stroke:#181818;stroke-width:1.0;"/><path d="M2558.9844,164.5625 Q2557.125,163.8594 2556.4688,163.0938 Q2555.8281,162.3125 2555.8281,161 Q2555.8281,159.3125 2556.9063,158.3438 Q2557.9844,157.375 2559.8594,157.375 Q2560.7188,157.375 2561.5625,157.5781 Q2562.4219,157.7656 2563.2656,158.1563 L2563.2656,160.5469 Q2562.4844,159.9844 2561.6563,159.7031 Q2560.8438,159.4063 2560.0469,159.4063 Q2559.1719,159.4063 2558.6875,159.7656 Q2558.2188,160.125 2558.2188,160.7813 Q2558.2188,161.2969 2558.5625,161.6406 Q2558.9063,161.9688 2560,162.375 L2561.0625,162.7813 Q2562.5469,163.3281 2563.25,164.2344 Q2563.9688,165.1406 2563.9688,166.5156 Q2563.9688,168.3906 2562.8594,169.3125 Q2561.75,170.2344 2559.5,170.2344 Q2558.5781,170.2344 2557.6563,170.0156 Q2556.7344,169.7969 2555.875,169.375 L2555.875,166.8438 Q2556.8438,167.5313 2557.7656,167.875 Q2558.6875,168.2188 2559.5781,168.2188 Q2560.4844,168.2188 2560.9844,167.8125 Q2561.4844,167.3906 2561.4844,166.6563 Q2561.4844,166.0938 2561.1406,165.6875 Q2560.8125,165.2656 2560.1875,165.0156 L2558.9844,164.5625 Z " fill="#000000"/><text fill="#000000" font-family="sans-serif" font-size="14" lengthAdjust="spacing" textLength="37" x="2573.5" y="168.8467">Node</text></g><!--MD5=[5a449540dd242248c36637cbc53badf6]
class gtree.branch--><g id="elem_gtree.branch"><rect codeLine="30" fill="#F1F1F1" height="32" id="gtree.branch" rx="2.5" ry="2.5" style="stroke:#181818;stroke-width:0.5;" width="82" x="2649" y="148"/><ellipse cx="2664" cy="164" fill="#7FFFD4" rx="11" ry="11" style="stroke:#181818;stroke-width:1.0;"/><path d="M2663.4844,164.5625 Q2661.625,163.8594 2660.9688,163.0938 Q2660.3281,162.3125 2660.3281,161 Q2660.3281,159.3125 2661.4063,158.3438 Q2662.4844,157.375 2664.3594,157.375 Q2665.2188,157.375 2666.0625,157.5781 Q2666.9219,157.7656 2667.7656,158.1563 L2667.7656,160.5469 Q2666.9844,159.9844 2666.1563,159.7031 Q2665.3438,159.4063 2664.5469,159.4063 Q2663.6719,159.4063 2663.1875,159.7656 Q2662.7188,160.125 2662.7188,160.7813 Q2662.7188,161.2969 2663.0625,161.6406 Q2663.4063,161.9688 2664.5,162.375 L2665.5625,162.7813 Q2667.0469,163.3281 2667.75,164.2344 Q2668.4688,165.1406 2668.4688,166.5156 Q2668.4688,168.3906 2667.3594,169.3125 Q2666.25,170.2344 2664,170.2344 Q2663.0781,170.2344 2662.1563,170.0156 Q2661.2344,169.7969 2660.375,169.375 L2660.375,166.8438 Q2661.3438,167.5313 2662.2656,167.875 Q2663.1875,168.2188 2664.0781,168.2188 Q2664.9844,168.2188 2665.4844,167.8125 Q2665.9844,167.3906 2665.9844,166.6563 Q2665.9844,166.0938 2665.6406,165.6875 Q2665.3125,165.2656 2664.6875,165.0156 L2663.4844,164.5625 Z " fill="#000000"/><text fill="#000000" font-family="sans-serif" font-size="14" lengthAdjust="spacing" textLength="50" x="2678" y="168.8467">branch</text></g><!--MD5=[0b2cabb51edf09577e37826ed68ec759]
class gtree.branchFormat--><g id="elem_gtree.branchFormat"><rect codeLine="35" fill="#F1F1F1" height="32" id="gtree.branchFormat" rx="2.5" ry="2.5" style="stroke:#181818;stroke-width:0.5;" width="133" x="2766.5" y="148"/><ellipse cx="2781.5" cy="164" fill="#7FFFD4" rx="11" ry="11" style="stroke:#181818;stroke-width:1.0;"/><path d="M2780.9844,164.5625 Q2779.125,163.8594 2778.4688,163.0938 Q2777.8281,162.3125 2777.8281,161 Q2777.8281,159.3125 2778.9063,158.3438 Q2779.9844,157.375 2781.8594,157.375 Q2782.7188,157.375 2783.5625,157.5781 Q2784.4219,157.7656 2785.2656,158.1563 L2785.2656,160.5469 Q2784.4844,159.9844 2783.6563,159.7031 Q2782.8438,159.4063 2782.0469,159.4063 Q2781.1719,159.4063 2780.6875,159.7656 Q2780.2188,160.125 2780.2188,160.7813 Q2780.2188,161.2969 2780.5625,161.6406 Q2780.9063,161.9688 2782,162.375 L2783.0625,162.7813 Q2784.5469,163.3281 2785.25,164.2344 Q2785.9688,165.1406 2785.9688,166.5156 Q2785.9688,168.3906 2784.8594,169.3125 Q2783.75,170.2344 2781.5,170.2344 Q2780.5781,170.2344 2779.6563,170.0156 Q2778.7344,169.7969 2777.875,169.375 L2777.875,166.8438 Q2778.8438,167.5313 2779.7656,167.875 Q2780.6875,168.2188 2781.5781,168.2188 Q2782.4844,168.2188 2782.9844,167.8125 Q2783.4844,167.3906 2783.4844,166.6563 Q2783.4844,166.0938 2783.1406,165.6875 Q2782.8125,165.2656 2782.1875,165.0156 L2780.9844,164.5625 Z " fill="#000000"/><text fill="#000000" font-family="sans-serif" font-size="14" lengthAdjust="spacing" textLength="101" x="2795.5" y="168.8467">branchFormat</text></g><!--MD5=[38060ecad2798838157451d3ba30d88b]
class gtree.colorizeSpreaderPipeline--><g id="elem_gtree.colorizeSpreaderPipeline"><rect codeLine="39" fill="#F1F1F1" height="32" id="gtree.colorizeSpreaderPipeline" rx="2.5" ry="2.5" style="stroke:#181818;stroke-width:0.5;" width="210" x="734" y="424"/><ellipse cx="749" cy="440" fill="#7FFFD4" rx="11" ry="11" style="stroke:#181818;stroke-width:1.0;"/><path d="M748.4844,440.5625 Q746.625,439.8594 745.9688,439.0938 Q745.3281,438.3125 745.3281,437 Q745.3281,435.3125 746.4063,434.3438 Q747.4844,433.375 749.3594,433.375 Q750.2188,433.375 751.0625,433.5781 Q751.9219,433.7656 752.7656,434.1563 L752.7656,436.5469 Q751.9844,435.9844 751.1563,435.7031 Q750.3438,435.4063 749.5469,435.4063 Q748.6719,435.4063 748.1875,435.7656 Q747.7188,436.125 747.7188,436.7813 Q747.7188,437.2969 748.0625,437.6406 Q748.4063,437.9688 749.5,438.375 L750.5625,438.7813 Q752.0469,439.3281 752.75,440.2344 Q753.4688,441.1406 753.4688,442.5156 Q753.4688,444.3906 752.3594,445.3125 Q751.25,446.2344 749,446.2344 Q748.0781,446.2344 747.1563,446.0156 Q746.2344,445.7969 745.375,445.375 L745.375,442.8438 Q746.3438,443.5313 747.2656,443.875 Q748.1875,444.2188 749.0781,444.2188 Q749.9844,444.2188 750.4844,443.8125 Q750.9844,443.3906 750.9844,442.6563 Q750.9844,442.0938 750.6406,441.6875 Q750.3125,441.2656 749.6875,441.0156 L748.4844,440.5625 Z " fill="#000000"/><text fill="#000000" font-family="sans-serif" font-size="14" lengthAdjust="spacing" textLength="178" x="763" y="444.8467">colorizeSpreaderPipeline</text></g><!--MD5=[95fd347abf165423d1d2df2dc9a061c7]
class gtree.colorizeSpreaderSimple--><g id="elem_gtree.colorizeSpreaderSimple"><rect codeLine="43" fill="#F1F1F1" height="32" id="gtree.colorizeSpreaderSimple" rx="2.5" ry="2.5" style="stroke:#181818;stroke-width:0.5;" width="203" x="438.5" y="332"/><ellipse cx="453.5" cy="348" fill="#7FFFD4" rx="11" ry="11" style="stroke:#181818;stroke-width:1.0;"/><path d="M452.9844,348.5625 Q451.125,347.8594 450.4688,347.0938 Q449.8281,346.3125 449.8281,345 Q449.8281,343.3125 450.9063,342.3438 Q451.9844,341.375 453.8594,341.375 Q454.7188,341.375 455.5625,341.5781 Q456.4219,341.7656 457.2656,342.1563 L457.2656,344.5469 Q456.4844,343.9844 455.6563,343.7031 Q454.8438,343.4063 454.0469,343.4063 Q453.1719,343.4063 452.6875,343.7656 Q452.2188,344.125 452.2188,344.7813 Q452.2188,345.2969 452.5625,345.6406 Q452.9063,345.9688 454,346.375 L455.0625,346.7813 Q456.5469,347.3281 457.25,348.2344 Q457.9688,349.1406 457.9688,350.5156 Q457.9688,352.3906 456.8594,353.3125 Q455.75,354.2344 453.5,354.2344 Q452.5781,354.2344 451.6563,354.0156 Q450.7344,353.7969 449.875,353.375 L449.875,350.8438 Q450.8438,351.5313 451.7656,351.875 Q452.6875,352.2188 453.5781,352.2188 Q454.4844,352.2188 454.9844,351.8125 Q455.4844,351.3906 455.4844,350.6563 Q455.4844,350.0938 455.1406,349.6875 Q454.8125,349.2656 454.1875,349.0156 L452.9844,348.5625 Z " fill="#000000"/><text fill="#000000" font-family="sans-serif" font-size="14" lengthAdjust="spacing" textLength="171" x="467.5" y="352.8467">colorizeSpreaderSimple</text></g><!--MD5=[b2112af791478750f6bb67789c4a273a]
class gtree.config--><g id="elem_gtree.config"><rect codeLine="56" fill="#F1F1F1" height="32" id="gtree.config" rx="2.5" ry="2.5" style="stroke:#181818;stroke-width:0.5;" width="76" x="2935" y="148"/><ellipse cx="2950" cy="164" fill="#7FFFD4" rx="11" ry="11" style="stroke:#181818;stroke-width:1.0;"/><path d="M2949.4844,164.5625 Q2947.625,163.8594 2946.9688,163.0938 Q2946.3281,162.3125 2946.3281,161 Q2946.3281,159.3125 2947.4063,158.3438 Q2948.4844,157.375 2950.3594,157.375 Q2951.2188,157.375 2952.0625,157.5781 Q2952.9219,157.7656 2953.7656,158.1563 L2953.7656,160.5469 Q2952.9844,159.9844 2952.1563,159.7031 Q2951.3438,159.4063 2950.5469,159.4063 Q2949.6719,159.4063 2949.1875,159.7656 Q2948.7188,160.125 2948.7188,160.7813 Q2948.7188,161.2969 2949.0625,161.6406 Q2949.4063,161.9688 2950.5,162.375 L2951.5625,162.7813 Q2953.0469,163.3281 2953.75,164.2344 Q2954.4688,165.1406 2954.4688,166.5156 Q2954.4688,168.3906 2953.3594,169.3125 Q2952.25,170.2344 2950,170.2344 Q2949.0781,170.2344 2948.1563,170.0156 Q2947.2344,169.7969 2946.375,169.375 L2946.375,166.8438 Q2947.3438,167.5313 2948.2656,167.875 Q2949.1875,168.2188 2950.0781,168.2188 Q2950.9844,168.2188 2951.4844,167.8125 Q2951.9844,167.3906 2951.9844,166.6563 Q2951.9844,166.0938 2951.6406,165.6875 Q2951.3125,165.2656 2950.6875,165.0156 L2949.4844,164.5625 Z " fill="#000000"/><text fill="#000000" font-family="sans-serif" font-size="14" lengthAdjust="spacing" textLength="44" x="2964" y="168.8467">config</text></g><!--MD5=[026a6169210a4b2349ecee86eb07d237]
class gtree.counter--><g id="elem_gtree.counter"><rect codeLine="67" fill="#F1F1F1" height="32" id="gtree.counter" rx="2.5" ry="2.5" style="stroke:#181818;stroke-width:0.5;" width="87" x="2535.5" y="240"/><ellipse cx="2550.5" cy="256" fill="#7FFFD4" rx="11" ry="11" style="stroke:#181818;stroke-width:1.0;"/><path d="M2549.9844,256.5625 Q2548.125,255.8594 2547.4688,255.0938 Q2546.8281,254.3125 2546.8281,253 Q2546.8281,251.3125 2547.9063,250.3438 Q2548.9844,249.375 2550.8594,249.375 Q2551.7188,249.375 2552.5625,249.5781 Q2553.4219,249.7656 2554.2656,250.1563 L2554.2656,252.5469 Q2553.4844,251.9844 2552.6563,251.7031 Q2551.8438,251.4063 2551.0469,251.4063 Q2550.1719,251.4063 2549.6875,251.7656 Q2549.2188,252.125 2549.2188,252.7813 Q2549.2188,253.2969 2549.5625,253.6406 Q2549.9063,253.9688 2551,254.375 L2552.0625,254.7813 Q2553.5469,255.3281 2554.25,256.2344 Q2554.9688,257.1406 2554.9688,258.5156 Q2554.9688,260.3906 2553.8594,261.3125 Q2552.75,262.2344 2550.5,262.2344 Q2549.5781,262.2344 2548.6563,262.0156 Q2547.7344,261.7969 2546.875,261.375 L2546.875,258.8438 Q2547.8438,259.5313 2548.7656,259.875 Q2549.6875,260.2188 2550.5781,260.2188 Q2551.4844,260.2188 2551.9844,259.8125 Q2552.4844,259.3906 2552.4844,258.6563 Q2552.4844,258.0938 2552.1406,257.6875 Q2551.8125,257.2656 2551.1875,257.0156 L2549.9844,256.5625 Z " fill="#000000"/><text fill="#000000" font-family="sans-serif" font-size="14" lengthAdjust="spacing" textLength="55" x="2564.5" y="260.8467">counter</text></g><!--MD5=[08f5916a8a87fad3194747f94426301c]
class gtree.defaultGrowerPipeline--><g id="elem_gtree.defaultGrowerPipeline"><rect codeLine="76" fill="#F1F1F1" height="32" id="gtree.defaultGrowerPipeline" rx="2.5" ry="2.5" style="stroke:#181818;stroke-width:0.5;" width="190" x="1997" y="332"/><ellipse cx="2012" cy="348" fill="#7FFFD4" rx="11" ry="11" style="stroke:#181818;stroke-width:1.0;"/><path d="M2011.4844,348.5625 Q2009.625,347.8594 2008.9688,347.0938 Q2008.3281,346.3125 2008.3281,345 Q2008.3281,343.3125 2009.4063,342.3438 Q2010.4844,341.375 2012.3594,341.375 Q2013.2188,341.375 2014.0625,341.5781 Q2014.9219,341.7656 2015.7656,342.1563 L2015.7656,344.5469 Q2014.9844,343.9844 2014.1563,343.7031 Q2013.3438,343.4063 2012.5469,343.4063 Q2011.6719,343.4063 2011.1875,343.7656 Q2010.7188,344.125 2010.7188,344.7813 Q2010.7188,345.2969 2011.0625,345.6406 Q2011.4063,345.9688 2012.5,346.375 L2013.5625,346.7813 Q2015.0469,347.3281 2015.75,348.2344 Q2016.4688,349.1406 2016.4688,350.5156 Q2016.4688,352.3906 2015.3594,353.3125 Q2014.25,354.2344 2012,354.2344 Q2011.0781,354.2344 2010.1563,354.0156 Q2009.2344,353.7969 2008.375,353.375 L2008.375,350.8438 Q2009.3438,351.5313 2010.2656,351.875 Q2011.1875,352.2188 2012.0781,352.2188 Q2012.9844,352.2188 2013.4844,351.8125 Q2013.9844,351.3906 2013.9844,350.6563 Q2013.9844,350.0938 2013.6406,349.6875 Q2013.3125,349.2656 2012.6875,349.0156 L2011.4844,348.5625 Z " fill="#000000"/><text fill="#000000" font-family="sans-serif" font-size="14" lengthAdjust="spacing" textLength="158" x="2026" y="352.8467">defaultGrowerPipeline</text></g><!--MD5=[a2be2fef63b1c53ecefca6d39b5438e2]
class gtree.defaultGrowerSimple--><g id="elem_gtree.defaultGrowerSimple"><rect codeLine="81" fill="#F1F1F1" height="32" id="gtree.defaultGrowerSimple" rx="2.5" ry="2.5" style="stroke:#181818;stroke-width:0.5;" width="183" x="2121.5" y="240"/><ellipse cx="2136.5" cy="256" fill="#7FFFD4" rx="11" ry="11" style="stroke:#181818;stroke-width:1.0;"/><path d="M2135.9844,256.5625 Q2134.125,255.8594 2133.4688,255.0938 Q2132.8281,254.3125 2132.8281,253 Q2132.8281,251.3125 2133.9063,250.3438 Q2134.9844,249.375 2136.8594,249.375 Q2137.7188,249.375 2138.5625,249.5781 Q2139.4219,249.7656 2140.2656,250.1563 L2140.2656,252.5469 Q2139.4844,251.9844 2138.6563,251.7031 Q2137.8438,251.4063 2137.0469,251.4063 Q2136.1719,251.4063 2135.6875,251.7656 Q2135.2188,252.125 2135.2188,252.7813 Q2135.2188,253.2969 2135.5625,253.6406 Q2135.9063,253.9688 2137,254.375 L2138.0625,254.7813 Q2139.5469,255.3281 2140.25,256.2344 Q2140.9688,257.1406 2140.9688,258.5156 Q2140.9688,260.3906 2139.8594,261.3125 Q2138.75,262.2344 2136.5,262.2344 Q2135.5781,262.2344 2134.6563,262.0156 Q2133.7344,261.7969 2132.875,261.375 L2132.875,258.8438 Q2133.8438,259.5313 2134.7656,259.875 Q2135.6875,260.2188 2136.5781,260.2188 Q2137.4844,260.2188 2137.9844,259.8125 Q2138.4844,259.3906 2138.4844,258.6563 Q2138.4844,258.0938 2138.1406,257.6875 Q2137.8125,257.2656 2137.1875,257.0156 L2135.9844,256.5625 Z " fill="#000000"/><text fill="#000000" font-family="sans-serif" font-size="14" lengthAdjust="spacing" textLength="151" x="2150.5" y="260.8467">defaultGrowerSimple</text></g><!--MD5=[0175b5459c57f99d95f33dac4767e445]
class gtree.defaultMkdirerPipeline--><g id="elem_gtree.defaultMkdirerPipeline"><rect codeLine="95" fill="#F1F1F1" height="32" id="gtree.defaultMkdirerPipeline" rx="2.5" ry="2.5" style="stroke:#181818;stroke-width:0.5;" width="192" x="1617" y="332"/><ellipse cx="1632" cy="348" fill="#7FFFD4" rx="11" ry="11" style="stroke:#181818;stroke-width:1.0;"/><path d="M1631.4844,348.5625 Q1629.625,347.8594 1628.9688,347.0938 Q1628.3281,346.3125 1628.3281,345 Q1628.3281,343.3125 1629.4063,342.3438 Q1630.4844,341.375 1632.3594,341.375 Q1633.2188,341.375 1634.0625,341.5781 Q1634.9219,341.7656 1635.7656,342.1563 L1635.7656,344.5469 Q1634.9844,343.9844 1634.1563,343.7031 Q1633.3438,343.4063 1632.5469,343.4063 Q1631.6719,343.4063 1631.1875,343.7656 Q1630.7188,344.125 1630.7188,344.7813 Q1630.7188,345.2969 1631.0625,345.6406 Q1631.4063,345.9688 1632.5,346.375 L1633.5625,346.7813 Q1635.0469,347.3281 1635.75,348.2344 Q1636.4688,349.1406 1636.4688,350.5156 Q1636.4688,352.3906 1635.3594,353.3125 Q1634.25,354.2344 1632,354.2344 Q1631.0781,354.2344 1630.1563,354.0156 Q1629.2344,353.7969 1628.375,353.375 L1628.375,350.8438 Q1629.3438,351.5313 1630.2656,351.875 Q1631.1875,352.2188 1632.0781,352.2188 Q1632.9844,352.2188 1633.4844,351.8125 Q1633.9844,351.3906 1633.9844,350.6563 Q1633.9844,350.0938 1633.6406,349.6875 Q1633.3125,349.2656 1632.6875,349.0156 L1631.4844,348.5625 Z " fill="#000000"/><text fill="#000000" font-family="sans-serif" font-size="14" lengthAdjust="spacing" textLength="160" x="1646" y="352.8467">defaultMkdirerPipeline</text></g><!--MD5=[2e10154fbfc97053e1dd9decf5814441]
class gtree.defaultMkdirerSimple--><g id="elem_gtree.defaultMkdirerSimple"><rect codeLine="100" fill="#F1F1F1" height="32" id="gtree.defaultMkdirerSimple" rx="2.5" ry="2.5" style="stroke:#181818;stroke-width:0.5;" width="185" x="1366.5" y="240"/><ellipse cx="1381.5" cy="256" fill="#7FFFD4" rx="11" ry="11" style="stroke:#181818;stroke-width:1.0;"/><path d="M1380.9844,256.5625 Q1379.125,255.8594 1378.4688,255.0938 Q1377.8281,254.3125 1377.8281,253 Q1377.8281,251.3125 1378.9063,250.3438 Q1379.9844,249.375 1381.8594,249.375 Q1382.7188,249.375 1383.5625,249.5781 Q1384.4219,249.7656 1385.2656,250.1563 L1385.2656,252.5469 Q1384.4844,251.9844 1383.6563,251.7031 Q1382.8438,251.4063 1382.0469,251.4063 Q1381.1719,251.4063 1380.6875,251.7656 Q1380.2188,252.125 1380.2188,252.7813 Q1380.2188,253.2969 1380.5625,253.6406 Q1380.9063,253.9688 1382,254.375 L1383.0625,254.7813 Q1384.5469,255.3281 1385.25,256.2344 Q1385.9688,257.1406 1385.9688,258.5156 Q1385.9688,260.3906 1384.8594,261.3125 Q1383.75,262.2344 1381.5,262.2344 Q1380.5781,262.2344 1379.6563,262.0156 Q1378.7344,261.7969 1377.875,261.375 L1377.875,258.8438 Q1378.8438,259.5313 1379.7656,259.875 Q1380.6875,260.2188 1381.5781,260.2188 Q1382.4844,260.2188 1382.9844,259.8125 Q1383.4844,259.3906 1383.4844,258.6563 Q1383.4844,258.0938 1383.1406,257.6875 Q1382.8125,257.2656 1382.1875,257.0156 L1380.9844,256.5625 Z " fill="#000000"/><text fill="#000000" font-family="sans-serif" font-size="14" lengthAdjust="spacing" textLength="153" x="1395.5" y="260.8467">defaultMkdirerSimple</text></g><!--MD5=[8d21557af39944907500f3704b980d13]
class gtree.defaultSpreaderPipeline--><g id="elem_gtree.defaultSpreaderPipeline"><rect codeLine="110" fill="#F1F1F1" height="32" id="gtree.defaultSpreaderPipeline" rx="2.5" ry="2.5" style="stroke:#181818;stroke-width:0.5;" width="204" x="677" y="332"/><ellipse cx="692" cy="348" fill="#7FFFD4" rx="11" ry="11" style="stroke:#181818;stroke-width:1.0;"/><path d="M691.4844,348.5625 Q689.625,347.8594 688.9688,347.0938 Q688.3281,346.3125 688.3281,345 Q688.3281,343.3125 689.4063,342.3438 Q690.4844,341.375 692.3594,341.375 Q693.2188,341.375 694.0625,341.5781 Q694.9219,341.7656 695.7656,342.1563 L695.7656,344.5469 Q694.9844,343.9844 694.1563,343.7031 Q693.3438,343.4063 692.5469,343.4063 Q691.6719,343.4063 691.1875,343.7656 Q690.7188,344.125 690.7188,344.7813 Q690.7188,345.2969 691.0625,345.6406 Q691.4063,345.9688 692.5,346.375 L693.5625,346.7813 Q695.0469,347.3281 695.75,348.2344 Q696.4688,349.1406 696.4688,350.5156 Q696.4688,352.3906 695.3594,353.3125 Q694.25,354.2344 692,354.2344 Q691.0781,354.2344 690.1563,354.0156 Q689.2344,353.7969 688.375,353.375 L688.375,350.8438 Q689.3438,351.5313 690.2656,351.875 Q691.1875,352.2188 692.0781,352.2188 Q692.9844,352.2188 693.4844,351.8125 Q693.9844,351.3906 693.9844,350.6563 Q693.9844,350.0938 693.6406,349.6875 Q693.3125,349.2656 692.6875,349.0156 L691.4844,348.5625 Z " fill="#000000"/><text fill="#000000" font-family="sans-serif" font-size="14" lengthAdjust="spacing" textLength="172" x="706" y="352.8467">defaultSpreaderPipeline</text></g><!--MD5=[f33b9369486623d0e9773877608a377f]
class gtree.defaultSpreaderSimple--><g id="elem_gtree.defaultSpreaderSimple"><rect codeLine="115" fill="#F1F1F1" height="32" id="gtree.defaultSpreaderSimple" rx="2.5" ry="2.5" style="stroke:#181818;stroke-width:0.5;" width="197" x="946.5" y="240"/><ellipse cx="961.5" cy="256" fill="#7FFFD4" rx="11" ry="11" style="stroke:#181818;stroke-width:1.0;"/><path d="M960.9844,256.5625 Q959.125,255.8594 958.4688,255.0938 Q957.8281,254.3125 957.8281,253 Q957.8281,251.3125 958.9063,250.3438 Q959.9844,249.375 961.8594,249.375 Q962.7188,249.375 963.5625,249.5781 Q964.4219,249.7656 965.2656,250.1563 L965.2656,252.5469 Q964.4844,251.9844 963.6563,251.7031 Q962.8438,251.4063 962.0469,251.4063 Q961.1719,251.4063 960.6875,251.7656 Q960.2188,252.125 960.2188,252.7813 Q960.2188,253.2969 960.5625,253.6406 Q960.9063,253.9688 962,254.375 L963.0625,254.7813 Q964.5469,255.3281 965.25,256.2344 Q965.9688,257.1406 965.9688,258.5156 Q965.9688,260.3906 964.8594,261.3125 Q963.75,262.2344 961.5,262.2344 Q960.5781,262.2344 959.6563,262.0156 Q958.7344,261.7969 957.875,261.375 L957.875,258.8438 Q958.8438,259.5313 959.7656,259.875 Q960.6875,260.2188 961.5781,260.2188 Q962.4844,260.2188 962.9844,259.8125 Q963.4844,259.3906 963.4844,258.6563 Q963.4844,258.0938 963.1406,257.6875 Q962.8125,257.2656 962.1875,257.0156 L960.9844,256.5625 Z " fill="#000000"/><text fill="#000000" font-family="sans-serif" font-size="14" lengthAdjust="spacing" textLength="165" x="975.5" y="260.8467">defaultSpreaderSimple</text></g><!--MD5=[485616950f9d47d495335ab682775fc6]
class gtree.fileConsiderer--><g id="elem_gtree.fileConsiderer"><rect codeLine="121" fill="#F1F1F1" height="32" id="gtree.fileConsiderer" rx="2.5" ry="2.5" style="stroke:#181818;stroke-width:0.5;" width="132" x="2658" y="240"/><ellipse cx="2673" cy="256" fill="#7FFFD4" rx="11" ry="11" style="stroke:#181818;stroke-width:1.0;"/><path d="M2672.4844,256.5625 Q2670.625,255.8594 2669.9688,255.0938 Q2669.3281,254.3125 2669.3281,253 Q2669.3281,251.3125 2670.4063,250.3438 Q2671.4844,249.375 2673.3594,249.375 Q2674.2188,249.375 2675.0625,249.5781 Q2675.9219,249.7656 2676.7656,250.1563 L2676.7656,252.5469 Q2675.9844,251.9844 2675.1563,251.7031 Q2674.3438,251.4063 2673.5469,251.4063 Q2672.6719,251.4063 2672.1875,251.7656 Q2671.7188,252.125 2671.7188,252.7813 Q2671.7188,253.2969 2672.0625,253.6406 Q2672.4063,253.9688 2673.5,254.375 L2674.5625,254.7813 Q2676.0469,255.3281 2676.75,256.2344 Q2677.4688,257.1406 2677.4688,258.5156 Q2677.4688,260.3906 2676.3594,261.3125 Q2675.25,262.2344 2673,262.2344 Q2672.0781,262.2344 2671.1563,262.0156 Q2670.2344,261.7969 2669.375,261.375 L2669.375,258.8438 Q2670.3438,259.5313 2671.2656,259.875 Q2672.1875,260.2188 2673.0781,260.2188 Q2673.9844,260.2188 2674.4844,259.8125 Q2674.9844,259.3906 2674.9844,258.6563 Q2674.9844,258.0938 2674.6406,257.6875 Q2674.3125,257.2656 2673.6875,257.0156 L2672.4844,256.5625 Z " fill="#000000"/><text fill="#000000" font-family="sans-serif" font-size="14" lengthAdjust="spacing" textLength="100" x="2687" y="260.8467">fileConsiderer</text></g><!--MD5=[0456c8cfe06223f3e473c3aaab5696b9]
class gtree.growerPipeline--><g id="elem_gtree.growerPipeline"><rect codeLine="127" fill="#F1F1F1" height="32" id="gtree.growerPipeline" rx="2.5" ry="2.5" style="stroke:#181818;stroke-width:0.5;" width="138" x="1948" y="240"/><ellipse cx="1963" cy="256" fill="#B4A7E5" rx="11" ry="11" style="stroke:#181818;stroke-width:1.0;"/><path d="M1958.9219,251.7656 L1958.9219,249.6094 L1966.3125,249.6094 L1966.3125,251.7656 L1963.8438,251.7656 L1963.8438,259.8438 L1966.3125,259.8438 L1966.3125,262 L1958.9219,262 L1958.9219,259.8438 L1961.3906,259.8438 L1961.3906,251.7656 L1958.9219,251.7656 Z " fill="#000000"/><text fill="#000000" font-family="sans-serif" font-size="14" font-style="italic" lengthAdjust="spacing" textLength="106" x="1977" y="260.8467">growerPipeline</text></g><!--MD5=[9c1437a7b7a1c896da7dcdd28927d07e]
class gtree.growerSimple--><g id="elem_gtree.growerSimple"><rect codeLine="132" fill="#F1F1F1" height="32" id="gtree.growerSimple" rx="2.5" ry="2.5" style="stroke:#181818;stroke-width:0.5;" width="131" x="2147.5" y="148"/><ellipse cx="2162.5" cy="164" fill="#B4A7E5" rx="11" ry="11" style="stroke:#181818;stroke-width:1.0;"/><path d="M2158.4219,159.7656 L2158.4219,157.6094 L2165.8125,157.6094 L2165.8125,159.7656 L2163.3438,159.7656 L2163.3438,167.8438 L2165.8125,167.8438 L2165.8125,170 L2158.4219,170 L2158.4219,167.8438 L2160.8906,167.8438 L2160.8906,159.7656 L2158.4219,159.7656 Z " fill="#000000"/><text fill="#000000" font-family="sans-serif" font-size="14" font-style="italic" lengthAdjust="spacing" textLength="99" x="2176.5" y="168.8467">growerSimple</text></g><!--MD5=[fa9b25ba97475cdd9b606c9cf224ba88]
class gtree.Option--><g id="elem_gtree.Option"><rect codeLine="137" fill="#F1F1F1" height="32" id="gtree.Option" rx="2.5" ry="2.5" style="stroke:#181818;stroke-width:0.5;" width="79" x="151.5" y="240"/><ellipse cx="166.5" cy="256" fill="#FF7700" rx="11" ry="11" style="stroke:#181818;stroke-width:1.0;"/><path d="M167.3438,262.75 L164.8906,262.75 L164.8906,252.5 L161.75,252.5 L161.75,250.3594 L170.4844,250.3594 L170.4844,252.5 L167.3438,252.5 L167.3438,262.75 Z " fill="#000000"/><text fill="#000000" font-family="sans-serif" font-size="14" lengthAdjust="spacing" textLength="47" x="180.5" y="260.8467">Option</text></g><!--MD5=[41948fe38285ddb6993c73c080145649]
class gtree.encode--><g id="elem_gtree.encode"><rect codeLine="139" fill="#F1F1F1" height="32" id="gtree.encode" rx="2.5" ry="2.5" style="stroke:#181818;stroke-width:0.5;" width="85" x="1797.5" y="148"/><ellipse cx="1812.5" cy="164" fill="#FF7700" rx="11" ry="11" style="stroke:#181818;stroke-width:1.0;"/><path d="M1813.3438,170.75 L1810.8906,170.75 L1810.8906,160.5 L1807.75,160.5 L1807.75,158.3594 L1816.4844,158.3594 L1816.4844,160.5 L1813.3438,160.5 L1813.3438,170.75 Z " fill="#000000"/><text fill="#000000" font-family="sans-serif" font-size="14" lengthAdjust="spacing" textLength="53" x="1826.5" y="168.8467">encode</text></g><!--MD5=[7d4b2d32e7d6aea5b178467ad32f154c]
class gtree.spaceType--><g id="elem_gtree.spaceType"><rect codeLine="141" fill="#F1F1F1" height="32" id="gtree.spaceType" rx="2.5" ry="2.5" style="stroke:#181818;stroke-width:0.5;" width="109" x="1917.5" y="148"/><ellipse cx="1932.5" cy="164" fill="#FF7700" rx="11" ry="11" style="stroke:#181818;stroke-width:1.0;"/><path d="M1933.3438,170.75 L1930.8906,170.75 L1930.8906,160.5 L1927.75,160.5 L1927.75,158.3594 L1936.4844,158.3594 L1936.4844,160.5 L1933.3438,160.5 L1933.3438,170.75 Z " fill="#000000"/><text fill="#000000" font-family="sans-serif" font-size="14" lengthAdjust="spacing" textLength="77" x="1946.5" y="168.8467">spaceType</text></g><!--MD5=[6dccb1d5cf9ebb98f37137ae0f5a560d]
class gtree.iTree--><g id="elem_gtree.iTree"><rect codeLine="143" fill="#F1F1F1" height="32" id="gtree.iTree" rx="2.5" ry="2.5" style="stroke:#181818;stroke-width:0.5;" width="69" x="1650.5" y="148"/><ellipse cx="1665.5" cy="164" fill="#B4A7E5" rx="11" ry="11" style="stroke:#181818;stroke-width:1.0;"/><path d="M1661.4219,159.7656 L1661.4219,157.6094 L1668.8125,157.6094 L1668.8125,159.7656 L1666.3438,159.7656 L1666.3438,167.8438 L1668.8125,167.8438 L1668.8125,170 L1661.4219,170 L1661.4219,167.8438 L1663.8906,167.8438 L1663.8906,159.7656 L1661.4219,159.7656 Z " fill="#000000"/><text fill="#000000" font-family="sans-serif" font-size="14" font-style="italic" lengthAdjust="spacing" textLength="37" x="1679.5" y="168.8467">iTree</text></g><!--MD5=[57efca6d9e8f3ca2a2d7f0aca272d6fa]
class gtree.inputFormatError--><g id="elem_gtree.inputFormatError"><rect codeLine="150" fill="#F1F1F1" height="32" id="gtree.inputFormatError" rx="2.5" ry="2.5" style="stroke:#181818;stroke-width:0.5;" width="155" x="2825.5" y="240"/><ellipse cx="2840.5" cy="256" fill="#7FFFD4" rx="11" ry="11" style="stroke:#181818;stroke-width:1.0;"/><path d="M2839.9844,256.5625 Q2838.125,255.8594 2837.4688,255.0938 Q2836.8281,254.3125 2836.8281,253 Q2836.8281,251.3125 2837.9063,250.3438 Q2838.9844,249.375 2840.8594,249.375 Q2841.7188,249.375 2842.5625,249.5781 Q2843.4219,249.7656 2844.2656,250.1563 L2844.2656,252.5469 Q2843.4844,251.9844 2842.6563,251.7031 Q2841.8438,251.4063 2841.0469,251.4063 Q2840.1719,251.4063 2839.6875,251.7656 Q2839.2188,252.125 2839.2188,252.7813 Q2839.2188,253.2969 2839.5625,253.6406 Q2839.9063,253.9688 2841,254.375 L2842.0625,254.7813 Q2843.5469,255.3281 2844.25,256.2344 Q2844.9688,257.1406 2844.9688,258.5156 Q2844.9688,260.3906 2843.8594,261.3125 Q2842.75,262.2344 2840.5,262.2344 Q2839.5781,262.2344 2838.6563,262.0156 Q2837.7344,261.7969 2836.875,261.375 L2836.875,258.8438 Q2837.8438,259.5313 2838.7656,259.875 Q2839.6875,260.2188 2840.5781,260.2188 Q2841.4844,260.2188 2841.9844,259.8125 Q2842.4844,259.3906 2842.4844,258.6563 Q2842.4844,258.0938 2842.1406,257.6875 Q2841.8125,257.2656 2841.1875,257.0156 L2839.9844,256.5625 Z " fill="#000000"/><text fill="#000000" font-family="sans-serif" font-size="14" lengthAdjust="spacing" textLength="123" x="2854.5" y="260.8467">inputFormatError</text></g><!--MD5=[c4a8d21900ed019c4ebc09f17e6853ec]
class gtree.jsonNode--><g id="elem_gtree.jsonNode"><rect codeLine="156" fill="#F1F1F1" height="32" id="gtree.jsonNode" rx="2.5" ry="2.5" style="stroke:#181818;stroke-width:0.5;" width="98" x="3016" y="240"/><ellipse cx="3031" cy="256" fill="#7FFFD4" rx="11" ry="11" style="stroke:#181818;stroke-width:1.0;"/><path d="M3030.4844,256.5625 Q3028.625,255.8594 3027.9688,255.0938 Q3027.3281,254.3125 3027.3281,253 Q3027.3281,251.3125 3028.4063,250.3438 Q3029.4844,249.375 3031.3594,249.375 Q3032.2188,249.375 3033.0625,249.5781 Q3033.9219,249.7656 3034.7656,250.1563 L3034.7656,252.5469 Q3033.9844,251.9844 3033.1563,251.7031 Q3032.3438,251.4063 3031.5469,251.4063 Q3030.6719,251.4063 3030.1875,251.7656 Q3029.7188,252.125 3029.7188,252.7813 Q3029.7188,253.2969 3030.0625,253.6406 Q3030.4063,253.9688 3031.5,254.375 L3032.5625,254.7813 Q3034.0469,255.3281 3034.75,256.2344 Q3035.4688,257.1406 3035.4688,258.5156 Q3035.4688,260.3906 3034.3594,261.3125 Q3033.25,262.2344 3031,262.2344 Q3030.0781,262.2344 3029.1563,262.0156 Q3028.2344,261.7969 3027.375,261.375 L3027.375,258.8438 Q3028.3438,259.5313 3029.2656,259.875 Q3030.1875,260.2188 3031.0781,260.2188 Q3031.9844,260.2188 3032.4844,259.8125 Q3032.9844,259.3906 3032.9844,258.6563 Q3032.9844,258.0938 3032.6406,257.6875 Q3032.3125,257.2656 3031.6875,257.0156 L3030.4844,256.5625 Z " fill="#000000"/><text fill="#000000" font-family="sans-serif" font-size="14" lengthAdjust="spacing" textLength="66" x="3045" y="260.8467">jsonNode</text></g><!--MD5=[d371a5b29db8233a56282275f871f2ab]
class gtree.jsonSpreaderPipeline--><g id="elem_gtree.jsonSpreaderPipeline"><rect codeLine="161" fill="#F1F1F1" height="32" id="gtree.jsonSpreaderPipeline" rx="2.5" ry="2.5" style="stroke:#181818;stroke-width:0.5;" width="183" x="1398.5" y="332"/><ellipse cx="1413.5" cy="348" fill="#7FFFD4" rx="11" ry="11" style="stroke:#181818;stroke-width:1.0;"/><path d="M1412.9844,348.5625 Q1411.125,347.8594 1410.4688,347.0938 Q1409.8281,346.3125 1409.8281,345 Q1409.8281,343.3125 1410.9063,342.3438 Q1411.9844,341.375 1413.8594,341.375 Q1414.7188,341.375 1415.5625,341.5781 Q1416.4219,341.7656 1417.2656,342.1563 L1417.2656,344.5469 Q1416.4844,343.9844 1415.6563,343.7031 Q1414.8438,343.4063 1414.0469,343.4063 Q1413.1719,343.4063 1412.6875,343.7656 Q1412.2188,344.125 1412.2188,344.7813 Q1412.2188,345.2969 1412.5625,345.6406 Q1412.9063,345.9688 1414,346.375 L1415.0625,346.7813 Q1416.5469,347.3281 1417.25,348.2344 Q1417.9688,349.1406 1417.9688,350.5156 Q1417.9688,352.3906 1416.8594,353.3125 Q1415.75,354.2344 1413.5,354.2344 Q1412.5781,354.2344 1411.6563,354.0156 Q1410.7344,353.7969 1409.875,353.375 L1409.875,350.8438 Q1410.8438,351.5313 1411.7656,351.875 Q1412.6875,352.2188 1413.5781,352.2188 Q1414.4844,352.2188 1414.9844,351.8125 Q1415.4844,351.3906 1415.4844,350.6563 Q1415.4844,350.0938 1415.1406,349.6875 Q1414.8125,349.2656 1414.1875,349.0156 L1412.9844,348.5625 Z " fill="#000000"/><text fill="#000000" font-family="sans-serif" font-size="14" lengthAdjust="spacing" textLength="151" x="1427.5" y="352.8467">jsonSpreaderPipeline</text></g><!--MD5=[a01e8942fc2759b8c624a2da21a7c6b2]
class gtree.jsonSpreaderSimple--><g id="elem_gtree.jsonSpreaderSimple"><rect codeLine="165" fill="#F1F1F1" height="32" id="gtree.jsonSpreaderSimple" rx="2.5" ry="2.5" style="stroke:#181818;stroke-width:0.5;" width="176" x="266" y="240"/><ellipse cx="281" cy="256" fill="#7FFFD4" rx="11" ry="11" style="stroke:#181818;stroke-width:1.0;"/><path d="M280.4844,256.5625 Q278.625,255.8594 277.9688,255.0938 Q277.3281,254.3125 277.3281,253 Q277.3281,251.3125 278.4063,250.3438 Q279.4844,249.375 281.3594,249.375 Q282.2188,249.375 283.0625,249.5781 Q283.9219,249.7656 284.7656,250.1563 L284.7656,252.5469 Q283.9844,251.9844 283.1563,251.7031 Q282.3438,251.4063 281.5469,251.4063 Q280.6719,251.4063 280.1875,251.7656 Q279.7188,252.125 279.7188,252.7813 Q279.7188,253.2969 280.0625,253.6406 Q280.4063,253.9688 281.5,254.375 L282.5625,254.7813 Q284.0469,255.3281 284.75,256.2344 Q285.4688,257.1406 285.4688,258.5156 Q285.4688,260.3906 284.3594,261.3125 Q283.25,262.2344 281,262.2344 Q280.0781,262.2344 279.1563,262.0156 Q278.2344,261.7969 277.375,261.375 L277.375,258.8438 Q278.3438,259.5313 279.2656,259.875 Q280.1875,260.2188 281.0781,260.2188 Q281.9844,260.2188 282.4844,259.8125 Q282.9844,259.3906 282.9844,258.6563 Q282.9844,258.0938 282.6406,257.6875 Q282.3125,257.2656 281.6875,257.0156 L280.4844,256.5625 Z " fill="#000000"/><text fill="#000000" font-family="sans-serif" font-size="14" lengthAdjust="spacing" textLength="144" x="295" y="260.8467">jsonSpreaderSimple</text></g><!--MD5=[3f77d241dcd3e2a00741f2c3546d0009]
class gtree.mkdirerPipeline--><g id="elem_gtree.mkdirerPipeline"><rect codeLine="169" fill="#F1F1F1" height="32" id="gtree.mkdirerPipeline" rx="2.5" ry="2.5" style="stroke:#181818;stroke-width:0.5;" width="144" x="1732" y="240"/><ellipse cx="1747" cy="256" fill="#B4A7E5" rx="11" ry="11" style="stroke:#181818;stroke-width:1.0;"/><path d="M1742.9219,251.7656 L1742.9219,249.6094 L1750.3125,249.6094 L1750.3125,251.7656 L1747.8438,251.7656 L1747.8438,259.8438 L1750.3125,259.8438 L1750.3125,262 L1742.9219,262 L1742.9219,259.8438 L1745.3906,259.8438 L1745.3906,251.7656 L1742.9219,251.7656 Z " fill="#000000"/><text fill="#000000" font-family="sans-serif" font-size="14" font-style="italic" lengthAdjust="spacing" textLength="112" x="1761" y="260.8467">mkdirerPipeline</text></g><!--MD5=[e857e5fcf9e594135aa0f91d548db0e0]
class gtree.mkdirerSimple--><g id="elem_gtree.mkdirerSimple"><rect codeLine="173" fill="#F1F1F1" height="32" id="gtree.mkdirerSimple" rx="2.5" ry="2.5" style="stroke:#181818;stroke-width:0.5;" width="137" x="1434.5" y="148"/><ellipse cx="1449.5" cy="164" fill="#B4A7E5" rx="11" ry="11" style="stroke:#181818;stroke-width:1.0;"/><path d="M1445.4219,159.7656 L1445.4219,157.6094 L1452.8125,157.6094 L1452.8125,159.7656 L1450.3438,159.7656 L1450.3438,167.8438 L1452.8125,167.8438 L1452.8125,170 L1445.4219,170 L1445.4219,167.8438 L1447.8906,167.8438 L1447.8906,159.7656 L1445.4219,159.7656 Z " fill="#000000"/><text fill="#000000" font-family="sans-serif" font-size="14" font-style="italic" lengthAdjust="spacing" textLength="105" x="1463.5" y="168.8467">mkdirerSimple</text></g><!--MD5=[d5c29c10d2808068f4ee3bf4c96a5ce4]
class gtree.nodeGenerator--><g id="elem_gtree.nodeGenerator"><rect codeLine="177" fill="#F1F1F1" height="32" id="gtree.nodeGenerator" rx="2.5" ry="2.5" style="stroke:#181818;stroke-width:0.5;" width="141" x="2424.5" y="332"/><ellipse cx="2439.5" cy="348" fill="#7FFFD4" rx="11" ry="11" style="stroke:#181818;stroke-width:1.0;"/><path d="M2438.9844,348.5625 Q2437.125,347.8594 2436.4688,347.0938 Q2435.8281,346.3125 2435.8281,345 Q2435.8281,343.3125 2436.9063,342.3438 Q2437.9844,341.375 2439.8594,341.375 Q2440.7188,341.375 2441.5625,341.5781 Q2442.4219,341.7656 2443.2656,342.1563 L2443.2656,344.5469 Q2442.4844,343.9844 2441.6563,343.7031 Q2440.8438,343.4063 2440.0469,343.4063 Q2439.1719,343.4063 2438.6875,343.7656 Q2438.2188,344.125 2438.2188,344.7813 Q2438.2188,345.2969 2438.5625,345.6406 Q2438.9063,345.9688 2440,346.375 L2441.0625,346.7813 Q2442.5469,347.3281 2443.25,348.2344 Q2443.9688,349.1406 2443.9688,350.5156 Q2443.9688,352.3906 2442.8594,353.3125 Q2441.75,354.2344 2439.5,354.2344 Q2438.5781,354.2344 2437.6563,354.0156 Q2436.7344,353.7969 2435.875,353.375 L2435.875,350.8438 Q2436.8438,351.5313 2437.7656,351.875 Q2438.6875,352.2188 2439.5781,352.2188 Q2440.4844,352.2188 2440.9844,351.8125 Q2441.4844,351.3906 2441.4844,350.6563 Q2441.4844,350.0938 2441.1406,349.6875 Q2440.8125,349.2656 2440.1875,349.0156 L2438.9844,348.5625 Z " fill="#000000"/><text fill="#000000" font-family="sans-serif" font-size="14" lengthAdjust="spacing" textLength="109" x="2453.5" y="352.8467">nodeGenerator</text></g><!--MD5=[badd535d5b1cccf9839c358e3896e699]
class gtree.nopGrowerPipeline--><g id="elem_gtree.nopGrowerPipeline"><rect codeLine="184" fill="#F1F1F1" height="32" id="gtree.nopGrowerPipeline" rx="2.5" ry="2.5" style="stroke:#181818;stroke-width:0.5;" width="167" x="2222.5" y="332"/><ellipse cx="2237.5" cy="348" fill="#7FFFD4" rx="11" ry="11" style="stroke:#181818;stroke-width:1.0;"/><path d="M2236.9844,348.5625 Q2235.125,347.8594 2234.4688,347.0938 Q2233.8281,346.3125 2233.8281,345 Q2233.8281,343.3125 2234.9063,342.3438 Q2235.9844,341.375 2237.8594,341.375 Q2238.7188,341.375 2239.5625,341.5781 Q2240.4219,341.7656 2241.2656,342.1563 L2241.2656,344.5469 Q2240.4844,343.9844 2239.6563,343.7031 Q2238.8438,343.4063 2238.0469,343.4063 Q2237.1719,343.4063 2236.6875,343.7656 Q2236.2188,344.125 2236.2188,344.7813 Q2236.2188,345.2969 2236.5625,345.6406 Q2236.9063,345.9688 2238,346.375 L2239.0625,346.7813 Q2240.5469,347.3281 2241.25,348.2344 Q2241.9688,349.1406 2241.9688,350.5156 Q2241.9688,352.3906 2240.8594,353.3125 Q2239.75,354.2344 2237.5,354.2344 Q2236.5781,354.2344 2235.6563,354.0156 Q2234.7344,353.7969 2233.875,353.375 L2233.875,350.8438 Q2234.8438,351.5313 2235.7656,351.875 Q2236.6875,352.2188 2237.5781,352.2188 Q2238.4844,352.2188 2238.9844,351.8125 Q2239.4844,351.3906 2239.4844,350.6563 Q2239.4844,350.0938 2239.1406,349.6875 Q2238.8125,349.2656 2238.1875,349.0156 L2236.9844,348.5625 Z " fill="#000000"/><text fill="#000000" font-family="sans-serif" font-size="14" lengthAdjust="spacing" textLength="135" x="2251.5" y="352.8467">nopGrowerPipeline</text></g><!--MD5=[89537c99d5a7fe35691646ae133a15af]
class gtree.nopGrowerSimple--><g id="elem_gtree.nopGrowerSimple"><rect codeLine="188" fill="#F1F1F1" height="32" id="gtree.nopGrowerSimple" rx="2.5" ry="2.5" style="stroke:#181818;stroke-width:0.5;" width="160" x="2340" y="240"/><ellipse cx="2355" cy="256" fill="#7FFFD4" rx="11" ry="11" style="stroke:#181818;stroke-width:1.0;"/><path d="M2354.4844,256.5625 Q2352.625,255.8594 2351.9688,255.0938 Q2351.3281,254.3125 2351.3281,253 Q2351.3281,251.3125 2352.4063,250.3438 Q2353.4844,249.375 2355.3594,249.375 Q2356.2188,249.375 2357.0625,249.5781 Q2357.9219,249.7656 2358.7656,250.1563 L2358.7656,252.5469 Q2357.9844,251.9844 2357.1563,251.7031 Q2356.3438,251.4063 2355.5469,251.4063 Q2354.6719,251.4063 2354.1875,251.7656 Q2353.7188,252.125 2353.7188,252.7813 Q2353.7188,253.2969 2354.0625,253.6406 Q2354.4063,253.9688 2355.5,254.375 L2356.5625,254.7813 Q2358.0469,255.3281 2358.75,256.2344 Q2359.4688,257.1406 2359.4688,258.5156 Q2359.4688,260.3906 2358.3594,261.3125 Q2357.25,262.2344 2355,262.2344 Q2354.0781,262.2344 2353.1563,262.0156 Q2352.2344,261.7969 2351.375,261.375 L2351.375,258.8438 Q2352.3438,259.5313 2353.2656,259.875 Q2354.1875,260.2188 2355.0781,260.2188 Q2355.9844,260.2188 2356.4844,259.8125 Q2356.9844,259.3906 2356.9844,258.6563 Q2356.9844,258.0938 2356.6406,257.6875 Q2356.3125,257.2656 2355.6875,257.0156 L2354.4844,256.5625 Z " fill="#000000"/><text fill="#000000" font-family="sans-serif" font-size="14" lengthAdjust="spacing" textLength="128" x="2369" y="260.8467">nopGrowerSimple</text></g><!--MD5=[1bbe36e2311b22c3d2f7b5fc940bdb5e]
class gtree.rootGeneratorPipeline--><g id="elem_gtree.rootGeneratorPipeline"><rect codeLine="193" fill="#F1F1F1" height="32" id="gtree.rootGeneratorPipeline" rx="2.5" ry="2.5" style="stroke:#181818;stroke-width:0.5;" width="190" x="2601" y="332"/><ellipse cx="2616" cy="348" fill="#7FFFD4" rx="11" ry="11" style="stroke:#181818;stroke-width:1.0;"/><path d="M2615.4844,348.5625 Q2613.625,347.8594 2612.9688,347.0938 Q2612.3281,346.3125 2612.3281,345 Q2612.3281,343.3125 2613.4063,342.3438 Q2614.4844,341.375 2616.3594,341.375 Q2617.2188,341.375 2618.0625,341.5781 Q2618.9219,341.7656 2619.7656,342.1563 L2619.7656,344.5469 Q2618.9844,343.9844 2618.1563,343.7031 Q2617.3438,343.4063 2616.5469,343.4063 Q2615.6719,343.4063 2615.1875,343.7656 Q2614.7188,344.125 2614.7188,344.7813 Q2614.7188,345.2969 2615.0625,345.6406 Q2615.4063,345.9688 2616.5,346.375 L2617.5625,346.7813 Q2619.0469,347.3281 2619.75,348.2344 Q2620.4688,349.1406 2620.4688,350.5156 Q2620.4688,352.3906 2619.3594,353.3125 Q2618.25,354.2344 2616,354.2344 Q2615.0781,354.2344 2614.1563,354.0156 Q2613.2344,353.7969 2612.375,353.375 L2612.375,350.8438 Q2613.3438,351.5313 2614.2656,351.875 Q2615.1875,352.2188 2616.0781,352.2188 Q2616.9844,352.2188 2617.4844,351.8125 Q2617.9844,351.3906 2617.9844,350.6563 Q2617.9844,350.0938 2617.6406,349.6875 Q2617.3125,349.2656 2616.6875,349.0156 L2615.4844,348.5625 Z " fill="#000000"/><text fill="#000000" font-family="sans-serif" font-size="14" lengthAdjust="spacing" textLength="158" x="2630" y="352.8467">rootGeneratorPipeline</text></g><!--MD5=[ade980f8f660712323eab42076ca60e0]
class gtree.rootGeneratorSimple--><g id="elem_gtree.rootGeneratorSimple"><rect codeLine="200" fill="#F1F1F1" height="32" id="gtree.rootGeneratorSimple" rx="2.5" ry="2.5" style="stroke:#181818;stroke-width:0.5;" width="183" x="2826.5" y="332"/><ellipse cx="2841.5" cy="348" fill="#7FFFD4" rx="11" ry="11" style="stroke:#181818;stroke-width:1.0;"/><path d="M2840.9844,348.5625 Q2839.125,347.8594 2838.4688,347.0938 Q2837.8281,346.3125 2837.8281,345 Q2837.8281,343.3125 2838.9063,342.3438 Q2839.9844,341.375 2841.8594,341.375 Q2842.7188,341.375 2843.5625,341.5781 Q2844.4219,341.7656 2845.2656,342.1563 L2845.2656,344.5469 Q2844.4844,343.9844 2843.6563,343.7031 Q2842.8438,343.4063 2842.0469,343.4063 Q2841.1719,343.4063 2840.6875,343.7656 Q2840.2188,344.125 2840.2188,344.7813 Q2840.2188,345.2969 2840.5625,345.6406 Q2840.9063,345.9688 2842,346.375 L2843.0625,346.7813 Q2844.5469,347.3281 2845.25,348.2344 Q2845.9688,349.1406 2845.9688,350.5156 Q2845.9688,352.3906 2844.8594,353.3125 Q2843.75,354.2344 2841.5,354.2344 Q2840.5781,354.2344 2839.6563,354.0156 Q2838.7344,353.7969 2837.875,353.375 L2837.875,350.8438 Q2838.8438,351.5313 2839.7656,351.875 Q2840.6875,352.2188 2841.5781,352.2188 Q2842.4844,352.2188 2842.9844,351.8125 Q2843.4844,351.3906 2843.4844,350.6563 Q2843.4844,350.0938 2843.1406,349.6875 Q2842.8125,349.2656 2842.1875,349.0156 L2840.9844,348.5625 Z " fill="#000000"/><text fill="#000000" font-family="sans-serif" font-size="14" lengthAdjust="spacing" textLength="151" x="2855.5" y="352.8467">rootGeneratorSimple</text></g><!--MD5=[fa63da776ad9ab26f2aafd4351cf561f]
class gtree.spreaderPipeline--><g id="elem_gtree.spreaderPipeline"><rect codeLine="208" fill="#F1F1F1" height="32" id="gtree.spreaderPipeline" rx="2.5" ry="2.5" style="stroke:#181818;stroke-width:0.5;" width="152" x="1179" y="240"/><ellipse cx="1194" cy="256" fill="#B4A7E5" rx="11" ry="11" style="stroke:#181818;stroke-width:1.0;"/><path d="M1189.9219,251.7656 L1189.9219,249.6094 L1197.3125,249.6094 L1197.3125,251.7656 L1194.8438,251.7656 L1194.8438,259.8438 L1197.3125,259.8438 L1197.3125,262 L1189.9219,262 L1189.9219,259.8438 L1192.3906,259.8438 L1192.3906,251.7656 L1189.9219,251.7656 Z " fill="#000000"/><text fill="#000000" font-family="sans-serif" font-size="14" font-style="italic" lengthAdjust="spacing" textLength="120" x="1208" y="260.8467">spreaderPipeline</text></g><!--MD5=[80941ee3614322553edfb722dd8df5db]
class gtree.spreaderSimple--><g id="elem_gtree.spreaderSimple"><rect codeLine="212" fill="#F1F1F1" height="32" id="gtree.spreaderSimple" rx="2.5" ry="2.5" style="stroke:#181818;stroke-width:0.5;" width="145" x="683.5" y="148"/><ellipse cx="698.5" cy="164" fill="#B4A7E5" rx="11" ry="11" style="stroke:#181818;stroke-width:1.0;"/><path d="M694.4219,159.7656 L694.4219,157.6094 L701.8125,157.6094 L701.8125,159.7656 L699.3438,159.7656 L699.3438,167.8438 L701.8125,167.8438 L701.8125,170 L694.4219,170 L694.4219,167.8438 L696.8906,167.8438 L696.8906,159.7656 L694.4219,159.7656 Z " fill="#000000"/><text fill="#000000" font-family="sans-serif" font-size="14" font-style="italic" lengthAdjust="spacing" textLength="113" x="712.5" y="168.8467">spreaderSimple</text></g><!--MD5=[7247c0ea0d94e795c0d7919698e0e054]
class gtree.stack--><g id="elem_gtree.stack"><rect codeLine="216" fill="#F1F1F1" height="32" id="gtree.stack" rx="2.5" ry="2.5" style="stroke:#181818;stroke-width:0.5;" width="69" x="3044.5" y="332"/><ellipse cx="3059.5" cy="348" fill="#7FFFD4" rx="11" ry="11" style="stroke:#181818;stroke-width:1.0;"/><path d="M3058.9844,348.5625 Q3057.125,347.8594 3056.4688,347.0938 Q3055.8281,346.3125 3055.8281,345 Q3055.8281,343.3125 3056.9063,342.3438 Q3057.9844,341.375 3059.8594,341.375 Q3060.7188,341.375 3061.5625,341.5781 Q3062.4219,341.7656 3063.2656,342.1563 L3063.2656,344.5469 Q3062.4844,343.9844 3061.6563,343.7031 Q3060.8438,343.4063 3060.0469,343.4063 Q3059.1719,343.4063 3058.6875,343.7656 Q3058.2188,344.125 3058.2188,344.7813 Q3058.2188,345.2969 3058.5625,345.6406 Q3058.9063,345.9688 3060,346.375 L3061.0625,346.7813 Q3062.5469,347.3281 3063.25,348.2344 Q3063.9688,349.1406 3063.9688,350.5156 Q3063.9688,352.3906 3062.8594,353.3125 Q3061.75,354.2344 3059.5,354.2344 Q3058.5781,354.2344 3057.6563,354.0156 Q3056.7344,353.7969 3055.875,353.375 L3055.875,350.8438 Q3056.8438,351.5313 3057.7656,351.875 Q3058.6875,352.2188 3059.5781,352.2188 Q3060.4844,352.2188 3060.9844,351.8125 Q3061.4844,351.3906 3061.4844,350.6563 Q3061.4844,350.0938 3061.1406,349.6875 Q3060.8125,349.2656 3060.1875,349.0156 L3058.9844,348.5625 Z " fill="#000000"/><text fill="#000000" font-family="sans-serif" font-size="14" lengthAdjust="spacing" textLength="37" x="3073.5" y="352.8467">stack</text></g><!--MD5=[70fe03847f8233e8b0dd267361987ddc]
class gtree.tomlNode--><g id="elem_gtree.tomlNode"><rect codeLine="225" fill="#F1F1F1" height="32" id="gtree.tomlNode" rx="2.5" ry="2.5" style="stroke:#181818;stroke-width:0.5;" width="101" x="2444.5" y="424"/><ellipse cx="2459.5" cy="440" fill="#7FFFD4" rx="11" ry="11" style="stroke:#181818;stroke-width:1.0;"/><path d="M2458.9844,440.5625 Q2457.125,439.8594 2456.4688,439.0938 Q2455.8281,438.3125 2455.8281,437 Q2455.8281,435.3125 2456.9063,434.3438 Q2457.9844,433.375 2459.8594,433.375 Q2460.7188,433.375 2461.5625,433.5781 Q2462.4219,433.7656 2463.2656,434.1563 L2463.2656,436.5469 Q2462.4844,435.9844 2461.6563,435.7031 Q2460.8438,435.4063 2460.0469,435.4063 Q2459.1719,435.4063 2458.6875,435.7656 Q2458.2188,436.125 2458.2188,436.7813 Q2458.2188,437.2969 2458.5625,437.6406 Q2458.9063,437.9688 2460,438.375 L2461.0625,438.7813 Q2462.5469,439.3281 2463.25,440.2344 Q2463.9688,441.1406 2463.9688,442.5156 Q2463.9688,444.3906 2462.8594,445.3125 Q2461.75,446.2344 2459.5,446.2344 Q2458.5781,446.2344 2457.6563,446.0156 Q2456.7344,445.7969 2455.875,445.375 L2455.875,442.8438 Q2456.8438,443.5313 2457.7656,443.875 Q2458.6875,444.2188 2459.5781,444.2188 Q2460.4844,444.2188 2460.9844,443.8125 Q2461.4844,443.3906 2461.4844,442.6563 Q2461.4844,442.0938 2461.1406,441.6875 Q2460.8125,441.2656 2460.1875,441.0156 L2458.9844,440.5625 Z " fill="#000000"/><text fill="#000000" font-family="sans-serif" font-size="14" lengthAdjust="spacing" textLength="69" x="2473.5" y="444.8467">tomlNode</text></g><!--MD5=[5b0cd1a0a50bc7ab046f153e25f6833e]
class gtree.tomlSpreaderPipeline--><g id="elem_gtree.tomlSpreaderPipeline"><rect codeLine="230" fill="#F1F1F1" height="32" id="gtree.tomlSpreaderPipeline" rx="2.5" ry="2.5" style="stroke:#181818;stroke-width:0.5;" width="186" x="916" y="332"/><ellipse cx="931" cy="348" fill="#7FFFD4" rx="11" ry="11" style="stroke:#181818;stroke-width:1.0;"/><path d="M930.4844,348.5625 Q928.625,347.8594 927.9688,347.0938 Q927.3281,346.3125 927.3281,345 Q927.3281,343.3125 928.4063,342.3438 Q929.4844,341.375 931.3594,341.375 Q932.2188,341.375 933.0625,341.5781 Q933.9219,341.7656 934.7656,342.1563 L934.7656,344.5469 Q933.9844,343.9844 933.1563,343.7031 Q932.3438,343.4063 931.5469,343.4063 Q930.6719,343.4063 930.1875,343.7656 Q929.7188,344.125 929.7188,344.7813 Q929.7188,345.2969 930.0625,345.6406 Q930.4063,345.9688 931.5,346.375 L932.5625,346.7813 Q934.0469,347.3281 934.75,348.2344 Q935.4688,349.1406 935.4688,350.5156 Q935.4688,352.3906 934.3594,353.3125 Q933.25,354.2344 931,354.2344 Q930.0781,354.2344 929.1563,354.0156 Q928.2344,353.7969 927.375,353.375 L927.375,350.8438 Q928.3438,351.5313 929.2656,351.875 Q930.1875,352.2188 931.0781,352.2188 Q931.9844,352.2188 932.4844,351.8125 Q932.9844,351.3906 932.9844,350.6563 Q932.9844,350.0938 932.6406,349.6875 Q932.3125,349.2656 931.6875,349.0156 L930.4844,348.5625 Z " fill="#000000"/><text fill="#000000" font-family="sans-serif" font-size="14" lengthAdjust="spacing" textLength="154" x="945" y="352.8467">tomlSpreaderPipeline</text></g><!--MD5=[95ea847b8fe82d3cbf7ae9d94e89a05c]
class gtree.tomlSpreaderSimple--><g id="elem_gtree.tomlSpreaderSimple"><rect codeLine="234" fill="#F1F1F1" height="32" id="gtree.tomlSpreaderSimple" rx="2.5" ry="2.5" style="stroke:#181818;stroke-width:0.5;" width="179" x="477.5" y="240"/><ellipse cx="492.5" cy="256" fill="#7FFFD4" rx="11" ry="11" style="stroke:#181818;stroke-width:1.0;"/><path d="M491.9844,256.5625 Q490.125,255.8594 489.4688,255.0938 Q488.8281,254.3125 488.8281,253 Q488.8281,251.3125 489.9063,250.3438 Q490.9844,249.375 492.8594,249.375 Q493.7188,249.375 494.5625,249.5781 Q495.4219,249.7656 496.2656,250.1563 L496.2656,252.5469 Q495.4844,251.9844 494.6563,251.7031 Q493.8438,251.4063 493.0469,251.4063 Q492.1719,251.4063 491.6875,251.7656 Q491.2188,252.125 491.2188,252.7813 Q491.2188,253.2969 491.5625,253.6406 Q491.9063,253.9688 493,254.375 L494.0625,254.7813 Q495.5469,255.3281 496.25,256.2344 Q496.9688,257.1406 496.9688,258.5156 Q496.9688,260.3906 495.8594,261.3125 Q494.75,262.2344 492.5,262.2344 Q491.5781,262.2344 490.6563,262.0156 Q489.7344,261.7969 488.875,261.375 L488.875,258.8438 Q489.8438,259.5313 490.7656,259.875 Q491.6875,260.2188 492.5781,260.2188 Q493.4844,260.2188 493.9844,259.8125 Q494.4844,259.3906 494.4844,258.6563 Q494.4844,258.0938 494.1406,257.6875 Q493.8125,257.2656 493.1875,257.0156 L491.9844,256.5625 Z " fill="#000000"/><text fill="#000000" font-family="sans-serif" font-size="14" lengthAdjust="spacing" textLength="147" x="506.5" y="260.8467">tomlSpreaderSimple</text></g><!--MD5=[9ea3c621686b83744105040adfcb948a]
class gtree.treePipeline--><g id="elem_gtree.treePipeline"><rect codeLine="238" fill="#F1F1F1" height="32" id="gtree.treePipeline" rx="2.5" ry="2.5" style="stroke:#181818;stroke-width:0.5;" width="117" x="1844.5" y="332"/><ellipse cx="1859.5" cy="348" fill="#7FFFD4" rx="11" ry="11" style="stroke:#181818;stroke-width:1.0;"/><path d="M1858.9844,348.5625 Q1857.125,347.8594 1856.4688,347.0938 Q1855.8281,346.3125 1855.8281,345 Q1855.8281,343.3125 1856.9063,342.3438 Q1857.9844,341.375 1859.8594,341.375 Q1860.7188,341.375 1861.5625,341.5781 Q1862.4219,341.7656 1863.2656,342.1563 L1863.2656,344.5469 Q1862.4844,343.9844 1861.6563,343.7031 Q1860.8438,343.4063 1860.0469,343.4063 Q1859.1719,343.4063 1858.6875,343.7656 Q1858.2188,344.125 1858.2188,344.7813 Q1858.2188,345.2969 1858.5625,345.6406 Q1858.9063,345.9688 1860,346.375 L1861.0625,346.7813 Q1862.5469,347.3281 1863.25,348.2344 Q1863.9688,349.1406 1863.9688,350.5156 Q1863.9688,352.3906 1862.8594,353.3125 Q1861.75,354.2344 1859.5,354.2344 Q1858.5781,354.2344 1857.6563,354.0156 Q1856.7344,353.7969 1855.875,353.375 L1855.875,350.8438 Q1856.8438,351.5313 1857.7656,351.875 Q1858.6875,352.2188 1859.5781,352.2188 Q1860.4844,352.2188 1860.9844,351.8125 Q1861.4844,351.3906 1861.4844,350.6563 Q1861.4844,350.0938 1861.1406,349.6875 Q1860.8125,349.2656 1860.1875,349.0156 L1858.9844,348.5625 Z " fill="#000000"/><text fill="#000000" font-family="sans-serif" font-size="14" lengthAdjust="spacing" textLength="85" x="1873.5" y="352.8467">treePipeline</text></g><!--MD5=[55641316e22093d0569947c1e820be1c]
class gtree.treeSimple--><g id="elem_gtree.treeSimple"><rect codeLine="254" fill="#F1F1F1" height="32" id="gtree.treeSimple" rx="2.5" ry="2.5" style="stroke:#181818;stroke-width:0.5;" width="110" x="1587" y="240"/><ellipse cx="1602" cy="256" fill="#7FFFD4" rx="11" ry="11" style="stroke:#181818;stroke-width:1.0;"/><path d="M1601.4844,256.5625 Q1599.625,255.8594 1598.9688,255.0938 Q1598.3281,254.3125 1598.3281,253 Q1598.3281,251.3125 1599.4063,250.3438 Q1600.4844,249.375 1602.3594,249.375 Q1603.2188,249.375 1604.0625,249.5781 Q1604.9219,249.7656 1605.7656,250.1563 L1605.7656,252.5469 Q1604.9844,251.9844 1604.1563,251.7031 Q1603.3438,251.4063 1602.5469,251.4063 Q1601.6719,251.4063 1601.1875,251.7656 Q1600.7188,252.125 1600.7188,252.7813 Q1600.7188,253.2969 1601.0625,253.6406 Q1601.4063,253.9688 1602.5,254.375 L1603.5625,254.7813 Q1605.0469,255.3281 1605.75,256.2344 Q1606.4688,257.1406 1606.4688,258.5156 Q1606.4688,260.3906 1605.3594,261.3125 Q1604.25,262.2344 1602,262.2344 Q1601.0781,262.2344 1600.1563,262.0156 Q1599.2344,261.7969 1598.375,261.375 L1598.375,258.8438 Q1599.3438,259.5313 1600.2656,259.875 Q1601.1875,260.2188 1602.0781,260.2188 Q1602.9844,260.2188 1603.4844,259.8125 Q1603.9844,259.3906 1603.9844,258.6563 Q1603.9844,258.0938 1603.6406,257.6875 Q1603.3125,257.2656 1602.6875,257.0156 L1601.4844,256.5625 Z " fill="#000000"/><text fill="#000000" font-family="sans-serif" font-size="14" lengthAdjust="spacing" textLength="78" x="1616" y="260.8467">treeSimple</text></g><!--MD5=[e619353a1a9ed83817aceda27a8c7f69]
class gtree.yamlNode--><g id="elem_gtree.yamlNode"><rect codeLine="269" fill="#F1F1F1" height="32" id="gtree.yamlNode" rx="2.5" ry="2.5" style="stroke:#181818;stroke-width:0.5;" width="104" x="2581" y="424"/><ellipse cx="2596" cy="440" fill="#7FFFD4" rx="11" ry="11" style="stroke:#181818;stroke-width:1.0;"/><path d="M2595.4844,440.5625 Q2593.625,439.8594 2592.9688,439.0938 Q2592.3281,438.3125 2592.3281,437 Q2592.3281,435.3125 2593.4063,434.3438 Q2594.4844,433.375 2596.3594,433.375 Q2597.2188,433.375 2598.0625,433.5781 Q2598.9219,433.7656 2599.7656,434.1563 L2599.7656,436.5469 Q2598.9844,435.9844 2598.1563,435.7031 Q2597.3438,435.4063 2596.5469,435.4063 Q2595.6719,435.4063 2595.1875,435.7656 Q2594.7188,436.125 2594.7188,436.7813 Q2594.7188,437.2969 2595.0625,437.6406 Q2595.4063,437.9688 2596.5,438.375 L2597.5625,438.7813 Q2599.0469,439.3281 2599.75,440.2344 Q2600.4688,441.1406 2600.4688,442.5156 Q2600.4688,444.3906 2599.3594,445.3125 Q2598.25,446.2344 2596,446.2344 Q2595.0781,446.2344 2594.1563,446.0156 Q2593.2344,445.7969 2592.375,445.375 L2592.375,442.8438 Q2593.3438,443.5313 2594.2656,443.875 Q2595.1875,444.2188 2596.0781,444.2188 Q2596.9844,444.2188 2597.4844,443.8125 Q2597.9844,443.3906 2597.9844,442.6563 Q2597.9844,442.0938 2597.6406,441.6875 Q2597.3125,441.2656 2596.6875,441.0156 L2595.4844,440.5625 Z " fill="#000000"/><text fill="#000000" font-family="sans-serif" font-size="14" lengthAdjust="spacing" textLength="72" x="2610" y="444.8467">yamlNode</text></g><!--MD5=[89e7b365335bd5bc318faf0a7242b0c0]
class gtree.yamlSpreaderPipeline--><g id="elem_gtree.yamlSpreaderPipeline"><rect codeLine="274" fill="#F1F1F1" height="32" id="gtree.yamlSpreaderPipeline" rx="2.5" ry="2.5" style="stroke:#181818;stroke-width:0.5;" width="189" x="1174.5" y="332"/><ellipse cx="1189.5" cy="348" fill="#7FFFD4" rx="11" ry="11" style="stroke:#181818;stroke-width:1.0;"/><path d="M1188.9844,348.5625 Q1187.125,347.8594 1186.4688,347.0938 Q1185.8281,346.3125 1185.8281,345 Q1185.8281,343.3125 1186.9063,342.3438 Q1187.9844,341.375 1189.8594,341.375 Q1190.7188,341.375 1191.5625,341.5781 Q1192.4219,341.7656 1193.2656,342.1563 L1193.2656,344.5469 Q1192.4844,343.9844 1191.6563,343.7031 Q1190.8438,343.4063 1190.0469,343.4063 Q1189.1719,343.4063 1188.6875,343.7656 Q1188.2188,344.125 1188.2188,344.7813 Q1188.2188,345.2969 1188.5625,345.6406 Q1188.9063,345.9688 1190,346.375 L1191.0625,346.7813 Q1192.5469,347.3281 1193.25,348.2344 Q1193.9688,349.1406 1193.9688,350.5156 Q1193.9688,352.3906 1192.8594,353.3125 Q1191.75,354.2344 1189.5,354.2344 Q1188.5781,354.2344 1187.6563,354.0156 Q1186.7344,353.7969 1185.875,353.375 L1185.875,350.8438 Q1186.8438,351.5313 1187.7656,351.875 Q1188.6875,352.2188 1189.5781,352.2188 Q1190.4844,352.2188 1190.9844,351.8125 Q1191.4844,351.3906 1191.4844,350.6563 Q1191.4844,350.0938 1191.1406,349.6875 Q1190.8125,349.2656 1190.1875,349.0156 L1188.9844,348.5625 Z " fill="#000000"/><text fill="#000000" font-family="sans-serif" font-size="14" lengthAdjust="spacing" textLength="157" x="1203.5" y="352.8467">yamlSpreaderPipeline</text></g><!--MD5=[8d48bcbad28acab91ad9b4d4cc3c9f55]
class gtree.yamlSpreaderSimple--><g id="elem_gtree.yamlSpreaderSimple"><rect codeLine="278" fill="#F1F1F1" height="32" id="gtree.yamlSpreaderSimple" rx="2.5" ry="2.5" style="stroke:#181818;stroke-width:0.5;" width="182" x="729" y="240"/><ellipse cx="744" cy="256" fill="#7FFFD4" rx="11" ry="11" style="stroke:#181818;stroke-width:1.0;"/><path d="M743.4844,256.5625 Q741.625,255.8594 740.9688,255.0938 Q740.3281,254.3125 740.3281,253 Q740.3281,251.3125 741.4063,250.3438 Q742.4844,249.375 744.3594,249.375 Q745.2188,249.375 746.0625,249.5781 Q746.9219,249.7656 747.7656,250.1563 L747.7656,252.5469 Q746.9844,251.9844 746.1563,251.7031 Q745.3438,251.4063 744.5469,251.4063 Q743.6719,251.4063 743.1875,251.7656 Q742.7188,252.125 742.7188,252.7813 Q742.7188,253.2969 743.0625,253.6406 Q743.4063,253.9688 744.5,254.375 L745.5625,254.7813 Q747.0469,255.3281 747.75,256.2344 Q748.4688,257.1406 748.4688,258.5156 Q748.4688,260.3906 747.3594,261.3125 Q746.25,262.2344 744,262.2344 Q743.0781,262.2344 742.1563,262.0156 Q741.2344,261.7969 740.375,261.375 L740.375,258.8438 Q741.3438,259.5313 742.2656,259.875 Q743.1875,260.2188 744.0781,260.2188 Q744.9844,260.2188 745.4844,259.8125 Q745.9844,259.3906 745.9844,258.6563 Q745.9844,258.0938 745.6406,257.6875 Q745.3125,257.2656 744.6875,257.0156 L743.4844,256.5625 Z " fill="#000000"/><text fill="#000000" font-family="sans-serif" font-size="14" lengthAdjust="spacing" textLength="150" x="758" y="260.8467">yamlSpreaderSimple</text></g><!--MD5=[be733ededdd9d1bee41f0a2df5c80ac7]
class gtree.<font color=blue>func</font>(*config) --><g id="elem_gtree.&lt;font color=blue&gt;func&lt;/font&gt;(*config) "><rect fill="#F1F1F1" height="32" id="gtree.&lt;font color=blue&gt;func&lt;/font&gt;(*config) " rx="2.5" ry="2.5" style="stroke:#181818;stroke-width:0.5;" width="128" x="152" y="148"/><ellipse cx="167" cy="164" fill="#ADD1B2" rx="11" ry="11" style="stroke:#181818;stroke-width:1.0;"/><path d="M169.9688,169.6406 Q169.3906,169.9375 168.75,170.0781 Q168.1094,170.2344 167.4063,170.2344 Q164.9063,170.2344 163.5781,168.5938 Q162.2656,166.9375 162.2656,163.8125 Q162.2656,160.6875 163.5781,159.0313 Q164.9063,157.375 167.4063,157.375 Q168.1094,157.375 168.75,157.5313 Q169.4063,157.6875 169.9688,157.9844 L169.9688,160.7031 Q169.3438,160.125 168.75,159.8594 Q168.1563,159.5781 167.5313,159.5781 Q166.1875,159.5781 165.5,160.6563 Q164.8125,161.7188 164.8125,163.8125 Q164.8125,165.9063 165.5,166.9844 Q166.1875,168.0469 167.5313,168.0469 Q168.1563,168.0469 168.75,167.7813 Q169.3438,167.5 169.9688,166.9219 L169.9688,169.6406 Z " fill="#000000"/><text fill="#0000FF" font-family="sans-serif" font-size="14" lengthAdjust="spacing" textLength="31" x="181" y="168.8467">func</text><text fill="#000000" font-family="sans-serif" font-size="14" lengthAdjust="spacing" textLength="61" x="212" y="168.8467">(*config)</text></g><!--MD5=[8005f9e088aacc281e64632c065d370b]
class sync.Mutex--><g id="elem_sync.Mutex"><rect fill="#F1F1F1" height="32" id="sync.Mutex" rx="2.5" ry="2.5" style="stroke:#181818;stroke-width:0.5;" width="75" x="21.5" y="240"/><ellipse cx="36.5" cy="256" fill="#ADD1B2" rx="11" ry="11" style="stroke:#181818;stroke-width:1.0;"/><path d="M39.4688,261.6406 Q38.8906,261.9375 38.25,262.0781 Q37.6094,262.2344 36.9063,262.2344 Q34.4063,262.2344 33.0781,260.5938 Q31.7656,258.9375 31.7656,255.8125 Q31.7656,252.6875 33.0781,251.0313 Q34.4063,249.375 36.9063,249.375 Q37.6094,249.375 38.25,249.5313 Q38.9063,249.6875 39.4688,249.9844 L39.4688,252.7031 Q38.8438,252.125 38.25,251.8594 Q37.6563,251.5781 37.0313,251.5781 Q35.6875,251.5781 35,252.6563 Q34.3125,253.7188 34.3125,255.8125 Q34.3125,257.9063 35,258.9844 Q35.6875,260.0469 37.0313,260.0469 Q37.6563,260.0469 38.25,259.7813 Q38.8438,259.5 39.4688,258.9219 L39.4688,261.6406 Z " fill="#000000"/><text fill="#000000" font-family="sans-serif" font-size="14" lengthAdjust="spacing" textLength="43" x="50.5" y="260.8467">Mutex</text></g><!--MD5=[2236f6c5d9deadb4f6bceeb4cf3ac6c7]
class __builtin__.int--><g id="elem___builtin__.int"><rect fill="#F1F1F1" height="32" id="__builtin__.int" rx="2.5" ry="2.5" style="stroke:#181818;stroke-width:0.5;" width="50" x="1881" y="41"/><ellipse cx="1896" cy="57" fill="#ADD1B2" rx="11" ry="11" style="stroke:#181818;stroke-width:1.0;"/><path d="M1898.9688,62.6406 Q1898.3906,62.9375 1897.75,63.0781 Q1897.1094,63.2344 1896.4063,63.2344 Q1893.9063,63.2344 1892.5781,61.5938 Q1891.2656,59.9375 1891.2656,56.8125 Q1891.2656,53.6875 1892.5781,52.0313 Q1893.9063,50.375 1896.4063,50.375 Q1897.1094,50.375 1897.75,50.5313 Q1898.4063,50.6875 1898.9688,50.9844 L1898.9688,53.7031 Q1898.3438,53.125 1897.75,52.8594 Q1897.1563,52.5781 1896.5313,52.5781 Q1895.1875,52.5781 1894.5,53.6563 Q1893.8125,54.7188 1893.8125,56.8125 Q1893.8125,58.9063 1894.5,59.9844 Q1895.1875,61.0469 1896.5313,61.0469 Q1897.1563,61.0469 1897.75,60.7813 Q1898.3438,60.5 1898.9688,59.9219 L1898.9688,62.6406 Z " fill="#000000"/><text fill="#000000" font-family="sans-serif" font-size="14" lengthAdjust="spacing" textLength="18" x="1910" y="61.8467">int</text></g><!--MD5=[5747d7727b6bef40b7cc141e1f5e25ce]
reverse link gtree.colorizeSpreaderSimple to gtree.colorizeSpreaderPipeline--><g id="link_gtree.colorizeSpreaderSimple_gtree.colorizeSpreaderPipeline"><path codeLine="283" d="M602.51,367.81 C657.83,384.47 737.53,408.46 788.79,423.89 " fill="none" id="gtree.colorizeSpreaderSimple-backto-gtree.colorizeSpreaderPipeline" style="stroke:#181818;stroke-width:1.0;"/><polygon fill="#181818" points="590.05,364.06,594.6394,369.6222,601.5388,367.5251,596.9494,361.9629,590.05,364.06" style="stroke:#181818;stroke-width:1.0;"/></g><!--MD5=[a416ec2a6fd1ad411aa4b41ebb8856e9]
reverse link gtree.defaultSpreaderSimple to gtree.colorizeSpreaderSimple--><g id="link_gtree.defaultSpreaderSimple_gtree.colorizeSpreaderSimple"><path codeLine="284" d="M994.04,276.52 C974.01,283.55 950.67,290.99 929,296 C915.09,299.22 752.38,320.12 641.85,334.14 " fill="none" id="gtree.defaultSpreaderSimple-backto-gtree.colorizeSpreaderSimple" style="stroke:#181818;stroke-width:1.0;"/><polygon fill="#181818" points="1006.35,272.1,999.3501,270.3676,995.0587,276.1628,1002.0586,277.8952,1006.35,272.1" style="stroke:#181818;stroke-width:1.0;"/></g><!--MD5=[99cf49be6402d4d50ee3405e3411be4e]
reverse link gtree.defaultGrowerSimple to gtree.defaultGrowerPipeline--><g id="link_gtree.defaultGrowerSimple_gtree.defaultGrowerPipeline"><path codeLine="285" d="M2182.3,279.83 C2160.36,296.15 2131.45,317.66 2112.32,331.89 " fill="none" id="gtree.defaultGrowerSimple-backto-gtree.defaultGrowerPipeline" style="stroke:#181818;stroke-width:1.0;"/><polygon fill="#181818" points="2192.75,272.06,2185.5485,272.4315,2183.1216,279.222,2190.3231,278.8505,2192.75,272.06" style="stroke:#181818;stroke-width:1.0;"/></g><!--MD5=[8ecb4beb83846280c375c20a651f54f6]
reverse link gtree.defaultMkdirerSimple to gtree.defaultMkdirerPipeline--><g id="link_gtree.defaultMkdirerSimple_gtree.defaultMkdirerPipeline"><path codeLine="286" d="M1513.89,276.45 C1560.8,293.07 1627.35,316.65 1670.35,331.89 " fill="none" id="gtree.defaultMkdirerSimple-backto-gtree.defaultMkdirerPipeline" style="stroke:#181818;stroke-width:1.0;"/><polygon fill="#181818" points="1501.51,272.06,1505.8275,277.8357,1512.8195,276.0718,1508.502,270.296,1501.51,272.06" style="stroke:#181818;stroke-width:1.0;"/></g><!--MD5=[15e8b9f1dbc2da211428e1a9e789af44]
reverse link gtree.defaultSpreaderSimple to gtree.defaultSpreaderPipeline--><g id="link_gtree.defaultSpreaderSimple_gtree.defaultSpreaderPipeline"><path codeLine="287" d="M988.15,276.24 C938.98,292.87 868.89,316.59 823.67,331.89 " fill="none" id="gtree.defaultSpreaderSimple-backto-gtree.defaultSpreaderPipeline" style="stroke:#181818;stroke-width:1.0;"/><polygon fill="#181818" points="1000.48,272.06,993.5158,270.1892,989.1104,275.8982,996.0746,277.769,1000.48,272.06" style="stroke:#181818;stroke-width:1.0;"/></g><!--MD5=[2bd933f1ed033f5138fd2c36d40e0e57]
reverse link sync.Mutex to gtree.defaultSpreaderPipeline--><g id="link_sync.Mutex_gtree.defaultSpreaderPipeline"><path codeLine="288" d="M94.12,278.51 C106.86,285.3 121.66,292.05 136,296 C360.63,357.87 427.09,309.54 659,332 C664.85,332.57 670.86,333.19 676.92,333.85 " fill="none" id="sync.Mutex-backto-gtree.defaultSpreaderPipeline" style="stroke:#181818;stroke-width:1.0;"/><polygon fill="#181818" points="82.61,272.09,85.898,278.5079,93.0868,277.9412,89.7988,271.5233,82.61,272.09" style="stroke:#181818;stroke-width:1.0;"/></g><!--MD5=[d10a416fd642f6a7fd43225a59800a17]
reverse link gtree.nopGrowerSimple to gtree.nopGrowerPipeline--><g id="link_gtree.nopGrowerSimple_gtree.nopGrowerPipeline"><path codeLine="289" d="M2390.51,280.28 C2369.91,296.54 2343,317.79 2325.14,331.89 " fill="none" id="gtree.nopGrowerSimple-backto-gtree.nopGrowerPipeline" style="stroke:#181818;stroke-width:1.0;"/><polygon fill="#181818" points="2400.92,272.06,2393.7318,272.6341,2391.497,279.4902,2398.6852,278.9161,2400.92,272.06" style="stroke:#181818;stroke-width:1.0;"/></g><!--MD5=[b83e87968c0a0dcac11097e412b18636]
reverse link gtree.spreaderPipeline to gtree.colorizeSpreaderPipeline--><g id="link_gtree.spreaderPipeline_gtree.colorizeSpreaderPipeline"><path codeLine="291" d="M1218.17,284.36 C1199.62,298.35 1176.9,315.81 1157,332 C1140.14,345.72 1139.21,353.83 1120,364 C1063.22,394.07 993.45,412.77 937.65,423.98 " fill="none" id="gtree.spreaderPipeline-backto-gtree.colorizeSpreaderPipeline" style="stroke:#181818;stroke-width:1.0;"/><polygon fill="none" points="1214.25,278.55,1234.45,272.16,1222.65,289.76,1214.25,278.55" style="stroke:#181818;stroke-width:1.0;"/></g><!--MD5=[4c3482a368083339abcaf6f152221224]
reverse link gtree.spreaderSimple to gtree.colorizeSpreaderSimple--><g id="link_gtree.spreaderSimple_gtree.colorizeSpreaderSimple"><path codeLine="292" d="M714.94,193.45 C713.91,194.61 712.93,195.79 712,197 C683.32,234.4 707.37,262.72 674,296 C657.08,312.87 634,324.26 611.77,331.91 " fill="none" id="gtree.spreaderSimple-backto-gtree.colorizeSpreaderSimple" style="stroke:#181818;stroke-width:1.0;"/><polygon fill="none" points="710.48,188.06,730.1,180.07,719.74,198.55,710.48,188.06" style="stroke:#181818;stroke-width:1.0;"/></g><!--MD5=[5a9c7a191835f3667cd5ce4ec5b7c416]
reverse link gtree.growerSimple to gtree.defaultGrowerSimple--><g id="link_gtree.growerSimple_gtree.defaultGrowerSimple"><path codeLine="293" d="M2213,200.61 C2213,214.31 2213,229.22 2213,239.96 " fill="none" id="gtree.growerSimple-backto-gtree.defaultGrowerSimple" style="stroke:#181818;stroke-width:1.0;"/><polygon fill="none" points="2206,200.27,2213,180.27,2220,200.27,2206,200.27" style="stroke:#181818;stroke-width:1.0;"/></g><!--MD5=[ff00447ef96bd304884e58be9da29d1d]
reverse link gtree.mkdirerPipeline to gtree.defaultMkdirerPipeline--><g id="link_gtree.mkdirerPipeline_gtree.defaultMkdirerPipeline"><path codeLine="294" d="M1773.9,286.77 C1758.59,301.91 1740.64,319.67 1728.21,331.96 " fill="none" id="gtree.mkdirerPipeline-backto-gtree.defaultMkdirerPipeline" style="stroke:#181818;stroke-width:1.0;"/><polygon fill="none" points="1769.42,281.35,1788.56,272.27,1779.27,291.31,1769.42,281.35" style="stroke:#181818;stroke-width:1.0;"/></g><!--MD5=[5038ea76dbf0814e5bc576fc6dd5be57]
reverse link gtree.mkdirerSimple to gtree.defaultMkdirerSimple--><g id="link_gtree.mkdirerSimple_gtree.defaultMkdirerSimple"><path codeLine="295" d="M1486.55,198.64 C1479.6,212.86 1471.86,228.7 1466.35,239.96 " fill="none" id="gtree.mkdirerSimple-backto-gtree.defaultMkdirerSimple" style="stroke:#181818;stroke-width:1.0;"/><polygon fill="none" points="1480.46,195.16,1495.54,180.27,1493.04,201.31,1480.46,195.16" style="stroke:#181818;stroke-width:1.0;"/></g><!--MD5=[6ee434e217815dacd8db5a5513ff4911]
reverse link gtree.spreaderPipeline to gtree.defaultSpreaderPipeline--><g id="link_gtree.spreaderPipeline_gtree.defaultSpreaderPipeline"><path codeLine="296" d="M1205.6,280.32 C1191.45,286.22 1175.84,292 1161,296 C1147.53,299.63 989.54,320.17 881.01,334.05 " fill="none" id="gtree.spreaderPipeline-backto-gtree.defaultSpreaderPipeline" style="stroke:#181818;stroke-width:1.0;"/><polygon fill="none" points="1203.25,273.71,1224.38,272.09,1208.87,286.53,1203.25,273.71" style="stroke:#181818;stroke-width:1.0;"/></g><!--MD5=[2e934ec5c294567bd5d67b91bac4edae]
reverse link gtree.spreaderSimple to gtree.defaultSpreaderSimple--><g id="link_gtree.spreaderSimple_gtree.defaultSpreaderSimple"><path codeLine="297" d="M848.78,177.22 C875.09,182.01 903.51,188.46 929,197 C961.88,208.02 997.18,226.77 1020.09,239.96 " fill="none" id="gtree.spreaderSimple-backto-gtree.defaultSpreaderSimple" style="stroke:#181818;stroke-width:1.0;"/><polygon fill="none" points="847.23,184.06,828.69,173.8,849.58,170.26,847.23,184.06" style="stroke:#181818;stroke-width:1.0;"/></g><!--MD5=[2e7cb99867881d843fca82809199513e]
reverse link gtree.spreaderPipeline to gtree.jsonSpreaderPipeline--><g id="link_gtree.spreaderPipeline_gtree.jsonSpreaderPipeline"><path codeLine="298" d="M1309,279.9 C1322.05,285.3 1335.98,290.95 1349,296 C1381.52,308.62 1418.63,322 1446.61,331.89 " fill="none" id="gtree.spreaderPipeline-backto-gtree.jsonSpreaderPipeline" style="stroke:#181818;stroke-width:1.0;"/><polygon fill="none" points="1305.87,286.18,1290.11,272.02,1311.26,273.26,1305.87,286.18" style="stroke:#181818;stroke-width:1.0;"/></g><!--MD5=[a70444f705a07c17bca7db0ec085cd3e]
reverse link gtree.spreaderSimple to gtree.jsonSpreaderSimple--><g id="link_gtree.spreaderSimple_gtree.jsonSpreaderSimple"><path codeLine="299" d="M663.07,165.76 C603.77,168.49 525.95,176.3 460,197 C428.78,206.8 396.25,226.19 375.59,239.85 " fill="none" id="gtree.spreaderSimple-backto-gtree.jsonSpreaderSimple" style="stroke:#181818;stroke-width:1.0;"/><polygon fill="none" points="662.97,158.76,683.22,164.99,663.5,172.75,662.97,158.76" style="stroke:#181818;stroke-width:1.0;"/></g><!--MD5=[ac302c4d934b19e5a79b6ad63dfebe59]
reverse link gtree.growerSimple to gtree.nopGrowerSimple--><g id="link_gtree.growerSimple_gtree.nopGrowerSimple"><path codeLine="300" d="M2293.45,186.13 C2303.2,189.42 2312.91,193.05 2322,197 C2349.56,208.98 2378.94,227.18 2398.27,239.99 " fill="none" id="gtree.growerSimple-backto-gtree.nopGrowerSimple" style="stroke:#181818;stroke-width:1.0;"/><polygon fill="none" points="2291.17,192.76,2274.2,180.07,2295.38,179.4,2291.17,192.76" style="stroke:#181818;stroke-width:1.0;"/></g><!--MD5=[327726a2387648204640d69d8917f3ed]
reverse link gtree.spreaderPipeline to gtree.tomlSpreaderPipeline--><g id="link_gtree.spreaderPipeline_gtree.tomlSpreaderPipeline"><path codeLine="301" d="M1201.88,279.79 C1188.6,285.28 1174.34,291 1161,296 C1126.33,308.99 1086.66,322.25 1056.54,331.99 " fill="none" id="gtree.spreaderPipeline-backto-gtree.tomlSpreaderPipeline" style="stroke:#181818;stroke-width:1.0;"/><polygon fill="none" points="1199.26,273.3,1220.41,272.03,1204.67,286.21,1199.26,273.3" style="stroke:#181818;stroke-width:1.0;"/></g><!--MD5=[0dae6ace5478cb60c50c82a9a540a8fc]
reverse link gtree.spreaderSimple to gtree.tomlSpreaderSimple--><g id="link_gtree.spreaderSimple_gtree.tomlSpreaderSimple"><path codeLine="302" d="M703.1,188.21 C696.65,191.13 690.16,194.11 684,197 C654.04,211.08 620.2,227.96 596.65,239.87 " fill="none" id="gtree.spreaderSimple-backto-gtree.tomlSpreaderSimple" style="stroke:#181818;stroke-width:1.0;"/><polygon fill="none" points="700.33,181.78,721.44,180.01,706.04,194.56,700.33,181.78" style="stroke:#181818;stroke-width:1.0;"/></g><!--MD5=[2bb722f14289948d9553814568cade21]
reverse link gtree.growerPipeline to gtree.treePipeline--><g id="link_gtree.growerPipeline_gtree.treePipeline"><path codeLine="303" d="M1981.97,284.66 C1962.27,300.21 1938.44,319.02 1922.14,331.89 " fill="none" id="gtree.growerPipeline-backto-gtree.treePipeline" style="stroke:#181818;stroke-width:1.0;"/><polygon fill="none" points="1977.88,278.96,1997.92,272.06,1986.56,289.95,1977.88,278.96" style="stroke:#181818;stroke-width:1.0;"/></g><!--MD5=[1a485ca9c777b50fcab12fdc3a4624a7]
reverse link gtree.iTree to gtree.treePipeline--><g id="link_gtree.iTree_gtree.treePipeline"><path codeLine="304" d="M1739.54,173.69 C1752.78,175.78 1766.89,177.99 1780,180 C1805.32,183.89 1876.7,178.11 1894,197 C1928.35,234.52 1915.59,301.91 1907.56,331.9 " fill="none" id="gtree.iTree-backto-gtree.treePipeline" style="stroke:#181818;stroke-width:1.0;"/><polygon fill="none" points="1738.39,180.6,1719.73,170.56,1740.58,166.77,1738.39,180.6" style="stroke:#181818;stroke-width:1.0;"/></g><!--MD5=[86c606f6879e3f13e979fab20a51c9b1]
reverse link gtree.mkdirerPipeline to gtree.treePipeline--><g id="link_gtree.mkdirerPipeline_gtree.treePipeline"><path codeLine="305" d="M1835.7,285.81 C1852.58,301.16 1872.65,319.41 1886.45,331.96 " fill="none" id="gtree.mkdirerPipeline-backto-gtree.treePipeline" style="stroke:#181818;stroke-width:1.0;"/><polygon fill="none" points="1830.88,290.9,1820.79,272.27,1840.3,280.54,1830.88,290.9" style="stroke:#181818;stroke-width:1.0;"/></g><!--MD5=[16f4e78de291b1a62859aaf45d8afc7d]
reverse link gtree.spreaderPipeline to gtree.treePipeline--><g id="link_gtree.spreaderPipeline_gtree.treePipeline"><path codeLine="306" d="M1303.11,280.4 C1317.55,286.48 1333.64,292.34 1349,296 C1556.23,345.45 1615.89,303.32 1827,332 C1832.6,332.76 1838.4,333.67 1844.2,334.67 " fill="none" id="gtree.spreaderPipeline-backto-gtree.treePipeline" style="stroke:#181818;stroke-width:1.0;"/><polygon fill="none" points="1300.07,286.71,1284.66,272.17,1305.78,273.93,1300.07,286.71" style="stroke:#181818;stroke-width:1.0;"/></g><!--MD5=[c8a121b2bdef7128520b5eae57ccf3e6]
reverse link gtree.growerSimple to gtree.treeSimple--><g id="link_gtree.growerSimple_gtree.treeSimple"><path codeLine="307" d="M2127.06,173.25 C2100.45,175.63 2071.03,178.1 2044,180 C1970.97,185.13 1783.48,171.11 1715,197 C1691.08,206.05 1668.88,226.02 1655.39,239.99 " fill="none" id="gtree.growerSimple-backto-gtree.treeSimple" style="stroke:#181818;stroke-width:1.0;"/><polygon fill="none" points="2126.68,166.25,2147.23,171.41,2127.95,180.19,2126.68,166.25" style="stroke:#181818;stroke-width:1.0;"/></g><!--MD5=[b0d6e58034210b5d143f63598d5275fb]
reverse link gtree.iTree to gtree.treeSimple--><g id="link_gtree.iTree_gtree.treeSimple"><path codeLine="308" d="M1668.93,198.64 C1662.13,212.86 1654.56,228.7 1649.19,239.96 " fill="none" id="gtree.iTree-backto-gtree.treeSimple" style="stroke:#181818;stroke-width:1.0;"/><polygon fill="none" points="1662.77,195.3,1677.71,180.27,1675.4,201.33,1662.77,195.3" style="stroke:#181818;stroke-width:1.0;"/></g><!--MD5=[ac30e73033865bf060e7cf495dbad515]
reverse link gtree.mkdirerSimple to gtree.treeSimple--><g id="link_gtree.mkdirerSimple_gtree.treeSimple"><path codeLine="309" d="M1555.53,189.14 C1560.16,191.67 1564.71,194.3 1569,197 C1589.42,209.84 1610.8,227.38 1625.1,239.8 " fill="none" id="gtree.mkdirerSimple-backto-gtree.treeSimple" style="stroke:#181818;stroke-width:1.0;"/><polygon fill="none" points="1552.33,195.37,1537.69,180.06,1558.68,182.9,1552.33,195.37" style="stroke:#181818;stroke-width:1.0;"/></g><!--MD5=[012db4341bff62f10e0a9f9a1a12abad]
reverse link gtree.spreaderSimple to gtree.treeSimple--><g id="link_gtree.spreaderSimple_gtree.treeSimple"><path codeLine="310" d="M849.05,167.12 C1055.38,172.02 1535.79,184.68 1569,197 C1592.98,205.9 1615.16,225.91 1628.64,239.92 " fill="none" id="gtree.spreaderSimple-backto-gtree.treeSimple" style="stroke:#181818;stroke-width:1.0;"/><polygon fill="none" points="848.62,174.11,828.79,166.64,848.95,160.11,848.62,174.11" style="stroke:#181818;stroke-width:1.0;"/></g><!--MD5=[2d956fba89658a38ebfba6d416a34b5a]
reverse link gtree.spreaderPipeline to gtree.yamlSpreaderPipeline--><g id="link_gtree.spreaderPipeline_gtree.yamlSpreaderPipeline"><path codeLine="311" d="M1260.46,292.12 C1262.61,305.95 1264.97,321.09 1266.66,331.96 " fill="none" id="gtree.spreaderPipeline-backto-gtree.yamlSpreaderPipeline" style="stroke:#181818;stroke-width:1.0;"/><polygon fill="none" points="1253.53,293.11,1257.37,272.27,1267.37,290.95,1253.53,293.11" style="stroke:#181818;stroke-width:1.0;"/></g><!--MD5=[65dbb27bebad5885e8c021898ef9d58e]
reverse link gtree.spreaderSimple to gtree.yamlSpreaderSimple--><g id="link_gtree.spreaderSimple_gtree.yamlSpreaderSimple"><path codeLine="312" d="M778.54,196.69 C788.99,211.4 800.93,228.18 809.3,239.96 " fill="none" id="gtree.spreaderSimple-backto-gtree.yamlSpreaderSimple" style="stroke:#181818;stroke-width:1.0;"/><polygon fill="none" points="772.74,200.62,766.86,180.27,784.15,192.51,772.74,200.62" style="stroke:#181818;stroke-width:1.0;"/></g><!--MD5=[8a661b5d8616b259e9799ae55cc649cc]
reverse link __builtin__.int to gtree.encode--><g id="link___builtin__.int_gtree.encode"><path codeLine="314" d="M1893.76,77.47 C1880.95,97.86 1861.09,129.44 1849.44,147.98 " fill="none" id="__builtin__.int-backto-gtree.encode" style="stroke:#181818;stroke-width:1.0;stroke-dasharray:7.0,7.0;"/><rect fill="#FFFFFF" height="10" style="stroke:#181818;stroke-width:1.5;" width="10" x="1891.54" y="68.04"/></g><!--MD5=[fd4b045da6077126bd7ac8181e5b687d]
reverse link __builtin__.int to gtree.spaceType--><g id="link___builtin__.int_gtree.spaceType"><path codeLine="315" d="M1918.24,77.47 C1931.05,97.86 1950.91,129.44 1962.56,147.98 " fill="none" id="__builtin__.int-backto-gtree.spaceType" style="stroke:#181818;stroke-width:1.0;stroke-dasharray:7.0,7.0;"/><rect fill="#FFFFFF" height="10" style="stroke:#181818;stroke-width:1.5;" width="10" x="1910.46" y="68.04"/></g><!--MD5=[ec01859a0f2471c1cc676da1e268332d]
reverse link gtree.<font color=blue>func</font>(*config)  to gtree.Option--><g id="link_gtree.&lt;font color=blue&gt;func&lt;/font&gt;(*config) _gtree.Option"><path codeLine="316" d="M210.39,185.19 C205.78,201.8 199.35,224.95 195.18,239.96 " fill="none" id="gtree.&lt;font color=blue&gt;func&lt;/font&gt;(*config) -backto-gtree.Option" style="stroke:#181818;stroke-width:1.0;stroke-dasharray:7.0,7.0;"/><rect fill="#FFFFFF" height="10" style="stroke:#181818;stroke-width:1.5;" width="10" x="206.76" y="175.27"/></g><!--MD5=[dead668b97bff5f75c670770352a594c]
@startuml
namespace gtree {
    class Node << (S,Aquamarine) >> {
        - name string
        - hierarchy uint
        - index uint
        - brnch branch
        - parent *Node
        - children []*Node

        - setParent(parent *Node) 
        - addChild(child *Node) 
        - hasChild() bool
        - findChildByText(text string) *Node
        - isDirectlyUnder(node *Node) bool
        - isLastOfHierarchy() bool
        - isRoot() bool
        - setBranch(branchs ...string) 
        - branch() string
        - setPath(paths ...string) 
        - validatePath() error
        - path() string
        - clean() 
        - toJSONNode(jParent *jsonNode) *jsonNode
        - toTOMLNode(tParent *tomlNode) *tomlNode
        - toYAMLNode(yParent *yamlNode) *yamlNode

        + Add(text string) *Node

    }
    class branch << (S,Aquamarine) >> {
        - value string
        - path string

    }
    class branchFormat << (S,Aquamarine) >> {
        - directly string

    }
    class colorizeSpreaderPipeline << (S,Aquamarine) >> {
        - spread(ctx context.Context, w io.Writer, roots <font color=blue>chan</font> *Node) <font color=blue>chan</font> error

    }
    class colorizeSpreaderSimple << (S,Aquamarine) >> {
        - fileConsiderer *fileConsiderer
        - fileColor *color.Color
        - fileCounter *counter
        - dirColor *color.Color
        - dirCounter *counter

        - spread(w io.Writer, roots []*Node) error
        - spreadBranch(current *Node) string
        - colorize(current *Node) string
        - summary() string

    }
    class config << (S,Aquamarine) >> {
        - lastNodeFormat branchFormat
        - intermedialNodeFormat branchFormat
        - space spaceType
        - massive bool
        - ctx context.Context
        - encode encode
        - dryrun bool
        - fileExtensions []string

    }
    class counter << (S,Aquamarine) >> {
        - n uint
        - mu sync.Mutex

        - next() uint
        - reset() 
        - current() uint

    }
    class defaultGrowerPipeline << (S,Aquamarine) >> {
        - grow(ctx context.Context, roots <font color=blue>chan</font> *Node) (<font color=blue>chan</font> *Node, <font color=blue>chan</font> error)
        - worker(ctx context.Context, wg *sync.WaitGroup, roots <font color=blue>chan</font> *Node, nodes <font color=blue>chan</font> *Node, errc <font color=blue>chan</font> error) 

    }
    class defaultGrowerSimple << (S,Aquamarine) >> {
        - lastNodeFormat branchFormat
        - intermedialNodeFormat branchFormat
        - enabledValidation bool

        - grow(roots []*Node) error
        - assemble(current *Node) error
        - assembleBranch(current *Node) error
        - assembleBranchDirectly(current *Node) 
        - assembleBranchIndirectly(current *Node, parent *Node) 
        - assembleBranchFinally(current *Node, root *Node) 
        - enableValidation() 

    }
    class defaultMkdirerPipeline << (S,Aquamarine) >> {
        - mkdir(ctx context.Context, roots <font color=blue>chan</font> *Node) <font color=blue>chan</font> error
        - worker(ctx context.Context, wg *sync.WaitGroup, roots <font color=blue>chan</font> *Node, errc <font color=blue>chan</font> error) 

    }
    class defaultMkdirerSimple << (S,Aquamarine) >> {
        - fileConsiderer *fileConsiderer

        - mkdir(roots []*Node) error
        - isExistRoot(roots []*Node) bool
        - makeDirectoriesAndFiles(current *Node) error
        - mkdirAll(dir string) error
        - mkfile(path string) error

    }
    class defaultSpreaderPipeline << (S,Aquamarine) >> {
        - spread(ctx context.Context, w io.Writer, roots <font color=blue>chan</font> *Node) <font color=blue>chan</font> error
        - worker(ctx context.Context, wg *sync.WaitGroup, bw *bufio.Writer, roots <font color=blue>chan</font> *Node, errc <font color=blue>chan</font> error) 

    }
    class defaultSpreaderSimple << (S,Aquamarine) >> {
        - spread(w io.Writer, roots []*Node) error
        - spreadBranch(current *Node) string
        - write(w io.Writer, in string) error

    }
    class fileConsiderer << (S,Aquamarine) >> {
        - extensions []string

        - isFile(current *Node) bool

    }
    interface growerPipeline  {
        - grow( context.Context,  <font color=blue>chan</font> *Node) (<font color=blue>chan</font> *Node, <font color=blue>chan</font> error)
        - enableValidation() 

    }
    interface growerSimple  {
        - grow( []*Node) error
        - enableValidation() 

    }
    class gtree.Option << (T, #FF7700) >>  {
    }
    class gtree.encode << (T, #FF7700) >>  {
    }
    class gtree.spaceType << (T, #FF7700) >>  {
    }
    interface iTree  {
        - output( io.Writer,  io.Reader,  *config) error
        - outputProgrammably( io.Writer,  *Node,  *config) error
        - makedir( io.Reader,  *config) error
        - makedirProgrammably( *Node,  *config) error

    }
    class inputFormatError << (S,Aquamarine) >> {
        - row string

        + Error() string

    }
    class jsonNode << (S,Aquamarine) >> {
        + Name string
        + Children []*jsonNode

    }
    class jsonSpreaderPipeline << (S,Aquamarine) >> {
        - spread(ctx context.Context, w io.Writer, roots <font color=blue>chan</font> *Node) <font color=blue>chan</font> error

    }
    class jsonSpreaderSimple << (S,Aquamarine) >> {
        - spread(w io.Writer, roots []*Node) error

    }
    interface mkdirerPipeline  {
        - mkdir( context.Context,  <font color=blue>chan</font> *Node) <font color=blue>chan</font> error

    }
    interface mkdirerSimple  {
        - mkdir( []*Node) error

    }
    class nodeGenerator << (S,Aquamarine) >> {
        - parser *markdown.Parser

        - generate(row string, idx uint) (*Node, error)
        - handleErr(err error, row string) error

    }
    class nopGrowerPipeline << (S,Aquamarine) >> {
        - grow(ctx context.Context, roots <font color=blue>chan</font> *Node) (<font color=blue>chan</font> *Node, <font color=blue>chan</font> error)

    }
    class nopGrowerSimple << (S,Aquamarine) >> {
        - grow(_ []*Node) error
        - enableValidation() 

    }
    class rootGeneratorPipeline << (S,Aquamarine) >> {
        - nodeGenerator *nodeGenerator

        - generate(ctx context.Context, blocks <font color=blue>chan</font> string) (<font color=blue>chan</font> *Node, <font color=blue>chan</font> error)
        - worker(ctx context.Context, wg *sync.WaitGroup, blocks <font color=blue>chan</font> string, rootc <font color=blue>chan</font> *Node, errc <font color=blue>chan</font> error) 

    }
    class rootGeneratorSimple << (S,Aquamarine) >> {
        - counter *counter
        - scanner *bufio.Scanner
        - nodeGenerator *nodeGenerator

        - generate() ([]*Node, error)

    }
    interface spreaderPipeline  {
        - spread( context.Context,  io.Writer,  <font color=blue>chan</font> *Node) <font color=blue>chan</font> error

    }
    interface spreaderSimple  {
        - spread( io.Writer,  []*Node) error

    }
    class stack << (S,Aquamarine) >> {
        - nodes *list.List

        - push(n *Node) *stack
        - pop() *Node
        - size() int
        - dfs(current *Node) 

    }
    class tomlNode << (S,Aquamarine) >> {
        + Name string
        + Children []*tomlNode

    }
    class tomlSpreaderPipeline << (S,Aquamarine) >> {
        - spread(ctx context.Context, w io.Writer, roots <font color=blue>chan</font> *Node) <font color=blue>chan</font> error

    }
    class tomlSpreaderSimple << (S,Aquamarine) >> {
        - spread(w io.Writer, roots []*Node) error

    }
    class treePipeline << (S,Aquamarine) >> {
        - grower growerPipeline
        - spreader spreaderPipeline
        - mkdirer mkdirerPipeline

        - output(w io.Writer, r io.Reader, conf *config) error
        - outputProgrammably(w io.Writer, root *Node, conf *config) error
        - makedir(r io.Reader, conf *config) error
        - makedirProgrammably(root *Node, conf *config) error
        - grow(ctx context.Context, roots <font color=blue>chan</font> *Node) (<font color=blue>chan</font> *Node, <font color=blue>chan</font> error)
        - spread(ctx context.Context, w io.Writer, roots <font color=blue>chan</font> *Node) <font color=blue>chan</font> error
        - mkdir(ctx context.Context, roots <font color=blue>chan</font> *Node) <font color=blue>chan</font> error
        - handlePipelineErr(ctx context.Context, echs ...<font color=blue>chan</font> error) error
        - enableValidation() 

    }
    class treeSimple << (S,Aquamarine) >> {
        - grower growerSimple
        - spreader spreaderSimple
        - mkdirer mkdirerSimple

        - output(w io.Writer, r io.Reader, conf *config) error
        - outputProgrammably(w io.Writer, root *Node, conf *config) error
        - makedir(r io.Reader, conf *config) error
        - makedirProgrammably(root *Node, conf *config) error
        - grow(roots []*Node) error
        - spread(w io.Writer, roots []*Node) error
        - mkdir(roots []*Node) error
        - enableValidation() 

    }
    class yamlNode << (S,Aquamarine) >> {
        + Name string
        + Children []*yamlNode

    }
    class yamlSpreaderPipeline << (S,Aquamarine) >> {
        - spread(ctx context.Context, w io.Writer, roots <font color=blue>chan</font> *Node) <font color=blue>chan</font> error

    }
    class yamlSpreaderSimple << (S,Aquamarine) >> {
        - spread(w io.Writer, roots []*Node) error

    }
}
"gtree.colorizeSpreaderSimple" *- - "gtree.colorizeSpreaderPipeline"
"gtree.defaultSpreaderSimple" *- - "gtree.colorizeSpreaderSimple"
"gtree.defaultGrowerSimple" *- - "gtree.defaultGrowerPipeline"
"gtree.defaultMkdirerSimple" *- - "gtree.defaultMkdirerPipeline"
"gtree.defaultSpreaderSimple" *- - "gtree.defaultSpreaderPipeline"
"sync.Mutex" *- - "gtree.defaultSpreaderPipeline"
"gtree.nopGrowerSimple" *- - "gtree.nopGrowerPipeline"

"gtree.spreaderPipeline" <|- - "gtree.colorizeSpreaderPipeline"
"gtree.spreaderSimple" <|- - "gtree.colorizeSpreaderSimple"
"gtree.growerSimple" <|- - "gtree.defaultGrowerSimple"
"gtree.mkdirerPipeline" <|- - "gtree.defaultMkdirerPipeline"
"gtree.mkdirerSimple" <|- - "gtree.defaultMkdirerSimple"
"gtree.spreaderPipeline" <|- - "gtree.defaultSpreaderPipeline"
"gtree.spreaderSimple" <|- - "gtree.defaultSpreaderSimple"
"gtree.spreaderPipeline" <|- - "gtree.jsonSpreaderPipeline"
"gtree.spreaderSimple" <|- - "gtree.jsonSpreaderSimple"
"gtree.growerSimple" <|- - "gtree.nopGrowerSimple"
"gtree.spreaderPipeline" <|- - "gtree.tomlSpreaderPipeline"
"gtree.spreaderSimple" <|- - "gtree.tomlSpreaderSimple"
"gtree.growerPipeline" <|- - "gtree.treePipeline"
"gtree.iTree" <|- - "gtree.treePipeline"
"gtree.mkdirerPipeline" <|- - "gtree.treePipeline"
"gtree.spreaderPipeline" <|- - "gtree.treePipeline"
"gtree.growerSimple" <|- - "gtree.treeSimple"
"gtree.iTree" <|- - "gtree.treeSimple"
"gtree.mkdirerSimple" <|- - "gtree.treeSimple"
"gtree.spreaderSimple" <|- - "gtree.treeSimple"
"gtree.spreaderPipeline" <|- - "gtree.yamlSpreaderPipeline"
"gtree.spreaderSimple" <|- - "gtree.yamlSpreaderSimple"

"__builtin__.int" #.. "gtree.encode"
"__builtin__.int" #.. "gtree.spaceType"
"gtree.<font color=blue>func</font>(*config) " #.. "gtree.Option"
hide fields
hide methods
@enduml

PlantUML version 1.2022.7(Tue Aug 23 02:01:30 JST 2022)
(GPL source distribution)
Java Runtime: OpenJDK Runtime Environment
JVM: OpenJDK 64-Bit Server VM
Default Encoding: UTF-8
Language: ja
Country: JP
--></g></svg>