<?xml version="1.0" encoding="UTF-8" standalone="no"?><svg xmlns="http://www.w3.org/2000/svg" xmlns:xlink="http://www.w3.org/1999/xlink" contentStyleType="text/css" height="872px" preserveAspectRatio="none" style="width:570px;height:872px;background:#008B8B;" version="1.1" viewBox="0 0 570 872" width="570px" zoomAndPan="magnify"><defs/><g><!--MD5=[6328af41db0f7dbb733c9192827ed26b]
cluster pipeline--><g id="cluster_pipeline"><rect fill="none" height="793.72" rx="2.5" ry="2.5" style="stroke:#181818;stroke-width:1.0;" width="509" x="7" y="73"/><path d="M74,73 L74,83.6094 L64,93.6094 L7,93.6094 " fill="none" style="stroke:#181818;stroke-width:1.0;"/><text fill="#000000" font-family="sans-serif" font-size="14" font-weight="bold" lengthAdjust="spacing" textLength="57" x="10" y="88.5332">Pipeline</text></g><!--MD5=[dfbaac2615e6b58919aa7dca9cc5848c]
entity split_proc--><g id="elem_split_proc"><ellipse cx="261" cy="177.72" fill="#F1F1F1" rx="12" ry="12" style="stroke:#181818;stroke-width:0.5;"/><polygon fill="#181818" points="257,165.72,263,160.72,261,165.72,263,170.72,257,165.72" style="stroke:#181818;stroke-width:1.0;"/><text fill="#000000" font-family="sans-serif" font-size="14" lengthAdjust="spacing" textLength="116" x="203" y="208.2532">Split input process</text></g><!--MD5=[883626f3ee9e613e4e1695c2a8f9e35f]
entity generate_root_worker--><g id="elem_generate_root_worker"><ellipse cx="242" cy="287.72" fill="#F1F1F1" rx="12" ry="12" style="stroke:#181818;stroke-width:0.5;"/><polygon fill="#181818" points="238,275.72,244,270.72,242,275.72,244,280.72,238,275.72" style="stroke:#181818;stroke-width:1.0;"/><text fill="#000000" font-family="sans-serif" font-size="14" lengthAdjust="spacing" textLength="177" x="153.5" y="318.2532">Generate Root (10 workers)</text></g><!--MD5=[d42658a875e6b366d8ed22b8f1d49d51]
entity grow_worker--><g id="elem_grow_worker"><ellipse cx="264" cy="397.72" fill="#F1F1F1" rx="12" ry="12" style="stroke:#181818;stroke-width:0.5;"/><polygon fill="#181818" points="260,385.72,266,380.72,264,385.72,266,390.72,260,385.72" style="stroke:#181818;stroke-width:1.0;"/><text fill="#000000" font-family="sans-serif" font-size="14" lengthAdjust="spacing" textLength="150" x="189" y="428.2532">Grow Root (10 workers)</text></g><!--MD5=[d0e066c1a14392698745467dd17d345b]
entity spread_worker--><g id="elem_spread_worker"><ellipse cx="187" cy="610.72" fill="#F1F1F1" rx="12" ry="12" style="stroke:#181818;stroke-width:0.5;"/><polygon fill="#181818" points="183,598.72,189,593.72,187,598.72,189,603.72,183,598.72" style="stroke:#181818;stroke-width:1.0;"/><text fill="#000000" font-family="sans-serif" font-size="14" lengthAdjust="spacing" textLength="163" x="105.5" y="641.2532">Spread Root (10 workers)</text></g><!--MD5=[dabf35e28b0fe3e280879f10955a7220]
entity mkdir_worker--><g id="elem_mkdir_worker"><ellipse cx="379" cy="610.72" fill="#F1F1F1" rx="12" ry="12" style="stroke:#181818;stroke-width:0.5;"/><polygon fill="#181818" points="375,598.72,381,593.72,379,598.72,381,603.72,375,598.72" style="stroke:#181818;stroke-width:1.0;"/><text fill="#000000" font-family="sans-serif" font-size="14" lengthAdjust="spacing" textLength="151" x="303.5" y="641.2532">Mkdir Root (10 workers)</text></g><!--MD5=[c5c948d6d2820c5c03fe633a7cc80e1b]
entity error_handler--><g id="elem_error_handler"><ellipse cx="385" cy="808.72" fill="#F1F1F1" rx="12" ry="12" style="stroke:#181818;stroke-width:0.5;"/><polygon fill="#181818" points="381,796.72,387,791.72,385,796.72,387,801.72,381,796.72" style="stroke:#181818;stroke-width:1.0;"/><text fill="#000000" font-family="sans-serif" font-size="14" lengthAdjust="spacing" textLength="80" x="345" y="839.2532">Handle Error</text></g><!--MD5=[bdc70ded9b301535bd788a3720b71b1a]
entity split_q--><g id="elem_split_q"><path d="M36.5,282.72 L113.5,282.72 C118.5,282.72 118.5,296.5247 118.5,296.5247 C118.5,296.5247 118.5,310.3294 113.5,310.3294 L36.5,310.3294 C31.5,310.3294 31.5,296.5247 31.5,296.5247 C31.5,296.5247 31.5,282.72 36.5,282.72 " fill="#00BFFF" style="stroke:#0000FF;stroke-width:0.5;"/><path d="M113.5,282.72 C108.5,282.72 108.5,296.5247 108.5,296.5247 C108.5,310.3294 113.5,310.3294 113.5,310.3294 " fill="none" style="stroke:#0000FF;stroke-width:0.5;"/><text fill="#000000" font-family="sans-serif" font-size="14" lengthAdjust="spacing" textLength="67" x="36.5" y="302.2532">Root block</text></g><!--MD5=[6e6f018fbbc8ddecf21b773d66d61cba]
entity root_q--><g id="elem_root_q"><path d="M73,392.72 L149,392.72 C154,392.72 154,406.5247 154,406.5247 C154,406.5247 154,420.3294 149,420.3294 L73,420.3294 C68,420.3294 68,406.5247 68,406.5247 C68,406.5247 68,392.72 73,392.72 " fill="#00BFFF" style="stroke:#0000FF;stroke-width:0.5;"/><path d="M149,392.72 C144,392.72 144,406.5247 144,406.5247 C144,420.3294 149,420.3294 149,420.3294 " fill="none" style="stroke:#0000FF;stroke-width:0.5;"/><text fill="#000000" font-family="sans-serif" font-size="14" lengthAdjust="spacing" textLength="66" x="73" y="412.2532">Root node</text></g><!--MD5=[759ebcdd875c10595d278c9d978c4973]
entity growing_q--><g id="elem_growing_q"><path d="M173.5,499.22 L302.5,499.22 C307.5,499.22 307.5,513.0247 307.5,513.0247 C307.5,513.0247 307.5,526.8294 302.5,526.8294 L173.5,526.8294 C168.5,526.8294 168.5,513.0247 168.5,513.0247 C168.5,513.0247 168.5,499.22 173.5,499.22 " fill="#00BFFF" style="stroke:#0000FF;stroke-width:0.5;"/><path d="M302.5,499.22 C297.5,499.22 297.5,513.0247 297.5,513.0247 C297.5,526.8294 302.5,526.8294 302.5,526.8294 " fill="none" style="stroke:#0000FF;stroke-width:0.5;"/><text fill="#000000" font-family="sans-serif" font-size="14" lengthAdjust="spacing" textLength="119" x="173.5" y="518.7532">Growed Root node</text></g><g id="elem_GMN15"><path d="M343,491.72 L343,509.22 L307.81,513.22 L343,517.22 L343,534.4231 A0,0 0 0 0 343,534.4231 L455,534.4231 A0,0 0 0 0 455,534.4231 L455,501.72 L445,491.72 L343,491.72 A0,0 0 0 0 343,491.72 " fill="#FEFFDD" style="stroke:#181818;stroke-width:0.5;"/><path d="M445,491.72 L445,501.72 L455,501.72 L445,491.72 " fill="#FEFFDD" style="stroke:#181818;stroke-width:0.5;"/><text fill="#000000" font-family="sans-serif" font-size="13" lengthAdjust="spacing" textLength="91" x="349" y="510.2151">Next process is</text><text fill="#000000" font-family="sans-serif" font-size="13" lengthAdjust="spacing" textLength="89" x="349" y="526.5667">Spred or Mkdir.</text></g><!--MD5=[92f5fbe86901331f4c0af9e1133daa86]
entity err--><g id="elem_err"><path d="M232,704.72 L274,704.72 C279,704.72 279,718.5247 279,718.5247 C279,718.5247 279,732.3294 274,732.3294 L232,732.3294 C227,732.3294 227,718.5247 227,718.5247 C227,718.5247 227,704.72 232,704.72 " fill="#CC6699" style="stroke:#0000FF;stroke-width:0.5;"/><path d="M274,704.72 C269,704.72 269,718.5247 269,718.5247 C269,732.3294 274,732.3294 274,732.3294 " fill="none" style="stroke:#0000FF;stroke-width:0.5;"/><text fill="#000000" font-family="sans-serif" font-size="14" lengthAdjust="spacing" textLength="32" x="232" y="724.2532">Error</text></g><!--MD5=[c88a36799ca4d6dff2d7449eacfc25f7]
entity start--><g id="elem_start"><ellipse cx="142" cy="23.5" fill="#CCFF33" rx="8" ry="8" style="stroke:#181818;stroke-width:0.5;"/><text fill="#000000" font-family="sans-serif" font-size="14" lengthAdjust="spacing" textLength="46" x="119" y="55.0332">START</text></g><g id="elem_init"><ellipse cx="260.981" cy="23.2962" fill="#F1F1F1" rx="74.481" ry="17.2962" style="stroke:#181818;stroke-width:0.5;"/><text fill="#000000" font-family="sans-serif" font-size="14" lengthAdjust="spacing" textLength="100" x="207.981" y="27.8128">Launch pipeline</text></g><!--MD5=[22efa60cf2b4332bf8574b0c93969d71]
entity end--><g id="elem_end"><ellipse cx="549" cy="817.72" fill="#CCFF33" rx="8" ry="8" style="stroke:#181818;stroke-width:0.5;"/><text fill="#000000" font-family="sans-serif" font-size="14" lengthAdjust="spacing" textLength="28" x="535" y="849.2532">END</text></g><!--MD5=[454b0b980ae1095b7473d8b1e9bb6cba]
link start to init--><g id="link_start_init"><path d="M151.3,23.5 C156.33,23.5 161.36,23.5 166.4,23.5 " fill="none" id="start-to-init" style="stroke:#00BFFF;stroke-width:1.0;"/><polygon fill="none" points="166.44,16.5,186.44,23.5,166.44,30.5,166.44,16.5" style="stroke:#00BFFF;stroke-width:1.0;"/></g><!--MD5=[7060c70beb0e2460c89b992bca283af7]
link init to pipeline--><g id="link_init_pipeline"><path d="M261,41.34 C261,46.7525 261,53.005 261,59.3731 C261,62.5572 261,65.7702 261,68.9215 C261,69.7093 261,70.4933 261,71.272 C261,71.6614 261,72.0494 261,72.4359 C261,72.5326 261,72.6291 261,72.7256 " fill="none" id="init-to-pipeline" style="stroke:#00BFFF;stroke-width:1.0;"/><polygon fill="#008B8B" points="261,72.7256,268,53.7256,254,53.7256,261,72.7256" style="stroke:#00BFFF;stroke-width:1.0;"/></g><!--MD5=[4bc466e259f359bb306de2e4df9da546]
link pipeline to split_proc--><g id="link_pipeline_split_proc"><path d="M261,101.78 C261,102.98 261,121.83 261,141.35 " fill="none" id="pipeline-to-split_proc" style="stroke:#00BFFF;stroke-width:1.0;"/><polygon fill="none" points="268,141.62,261,161.62,254,141.62,268,141.62" style="stroke:#00BFFF;stroke-width:1.0;"/></g><!--MD5=[ff9ebe33644ea2cb0ff22f31693c8b88]
link split_proc to split_q--><g id="link_split_proc_split_q"><path d="M219.26,211.96 C188.04,230.09 145.61,254.72 114.85,272.58 " fill="none" id="split_proc-to-split_q" style="stroke:#00BFFF;stroke-width:1.0;"/><polygon fill="none" points="118.22,278.72,97.41,282.71,111.19,266.61,118.22,278.72" style="stroke:#00BFFF;stroke-width:1.0;"/></g><!--MD5=[12cd5d76f0e65352ab6f4dee1eb8cb7d]
link split_q to generate_root_worker--><g id="link_split_q_generate_root_worker"><path d="M118.71,296.72 C123.58,296.72 128.46,296.72 133.34,296.72 " fill="none" id="split_q-to-generate_root_worker" style="stroke:#00BFFF;stroke-width:1.0;"/><polygon fill="none" points="133.38,289.72,153.38,296.72,133.38,303.72,133.38,289.72" style="stroke:#00BFFF;stroke-width:1.0;"/></g><!--MD5=[b33f49e90cd4e1fd8720b8291fe977c4]
link generate_root_worker to root_q--><g id="link_generate_root_worker_root_q"><path d="M212.6,321.96 C191.75,339.15 163.81,362.18 142.5,379.75 " fill="none" id="generate_root_worker-to-root_q" style="stroke:#00BFFF;stroke-width:1.0;"/><polygon fill="none" points="146.67,385.38,126.79,392.71,137.76,374.58,146.67,385.38" style="stroke:#00BFFF;stroke-width:1.0;"/></g><!--MD5=[a2cfaee57afe5b9845ef0994b8c4ab3e]
link root_q to grow_worker--><g id="link_root_q_grow_worker"><path d="M154.03,406.72 C158.92,406.72 163.82,406.72 168.71,406.72 " fill="none" id="root_q-to-grow_worker" style="stroke:#00BFFF;stroke-width:1.0;"/><polygon fill="none" points="168.83,399.72,188.83,406.72,168.83,413.72,168.83,399.72" style="stroke:#00BFFF;stroke-width:1.0;"/></g><!--MD5=[721c3eb2ec58c4fb8b852468b49ceef6]
link grow_worker to growing_q--><g id="link_grow_worker_growing_q"><path d="M257.97,431.96 C254.46,446.05 249.99,464.02 246.17,479.37 " fill="none" id="grow_worker-to-growing_q" style="stroke:#00BFFF;stroke-width:1.0;"/><polygon fill="none" points="252.92,481.24,241.3,498.96,239.34,477.86,252.92,481.24" style="stroke:#00BFFF;stroke-width:1.0;"/></g><!--MD5=[de34a8e20bc479fcbeeac231718bc084]
link growing_q to spread_worker--><g id="link_growing_q_spread_worker"><path d="M231.54,527.45 C225.52,539.8 216.2,558.89 207.64,576.42 " fill="none" id="growing_q-to-spread_worker" style="stroke:#00BFFF;stroke-width:1.0;"/><polygon fill="none" points="213.91,579.54,198.85,594.45,201.33,573.4,213.91,579.54" style="stroke:#00BFFF;stroke-width:1.0;"/></g><!--MD5=[be6142c83553d78fb2a5714d092f81e4]
link growing_q to mkdir_worker--><g id="link_growing_q_mkdir_worker"><path d="M255.57,527.24 C274.16,541.02 304.33,563.38 330.18,582.54 " fill="none" id="growing_q-to-mkdir_worker" style="stroke:#00BFFF;stroke-width:1.0;"/><polygon fill="none" points="334.48,577.01,346.38,594.55,326.15,588.26,334.48,577.01" style="stroke:#00BFFF;stroke-width:1.0;"/></g><!--MD5=[f3bd1d73580b57b56f7fe96af5adf6d3]
link split_proc to err--><g id="link_split_proc_err"><path d="M318.15,211.74 C386.27,244.64 491,310.68 491,405.72 C491,405.72 491,405.72 491,514.22 C491,572.83 509.62,599.77 472,644.72 C424.72,701.21 332.44,714.21 284.15,717.06 " fill="none" id="split_proc-to-err" style="stroke:#00BFFF;stroke-width:1.0;stroke-dasharray:7.0,7.0;"/><polygon fill="#00BFFF" points="279.05,717.33,288.2536,720.8363,284.0426,717.059,287.8199,712.848,279.05,717.33" style="stroke:#00BFFF;stroke-width:1.0;"/></g><!--MD5=[2af9d0b8b280e303bad4da65c9de09bf]
link generate_root_worker to err--><g id="link_generate_root_worker_err"><path d="M165.6,321.74 C118.51,338.26 64.59,360.9 51,381.72 C38.85,400.33 49.86,409.53 51,431.72 C55.9,526.76 15.84,568.62 73,644.72 C108.64,692.17 180.33,708.88 221.68,714.69 " fill="none" id="generate_root_worker-to-err" style="stroke:#00BFFF;stroke-width:1.0;stroke-dasharray:7.0,7.0;"/><polygon fill="#00BFFF" points="226.81,715.38,218.4283,710.2082,221.8552,714.7089,217.3546,718.1358,226.81,715.38" style="stroke:#00BFFF;stroke-width:1.0;"/></g><!--MD5=[6a2f56d04372cd3412aabdbb8abb6d4a]
link grow_worker to err--><g id="link_grow_worker_err"><path d="M224.13,431.86 C201.02,447.13 172.35,468.35 151,491.72 C114.81,531.34 102.54,543.07 88,594.72 C81.98,616.11 75.88,626.1 88,644.72 C117.61,690.19 182.69,707.55 221.69,714.02 " fill="none" id="grow_worker-to-err" style="stroke:#00BFFF;stroke-width:1.0;stroke-dasharray:7.0,7.0;"/><polygon fill="#00BFFF" points="226.78,714.83,218.522,709.463,221.8424,714.0428,217.2625,717.3632,226.78,714.83" style="stroke:#00BFFF;stroke-width:1.0;"/></g><!--MD5=[4d6df10a41f337433cb46b53694d361b]
link spread_worker to err--><g id="link_spread_worker_err"><path d="M203.65,645.2 C215.28,662.29 230.53,684.7 240.98,700.06 " fill="none" id="spread_worker-to-err" style="stroke:#00BFFF;stroke-width:1.0;stroke-dasharray:7.0,7.0;"/><polygon fill="#00BFFF" points="244.06,704.59,242.2959,694.9004,241.2438,700.4586,235.6856,699.4064,244.06,704.59" style="stroke:#00BFFF;stroke-width:1.0;"/></g><!--MD5=[42fa6a13b790d08fe85dae211caa4f77]
link mkdir_worker to err--><g id="link_mkdir_worker_err"><path d="M347.53,644.95 C324.66,662.55 294.33,685.9 274.27,701.35 " fill="none" id="mkdir_worker-to-err" style="stroke:#00BFFF;stroke-width:1.0;stroke-dasharray:7.0,7.0;"/><polygon fill="#00BFFF" points="270.15,704.52,279.7176,702.1831,274.1067,701.4632,274.8267,695.8523,270.15,704.52" style="stroke:#00BFFF;stroke-width:1.0;"/></g><!--MD5=[df6883b0b94ffb8cc8ab9a903d49ed69]
link err to error_handler--><g id="link_err_error_handler"><path d="M270.8,732.8 C287.48,745.06 313.19,763.95 336,780.71 " fill="none" id="err-to-error_handler" style="stroke:#00BFFF;stroke-width:1.0;"/><polygon fill="none" points="340.33,775.2,352.3,792.69,332.04,786.49,340.33,775.2" style="stroke:#00BFFF;stroke-width:1.0;"/></g><!--MD5=[0bb1f239f0087c15a42ea90f85b82673]
link error_handler to end--><g id="link_error_handler_end"><path d="M425.04,817.72 C456.57,817.72 488.1,817.72 519.63,817.72 " fill="none" id="error_handler-to-end" style="stroke:#00BFFF;stroke-width:1.0;"/><polygon fill="none" points="519.8,810.72,539.8,817.72,519.8,824.72,519.8,810.72" style="stroke:#00BFFF;stroke-width:1.0;"/></g><!--MD5=[101e9f36371d5f13a3bf35e319ad7ed2]
@startuml
skinparam {
  backgroundColor DarkCyan

  InterfaceBackgroundColor #CCFF33
  ComponentStyle rectangle
  ArrowColor DeepSkyBlue
  QueueBorderColor blue
  QueueBackgroundColor DeepSkyBlue
}


' stages
interface "START" as start

(Launch pipeline) as init

frame "Pipeline" as pipeline {
  control "Split input process" as split_proc
  control "Generate Root (10 workers)" as generate_root_worker
  control "Grow Root (10 workers)" as grow_worker
  control "Spread Root (10 workers)" as spread_worker
  control "Mkdir Root (10 workers)" as mkdir_worker
  control "Handle Error" as error_handler

  queue "Root block" as split_q
  queue "Root node" as root_q
  queue "Growed Root node" as growing_q
  note right of growing_q
  Next process is
  Spred or Mkdir.
  end note
  queue Error as err #CC6699
}

interface "END" as end


' flow
start -|> init
init - -|> pipeline
pipeline - -|> split_proc
split_proc - -|> split_q
split_q -|> generate_root_worker
generate_root_worker - -|> root_q
root_q -|> grow_worker
grow_worker - -|> growing_q
growing_q -|> spread_worker
growing_q - -|> mkdir_worker

split_proc ..> err
generate_root_worker ..> err
grow_worker ..> err
spread_worker ..> err
mkdir_worker ..> err

err - -|> error_handler
error_handler -|> end
@enduml

@startuml
skinparam {
  backgroundColor DarkCyan

  InterfaceBackgroundColor #CCFF33
  ComponentStyle rectangle
  ArrowColor DeepSkyBlue
  QueueBorderColor blue
  QueueBackgroundColor DeepSkyBlue
}


interface "START" as start

(Launch pipeline) as init

frame "Pipeline" as pipeline {
  control "Split input process" as split_proc
  control "Generate Root (10 workers)" as generate_root_worker
  control "Grow Root (10 workers)" as grow_worker
  control "Spread Root (10 workers)" as spread_worker
  control "Mkdir Root (10 workers)" as mkdir_worker
  control "Handle Error" as error_handler

  queue "Root block" as split_q
  queue "Root node" as root_q
  queue "Growed Root node" as growing_q
  note right of growing_q
  Next process is
  Spred or Mkdir.
  end note
  queue Error as err #CC6699
}

interface "END" as end


start -|> init
init - -|> pipeline
pipeline - -|> split_proc
split_proc - -|> split_q
split_q -|> generate_root_worker
generate_root_worker - -|> root_q
root_q -|> grow_worker
grow_worker - -|> growing_q
growing_q -|> spread_worker
growing_q - -|> mkdir_worker

split_proc ..> err
generate_root_worker ..> err
grow_worker ..> err
spread_worker ..> err
mkdir_worker ..> err

err - -|> error_handler
error_handler -|> end
@enduml

PlantUML version 1.2022.7(Tue Aug 23 02:01:30 JST 2022)
(GPL source distribution)
Java Runtime: OpenJDK Runtime Environment
JVM: OpenJDK 64-Bit Server VM
Default Encoding: MS932
Language: ja
Country: JP
--></g></svg>