<?xml version="1.0" encoding="UTF-8" standalone="no"?><svg xmlns="http://www.w3.org/2000/svg" xmlns:xlink="http://www.w3.org/1999/xlink" contentStyleType="text/css" height="604px" preserveAspectRatio="none" style="width:649px;height:604px;background:#008B8B;" version="1.1" viewBox="0 0 649 604" width="649px" zoomAndPan="magnify"><defs/><g><!--MD5=[c88a36799ca4d6dff2d7449eacfc25f7]
entity start--><g id="elem_start"><ellipse cx="239.5" cy="32" fill="#CCFF33" rx="8" ry="8" style="stroke:#181818;stroke-width:0.5;"/><text fill="#000000" font-family="sans-serif" font-size="14" lengthAdjust="spacing" textLength="28" x="225.5" y="63.5332">start</text></g><!--MD5=[dfbaac2615e6b58919aa7dca9cc5848c]
entity split_proc--><g id="elem_split_proc"><ellipse cx="341.5" cy="23" fill="#F1F1F1" rx="12" ry="12" style="stroke:#181818;stroke-width:0.5;"/><polygon fill="#181818" points="337.5,11,343.5,6,341.5,11,343.5,16,337.5,11" style="stroke:#181818;stroke-width:1.0;"/><text fill="#000000" font-family="sans-serif" font-size="14" lengthAdjust="spacing" textLength="116" x="283.5" y="53.5332">Split input process</text></g><!--MD5=[883626f3ee9e613e4e1695c2a8f9e35f]
entity generate_root_worker--><g id="elem_generate_root_worker"><ellipse cx="214.5" cy="133" fill="#F1F1F1" rx="12" ry="12" style="stroke:#181818;stroke-width:0.5;"/><polygon fill="#181818" points="210.5,121,216.5,116,214.5,121,216.5,126,210.5,121" style="stroke:#181818;stroke-width:1.0;"/><text fill="#000000" font-family="sans-serif" font-size="14" lengthAdjust="spacing" textLength="172" x="128.5" y="163.5332">Generate Root worker(x10)</text></g><!--MD5=[d42658a875e6b366d8ed22b8f1d49d51]
entity grow_worker--><g id="elem_grow_worker"><ellipse cx="365.5" cy="243" fill="#F1F1F1" rx="12" ry="12" style="stroke:#181818;stroke-width:0.5;"/><polygon fill="#181818" points="361.5,231,367.5,226,365.5,231,367.5,236,361.5,231" style="stroke:#181818;stroke-width:1.0;"/><text fill="#000000" font-family="sans-serif" font-size="14" lengthAdjust="spacing" textLength="145" x="293" y="273.5332">Grow Root worker(x10)</text></g><!--MD5=[d0e066c1a14392698745467dd17d345b]
entity spread_worker--><g id="elem_spread_worker"><ellipse cx="321.5" cy="456" fill="#F1F1F1" rx="12" ry="12" style="stroke:#181818;stroke-width:0.5;"/><polygon fill="#181818" points="317.5,444,323.5,439,321.5,444,323.5,449,317.5,444" style="stroke:#181818;stroke-width:1.0;"/><text fill="#000000" font-family="sans-serif" font-size="14" lengthAdjust="spacing" textLength="158" x="242.5" y="486.5332">Spread Root worker(x10)</text></g><!--MD5=[dabf35e28b0fe3e280879f10955a7220]
entity mkdir_worker--><g id="elem_mkdir_worker"><ellipse cx="508.5" cy="456" fill="#F1F1F1" rx="12" ry="12" style="stroke:#181818;stroke-width:0.5;"/><polygon fill="#181818" points="504.5,444,510.5,439,508.5,444,510.5,449,504.5,444" style="stroke:#181818;stroke-width:1.0;"/><text fill="#000000" font-family="sans-serif" font-size="14" lengthAdjust="spacing" textLength="146" x="435.5" y="486.5332">Mkdir Root worker(x10)</text></g><!--MD5=[bdc70ded9b301535bd788a3720b71b1a]
entity split_q--><g id="elem_split_q"><path d="M11,128 L88,128 C93,128 93,141.8047 93,141.8047 C93,141.8047 93,155.6094 88,155.6094 L11,155.6094 C6,155.6094 6,141.8047 6,141.8047 C6,141.8047 6,128 11,128 " fill="#00BFFF" style="stroke:#0000FF;stroke-width:0.5;"/><path d="M88,128 C83,128 83,141.8047 83,141.8047 C83,155.6094 88,155.6094 88,155.6094 " fill="none" style="stroke:#0000FF;stroke-width:0.5;"/><text fill="#000000" font-family="sans-serif" font-size="14" lengthAdjust="spacing" textLength="67" x="11" y="147.5332">Root block</text></g><!--MD5=[6e6f018fbbc8ddecf21b773d66d61cba]
entity root_q--><g id="elem_root_q"><path d="M176.5,238 L252.5,238 C257.5,238 257.5,251.8047 257.5,251.8047 C257.5,251.8047 257.5,265.6094 252.5,265.6094 L176.5,265.6094 C171.5,265.6094 171.5,251.8047 171.5,251.8047 C171.5,251.8047 171.5,238 176.5,238 " fill="#00BFFF" style="stroke:#0000FF;stroke-width:0.5;"/><path d="M252.5,238 C247.5,238 247.5,251.8047 247.5,251.8047 C247.5,265.6094 252.5,265.6094 252.5,265.6094 " fill="none" style="stroke:#0000FF;stroke-width:0.5;"/><text fill="#000000" font-family="sans-serif" font-size="14" lengthAdjust="spacing" textLength="66" x="176.5" y="257.5332">Root node</text></g><!--MD5=[759ebcdd875c10595d278c9d978c4973]
entity growing_q--><g id="elem_growing_q"><path d="M300,344.5 L429,344.5 C434,344.5 434,358.3047 434,358.3047 C434,358.3047 434,372.1094 429,372.1094 L300,372.1094 C295,372.1094 295,358.3047 295,358.3047 C295,358.3047 295,344.5 300,344.5 " fill="#00BFFF" style="stroke:#0000FF;stroke-width:0.5;"/><path d="M429,344.5 C424,344.5 424,358.3047 424,358.3047 C424,372.1094 429,372.1094 429,372.1094 " fill="none" style="stroke:#0000FF;stroke-width:0.5;"/><text fill="#000000" font-family="sans-serif" font-size="14" lengthAdjust="spacing" textLength="119" x="300" y="364.0332">Growed Root node</text></g><g id="elem_GMN12"><path d="M469.5,337 L469.5,354.5 L434.31,358.5 L469.5,362.5 L469.5,379.7031 A0,0 0 0 0 469.5,379.7031 L581.5,379.7031 A0,0 0 0 0 581.5,379.7031 L581.5,347 L571.5,337 L469.5,337 A0,0 0 0 0 469.5,337 " fill="#FEFFDD" style="stroke:#181818;stroke-width:0.5;"/><path d="M571.5,337 L571.5,347 L581.5,347 L571.5,337 " fill="#FEFFDD" style="stroke:#181818;stroke-width:0.5;"/><text fill="#000000" font-family="sans-serif" font-size="13" lengthAdjust="spacing" textLength="91" x="475.5" y="355.4951">Next process is</text><text fill="#000000" font-family="sans-serif" font-size="13" lengthAdjust="spacing" textLength="89" x="475.5" y="371.8467">Spred or Mkdir.</text></g><!--MD5=[92f5fbe86901331f4c0af9e1133daa86]
entity err--><g id="elem_err"><path d="M300.5,550 L342.5,550 C347.5,550 347.5,563.8047 347.5,563.8047 C347.5,563.8047 347.5,577.6094 342.5,577.6094 L300.5,577.6094 C295.5,577.6094 295.5,563.8047 295.5,563.8047 C295.5,563.8047 295.5,550 300.5,550 " fill="#CC6699" style="stroke:#0000FF;stroke-width:0.5;"/><path d="M342.5,550 C337.5,550 337.5,563.8047 337.5,563.8047 C337.5,577.6094 342.5,577.6094 342.5,577.6094 " fill="none" style="stroke:#0000FF;stroke-width:0.5;"/><text fill="#000000" font-family="sans-serif" font-size="14" lengthAdjust="spacing" textLength="32" x="300.5" y="569.5332">Error</text></g><!--MD5=[22efa60cf2b4332bf8574b0c93969d71]
entity end--><g id="elem_end"><ellipse cx="391.5" cy="564" fill="#CCFF33" rx="8" ry="8" style="stroke:#181818;stroke-width:0.5;"/><text fill="#000000" font-family="sans-serif" font-size="14" lengthAdjust="spacing" textLength="24" x="379.5" y="595.5332">end</text></g><!--MD5=[46ae84c9e4b94c986c753de3247af5ad]
link start to split_proc--><g id="link_start_split_proc"><path d="M248.66,32 C253.56,32 258.46,32 263.35,32 " fill="none" id="start-to-split_proc" style="stroke:#00BFFF;stroke-width:1.0;"/><polygon fill="none" points="263.48,25,283.48,32,263.48,39,263.48,25" style="stroke:#00BFFF;stroke-width:1.0;"/></g><!--MD5=[ff9ebe33644ea2cb0ff22f31693c8b88]
link split_proc to split_q--><g id="link_split_proc_split_q"><path d="M283.44,53.64 C236.63,70.39 169.17,94.8 110.5,117 C107.5,118.14 104.41,119.31 101.31,120.51 " fill="none" id="split_proc-to-split_q" style="stroke:#00BFFF;stroke-width:1.0;"/><polygon fill="none" points="103.54,127.15,82.36,127.89,98.46,114.11,103.54,127.15" style="stroke:#00BFFF;stroke-width:1.0;"/></g><!--MD5=[12cd5d76f0e65352ab6f4dee1eb8cb7d]
link split_q to generate_root_worker--><g id="link_split_q_generate_root_worker"><path d="M93.01,142 C98.04,142 103.07,142 108.1,142 " fill="none" id="split_q-to-generate_root_worker" style="stroke:#00BFFF;stroke-width:1.0;"/><polygon fill="none" points="108.13,135,128.13,142,108.13,149,108.13,135" style="stroke:#00BFFF;stroke-width:1.0;"/></g><!--MD5=[b33f49e90cd4e1fd8720b8291fe977c4]
link generate_root_worker to root_q--><g id="link_generate_root_worker_root_q"><path d="M214.5,167.24 C214.5,182.2 214.5,201.6 214.5,217.96 " fill="none" id="generate_root_worker-to-root_q" style="stroke:#00BFFF;stroke-width:1.0;"/><polygon fill="none" points="221.5,217.99,214.5,237.99,207.5,217.99,221.5,217.99" style="stroke:#00BFFF;stroke-width:1.0;"/></g><!--MD5=[a2cfaee57afe5b9845ef0994b8c4ab3e]
link root_q to grow_worker--><g id="link_root_q_grow_worker"><path d="M257.56,252 C262.63,252 267.7,252 272.78,252 " fill="none" id="root_q-to-grow_worker" style="stroke:#00BFFF;stroke-width:1.0;"/><polygon fill="none" points="272.98,245,292.98,252,272.98,259,272.98,245" style="stroke:#00BFFF;stroke-width:1.0;"/></g><!--MD5=[721c3eb2ec58c4fb8b852468b49ceef6]
link grow_worker to growing_q--><g id="link_grow_worker_growing_q"><path d="M365.27,277.24 C365.13,291.17 364.97,308.88 364.82,324.12 " fill="none" id="grow_worker-to-growing_q" style="stroke:#00BFFF;stroke-width:1.0;"/><polygon fill="none" points="371.82,324.31,364.63,344.24,357.82,324.17,371.82,324.31" style="stroke:#00BFFF;stroke-width:1.0;"/></g><!--MD5=[de34a8e20bc479fcbeeac231718bc084]
link growing_q to spread_worker--><g id="link_growing_q_spread_worker"><path d="M359.05,372.73 C354.03,384.95 346.29,403.76 339.14,421.14 " fill="none" id="growing_q-to-spread_worker" style="stroke:#00BFFF;stroke-width:1.0;"/><polygon fill="none" points="345.57,423.9,331.49,439.73,332.62,418.57,345.57,423.9" style="stroke:#00BFFF;stroke-width:1.0;"/></g><!--MD5=[be6142c83553d78fb2a5714d092f81e4]
link growing_q to mkdir_worker--><g id="link_growing_q_mkdir_worker"><path d="M382.45,372.52 C401.43,386.3 432.24,408.66 458.64,427.82 " fill="none" id="growing_q-to-mkdir_worker" style="stroke:#00BFFF;stroke-width:1.0;"/><polygon fill="none" points="463.11,422.41,475.19,439.83,454.89,433.75,463.11,422.41" style="stroke:#00BFFF;stroke-width:1.0;"/></g><!--MD5=[f3bd1d73580b57b56f7fe96af5adf6d3]
link split_proc to err--><g id="link_split_proc_err"><path d="M399.74,47.87 C485.19,73.6 634.5,135.13 634.5,251 C634.5,251 634.5,251 634.5,359.5 C634.5,419.55 642.22,447.8 599.5,490 C522.82,565.76 468.34,521.06 364.5,550 C360.7,551.06 356.72,552.21 352.78,553.37 " fill="none" id="split_proc-to-err" style="stroke:#00BFFF;stroke-width:1.0;stroke-dasharray:7.0,7.0;"/><polygon fill="#00BFFF" points="347.83,554.84,357.5981,556.0986,352.6211,553.4098,355.3098,548.4328,347.83,554.84" style="stroke:#00BFFF;stroke-width:1.0;"/></g><!--MD5=[2af9d0b8b280e303bad4da65c9de09bf]
link generate_root_worker to err--><g id="link_generate_root_worker_err"><path d="M190.6,167.11 C176.84,182.75 160.85,204.37 153.5,227 C146.64,248.14 150.55,254.97 153.5,277 C166.5,374.25 154.06,410.46 211.5,490 C231.58,517.81 265.79,538.06 290.73,550.08 " fill="none" id="generate_root_worker-to-err" style="stroke:#00BFFF;stroke-width:1.0;stroke-dasharray:7.0,7.0;"/><polygon fill="#00BFFF" points="295.28,552.23,288.8648,544.757,290.7631,550.0859,285.4342,551.9841,295.28,552.23" style="stroke:#00BFFF;stroke-width:1.0;"/></g><!--MD5=[6a2f56d04372cd3412aabdbb8abb6d4a]
link grow_worker to err--><g id="link_grow_worker_err"><path d="M335.31,277.32 C317.07,293.04 294.19,314.67 277.5,337 C246.67,378.23 236.62,389.96 224.5,440 C219.27,461.6 214.58,470.12 224.5,490 C238.26,517.58 267.96,537.47 290.89,549.46 " fill="none" id="grow_worker-to-err" style="stroke:#00BFFF;stroke-width:1.0;stroke-dasharray:7.0,7.0;"/><polygon fill="#00BFFF" points="295.38,551.75,289.1774,544.0996,290.9251,549.4797,285.545,551.2274,295.38,551.75" style="stroke:#00BFFF;stroke-width:1.0;"/></g><!--MD5=[4d6df10a41f337433cb46b53694d361b]
link spread_worker to err--><g id="link_spread_worker_err"><path d="M321.5,490.48 C321.5,507.27 321.5,529.21 321.5,544.54 " fill="none" id="spread_worker-to-err" style="stroke:#00BFFF;stroke-width:1.0;stroke-dasharray:7.0,7.0;"/><polygon fill="#00BFFF" points="321.5,549.87,325.5,540.87,321.5,544.87,317.5,540.87,321.5,549.87" style="stroke:#00BFFF;stroke-width:1.0;"/></g><!--MD5=[42fa6a13b790d08fe85dae211caa4f77]
link mkdir_worker to err--><g id="link_mkdir_worker_err"><path d="M461.79,490.23 C427.19,508.18 381.06,532.1 351.32,547.53 " fill="none" id="mkdir_worker-to-err" style="stroke:#00BFFF;stroke-width:1.0;stroke-dasharray:7.0,7.0;"/><polygon fill="#00BFFF" points="346.69,549.93,356.5214,549.3446,351.1303,547.6313,352.8436,542.2402,346.69,549.93" style="stroke:#00BFFF;stroke-width:1.0;"/></g><!--MD5=[2b18519454eea98071e106e43a365904]
link err to end--><g id="link_err_end"><path d="M347.75,564 C352.51,564 357.28,564 362.04,564 " fill="none" id="err-to-end" style="stroke:#00BFFF;stroke-width:1.0;"/><polygon fill="none" points="362.27,557,382.27,564,362.27,571,362.27,557" style="stroke:#00BFFF;stroke-width:1.0;"/></g><!--MD5=[a410497af07d51f9c68b966e5ef970ab]
@startuml
skinparam {
  backgroundColor DarkCyan

  InterfaceBackgroundColor #CCFF33
  ArrowColor DeepSkyBlue
  QueueBorderColor blue
  QueueBackgroundColor DeepSkyBlue
}

interface start

control "Split input process" as split_proc
control "Generate Root worker(x10)" as generate_root_worker
control "Grow Root worker(x10)" as grow_worker
control "Spread Root worker(x10)" as spread_worker
control "Mkdir Root worker(x10)" as mkdir_worker

queue "Root block" as split_q
queue "Root node" as root_q
queue "Growed Root node" as growing_q
note right of growing_q
Next process is
Spred or Mkdir.
end note

queue Error as err #CC6699
interface end

start -|> split_proc
split_proc - -|> split_q
split_q -|> generate_root_worker
generate_root_worker - -|> root_q
root_q -|> grow_worker
grow_worker - -|> growing_q

growing_q -|> spread_worker
growing_q - -|> mkdir_worker

split_proc ..> err
generate_root_worker ..> err
grow_worker ..> err
spread_worker ..> err
mkdir_worker ..> err

err -|> end
@enduml

PlantUML version 1.2022.7(Tue Aug 23 02:01:30 JST 2022)
(GPL source distribution)
Java Runtime: OpenJDK Runtime Environment
JVM: OpenJDK 64-Bit Server VM
Default Encoding: MS932
Language: ja
Country: JP
--></g></svg>