<?xml version="1.0" encoding="UTF-8" standalone="no"?><svg xmlns="http://www.w3.org/2000/svg" xmlns:xlink="http://www.w3.org/1999/xlink" contentStyleType="text/css" height="876px" preserveAspectRatio="none" style="width:570px;height:876px;background:#008B8B;" version="1.1" viewBox="0 0 570 876" width="570px" zoomAndPan="magnify"><defs/><g><!--MD5=[6328af41db0f7dbb733c9192827ed26b]
cluster pipeline--><g id="cluster_pipeline"><rect fill="none" height="793.72" rx="2.5" ry="2.5" style="stroke:#181818;stroke-width:1.0;" width="509" x="7" y="77"/><path d="M74,77 L74,87.6094 L64,97.6094 L7,97.6094 " fill="none" style="stroke:#181818;stroke-width:1.0;"/><text fill="#000000" font-family="sans-serif" font-size="14" font-weight="bold" lengthAdjust="spacing" textLength="57" x="10" y="92.5332">Pipeline</text></g><!--MD5=[dfbaac2615e6b58919aa7dca9cc5848c]
entity split_proc--><g id="elem_split_proc"><ellipse cx="261" cy="181.72" fill="#F1F1F1" rx="12" ry="12" style="stroke:#181818;stroke-width:0.5;"/><polygon fill="#181818" points="257,169.72,263,164.72,261,169.72,263,174.72,257,169.72" style="stroke:#181818;stroke-width:1.0;"/><text fill="#000000" font-family="sans-serif" font-size="14" lengthAdjust="spacing" textLength="116" x="203" y="212.2532">Split input process</text></g><!--MD5=[883626f3ee9e613e4e1695c2a8f9e35f]
entity generate_root_worker--><g id="elem_generate_root_worker"><ellipse cx="242" cy="291.72" fill="#F1F1F1" rx="12" ry="12" style="stroke:#181818;stroke-width:0.5;"/><polygon fill="#181818" points="238,279.72,244,274.72,242,279.72,244,284.72,238,279.72" style="stroke:#181818;stroke-width:1.0;"/><text fill="#000000" font-family="sans-serif" font-size="14" lengthAdjust="spacing" textLength="177" x="153.5" y="322.2532">Generate Root (10 workers)</text></g><!--MD5=[d42658a875e6b366d8ed22b8f1d49d51]
entity grow_worker--><g id="elem_grow_worker"><ellipse cx="264" cy="401.72" fill="#F1F1F1" rx="12" ry="12" style="stroke:#181818;stroke-width:0.5;"/><polygon fill="#181818" points="260,389.72,266,384.72,264,389.72,266,394.72,260,389.72" style="stroke:#181818;stroke-width:1.0;"/><text fill="#000000" font-family="sans-serif" font-size="14" lengthAdjust="spacing" textLength="150" x="189" y="432.2532">Grow Root (10 workers)</text></g><!--MD5=[d0e066c1a14392698745467dd17d345b]
entity spread_worker--><g id="elem_spread_worker"><ellipse cx="187" cy="614.72" fill="#F1F1F1" rx="12" ry="12" style="stroke:#181818;stroke-width:0.5;"/><polygon fill="#181818" points="183,602.72,189,597.72,187,602.72,189,607.72,183,602.72" style="stroke:#181818;stroke-width:1.0;"/><text fill="#000000" font-family="sans-serif" font-size="14" lengthAdjust="spacing" textLength="163" x="105.5" y="645.2532">Spread Root (10 workers)</text></g><!--MD5=[dabf35e28b0fe3e280879f10955a7220]
entity mkdir_worker--><g id="elem_mkdir_worker"><ellipse cx="379" cy="614.72" fill="#F1F1F1" rx="12" ry="12" style="stroke:#181818;stroke-width:0.5;"/><polygon fill="#181818" points="375,602.72,381,597.72,379,602.72,381,607.72,375,602.72" style="stroke:#181818;stroke-width:1.0;"/><text fill="#000000" font-family="sans-serif" font-size="14" lengthAdjust="spacing" textLength="151" x="303.5" y="645.2532">Mkdir Root (10 workers)</text></g><!--MD5=[c5c948d6d2820c5c03fe633a7cc80e1b]
entity error_handler--><g id="elem_error_handler"><ellipse cx="385" cy="812.72" fill="#F1F1F1" rx="12" ry="12" style="stroke:#181818;stroke-width:0.5;"/><polygon fill="#181818" points="381,800.72,387,795.72,385,800.72,387,805.72,381,800.72" style="stroke:#181818;stroke-width:1.0;"/><text fill="#000000" font-family="sans-serif" font-size="14" lengthAdjust="spacing" textLength="80" x="345" y="843.2532">Handle Error</text></g><!--MD5=[bdc70ded9b301535bd788a3720b71b1a]
entity split_q--><g id="elem_split_q"><path d="M36.5,286.72 L113.5,286.72 C118.5,286.72 118.5,300.5247 118.5,300.5247 C118.5,300.5247 118.5,314.3294 113.5,314.3294 L36.5,314.3294 C31.5,314.3294 31.5,300.5247 31.5,300.5247 C31.5,300.5247 31.5,286.72 36.5,286.72 " fill="#00BFFF" style="stroke:#0000FF;stroke-width:0.5;"/><path d="M113.5,286.72 C108.5,286.72 108.5,300.5247 108.5,300.5247 C108.5,314.3294 113.5,314.3294 113.5,314.3294 " fill="none" style="stroke:#0000FF;stroke-width:0.5;"/><text fill="#000000" font-family="sans-serif" font-size="14" lengthAdjust="spacing" textLength="67" x="36.5" y="306.2532">Root block</text></g><!--MD5=[6e6f018fbbc8ddecf21b773d66d61cba]
entity root_q--><g id="elem_root_q"><path d="M73,396.72 L149,396.72 C154,396.72 154,410.5247 154,410.5247 C154,410.5247 154,424.3294 149,424.3294 L73,424.3294 C68,424.3294 68,410.5247 68,410.5247 C68,410.5247 68,396.72 73,396.72 " fill="#00BFFF" style="stroke:#0000FF;stroke-width:0.5;"/><path d="M149,396.72 C144,396.72 144,410.5247 144,410.5247 C144,424.3294 149,424.3294 149,424.3294 " fill="none" style="stroke:#0000FF;stroke-width:0.5;"/><text fill="#000000" font-family="sans-serif" font-size="14" lengthAdjust="spacing" textLength="66" x="73" y="416.2532">Root node</text></g><!--MD5=[759ebcdd875c10595d278c9d978c4973]
entity growing_q--><g id="elem_growing_q"><path d="M173.5,503.22 L302.5,503.22 C307.5,503.22 307.5,517.0247 307.5,517.0247 C307.5,517.0247 307.5,530.8294 302.5,530.8294 L173.5,530.8294 C168.5,530.8294 168.5,517.0247 168.5,517.0247 C168.5,517.0247 168.5,503.22 173.5,503.22 " fill="#00BFFF" style="stroke:#0000FF;stroke-width:0.5;"/><path d="M302.5,503.22 C297.5,503.22 297.5,517.0247 297.5,517.0247 C297.5,530.8294 302.5,530.8294 302.5,530.8294 " fill="none" style="stroke:#0000FF;stroke-width:0.5;"/><text fill="#000000" font-family="sans-serif" font-size="14" lengthAdjust="spacing" textLength="119" x="173.5" y="522.7532">Growed Root node</text></g><g id="elem_GMN15"><path d="M343,495.72 L343,513.22 L307.81,517.22 L343,521.22 L343,538.4231 A0,0 0 0 0 343,538.4231 L455,538.4231 A0,0 0 0 0 455,538.4231 L455,505.72 L445,495.72 L343,495.72 A0,0 0 0 0 343,495.72 " fill="#FEFFDD" style="stroke:#181818;stroke-width:0.5;"/><path d="M445,495.72 L445,505.72 L455,505.72 L445,495.72 " fill="#FEFFDD" style="stroke:#181818;stroke-width:0.5;"/><text fill="#000000" font-family="sans-serif" font-size="13" lengthAdjust="spacing" textLength="91" x="349" y="514.2151">Next process is</text><text fill="#000000" font-family="sans-serif" font-size="13" lengthAdjust="spacing" textLength="89" x="349" y="530.5667">Spred or Mkdir.</text></g><!--MD5=[92f5fbe86901331f4c0af9e1133daa86]
entity err--><g id="elem_err"><path d="M232,708.72 L274,708.72 C279,708.72 279,722.5247 279,722.5247 C279,722.5247 279,736.3294 274,736.3294 L232,736.3294 C227,736.3294 227,722.5247 227,722.5247 C227,722.5247 227,708.72 232,708.72 " fill="#CC6699" style="stroke:#0000FF;stroke-width:0.5;"/><path d="M274,708.72 C269,708.72 269,722.5247 269,722.5247 C269,736.3294 274,736.3294 274,736.3294 " fill="none" style="stroke:#0000FF;stroke-width:0.5;"/><text fill="#000000" font-family="sans-serif" font-size="14" lengthAdjust="spacing" textLength="32" x="232" y="728.2532">Error</text></g><!--MD5=[c88a36799ca4d6dff2d7449eacfc25f7]
entity start--><g id="elem_start"><ellipse cx="79" cy="26" fill="#CCFF33" rx="8" ry="8" style="stroke:#181818;stroke-width:0.5;"/><text fill="#000000" font-family="sans-serif" font-size="14" lengthAdjust="spacing" textLength="46" x="56" y="57.5332">START</text></g><!--MD5=[51c034416ef3849be90743176de816fb]
entity init--><g id="elem_init"><rect fill="#F1F1F1" height="37.6094" rx="2.5" ry="2.5" style="stroke:#181818;stroke-width:0.5;" width="276" x="123" y="7"/><text fill="#000000" font-family="sans-serif" font-size="14" lengthAdjust="spacing" textLength="256" x="133" y="31.5332">Launch process and workers for pipeline</text></g><!--MD5=[22efa60cf2b4332bf8574b0c93969d71]
entity end--><g id="elem_end"><ellipse cx="549" cy="821.72" fill="#CCFF33" rx="8" ry="8" style="stroke:#181818;stroke-width:0.5;"/><text fill="#000000" font-family="sans-serif" font-size="14" lengthAdjust="spacing" textLength="28" x="535" y="853.2532">END</text></g><!--MD5=[454b0b980ae1095b7473d8b1e9bb6cba]
link start to init--><g id="link_start_init"><path d="M88.24,26 C93.13,26 98.02,26 102.9,26 " fill="none" id="start-to-init" style="stroke:#00BFFF;stroke-width:1.0;"/><polygon fill="none" points="103,19,123,26,103,33,103,19" style="stroke:#00BFFF;stroke-width:1.0;"/></g><!--MD5=[7060c70beb0e2460c89b992bca283af7]
link init to pipeline--><g id="link_init_pipeline"><path d="M261,45.33 C261,50.87 261,57.1888 261,63.5842 C261,66.782 261,69.9989 261,73.1472 C261,73.9343 261,74.7171 261,75.4942 C261,75.8828 261,76.27 261,76.6555 C261,76.7519 261,76.8482 261,76.9444 " fill="none" id="init-to-pipeline" style="stroke:#00BFFF;stroke-width:1.0;"/><polygon fill="#008B8B" points="261,76.9444,268,57.9444,254,57.9444,261,76.9444" style="stroke:#00BFFF;stroke-width:1.0;"/></g><!--MD5=[4bc466e259f359bb306de2e4df9da546]
link pipeline to split_proc--><g id="link_pipeline_split_proc"><path d="M261,105.78 C261,106.98 261,125.83 261,145.35 " fill="none" id="pipeline-to-split_proc" style="stroke:#00BFFF;stroke-width:1.0;"/><polygon fill="none" points="268,145.62,261,165.62,254,145.62,268,145.62" style="stroke:#00BFFF;stroke-width:1.0;"/></g><!--MD5=[ff9ebe33644ea2cb0ff22f31693c8b88]
link split_proc to split_q--><g id="link_split_proc_split_q"><path d="M219.26,215.96 C188.04,234.09 145.61,258.72 114.85,276.58 " fill="none" id="split_proc-to-split_q" style="stroke:#00BFFF;stroke-width:1.0;"/><polygon fill="none" points="118.22,282.72,97.41,286.71,111.19,270.61,118.22,282.72" style="stroke:#00BFFF;stroke-width:1.0;"/></g><!--MD5=[12cd5d76f0e65352ab6f4dee1eb8cb7d]
link split_q to generate_root_worker--><g id="link_split_q_generate_root_worker"><path d="M118.71,300.72 C123.58,300.72 128.46,300.72 133.34,300.72 " fill="none" id="split_q-to-generate_root_worker" style="stroke:#00BFFF;stroke-width:1.0;"/><polygon fill="none" points="133.38,293.72,153.38,300.72,133.38,307.72,133.38,293.72" style="stroke:#00BFFF;stroke-width:1.0;"/></g><!--MD5=[b33f49e90cd4e1fd8720b8291fe977c4]
link generate_root_worker to root_q--><g id="link_generate_root_worker_root_q"><path d="M212.6,325.96 C191.75,343.15 163.81,366.18 142.5,383.75 " fill="none" id="generate_root_worker-to-root_q" style="stroke:#00BFFF;stroke-width:1.0;"/><polygon fill="none" points="146.67,389.38,126.79,396.71,137.76,378.58,146.67,389.38" style="stroke:#00BFFF;stroke-width:1.0;"/></g><!--MD5=[a2cfaee57afe5b9845ef0994b8c4ab3e]
link root_q to grow_worker--><g id="link_root_q_grow_worker"><path d="M154.03,410.72 C158.92,410.72 163.82,410.72 168.71,410.72 " fill="none" id="root_q-to-grow_worker" style="stroke:#00BFFF;stroke-width:1.0;"/><polygon fill="none" points="168.83,403.72,188.83,410.72,168.83,417.72,168.83,403.72" style="stroke:#00BFFF;stroke-width:1.0;"/></g><!--MD5=[721c3eb2ec58c4fb8b852468b49ceef6]
link grow_worker to growing_q--><g id="link_grow_worker_growing_q"><path d="M257.97,435.96 C254.46,450.05 249.99,468.02 246.17,483.37 " fill="none" id="grow_worker-to-growing_q" style="stroke:#00BFFF;stroke-width:1.0;"/><polygon fill="none" points="252.92,485.24,241.3,502.96,239.34,481.86,252.92,485.24" style="stroke:#00BFFF;stroke-width:1.0;"/></g><!--MD5=[de34a8e20bc479fcbeeac231718bc084]
link growing_q to spread_worker--><g id="link_growing_q_spread_worker"><path d="M231.54,531.45 C225.52,543.8 216.2,562.89 207.64,580.42 " fill="none" id="growing_q-to-spread_worker" style="stroke:#00BFFF;stroke-width:1.0;"/><polygon fill="none" points="213.91,583.54,198.85,598.45,201.33,577.4,213.91,583.54" style="stroke:#00BFFF;stroke-width:1.0;"/></g><!--MD5=[be6142c83553d78fb2a5714d092f81e4]
link growing_q to mkdir_worker--><g id="link_growing_q_mkdir_worker"><path d="M255.57,531.24 C274.16,545.02 304.33,567.38 330.18,586.54 " fill="none" id="growing_q-to-mkdir_worker" style="stroke:#00BFFF;stroke-width:1.0;"/><polygon fill="none" points="334.48,581.01,346.38,598.55,326.15,592.26,334.48,581.01" style="stroke:#00BFFF;stroke-width:1.0;"/></g><!--MD5=[f3bd1d73580b57b56f7fe96af5adf6d3]
link split_proc to err--><g id="link_split_proc_err"><path d="M318.15,215.74 C386.27,248.64 491,314.68 491,409.72 C491,409.72 491,409.72 491,518.22 C491,576.83 509.62,603.77 472,648.72 C424.72,705.21 332.44,718.21 284.15,721.06 " fill="none" id="split_proc-to-err" style="stroke:#00BFFF;stroke-width:1.0;stroke-dasharray:7.0,7.0;"/><polygon fill="#00BFFF" points="279.05,721.33,288.2536,724.8363,284.0426,721.059,287.8199,716.848,279.05,721.33" style="stroke:#00BFFF;stroke-width:1.0;"/></g><!--MD5=[2af9d0b8b280e303bad4da65c9de09bf]
link generate_root_worker to err--><g id="link_generate_root_worker_err"><path d="M165.6,325.74 C118.51,342.26 64.59,364.9 51,385.72 C38.85,404.33 49.86,413.53 51,435.72 C55.9,530.76 15.84,572.62 73,648.72 C108.64,696.17 180.33,712.88 221.68,718.69 " fill="none" id="generate_root_worker-to-err" style="stroke:#00BFFF;stroke-width:1.0;stroke-dasharray:7.0,7.0;"/><polygon fill="#00BFFF" points="226.81,719.38,218.4283,714.2082,221.8552,718.7089,217.3546,722.1358,226.81,719.38" style="stroke:#00BFFF;stroke-width:1.0;"/></g><!--MD5=[6a2f56d04372cd3412aabdbb8abb6d4a]
link grow_worker to err--><g id="link_grow_worker_err"><path d="M224.13,435.86 C201.02,451.13 172.35,472.35 151,495.72 C114.81,535.34 102.54,547.07 88,598.72 C81.98,620.11 75.88,630.1 88,648.72 C117.61,694.19 182.69,711.55 221.69,718.02 " fill="none" id="grow_worker-to-err" style="stroke:#00BFFF;stroke-width:1.0;stroke-dasharray:7.0,7.0;"/><polygon fill="#00BFFF" points="226.78,718.83,218.522,713.463,221.8424,718.0428,217.2625,721.3632,226.78,718.83" style="stroke:#00BFFF;stroke-width:1.0;"/></g><!--MD5=[4d6df10a41f337433cb46b53694d361b]
link spread_worker to err--><g id="link_spread_worker_err"><path d="M203.65,649.2 C215.28,666.29 230.53,688.7 240.98,704.06 " fill="none" id="spread_worker-to-err" style="stroke:#00BFFF;stroke-width:1.0;stroke-dasharray:7.0,7.0;"/><polygon fill="#00BFFF" points="244.06,708.59,242.2959,698.9004,241.2438,704.4586,235.6856,703.4064,244.06,708.59" style="stroke:#00BFFF;stroke-width:1.0;"/></g><!--MD5=[42fa6a13b790d08fe85dae211caa4f77]
link mkdir_worker to err--><g id="link_mkdir_worker_err"><path d="M347.53,648.95 C324.66,666.55 294.33,689.9 274.27,705.35 " fill="none" id="mkdir_worker-to-err" style="stroke:#00BFFF;stroke-width:1.0;stroke-dasharray:7.0,7.0;"/><polygon fill="#00BFFF" points="270.15,708.52,279.7176,706.1831,274.1067,705.4632,274.8267,699.8523,270.15,708.52" style="stroke:#00BFFF;stroke-width:1.0;"/></g><!--MD5=[df6883b0b94ffb8cc8ab9a903d49ed69]
link err to error_handler--><g id="link_err_error_handler"><path d="M270.8,736.8 C287.48,749.06 313.19,767.95 336,784.71 " fill="none" id="err-to-error_handler" style="stroke:#00BFFF;stroke-width:1.0;"/><polygon fill="none" points="340.33,779.2,352.3,796.69,332.04,790.49,340.33,779.2" style="stroke:#00BFFF;stroke-width:1.0;"/></g><!--MD5=[0bb1f239f0087c15a42ea90f85b82673]
link error_handler to end--><g id="link_error_handler_end"><path d="M425.04,821.72 C456.57,821.72 488.1,821.72 519.63,821.72 " fill="none" id="error_handler-to-end" style="stroke:#00BFFF;stroke-width:1.0;"/><polygon fill="none" points="519.8,814.72,539.8,821.72,519.8,828.72,519.8,814.72" style="stroke:#00BFFF;stroke-width:1.0;"/></g><!--MD5=[a37a5fb2f46466e337dc5e620d34f3fa]
@startuml
skinparam {
  backgroundColor DarkCyan

  InterfaceBackgroundColor #CCFF33
  ComponentStyle rectangle
  ArrowColor DeepSkyBlue
  QueueBorderColor blue
  QueueBackgroundColor DeepSkyBlue
}


' stages
interface "START" as start

[Launch process and workers for pipeline] as init

frame "Pipeline" as pipeline {
  control "Split input process" as split_proc
  control "Generate Root (10 workers)" as generate_root_worker
  control "Grow Root (10 workers)" as grow_worker
  control "Spread Root (10 workers)" as spread_worker
  control "Mkdir Root (10 workers)" as mkdir_worker
  control "Handle Error" as error_handler

  queue "Root block" as split_q
  queue "Root node" as root_q
  queue "Growed Root node" as growing_q
  note right of growing_q
  Next process is
  Spred or Mkdir.
  end note
  queue Error as err #CC6699
}

interface "END" as end


' flow
start -|> init
init - -|> pipeline
pipeline - -|> split_proc
split_proc - -|> split_q
split_q -|> generate_root_worker
generate_root_worker - -|> root_q
root_q -|> grow_worker
grow_worker - -|> growing_q
growing_q -|> spread_worker
growing_q - -|> mkdir_worker

split_proc ..> err
generate_root_worker ..> err
grow_worker ..> err
spread_worker ..> err
mkdir_worker ..> err

err - -|> error_handler
error_handler -|> end
@enduml

@startuml
skinparam {
  backgroundColor DarkCyan

  InterfaceBackgroundColor #CCFF33
  ComponentStyle rectangle
  ArrowColor DeepSkyBlue
  QueueBorderColor blue
  QueueBackgroundColor DeepSkyBlue
}


interface "START" as start

[Launch process and workers for pipeline] as init

frame "Pipeline" as pipeline {
  control "Split input process" as split_proc
  control "Generate Root (10 workers)" as generate_root_worker
  control "Grow Root (10 workers)" as grow_worker
  control "Spread Root (10 workers)" as spread_worker
  control "Mkdir Root (10 workers)" as mkdir_worker
  control "Handle Error" as error_handler

  queue "Root block" as split_q
  queue "Root node" as root_q
  queue "Growed Root node" as growing_q
  note right of growing_q
  Next process is
  Spred or Mkdir.
  end note
  queue Error as err #CC6699
}

interface "END" as end


start -|> init
init - -|> pipeline
pipeline - -|> split_proc
split_proc - -|> split_q
split_q -|> generate_root_worker
generate_root_worker - -|> root_q
root_q -|> grow_worker
grow_worker - -|> growing_q
growing_q -|> spread_worker
growing_q - -|> mkdir_worker

split_proc ..> err
generate_root_worker ..> err
grow_worker ..> err
spread_worker ..> err
mkdir_worker ..> err

err - -|> error_handler
error_handler -|> end
@enduml

PlantUML version 1.2022.7(Tue Aug 23 02:01:30 JST 2022)
(GPL source distribution)
Java Runtime: OpenJDK Runtime Environment
JVM: OpenJDK 64-Bit Server VM
Default Encoding: MS932
Language: ja
Country: JP
--></g></svg>