<?xml version="1.0" encoding="UTF-8" standalone="no"?><svg xmlns="http://www.w3.org/2000/svg" xmlns:xlink="http://www.w3.org/1999/xlink" contentStyleType="text/css" height="255px" preserveAspectRatio="none" style="width:462px;height:255px;background:#008B8B;" version="1.1" viewBox="0 0 462 255" width="462px" zoomAndPan="magnify"><defs/><g><!--MD5=[c88a36799ca4d6dff2d7449eacfc25f7]
entity start--><g id="elem_start"><ellipse cx="20" cy="20" fill="#FF69B4" rx="8" ry="8" style="stroke:#181818;stroke-width:0.5;"/><text fill="#000000" font-family="sans-serif" font-size="14" lengthAdjust="spacing" textLength="28" x="6" y="51.5332">start</text></g><!--MD5=[7918331046eaf8f8dcd05dd37d72c341]
entity split--><g id="elem_split"><path d="M69,6 L141,6 C146,6 146,19.8047 146,19.8047 C146,19.8047 146,33.6094 141,33.6094 L69,33.6094 C64,33.6094 64,19.8047 64,19.8047 C64,19.8047 64,6 69,6 " fill="#00BFFF" style="stroke:#0000FF;stroke-width:0.5;"/><path d="M141,6 C136,6 136,19.8047 136,19.8047 C136,33.6094 141,33.6094 141,33.6094 " fill="none" style="stroke:#0000FF;stroke-width:0.5;"/><text fill="#000000" font-family="sans-serif" font-size="14" lengthAdjust="spacing" textLength="62" x="69" y="25.5332">Split input</text></g><!--MD5=[eab4eb7d0ef44c19c3b4c8ba4c3c2b5b]
entity root--><g id="elem_root"><path d="M186,6 L262,6 C267,6 267,19.8047 267,19.8047 C267,19.8047 267,33.6094 262,33.6094 L186,33.6094 C181,33.6094 181,19.8047 181,19.8047 C181,19.8047 181,6 186,6 " fill="#00BFFF" style="stroke:#0000FF;stroke-width:0.5;"/><path d="M262,6 C257,6 257,19.8047 257,19.8047 C257,33.6094 262,33.6094 262,33.6094 " fill="none" style="stroke:#0000FF;stroke-width:0.5;"/><text fill="#000000" font-family="sans-serif" font-size="14" lengthAdjust="spacing" textLength="66" x="186" y="25.5332">Root node</text></g><!--MD5=[573ce76f959f339e2c41bfa712801176]
entity growing--><g id="elem_growing"><path d="M309.5,6 L352.5,6 C357.5,6 357.5,19.8047 357.5,19.8047 C357.5,19.8047 357.5,33.6094 352.5,33.6094 L309.5,33.6094 C304.5,33.6094 304.5,19.8047 304.5,19.8047 C304.5,19.8047 304.5,6 309.5,6 " fill="#00BFFF" style="stroke:#0000FF;stroke-width:0.5;"/><path d="M352.5,6 C347.5,6 347.5,19.8047 347.5,19.8047 C347.5,33.6094 352.5,33.6094 352.5,33.6094 " fill="none" style="stroke:#0000FF;stroke-width:0.5;"/><text fill="#000000" font-family="sans-serif" font-size="14" lengthAdjust="spacing" textLength="33" x="309.5" y="25.5332">Grow</text></g><!--MD5=[4d868659fa1e7f7dac5c39ee89a660c5]
entity spreading--><g id="elem_spreading"><path d="M305,112 L361,112 C366,112 366,125.8047 366,125.8047 C366,125.8047 366,139.6094 361,139.6094 L305,139.6094 C300,139.6094 300,125.8047 300,125.8047 C300,125.8047 300,112 305,112 " fill="#00BFFF" style="stroke:#0000FF;stroke-width:0.5;"/><path d="M361,112 C356,112 356,125.8047 356,125.8047 C356,139.6094 361,139.6094 361,139.6094 " fill="none" style="stroke:#0000FF;stroke-width:0.5;"/><text fill="#000000" font-family="sans-serif" font-size="14" lengthAdjust="spacing" textLength="46" x="305" y="131.5332">Spread</text></g><!--MD5=[a77e05b160874e18a9e67f9cd20f0198]
entity mkdiring--><g id="elem_mkdiring"><path d="M406,112 L450,112 C455,112 455,125.8047 455,125.8047 C455,125.8047 455,139.6094 450,139.6094 L406,139.6094 C401,139.6094 401,125.8047 401,125.8047 C401,125.8047 401,112 406,112 " fill="#00BFFF" style="stroke:#0000FF;stroke-width:0.5;"/><path d="M450,112 C445,112 445,125.8047 445,125.8047 C445,139.6094 450,139.6094 450,139.6094 " fill="none" style="stroke:#0000FF;stroke-width:0.5;"/><text fill="#000000" font-family="sans-serif" font-size="14" lengthAdjust="spacing" textLength="34" x="406" y="131.5332">Mkdir</text></g><!--MD5=[92f5fbe86901331f4c0af9e1133daa86]
entity err--><g id="elem_err"><path d="M226,201 L268,201 C273,201 273,214.8047 273,214.8047 C273,214.8047 273,228.6094 268,228.6094 L226,228.6094 C221,228.6094 221,214.8047 221,214.8047 C221,214.8047 221,201 226,201 " fill="#F5F5F5" style="stroke:#0000FF;stroke-width:0.5;"/><path d="M268,201 C263,201 263,214.8047 263,214.8047 C263,228.6094 268,228.6094 268,228.6094 " fill="none" style="stroke:#0000FF;stroke-width:0.5;"/><text fill="#000000" font-family="sans-serif" font-size="14" lengthAdjust="spacing" textLength="32" x="226" y="220.5332">Error</text></g><!--MD5=[22efa60cf2b4332bf8574b0c93969d71]
entity end--><g id="elem_end"><ellipse cx="317" cy="215" fill="#FF69B4" rx="8" ry="8" style="stroke:#181818;stroke-width:0.5;"/><text fill="#000000" font-family="sans-serif" font-size="14" lengthAdjust="spacing" textLength="24" x="305" y="246.5332">end</text></g><!--MD5=[c5454c610b70d0e7aa6da0f639c6ab6b]
link start to split--><g id="link_start_split"><path d="M29.3,20 C34.16,20 39.03,20 43.89,20 " fill="none" id="start-to-split" style="stroke:#00BFFF;stroke-width:1.0;"/><polygon fill="none" points="43.9,13,63.9,20,43.9,27,43.9,13" style="stroke:#00BFFF;stroke-width:1.0;"/></g><!--MD5=[6437421fccc94e244b19d4e7d614d15a]
link split to root--><g id="link_split_root"><path d="M146.37,20 C151.14,20 155.91,20 160.68,20 " fill="none" id="split-to-root" style="stroke:#00BFFF;stroke-width:1.0;"/><polygon fill="none" points="160.94,13,180.94,20,160.94,27,160.94,13" style="stroke:#00BFFF;stroke-width:1.0;"/></g><!--MD5=[a00b9192ab24530c164809a4676a92ab]
link root to growing--><g id="link_root_growing"><path d="M267.05,20 C272.63,20 278.22,20 283.8,20 " fill="none" id="root-to-growing" style="stroke:#00BFFF;stroke-width:1.0;"/><polygon fill="none" points="284.02,13,304.02,20,284.02,27,284.02,13" style="stroke:#00BFFF;stroke-width:1.0;"/></g><!--MD5=[e98c590ff3a24a35804605b138b3e799]
link growing to spreading--><g id="link_growing_spreading"><path d="M331.25,34.17 C331.53,48.55 331.98,72.13 332.36,91.66 " fill="none" id="growing-to-spreading" style="stroke:#00BFFF;stroke-width:1.0;"/><polygon fill="none" points="339.36,91.8,332.75,111.94,325.37,92.07,339.36,91.8" style="stroke:#00BFFF;stroke-width:1.0;"/><text fill="#000000" font-family="sans-serif" font-size="13" lengthAdjust="spacing" textLength="19" x="342" y="78.4951">OR</text></g><!--MD5=[cc35d5492574f30cf0a481633c88d7da]
link growing to mkdiring--><g id="link_growing_mkdiring"><path d="M343.29,34.17 C358.01,49.96 383.07,76.83 402.13,97.27 " fill="none" id="growing-to-mkdiring" style="stroke:#00BFFF;stroke-width:1.0;"/><polygon fill="none" points="407.29,92.53,415.81,111.94,397.05,102.08,407.29,92.53" style="stroke:#00BFFF;stroke-width:1.0;"/></g><!--MD5=[0fdccdbc19953893a38fe59dc7111842]
link split to err--><g id="link_split_err"><path d="M114.34,34.39 C132.81,60.79 175.5,121.31 213,171 C219.48,179.59 226.87,188.98 233.1,196.79 " fill="none" id="split-to-err" style="stroke:#00BFFF;stroke-width:1.0;stroke-dasharray:7.0,7.0;"/><polygon fill="#00BFFF" points="236.43,200.95,233.9185,191.4268,233.3013,197.0498,227.6782,196.4327,236.43,200.95" style="stroke:#00BFFF;stroke-width:1.0;"/></g><!--MD5=[b63cf2843cd3db3b023c74d3d076cb5a]
link root to err--><g id="link_root_err"><path d="M221.25,34.16 C216.24,60.65 207.36,122.07 221,171 C223.52,180.05 228.52,189.09 233.47,196.53 " fill="none" id="root-to-err" style="stroke:#00BFFF;stroke-width:1.0;stroke-dasharray:7.0,7.0;"/><polygon fill="#00BFFF" points="236.52,200.94,234.6789,191.2648,233.671,196.8311,228.1046,195.8232,236.52,200.94" style="stroke:#00BFFF;stroke-width:1.0;"/></g><!--MD5=[9c253facac82cdf396f5b153c4f9eeac]
link growing to err--><g id="link_growing_err"><path d="M322.99,34.22 C312.65,51.63 294.51,83.39 282,112 C269.48,140.62 258.41,175.27 252.22,195.92 " fill="none" id="growing-to-err" style="stroke:#00BFFF;stroke-width:1.0;stroke-dasharray:7.0,7.0;"/><polygon fill="#00BFFF" points="250.76,200.86,257.1611,193.3749,252.1863,196.0677,249.4935,191.0929,250.76,200.86" style="stroke:#00BFFF;stroke-width:1.0;"/></g><!--MD5=[3a72e80fc1e25c1f234ee7df3f67c66b]
link spreading to err--><g id="link_spreading_err"><path d="M319.94,140.21 C304.82,155.5 279.91,180.71 263.48,197.33 " fill="none" id="spreading-to-err" style="stroke:#00BFFF;stroke-width:1.0;stroke-dasharray:7.0,7.0;"/><polygon fill="#00BFFF" points="259.9,200.95,269.0708,197.3588,263.414,197.3931,263.3798,191.7364,259.9,200.95" style="stroke:#00BFFF;stroke-width:1.0;"/></g><!--MD5=[0b1732b07b702b10f9c12d385ac2c401]
link mkdiring to err--><g id="link_mkdiring_err"><path d="M400.9,140.02 C367.87,155.9 312.19,182.67 277.63,199.28 " fill="none" id="mkdiring-to-err" style="stroke:#00BFFF;stroke-width:1.0;stroke-dasharray:7.0,7.0;"/><polygon fill="#00BFFF" points="273.11,201.45,282.954,201.1412,277.6131,199.2771,279.4773,193.9362,273.11,201.45" style="stroke:#00BFFF;stroke-width:1.0;"/></g><!--MD5=[2b18519454eea98071e106e43a365904]
link err to end--><g id="link_err_end"><path d="M273.25,215 C278.01,215 282.78,215 287.54,215 " fill="none" id="err-to-end" style="stroke:#00BFFF;stroke-width:1.0;"/><polygon fill="none" points="287.77,208,307.77,215,287.77,222,287.77,208" style="stroke:#00BFFF;stroke-width:1.0;"/></g><!--MD5=[3100a10f6ffd77836665b078d93d41c0]
@startuml
skinparam {
  backgroundColor DarkCyan

  InterfaceBackgroundColor HotPink
  ArrowColor DeepSkyBlue
  QueueBorderColor blue
  QueueBackgroundColor DeepSkyBlue
}

interface start
queue "Split input" as split
queue "Root node" as root
queue Grow as growing
queue Spread as spreading 
queue Mkdir as mkdiring
queue Error as err #whitesmoke
interface end

start -|> split
split -|> root
root -|> growing
growing - -|> spreading: "  OR"
growing - -|> mkdiring

split ..> err
root ..> err
growing ..> err
spreading ..> err
mkdiring ..> err

err -|> end
@enduml

PlantUML version 1.2022.7(Tue Aug 23 02:01:30 JST 2022)
(GPL source distribution)
Java Runtime: OpenJDK Runtime Environment
JVM: OpenJDK 64-Bit Server VM
Default Encoding: MS932
Language: ja
Country: JP
--></g></svg>