<?xml version="1.0" encoding="UTF-8" standalone="no"?><svg xmlns="http://www.w3.org/2000/svg" xmlns:xlink="http://www.w3.org/1999/xlink" contentStyleType="text/css" height="360px" preserveAspectRatio="none" style="width:345px;height:360px;background:#008B8B;" version="1.1" viewBox="0 0 345 360" width="345px" zoomAndPan="magnify"><defs/><g><!--MD5=[c88a36799ca4d6dff2d7449eacfc25f7]
entity start--><g id="elem_start"><ellipse cx="20" cy="20" fill="#FF69B4" rx="8" ry="8" style="stroke:#181818;stroke-width:0.5;"/><text fill="#000000" font-family="sans-serif" font-size="14" lengthAdjust="spacing" textLength="28" x="6" y="51.5332">start</text></g><!--MD5=[eab4eb7d0ef44c19c3b4c8ba4c3c2b5b]
entity root--><g id="elem_root"><path d="M69,6 L145,6 C150,6 150,19.8047 150,19.8047 C150,19.8047 150,33.6094 145,33.6094 L69,33.6094 C64,33.6094 64,19.8047 64,19.8047 C64,19.8047 64,6 69,6 " fill="#00BFFF" style="stroke:#0000FF;stroke-width:0.5;"/><path d="M145,6 C140,6 140,19.8047 140,19.8047 C140,33.6094 145,33.6094 145,33.6094 " fill="none" style="stroke:#0000FF;stroke-width:0.5;"/><text fill="#000000" font-family="sans-serif" font-size="14" lengthAdjust="spacing" textLength="66" x="69" y="25.5332">Root node</text></g><!--MD5=[573ce76f959f339e2c41bfa712801176]
entity growing--><g id="elem_growing"><path d="M217.5,6 L260.5,6 C265.5,6 265.5,19.8047 265.5,19.8047 C265.5,19.8047 265.5,33.6094 260.5,33.6094 L217.5,33.6094 C212.5,33.6094 212.5,19.8047 212.5,19.8047 C212.5,19.8047 212.5,6 217.5,6 " fill="#00BFFF" style="stroke:#0000FF;stroke-width:0.5;"/><path d="M260.5,6 C255.5,6 255.5,19.8047 255.5,19.8047 C255.5,33.6094 260.5,33.6094 260.5,33.6094 " fill="none" style="stroke:#0000FF;stroke-width:0.5;"/><text fill="#000000" font-family="sans-serif" font-size="14" lengthAdjust="spacing" textLength="33" x="217.5" y="25.5332">Grow</text></g><!--MD5=[4d868659fa1e7f7dac5c39ee89a660c5]
entity spreading--><g id="elem_spreading"><path d="M151,112 L207,112 C212,112 212,125.8047 212,125.8047 C212,125.8047 212,139.6094 207,139.6094 L151,139.6094 C146,139.6094 146,125.8047 146,125.8047 C146,125.8047 146,112 151,112 " fill="#00BFFF" style="stroke:#0000FF;stroke-width:0.5;"/><path d="M207,112 C202,112 202,125.8047 202,125.8047 C202,139.6094 207,139.6094 207,139.6094 " fill="none" style="stroke:#0000FF;stroke-width:0.5;"/><text fill="#000000" font-family="sans-serif" font-size="14" lengthAdjust="spacing" textLength="46" x="151" y="131.5332">Spread</text></g><!--MD5=[a77e05b160874e18a9e67f9cd20f0198]
entity mkdiring--><g id="elem_mkdiring"><path d="M252,112 L296,112 C301,112 301,125.8047 301,125.8047 C301,125.8047 301,139.6094 296,139.6094 L252,139.6094 C247,139.6094 247,125.8047 247,125.8047 C247,125.8047 247,112 252,112 " fill="#00BFFF" style="stroke:#0000FF;stroke-width:0.5;"/><path d="M296,112 C291,112 291,125.8047 291,125.8047 C291,139.6094 296,139.6094 296,139.6094 " fill="none" style="stroke:#0000FF;stroke-width:0.5;"/><text fill="#000000" font-family="sans-serif" font-size="14" lengthAdjust="spacing" textLength="34" x="252" y="131.5332">Mkdir</text></g><!--MD5=[92f5fbe86901331f4c0af9e1133daa86]
entity err--><g id="elem_err"><path d="M205,201 L247,201 C252,201 252,214.8047 252,214.8047 C252,214.8047 252,228.6094 247,228.6094 L205,228.6094 C200,228.6094 200,214.8047 200,214.8047 C200,214.8047 200,201 205,201 " fill="#00BFFF" style="stroke:#0000FF;stroke-width:0.5;"/><path d="M247,201 C242,201 242,214.8047 242,214.8047 C242,228.6094 247,228.6094 247,228.6094 " fill="none" style="stroke:#0000FF;stroke-width:0.5;"/><text fill="#000000" font-family="sans-serif" font-size="14" lengthAdjust="spacing" textLength="32" x="205" y="220.5332">Error</text></g><!--MD5=[22efa60cf2b4332bf8574b0c93969d71]
entity end--><g id="elem_end"><ellipse cx="226" cy="320" fill="#FF69B4" rx="8" ry="8" style="stroke:#181818;stroke-width:0.5;"/><text fill="#000000" font-family="sans-serif" font-size="14" lengthAdjust="spacing" textLength="24" x="214" y="351.5332">end</text></g><!--MD5=[20b58e9a0d14a795e9be0eb41bb3d66e]
link start to root--><g id="link_start_root"><path d="M29.18,20 C34.05,20 38.92,20 43.8,20 " fill="none" id="start-to-root" style="stroke:#00BFFF;stroke-width:1.0;"/><polygon fill="none" points="43.83,13,63.83,20,43.83,27,43.83,13" style="stroke:#00BFFF;stroke-width:1.0;"/></g><!--MD5=[a00b9192ab24530c164809a4676a92ab]
link root to growing--><g id="link_root_growing"><path d="M150.05,20 C163.98,20 177.91,20 191.84,20 " fill="none" id="root-to-growing" style="stroke:#00BFFF;stroke-width:1.0;"/><polygon fill="none" points="192.25,13,212.25,20,192.25,27,192.25,13" style="stroke:#00BFFF;stroke-width:1.0;"/></g><!--MD5=[e98c590ff3a24a35804605b138b3e799]
link growing to spreading--><g id="link_growing_spreading"><path d="M231.4,34.17 C222.7,49.25 208.16,74.46 196.6,94.5 " fill="none" id="growing-to-spreading" style="stroke:#00BFFF;stroke-width:1.0;"/><polygon fill="none" points="202.6,98.11,186.54,111.94,190.47,91.11,202.6,98.11" style="stroke:#00BFFF;stroke-width:1.0;"/><text fill="#000000" font-family="sans-serif" font-size="13" lengthAdjust="spacing" textLength="19" x="222" y="78.4951">OR</text></g><!--MD5=[cc35d5492574f30cf0a481633c88d7da]
link growing to mkdiring--><g id="link_growing_mkdiring"><path d="M243.43,34.17 C248.38,48.86 256.55,73.16 263.21,92.93 " fill="none" id="growing-to-mkdiring" style="stroke:#00BFFF;stroke-width:1.0;"/><polygon fill="none" points="269.86,90.75,269.6,111.94,256.59,95.21,269.86,90.75" style="stroke:#00BFFF;stroke-width:1.0;"/></g><!--MD5=[b63cf2843cd3db3b023c74d3d076cb5a]
link root to err--><g id="link_root_err"><path d="M106.31,34.24 C105.72,57.44 107.3,106.18 128,140 C144,166.14 172.94,186.26 195.24,198.88 " fill="none" id="root-to-err" style="stroke:#00BFFF;stroke-width:1.0;"/><polygon fill="#00BFFF" points="199.89,201.45,193.9455,193.5974,195.5132,199.0327,190.0779,200.6004,199.89,201.45" style="stroke:#00BFFF;stroke-width:1.0;"/></g><!--MD5=[9c253facac82cdf396f5b153c4f9eeac]
link growing to err--><g id="link_growing_err"><path d="M259.15,34.15 C288.86,55.32 338.9,98.74 319,140 C306.2,166.55 278.73,186.51 256.95,198.97 " fill="none" id="growing-to-err" style="stroke:#00BFFF;stroke-width:1.0;"/><polygon fill="#00BFFF" points="252.39,201.51,262.1965,200.5977,256.7513,199.0648,258.2842,193.6196,252.39,201.51" style="stroke:#00BFFF;stroke-width:1.0;"/></g><!--MD5=[3a72e80fc1e25c1f234ee7df3f67c66b]
link spreading to err--><g id="link_spreading_err"><path d="M186.14,140.21 C194.26,155.25 207.56,179.86 216.54,196.49 " fill="none" id="spreading-to-err" style="stroke:#00BFFF;stroke-width:1.0;"/><polygon fill="#00BFFF" points="218.95,200.95,218.2012,191.1296,216.5778,196.5486,211.1589,194.9252,218.95,200.95" style="stroke:#00BFFF;stroke-width:1.0;"/></g><!--MD5=[0b1732b07b702b10f9c12d385ac2c401]
link mkdiring to err--><g id="link_mkdiring_err"><path d="M266.71,140.21 C258.42,155.25 244.83,179.86 235.66,196.49 " fill="none" id="mkdiring-to-err" style="stroke:#00BFFF;stroke-width:1.0;"/><polygon fill="#00BFFF" points="233.2,200.95,241.0444,194.9947,235.6112,196.5698,234.0361,191.1367,233.2,200.95" style="stroke:#00BFFF;stroke-width:1.0;"/></g><!--MD5=[2b18519454eea98071e106e43a365904]
link err to end--><g id="link_err_end"><path d="M226,229.05 C226,244.45 226,270.51 226,290.63 " fill="none" id="err-to-end" style="stroke:#00BFFF;stroke-width:1.0;"/><polygon fill="none" points="233,290.81,226,310.81,219,290.81,233,290.81" style="stroke:#00BFFF;stroke-width:1.0;"/></g><!--MD5=[1dc67a622abff81073e1819c5615c591]
@startuml

skinparam {
  backgroundColor DarkCyan

  InterfaceBackgroundColor HotPink
  ArrowColor DeepSkyBlue
  QueueBorderColor blue
  QueueBackgroundColor DeepSkyBlue
}

interface start
queue "Root node" as root
queue Grow as growing
queue Spread as spreading 
queue Mkdir as mkdiring
queue Error as err
interface end

start -|> root
root -|> growing
growing - -|> spreading: "  OR"
growing - -|> mkdiring

root - -> err
growing - -> err
spreading - -> err
mkdiring - -> err

err - -|> end

@enduml

PlantUML version 1.2022.7(Tue Aug 23 02:01:30 JST 2022)
(GPL source distribution)
Java Runtime: OpenJDK Runtime Environment
JVM: OpenJDK 64-Bit Server VM
Default Encoding: MS932
Language: ja
Country: JP
--></g></svg>