<?xml version="1.0" encoding="UTF-8" standalone="no"?><svg xmlns="http://www.w3.org/2000/svg" xmlns:xlink="http://www.w3.org/1999/xlink" contentStyleType="text/css" height="344px" preserveAspectRatio="none" style="width:298px;height:344px;background:#008B8B;" version="1.1" viewBox="0 0 298 344" width="298px" zoomAndPan="magnify"><defs/><g><!--MD5=[c88a36799ca4d6dff2d7449eacfc25f7]
entity start--><g id="elem_start"><ellipse cx="165.5" cy="20" fill="#FF69B4" rx="8" ry="8" style="stroke:#181818;stroke-width:0.5;"/><text fill="#000000" font-family="sans-serif" font-size="14" lengthAdjust="spacing" textLength="28" x="151.5" y="51.5332">start</text></g><!--MD5=[7918331046eaf8f8dcd05dd37d72c341]
entity split--><g id="elem_split"><path d="M214.5,6 L286.5,6 C291.5,6 291.5,19.8047 291.5,19.8047 C291.5,19.8047 291.5,33.6094 286.5,33.6094 L214.5,33.6094 C209.5,33.6094 209.5,19.8047 209.5,19.8047 C209.5,19.8047 209.5,6 214.5,6 " fill="#00BFFF" style="stroke:#0000FF;stroke-width:0.5;"/><path d="M286.5,6 C281.5,6 281.5,19.8047 281.5,19.8047 C281.5,33.6094 286.5,33.6094 286.5,33.6094 " fill="none" style="stroke:#0000FF;stroke-width:0.5;"/><text fill="#000000" font-family="sans-serif" font-size="14" lengthAdjust="spacing" textLength="62" x="214.5" y="25.5332">Split input</text></g><!--MD5=[eab4eb7d0ef44c19c3b4c8ba4c3c2b5b]
entity root--><g id="elem_root"><path d="M30.5,95 L106.5,95 C111.5,95 111.5,108.8047 111.5,108.8047 C111.5,108.8047 111.5,122.6094 106.5,122.6094 L30.5,122.6094 C25.5,122.6094 25.5,108.8047 25.5,108.8047 C25.5,108.8047 25.5,95 30.5,95 " fill="#00BFFF" style="stroke:#0000FF;stroke-width:0.5;"/><path d="M106.5,95 C101.5,95 101.5,108.8047 101.5,108.8047 C101.5,122.6094 106.5,122.6094 106.5,122.6094 " fill="none" style="stroke:#0000FF;stroke-width:0.5;"/><text fill="#000000" font-family="sans-serif" font-size="14" lengthAdjust="spacing" textLength="66" x="30.5" y="114.5332">Root node</text></g><!--MD5=[573ce76f959f339e2c41bfa712801176]
entity growing--><g id="elem_growing"><path d="M152,95 L195,95 C200,95 200,108.8047 200,108.8047 C200,108.8047 200,122.6094 195,122.6094 L152,122.6094 C147,122.6094 147,108.8047 147,108.8047 C147,108.8047 147,95 152,95 " fill="#00BFFF" style="stroke:#0000FF;stroke-width:0.5;"/><path d="M195,95 C190,95 190,108.8047 190,108.8047 C190,122.6094 195,122.6094 195,122.6094 " fill="none" style="stroke:#0000FF;stroke-width:0.5;"/><text fill="#000000" font-family="sans-serif" font-size="14" lengthAdjust="spacing" textLength="33" x="152" y="114.5332">Grow</text></g><!--MD5=[4d868659fa1e7f7dac5c39ee89a660c5]
entity spreading--><g id="elem_spreading"><path d="M50.5,201 L106.5,201 C111.5,201 111.5,214.8047 111.5,214.8047 C111.5,214.8047 111.5,228.6094 106.5,228.6094 L50.5,228.6094 C45.5,228.6094 45.5,214.8047 45.5,214.8047 C45.5,214.8047 45.5,201 50.5,201 " fill="#00BFFF" style="stroke:#0000FF;stroke-width:0.5;"/><path d="M106.5,201 C101.5,201 101.5,214.8047 101.5,214.8047 C101.5,228.6094 106.5,228.6094 106.5,228.6094 " fill="none" style="stroke:#0000FF;stroke-width:0.5;"/><text fill="#000000" font-family="sans-serif" font-size="14" lengthAdjust="spacing" textLength="46" x="50.5" y="220.5332">Spread</text></g><!--MD5=[a77e05b160874e18a9e67f9cd20f0198]
entity mkdiring--><g id="elem_mkdiring"><path d="M151.5,201 L195.5,201 C200.5,201 200.5,214.8047 200.5,214.8047 C200.5,214.8047 200.5,228.6094 195.5,228.6094 L151.5,228.6094 C146.5,228.6094 146.5,214.8047 146.5,214.8047 C146.5,214.8047 146.5,201 151.5,201 " fill="#00BFFF" style="stroke:#0000FF;stroke-width:0.5;"/><path d="M195.5,201 C190.5,201 190.5,214.8047 190.5,214.8047 C190.5,228.6094 195.5,228.6094 195.5,228.6094 " fill="none" style="stroke:#0000FF;stroke-width:0.5;"/><text fill="#000000" font-family="sans-serif" font-size="14" lengthAdjust="spacing" textLength="34" x="151.5" y="220.5332">Mkdir</text></g><!--MD5=[92f5fbe86901331f4c0af9e1133daa86]
entity err--><g id="elem_err"><path d="M152.5,290 L194.5,290 C199.5,290 199.5,303.8047 199.5,303.8047 C199.5,303.8047 199.5,317.6094 194.5,317.6094 L152.5,317.6094 C147.5,317.6094 147.5,303.8047 147.5,303.8047 C147.5,303.8047 147.5,290 152.5,290 " fill="#00BFFF" style="stroke:#0000FF;stroke-width:0.5;"/><path d="M194.5,290 C189.5,290 189.5,303.8047 189.5,303.8047 C189.5,317.6094 194.5,317.6094 194.5,317.6094 " fill="none" style="stroke:#0000FF;stroke-width:0.5;"/><text fill="#FF0000" font-family="sans-serif" font-size="14" lengthAdjust="spacing" textLength="32" x="152.5" y="309.5332">Error</text></g><!--MD5=[22efa60cf2b4332bf8574b0c93969d71]
entity end--><g id="elem_end"><ellipse cx="243.5" cy="304" fill="#FF69B4" rx="8" ry="8" style="stroke:#181818;stroke-width:0.5;"/><text fill="#000000" font-family="sans-serif" font-size="14" lengthAdjust="spacing" textLength="24" x="231.5" y="335.5332">end</text></g><!--MD5=[c5454c610b70d0e7aa6da0f639c6ab6b]
link start to split--><g id="link_start_split"><path d="M174.8,20 C179.66,20 184.53,20 189.4,20 " fill="none" id="start-to-split" style="stroke:#00BFFF;stroke-width:1.0;"/><polygon fill="none" points="189.4,13,209.4,20,189.4,27,189.4,13" style="stroke:#00BFFF;stroke-width:1.0;"/></g><!--MD5=[6437421fccc94e244b19d4e7d614d15a]
link split to root--><g id="link_split_root"><path d="M223.26,34.02 C194.44,47.8 148.48,69.77 114.13,86.19 " fill="none" id="split-to-root" style="stroke:#00BFFF;stroke-width:1.0;"/><polygon fill="none" points="117,92.58,95.94,94.89,110.96,79.94,117,92.58" style="stroke:#00BFFF;stroke-width:1.0;"/></g><!--MD5=[a00b9192ab24530c164809a4676a92ab]
link root to growing--><g id="link_root_growing"><path d="M111.57,109 C116.63,109 121.69,109 126.75,109 " fill="none" id="root-to-growing" style="stroke:#00BFFF;stroke-width:1.0;"/><polygon fill="none" points="126.89,102,146.89,109,126.89,116,126.89,102" style="stroke:#00BFFF;stroke-width:1.0;"/></g><!--MD5=[e98c590ff3a24a35804605b138b3e799]
link growing to spreading--><g id="link_growing_spreading"><path d="M161.47,123.17 C147.12,138.88 122.74,165.57 104.12,185.96 " fill="none" id="growing-to-spreading" style="stroke:#00BFFF;stroke-width:1.0;"/><polygon fill="none" points="109.09,190.89,90.44,200.94,98.76,181.45,109.09,190.89" style="stroke:#00BFFF;stroke-width:1.0;"/><text fill="#000000" font-family="sans-serif" font-size="13" lengthAdjust="spacing" textLength="19" x="141.5" y="167.4951">OR</text></g><!--MD5=[cc35d5492574f30cf0a481633c88d7da]
link growing to mkdiring--><g id="link_growing_mkdiring"><path d="M173.5,123.17 C173.5,137.55 173.5,161.13 173.5,180.66 " fill="none" id="growing-to-mkdiring" style="stroke:#00BFFF;stroke-width:1.0;"/><polygon fill="none" points="180.5,180.94,173.5,200.94,166.5,180.94,180.5,180.94" style="stroke:#00BFFF;stroke-width:1.0;"/></g><!--MD5=[0fdccdbc19953893a38fe59dc7111842]
link split to err--><g id="link_split_err"><path d="M251.99,34.37 C255.33,67.73 261.88,157.15 245.5,229 C242.14,243.74 240.99,248.23 231.5,260 C222.96,270.6 211.23,279.94 200.55,287.19 " fill="none" id="split-to-err" style="stroke:#00BFFF;stroke-width:1.0;stroke-dasharray:7.0,7.0;"/><polygon fill="#00BFFF" points="196.37,289.96,206.0838,288.3344,200.5412,287.203,201.6726,281.6604,196.37,289.96" style="stroke:#00BFFF;stroke-width:1.0;"/></g><!--MD5=[b63cf2843cd3db3b023c74d3d076cb5a]
link root to err--><g id="link_root_err"><path d="M56.81,123.32 C38.19,146.23 6,194 27.5,229 C52.45,269.62 107.39,288.78 142.31,297.16 " fill="none" id="root-to-err" style="stroke:#00BFFF;stroke-width:1.0;stroke-dasharray:7.0,7.0;"/><polygon fill="#00BFFF" points="147.31,298.32,139.445,292.392,142.439,297.1915,137.6394,300.1855,147.31,298.32" style="stroke:#00BFFF;stroke-width:1.0;"/></g><!--MD5=[9c253facac82cdf396f5b153c4f9eeac]
link growing to err--><g id="link_growing_err"><path d="M184.22,123.3 C200.4,145.03 228.1,189.65 217.5,229 C211.8,250.19 198.16,271.41 187.57,285.66 " fill="none" id="growing-to-err" style="stroke:#00BFFF;stroke-width:1.0;stroke-dasharray:7.0,7.0;"/><polygon fill="#00BFFF" points="184.4,289.85,193.03,285.1041,187.4251,285.8689,186.6602,280.264,184.4,289.85" style="stroke:#00BFFF;stroke-width:1.0;"/></g><!--MD5=[3a72e80fc1e25c1f234ee7df3f67c66b]
link spreading to err--><g id="link_spreading_err"><path d="M92.93,229.21 C109.63,244.5 137.15,269.71 155.3,286.33 " fill="none" id="spreading-to-err" style="stroke:#00BFFF;stroke-width:1.0;stroke-dasharray:7.0,7.0;"/><polygon fill="#00BFFF" points="159.25,289.95,155.309,280.924,155.5607,286.5753,149.9094,286.8269,159.25,289.95" style="stroke:#00BFFF;stroke-width:1.0;"/></g><!--MD5=[0b1732b07b702b10f9c12d385ac2c401]
link mkdiring to err--><g id="link_mkdiring_err"><path d="M173.5,229.21 C173.5,243.99 173.5,268.02 173.5,284.63 " fill="none" id="mkdiring-to-err" style="stroke:#00BFFF;stroke-width:1.0;stroke-dasharray:7.0,7.0;"/><polygon fill="#00BFFF" points="173.5,289.95,177.5,280.95,173.5,284.95,169.5,280.95,173.5,289.95" style="stroke:#00BFFF;stroke-width:1.0;"/></g><!--MD5=[2b18519454eea98071e106e43a365904]
link err to end--><g id="link_err_end"><path d="M199.75,304 C204.52,304 209.28,304 214.05,304 " fill="none" id="err-to-end" style="stroke:#00BFFF;stroke-width:1.0;"/><polygon fill="none" points="214.27,297,234.27,304,214.27,311,214.27,297" style="stroke:#00BFFF;stroke-width:1.0;"/></g><!--MD5=[d0b9b0a70c49607209d740dc3a49e160]
@startuml

skinparam {
  backgroundColor DarkCyan

  InterfaceBackgroundColor HotPink
  ArrowColor DeepSkyBlue
  QueueBorderColor blue
  QueueBackgroundColor DeepSkyBlue
}

interface start
queue "Split input" as split
queue "Root node" as root
queue Grow as growing
queue Spread as spreading 
queue Mkdir as mkdiring
queue Error as err #text:red
interface end

start -|> split
split - -|> root
root -|> growing
growing - -|> spreading: "  OR"
growing - -|> mkdiring

split ..> err
root ..> err
growing ..> err
spreading ..> err
mkdiring ..> err

err -|> end

@enduml

PlantUML version 1.2022.7(Tue Aug 23 02:01:30 JST 2022)
(GPL source distribution)
Java Runtime: OpenJDK Runtime Environment
JVM: OpenJDK 64-Bit Server VM
Default Encoding: MS932
Language: ja
Country: JP
--></g></svg>