<?xml version="1.0" encoding="UTF-8" standalone="no"?>
<!DOCTYPE svg PUBLIC "-//W3C//DTD SVG 1.1//EN"
 "http://www.w3.org/Graphics/SVG/1.1/DTD/svg11.dtd">
<!-- Generated by graphviz version 2.38.0 (20140413.2041)
 -->
<!-- Title: test Pages: 1 -->
<svg width="1043pt" height="534pt"
 viewBox="0.00 0.00 1043.00 534.00" xmlns="http://www.w3.org/2000/svg" xmlns:xlink="http://www.w3.org/1999/xlink">
<g id="graph0" class="graph" transform="scale(1 1) rotate(0) translate(4 530)">
<title>test</title>
<polygon fill="white" stroke="none" points="-4,4 -4,-530 1039,-530 1039,4 -4,4"/>
<!-- livedoor -->
<g id="node1" class="node"><title>livedoor</title>
<g id="a_node1"><a xlink:href="https://blog.livedoor.com/ranking/blog/" xlink:title="livedoor">
<polygon fill="none" stroke="black" points="594.062,-162.712 594.062,-177.623 563.535,-188.168 520.364,-188.168 489.837,-177.623 489.837,-162.712 520.364,-152.168 563.535,-152.168 594.062,-162.712"/>
<polygon fill="none" stroke="black" points="598.067,-159.862 598.067,-180.473 564.208,-192.168 519.691,-192.168 485.833,-180.473 485.833,-159.862 519.691,-148.168 564.208,-148.168 598.067,-159.862"/>
<text text-anchor="middle" x="541.95" y="-166.468" font-family="Times,serif" font-size="14.00">livedoor</text>
</a>
</g>
</g>
<!-- 痛いニュース(ﾉ∀`... -->
<g id="node2" class="node"><title>痛いニュース(ﾉ∀`...</title>
<g id="a_node2"><a xlink:href="http://blog.livedoor.jp/dqnplus/" xlink:title="痛いニュース(ﾉ∀`)">
<polygon fill="none" stroke="black" points="571.279,-236.656 431.279,-236.656 431.279,-200.656 571.279,-200.656 571.279,-236.656"/>
<text text-anchor="middle" x="501.279" y="-214.956" font-family="Times,serif" font-size="14.00">痛いニュース(ﾉ∀`...</text>
</a>
</g>
</g>
<!-- livedoor&#45;&gt;痛いニュース(ﾉ∀`... -->
<g id="edge1" class="edge"><title>livedoor&#45;&gt;痛いニュース(ﾉ∀`...</title>
<path fill="none" stroke="black" d="M523.281,-192.425C523.21,-192.509 523.14,-192.593 523.069,-192.677"/>
<polygon fill="black" stroke="black" points="520.289,-190.546 516.544,-200.457 525.652,-195.044 520.289,-190.546"/>
</g>
<!-- オレ的ゲーム速報＠刃 -->
<g id="node6" class="node"><title>オレ的ゲーム速報＠刃</title>
<g id="a_node6"><a xlink:href="http://jin115.com/" xlink:title="オレ的ゲーム速報＠刃">
<polygon fill="none" stroke="black" points="417.506,-98.5137 273.506,-98.5137 273.506,-62.5137 417.506,-62.5137 417.506,-98.5137"/>
<text text-anchor="middle" x="345.506" y="-76.8137" font-family="Times,serif" font-size="14.00">オレ的ゲーム速報＠刃</text>
</a>
</g>
</g>
<!-- livedoor&#45;&gt;オレ的ゲーム速報＠刃 -->
<g id="edge5" class="edge"><title>livedoor&#45;&gt;オレ的ゲーム速報＠刃</title>
<path fill="none" stroke="black" d="M504.538,-153.093C473.299,-138.837 428.531,-118.405 394.448,-102.85"/>
<polygon fill="black" stroke="black" points="395.689,-99.5691 385.138,-98.6013 392.782,-105.937 395.689,-99.5691"/>
</g>
<!-- 暇つぶしニュース -->
<g id="node10" class="node"><title>暇つぶしニュース</title>
<g id="a_node10"><a xlink:href="http://blog.livedoor.jp/rbkyn844/" xlink:title="暇つぶしニュース">
<polygon fill="none" stroke="black" points="771.353,-302.906 652.353,-302.906 652.353,-266.906 771.353,-266.906 771.353,-302.906"/>
<text text-anchor="middle" x="711.853" y="-281.206" font-family="Times,serif" font-size="14.00">暇つぶしニュース</text>
</a>
</g>
</g>
<!-- livedoor&#45;&gt;暇つぶしニュース -->
<g id="edge9" class="edge"><title>livedoor&#45;&gt;暇つぶしニュース</title>
<path fill="none" stroke="black" d="M571.157,-189.892C600.384,-209.629 645.37,-240.009 676.574,-261.082"/>
<polygon fill="black" stroke="black" points="674.739,-264.066 684.985,-266.762 678.657,-258.265 674.739,-264.066"/>
</g>
<!-- 台湾、トイレットペー... -->
<g id="node3" class="node"><title>台湾、トイレットペー...</title>
<g id="a_node3"><a xlink:href="http://blog.livedoor.jp/dqnplus/archives/1998412.html" xlink:title="台湾、トイレットペーパー品薄につながるデマを流した女３人を逮捕">
<ellipse fill="none" stroke="black" cx="644.397" cy="-26.4094" rx="102.882" ry="18"/>
<text text-anchor="middle" x="644.397" y="-22.7094" font-family="Times,serif" font-size="14.00">台湾、トイレットペー...</text>
</a>
</g>
</g>
<!-- 痛いニュース(ﾉ∀`...&#45;&gt;台湾、トイレットペー... -->
<g id="edge2" class="edge"><title>痛いニュース(ﾉ∀`...&#45;&gt;台湾、トイレットペー...</title>
<path fill="none" stroke="black" d="M514.743,-200.57C540.167,-166.419 595.33,-92.32 624.842,-52.6783"/>
<polygon fill="black" stroke="black" points="627.909,-54.4188 631.073,-44.3074 622.294,-50.2387 627.909,-54.4188"/>
</g>
<!-- ミヤネ屋、学校休校を... -->
<g id="node4" class="node"><title>ミヤネ屋、学校休校を...</title>
<g id="a_node4"><a xlink:href="http://blog.livedoor.jp/dqnplus/archives/1998406.html" xlink:title="ミヤネ屋、学校休校をトンデモ批判　｢給食が唯一の栄養｣｢ディズニー休園になったらどこ行けば｣">
<ellipse fill="none" stroke="black" cx="519.309" cy="-263.796" rx="102.882" ry="18"/>
<text text-anchor="middle" x="519.309" y="-260.096" font-family="Times,serif" font-size="14.00">ミヤネ屋、学校休校を...</text>
</a>
</g>
</g>
<!-- 痛いニュース(ﾉ∀`...&#45;&gt;ミヤネ屋、学校休校を... -->
<g id="edge3" class="edge"><title>痛いニュース(ﾉ∀`...&#45;&gt;ミヤネ屋、学校休校を...</title>
<path fill="none" stroke="black" d="M508.509,-236.756C508.545,-236.848 508.582,-236.94 508.619,-237.032"/>
<polygon fill="black" stroke="black" points="505.118,-237.704 512.078,-245.692 511.619,-235.107 505.118,-237.704"/>
</g>
<!-- 女性の気を引こうとロ... -->
<g id="node5" class="node"><title>女性の気を引こうとロ...</title>
<g id="a_node5"><a xlink:href="http://blog.livedoor.jp/dqnplus/archives/1998364.html" xlink:title="女性の気を引こうとロシアンルーレット、1発目で死亡">
<ellipse fill="none" stroke="black" cx="358.798" cy="-406.213" rx="102.882" ry="18"/>
<text text-anchor="middle" x="358.798" y="-402.513" font-family="Times,serif" font-size="14.00">女性の気を引こうとロ...</text>
</a>
</g>
</g>
<!-- 痛いニュース(ﾉ∀`...&#45;&gt;女性の気を引こうとロ... -->
<g id="edge4" class="edge"><title>痛いニュース(ﾉ∀`...&#45;&gt;女性の気を引こうとロ...</title>
<path fill="none" stroke="black" d="M487.358,-236.982C461.904,-270.488 407.791,-341.721 378.544,-380.221"/>
<polygon fill="black" stroke="black" points="375.62,-378.284 372.358,-388.364 381.194,-382.518 375.62,-378.284"/>
</g>
<!-- タバコ姿が似合い過ぎ... -->
<g id="node7" class="node"><title>タバコ姿が似合い過ぎ...</title>
<g id="a_node7"><a xlink:href="http://jin115.com/archives/52284044.html" xlink:title="タバコ姿が似合い過ぎるアニメキャラランキング！3位「土方十四郎」 2位「サンジ」 1位は・・・">
<ellipse fill="none" stroke="black" cx="102.677" cy="-74.7806" rx="102.882" ry="18"/>
<text text-anchor="middle" x="102.677" y="-71.0806" font-family="Times,serif" font-size="14.00">タバコ姿が似合い過ぎ...</text>
</a>
</g>
</g>
<!-- オレ的ゲーム速報＠刃&#45;&gt;タバコ姿が似合い過ぎ... -->
<g id="edge6" class="edge"><title>オレ的ゲーム速報＠刃&#45;&gt;タバコ姿が似合い過ぎ...</title>
<path fill="none" stroke="black" d="M273.307,-78.8091C254.889,-78.3743 234.652,-77.8965 214.752,-77.4267"/>
<polygon fill="black" stroke="black" points="214.784,-73.9265 204.705,-77.1894 214.619,-80.9246 214.784,-73.9265"/>
</g>
<!-- 【炎上】黒人女性のヘ... -->
<g id="node8" class="node"><title>【炎上】黒人女性のヘ...</title>
<g id="a_node8"><a xlink:href="http://jin115.com/archives/52284063.html" xlink:title="【炎上】黒人女性のヘアトリートメントのポスターに“差別的”だと批判殺到！→公式「至急回収致します」と謝罪へ">
<ellipse fill="none" stroke="black" cx="397.064" cy="-34.9785" rx="102.882" ry="18"/>
<text text-anchor="middle" x="397.064" y="-31.2785" font-family="Times,serif" font-size="14.00">【炎上】黒人女性のヘ...</text>
</a>
</g>
</g>
<!-- オレ的ゲーム速報＠刃&#45;&gt;【炎上】黒人女性のヘ... -->
<g id="edge7" class="edge"><title>オレ的ゲーム速報＠刃&#45;&gt;【炎上】黒人女性のヘ...</title>
<path fill="none" stroke="black" d="M366.18,-62.2552C367.188,-61.3644 368.208,-60.4641 369.231,-59.5599"/>
<polygon fill="black" stroke="black" points="371.878,-61.8919 377.057,-52.6488 367.244,-56.6451 371.878,-61.8919"/>
</g>
<!-- 【知ってた？】爪楊枝... -->
<g id="node9" class="node"><title>【知ってた？】爪楊枝...</title>
<g id="a_node9"><a xlink:href="http://jin115.com/archives/52284059.html" xlink:title="【知ってた？】爪楊枝や竹串の容器はなぜフニャフニャなのか　→ その衝撃の理由がこちら！">
<ellipse fill="none" stroke="black" cx="179.869" cy="-17.9315" rx="102.882" ry="18"/>
<text text-anchor="middle" x="179.869" y="-14.2315" font-family="Times,serif" font-size="14.00">【知ってた？】爪楊枝...</text>
</a>
</g>
</g>
<!-- オレ的ゲーム速報＠刃&#45;&gt;【知ってた？】爪楊枝... -->
<g id="edge8" class="edge"><title>オレ的ゲーム速報＠刃&#45;&gt;【知ってた？】爪楊枝...</title>
<path fill="none" stroke="black" d="M297.597,-62.4123C277.214,-54.7113 253.379,-45.7057 232.506,-37.8195"/>
<polygon fill="black" stroke="black" points="233.74,-34.5439 223.148,-34.2836 231.265,-41.0921 233.74,-34.5439"/>
</g>
<!-- 【衝撃】「酸素を必要... -->
<g id="node11" class="node"><title>【衝撃】「酸素を必要...</title>
<g id="a_node11"><a xlink:href="http://blog.livedoor.jp/rbkyn844/archives/9573980.html" xlink:title="【衝撃】「酸素を必要としない動物」が世界で初めて発見される">
<ellipse fill="none" stroke="black" cx="893.908" cy="-418.29" rx="102.882" ry="18"/>
<text text-anchor="middle" x="893.908" y="-414.59" font-family="Times,serif" font-size="14.00">【衝撃】「酸素を必要...</text>
</a>
</g>
</g>
<!-- 暇つぶしニュース&#45;&gt;【衝撃】「酸素を必要... -->
<g id="edge10" class="edge"><title>暇つぶしニュース&#45;&gt;【衝撃】「酸素を必要...</title>
<path fill="none" stroke="black" d="M736.786,-303.173C769.241,-326.952 826.02,-368.551 861.704,-394.695"/>
<polygon fill="black" stroke="black" points="859.72,-397.581 869.856,-400.668 863.857,-391.934 859.72,-397.581"/>
</g>
<!-- 新型コロナのワクチン... -->
<g id="node12" class="node"><title>新型コロナのワクチン...</title>
<g id="a_node12"><a xlink:href="http://blog.livedoor.jp/rbkyn844/archives/9574072.html" xlink:title="新型コロナのワクチンが出荷され、薬物試験が開始へ">
<ellipse fill="none" stroke="black" cx="744.244" cy="-507.502" rx="102.882" ry="18"/>
<text text-anchor="middle" x="744.244" y="-503.802" font-family="Times,serif" font-size="14.00">新型コロナのワクチン...</text>
</a>
</g>
</g>
<!-- 暇つぶしニュース&#45;&gt;新型コロナのワクチン... -->
<g id="edge11" class="edge"><title>暇つぶしニュース&#45;&gt;新型コロナのワクチン...</title>
<path fill="none" stroke="black" d="M714.504,-303.122C720.153,-341.943 733.41,-433.05 740.152,-479.381"/>
<polygon fill="black" stroke="black" points="736.699,-479.955 741.602,-489.346 743.626,-478.947 736.699,-479.955"/>
</g>
<!-- 【悲報】ドイツ、ひっ... -->
<g id="node13" class="node"><title>【悲報】ドイツ、ひっ...</title>
<g id="a_node13"><a xlink:href="http://blog.livedoor.jp/rbkyn844/archives/9574006.html" xlink:title="【悲報】ドイツ、ひっそりとヤバい">
<ellipse fill="none" stroke="black" cx="932.63" cy="-244.947" rx="102.882" ry="18"/>
<text text-anchor="middle" x="932.63" y="-241.247" font-family="Times,serif" font-size="14.00">【悲報】ドイツ、ひっ...</text>
</a>
</g>
</g>
<!-- 暇つぶしニュース&#45;&gt;【悲報】ドイツ、ひっ... -->
<g id="edge12" class="edge"><title>暇つぶしニュース&#45;&gt;【悲報】ドイツ、ひっ...</title>
<path fill="none" stroke="black" d="M771.599,-274.093C796.058,-269.666 824.752,-264.472 851.09,-259.705"/>
<polygon fill="black" stroke="black" points="851.838,-263.126 861.055,-257.901 850.591,-256.238 851.838,-263.126"/>
</g>
</g>
</svg>
