<?xml version="1.0" encoding="UTF-8" standalone="no"?>
<!DOCTYPE svg PUBLIC "-//W3C//DTD SVG 1.1//EN"
 "http://www.w3.org/Graphics/SVG/1.1/DTD/svg11.dtd">
<!-- Generated by graphviz version 2.38.0 (20140413.2041)
 -->
<!-- Title: sample Pages: 1 -->
<svg width="166pt" height="144pt"
 viewBox="0.00 0.00 166.00 144.00" xmlns="http://www.w3.org/2000/svg" xmlns:xlink="http://www.w3.org/1999/xlink">
<g id="graph0" class="graph" transform="scale(1 1) rotate(0) translate(4 140)">
<title>sample</title>
<polygon fill="white" stroke="none" points="-4,4 -4,-140 162,-140 162,4 -4,4"/>
<!-- A -->
<g id="node1" class="node"><title>A</title>
<ellipse fill="none" stroke="black" cx="27.2416" cy="-64.6786" rx="27" ry="18"/>
<text text-anchor="middle" x="27.2416" y="-60.9786" font-family="Times,serif" font-size="14.00">A</text>
</g>
<!-- B -->
<g id="node2" class="node"><title>B</title>
<ellipse fill="none" stroke="black" cx="130.614" cy="-71.1443" rx="27" ry="18"/>
<text text-anchor="middle" x="130.614" y="-67.4443" font-family="Times,serif" font-size="14.00">B</text>
</g>
<!-- A&#45;&#45;B -->
<g id="edge1" class="edge"><title>A&#45;&#45;B</title>
<path fill="none" stroke="black" d="M54.1317,-66.3605C69.3264,-67.3109 88.2681,-68.4957 103.5,-69.4484"/>
</g>
<!-- C -->
<g id="node3" class="node"><title>C</title>
<ellipse fill="none" stroke="black" cx="93.2285" cy="-18.1649" rx="27" ry="18"/>
<text text-anchor="middle" x="93.2285" y="-14.4649" font-family="Times,serif" font-size="14.00">C</text>
</g>
<!-- B&#45;&#45;C -->
<g id="edge2" class="edge"><title>B&#45;&#45;C</title>
<path fill="none" stroke="black" d="M118.99,-54.6717C114.532,-48.3536 109.444,-41.1439 104.974,-34.8098"/>
</g>
<!-- D -->
<g id="node4" class="node"><title>D</title>
<ellipse fill="none" stroke="black" cx="64.6271" cy="-117.658" rx="27" ry="18"/>
<text text-anchor="middle" x="64.6271" y="-113.958" font-family="Times,serif" font-size="14.00">D</text>
</g>
<!-- C&#45;&#45;D -->
<g id="edge3" class="edge"><title>C&#45;&#45;D</title>
<path fill="none" stroke="black" d="M88.1152,-35.9523C82.9413,-53.9502 74.9851,-81.6266 69.7926,-99.6892"/>
</g>
<!-- D&#45;&#45;A -->
<g id="edge4" class="edge"><title>D&#45;&#45;A</title>
<path fill="none" stroke="black" d="M53.003,-101.185C48.5446,-94.8673 43.457,-87.6576 38.9873,-81.3235"/>
</g>
</g>
</svg>
